<?xml version="1.0" encoding="UTF-8" standalone="no"?><svg xmlns="http://www.w3.org/2000/svg" xmlns:xlink="http://www.w3.org/1999/xlink" clip-rule="evenodd" stroke-miterlimit="4.00" viewBox="0 0 1024 768"><desc>SVG generated by Keynote</desc><defs></defs><g transform="matrix(1.00, 0.00, -0.00, -1.00, 0.0, 768.0)"><path d="M 0.0 768.0 L 1024.0 768.0 L 1024.0 0.0 L 0.0 0.0 Z M 0.0 768.0 " fill="#FEFFFF"></path><path d="M 736.4 716.7 L 972.4 716.7 L 972.4 51.6 L 736.4 51.6 Z M 736.4 716.7 " fill="#94DBFE"></path><path d="M 51.2 716.7 L 717.5 716.7 L 717.5 51.6 L 51.2 51.6 Z M 51.2 716.7 " fill="#58AFDC"></path><text xml:space="preserve" font-family="HelveticaNeue-Light" font-size="63.2" fill="#FFFFFF" transform="matrix(1.00, 0.00, -0.00, -1.00, 104.0, 400.0)">A</text><text xml:space="preserve" font-family="HelveticaNeue-Light" font-size="63.2" fill="#FFFFFF" transform="matrix(1.00, 0.00, -0.00, -1.00, 143.8, 400.0)">n</text><text xml:space="preserve" font-family="HelveticaNeue-Light" font-size="63.2" fill="#FFFFFF" transform="matrix(1.00, 0.00, -0.00, -1.00, 177.8, 400.0)"> </text><text xml:space="preserve" font-family="HelveticaNeue-Light" font-size="63.2" fill="#FFFFFF" transform="matrix(1.00, 0.00, -0.00, -1.00, 195.4, 400.0)">O</text><text xml:space="preserve" font-family="HelveticaNeue-Light" font-size="63.2" fill="#FFFFFF" transform="matrix(1.00, 0.00, -0.00, -1.00, 242.2, 400.0)">n</text><text xml:space="preserve" font-family="HelveticaNeue-Light" font-size="63.2" fill="#FFFFFF" transform="matrix(1.00, 0.00, -0.00, -1.00, 276.2, 400.0)">l</text><text xml:space="preserve" font-family="HelveticaNeue-Light" font-size="63.2" fill="#FFFFFF" transform="matrix(1.00, 0.00, -0.00, -1.00, 287.9, 400.0)">i</text><text xml:space="preserve" font-family="HelveticaNeue-Light" font-size="63.2" fill="#FFFFFF" transform="matrix(1.00, 0.00, -0.00, -1.00, 299.6, 400.0)">n</text><text xml:space="preserve" font-family="HelveticaNeue-Light" font-size="63.2" fill="#FFFFFF" transform="matrix(1.00, 0.00, -0.00, -1.00, 333.6, 400.0)">e</text><text xml:space="preserve" font-family="HelveticaNeue-Light" font-size="63.2" fill="#FFFFFF" transform="matrix(1.00, 0.00, -0.00, -1.00, 366.4, 400.0)"> </text><text xml:space="preserve" font-family="HelveticaNeue-Light" font-size="63.2" fill="#FFFFFF" transform="matrix(1.00, 0.00, -0.00, -1.00, 384.0, 400.0)">P</text><text xml:space="preserve" font-family="HelveticaNeue-Light" font-size="63.2" fill="#FFFFFF" transform="matrix(1.00, 0.00, -0.00, -1.00, 423.8, 400.0)">e</text><text xml:space="preserve" font-family="HelveticaNeue-Light" font-size="63.2" fill="#FFFFFF" transform="matrix(1.00, 0.00, -0.00, -1.00, 456.6, 400.0)">r</text><text xml:space="preserve" font-family="HelveticaNeue-Light" font-size="63.2" fill="#FFFFFF" transform="matrix(1.00, 0.00, -0.00, -1.00, 476.5, 400.0)">m</text><text xml:space="preserve" font-family="HelveticaNeue-Light" font-size="63.2" fill="#FFFFFF" transform="matrix(1.00, 0.00, -0.00, -1.00, 529.2, 400.0)">i</text><text xml:space="preserve" font-family="HelveticaNeue-Light" font-size="63.2" fill="#FFFFFF" transform="matrix(1.00, 0.00, -0.00, -1.00, 540.9, 400.0)">t</text><text xml:space="preserve" font-family="HelveticaNeue-Light" font-size="63.2" fill="#FFFFFF" transform="matrix(1.00, 0.00, -0.00, -1.00, 559.6, 400.0)"> </text><text xml:space="preserve" font-family="HelveticaNeue-Light" font-size="63.2" fill="#FFFFFF" transform="matrix(1.00, 0.00, -0.00, -1.00, 104.0, 331.0)">a</text><text xml:space="preserve" font-family="HelveticaNeue-Light" font-size="63.2" fill="#FFFFFF" transform="matrix(1.00, 0.00, -0.00, -1.00, 136.8, 331.0)">n</text><text xml:space="preserve" font-family="HelveticaNeue-Light" font-size="63.2" fill="#FFFFFF" transform="matrix(1.00, 0.00, -0.00, -1.00, 170.8, 331.0)">d</text><text xml:space="preserve" font-family="HelveticaNeue-Light" font-size="63.2" fill="#FFFFFF" transform="matrix(1.00, 0.00, -0.00, -1.00, 207.1, 331.0)"> </text><text xml:space="preserve" font-family="HelveticaNeue-Light" font-size="63.2" fill="#FFFFFF" transform="matrix(1.00, 0.00, -0.00, -1.00, 224.7, 331.0)">M</text><text xml:space="preserve" font-family="HelveticaNeue-Light" font-size="63.2" fill="#FFFFFF" transform="matrix(1.00, 0.00, -0.00, -1.00, 276.6, 331.0)">o</text><text xml:space="preserve" font-family="HelveticaNeue-Light" font-size="63.2" fill="#FFFFFF" transform="matrix(1.00, 0.00, -0.00, -1.00, 311.7, 331.0)">n</text><text xml:space="preserve" font-family="HelveticaNeue-Light" font-size="63.2" fill="#FFFFFF" transform="matrix(1.00, 0.00, -0.00, -1.00, 345.7, 331.0)">i</text><text xml:space="preserve" font-family="HelveticaNeue-Light" font-size="63.2" fill="#FFFFFF" transform="matrix(1.00, 0.00, -0.00, -1.00, 357.4, 331.0)">t</text><text xml:space="preserve" font-family="HelveticaNeue-Light" font-size="63.2" fill="#FFFFFF" transform="matrix(1.00, 0.00, -0.00, -1.00, 376.1, 331.0)">o</text><text xml:space="preserve" font-family="HelveticaNeue-Light" font-size="63.2" fill="#FFFFFF" transform="matrix(1.00, 0.00, -0.00, -1.00, 411.3, 331.0)">r</text><text xml:space="preserve" font-family="HelveticaNeue-Light" font-size="63.2" fill="#FFFFFF" transform="matrix(1.00, 0.00, -0.00, -1.00, 431.2, 331.0)">i</text><text xml:space="preserve" font-family="HelveticaNeue-Light" font-size="63.2" fill="#FFFFFF" transform="matrix(1.00, 0.00, -0.00, -1.00, 442.9, 331.0)">n</text><text xml:space="preserve" font-family="HelveticaNeue-Light" font-size="63.2" fill="#FFFFFF" transform="matrix(1.00, 0.00, -0.00, -1.00, 476.9, 331.0)">g</text><text xml:space="preserve" font-family="HelveticaNeue-Light" font-size="63.2" fill="#FFFFFF" transform="matrix(1.00, 0.00, -0.00, -1.00, 512.0, 331.0)"> </text><text xml:space="preserve" font-family="HelveticaNeue-Light" font-size="63.2" fill="#FFFFFF" transform="matrix(1.00, 0.00, -0.00, -1.00, 104.0, 263.0)">S</text><text xml:space="preserve" font-family="HelveticaNeue-Light" font-size="63.2" fill="#FFFFFF" transform="matrix(1.00, 0.00, -0.00, -1.00, 143.8, 263.0)">y</text><text xml:space="preserve" font-family="HelveticaNeue-Light" font-size="63.2" fill="#FFFFFF" transform="matrix(1.00, 0.00, -0.00, -1.00, 173.1, 263.0)">s</text><text xml:space="preserve" font-family="HelveticaNeue-Light" font-size="63.2" fill="#FFFFFF" transform="matrix(1.00, 0.00, -0.00, -1.00, 203.5, 263.0)">t</text><text xml:space="preserve" font-family="HelveticaNeue-Light" font-size="63.2" fill="#FFFFFF" transform="matrix(1.00, 0.00, -0.00, -1.00, 222.3, 263.0)">e</text><text xml:space="preserve" font-family="HelveticaNeue-Light" font-size="63.2" fill="#FFFFFF" transform="matrix(1.00, 0.00, -0.00, -1.00, 255.1, 263.0)">m</text><text xml:space="preserve" font-family="HelveticaNeue-Light" font-size="63.2" fill="#FFFFFF" transform="matrix(1.00, 0.00, -0.00, -1.00, 307.8, 263.0)">:</text><text xml:space="preserve" font-family="HelveticaNeue-Light" font-size="63.2" fill="#FFFFFF" transform="matrix(1.00, 0.00, -0.00, -1.00, 325.3, 263.0)"> </text><text xml:space="preserve" font-family="HelveticaNeue-Light" font-size="63.2" fill="#FFFFFF" transform="matrix(1.00, 0.00, -0.00, -1.00, 342.9, 263.0)">S</text><text xml:space="preserve" font-family="HelveticaNeue-Light" font-size="63.2" fill="#FFFFFF" transform="matrix(1.00, 0.00, -0.00, -1.00, 382.8, 263.0)">c</text><text xml:space="preserve" font-family="HelveticaNeue-Light" font-size="63.2" fill="#FFFFFF" transform="matrix(1.00, 0.00, -0.00, -1.00, 415.6, 263.0)">h</text><text xml:space="preserve" font-family="HelveticaNeue-Light" font-size="63.2" fill="#FFFFFF" transform="matrix(1.00, 0.00, -0.00, -1.00, 449.5, 263.0)">e</text><text xml:space="preserve" font-family="HelveticaNeue-Light" font-size="63.2" fill="#FFFFFF" transform="matrix(1.00, 0.00, -0.00, -1.00, 482.4, 263.0)">m</text><text xml:space="preserve" font-family="HelveticaNeue-Light" font-size="63.2" fill="#FFFFFF" transform="matrix(1.00, 0.00, -0.00, -1.00, 535.0, 263.0)">a</text><text xml:space="preserve" font-family="HelveticaNeue-Light" font-size="63.2" fill="#FFFFFF" transform="matrix(1.00, 0.00, -0.00, -1.00, 567.9, 263.0)">t</text><text xml:space="preserve" font-family="HelveticaNeue-Light" font-size="63.2" fill="#FFFFFF" transform="matrix(1.00, 0.00, -0.00, -1.00, 586.6, 263.0)">i</text><text xml:space="preserve" font-family="HelveticaNeue-Light" font-size="63.2" fill="#FFFFFF" transform="matrix(1.00, 0.00, -0.00, -1.00, 598.3, 263.0)">c</text><text xml:space="preserve" font-family="HelveticaNeue-Light" font-size="63.2" fill="#FFFFFF" transform="matrix(1.00, 0.00, -0.00, -1.00, 631.1, 263.0)">s</text><text xml:space="preserve" font-family="HelveticaNeue-Light" font-size="22.0" fill="#FFFFFF" transform="matrix(1.00, 0.00, -0.00, -1.00, 104.0, 223.0)">P</text><text xml:space="preserve" font-family="HelveticaNeue-Light" font-size="22.0" fill="#FFFFFF" transform="matrix(1.00, 0.00, -0.00, -1.00, 117.9, 223.0)">a</text><text xml:space="preserve" font-family="HelveticaNeue-Light" font-size="22.0" fill="#FFFFFF" transform="matrix(1.00, 0.00, -0.00, -1.00, 129.3, 223.0)">u</text><text xml:space="preserve" font-family="HelveticaNeue-Light" font-size="22.0" fill="#FFFFFF" transform="matrix(1.00, 0.00, -0.00, -1.00, 141.1, 223.0)">l</text><text xml:space="preserve" font-family="HelveticaNeue-Light" font-size="22.0" fill="#FFFFFF" transform="matrix(1.00, 0.00, -0.00, -1.00, 145.2, 223.0)"> </text><text xml:space="preserve" font-family="HelveticaNeue-Light" font-size="22.0" fill="#FFFFFF" transform="matrix(1.00, 0.00, -0.00, -1.00, 151.3, 223.0)">O</text><text xml:space="preserve" font-family="HelveticaNeue-Light" font-size="22.0" fill="#FFFFFF" transform="matrix(1.00, 0.00, -0.00, -1.00, 167.6, 223.0)">l</text><text xml:space="preserve" font-family="HelveticaNeue-Light" font-size="22.0" fill="#FFFFFF" transform="matrix(1.00, 0.00, -0.00, -1.00, 171.6, 223.0)">d</text><text xml:space="preserve" font-family="HelveticaNeue-Light" font-size="22.0" fill="#FFFFFF" transform="matrix(1.00, 0.00, -0.00, -1.00, 184.3, 223.0)">h</text><text xml:space="preserve" font-family="HelveticaNeue-Light" font-size="22.0" fill="#FFFFFF" transform="matrix(1.00, 0.00, -0.00, -1.00, 196.1, 223.0)">a</text><text xml:space="preserve" font-family="HelveticaNeue-Light" font-size="22.0" fill="#FFFFFF" transform="matrix(1.00, 0.00, -0.00, -1.00, 207.5, 223.0)">m</text><text xml:space="preserve" font-family="HelveticaNeue-Light" font-size="22.0" fill="#FFFFFF" transform="matrix(1.00, 0.00, -0.00, -1.00, 225.8, 223.0)">,</text><text xml:space="preserve" font-family="HelveticaNeue-Light" font-size="22.0" fill="#FFFFFF" transform="matrix(1.00, 0.00, -0.00, -1.00, 232.0, 223.0)"> </text><text xml:space="preserve" font-family="HelveticaNeue-Light" font-size="22.0" fill="#FFFFFF" transform="matrix(1.00, 0.00, -0.00, -1.00, 238.1, 223.0)">O</text><text xml:space="preserve" font-family="HelveticaNeue-Light" font-size="22.0" fill="#FFFFFF" transform="matrix(1.00, 0.00, -0.00, -1.00, 254.4, 223.0)">n</text><text xml:space="preserve" font-family="HelveticaNeue-Light" font-size="22.0" fill="#FFFFFF" transform="matrix(1.00, 0.00, -0.00, -1.00, 266.2, 223.0)">e</text><text xml:space="preserve" font-family="HelveticaNeue-Light" font-size="22.0" fill="#FFFFFF" transform="matrix(1.00, 0.00, -0.00, -1.00, 277.6, 223.0)"> </text><text xml:space="preserve" font-family="HelveticaNeue-Light" font-size="22.0" fill="#FFFFFF" transform="matrix(1.00, 0.00, -0.00, -1.00, 283.7, 223.0)">W</text><text xml:space="preserve" font-family="HelveticaNeue-Light" font-size="22.0" fill="#FFFFFF" transform="matrix(1.00, 0.00, -0.00, -1.00, 303.3, 223.0)">o</text><text xml:space="preserve" font-family="HelveticaNeue-Light" font-size="22.0" fill="#FFFFFF" transform="matrix(1.00, 0.00, -0.00, -1.00, 315.5, 223.0)">r</text><text xml:space="preserve" font-family="HelveticaNeue-Light" font-size="22.0" fill="#FFFFFF" transform="matrix(1.00, 0.00, -0.00, -1.00, 322.4, 223.0)">l</text><text xml:space="preserve" font-family="HelveticaNeue-Light" font-size="22.0" fill="#FFFFFF" transform="matrix(1.00, 0.00, -0.00, -1.00, 326.5, 223.0)">d</text><text xml:space="preserve" font-family="HelveticaNeue-Light" font-size="22.0" fill="#FFFFFF" transform="matrix(1.00, 0.00, -0.00, -1.00, 339.1, 223.0)"> </text><text xml:space="preserve" font-family="HelveticaNeue-Light" font-size="22.0" fill="#FFFFFF" transform="matrix(1.00, 0.00, -0.00, -1.00, 345.3, 223.0)">A</text><text xml:space="preserve" font-family="HelveticaNeue-Light" font-size="22.0" fill="#FFFFFF" transform="matrix(1.00, 0.00, -0.00, -1.00, 359.1, 223.0)">n</text><text xml:space="preserve" font-family="HelveticaNeue-Light" font-size="22.0" fill="#FFFFFF" transform="matrix(1.00, 0.00, -0.00, -1.00, 370.9, 223.0)">a</text><text xml:space="preserve" font-family="HelveticaNeue-Light" font-size="22.0" fill="#FFFFFF" transform="matrix(1.00, 0.00, -0.00, -1.00, 382.3, 223.0)">l</text><text xml:space="preserve" font-family="HelveticaNeue-Light" font-size="22.0" fill="#FFFFFF" transform="matrix(1.00, 0.00, -0.00, -1.00, 386.4, 223.0)">y</text><text xml:space="preserve" font-family="HelveticaNeue-Light" font-size="22.0" fill="#FFFFFF" transform="matrix(1.00, 0.00, -0.00, -1.00, 396.6, 223.0)">t</text><text xml:space="preserve" font-family="HelveticaNeue-Light" font-size="22.0" fill="#FFFFFF" transform="matrix(1.00, 0.00, -0.00, -1.00, 403.1, 223.0)">i</text><text xml:space="preserve" font-family="HelveticaNeue-Light" font-size="22.0" fill="#FFFFFF" transform="matrix(1.00, 0.00, -0.00, -1.00, 407.2, 223.0)">c</text><text xml:space="preserve" font-family="HelveticaNeue-Light" font-size="22.0" fill="#FFFFFF" transform="matrix(1.00, 0.00, -0.00, -1.00, 418.6, 223.0)">s</text><text xml:space="preserve" font-family="HelveticaNeue-Light" font-size="22.0" fill="#FFFFFF" transform="matrix(1.00, 0.00, -0.00, -1.00, 429.2, 223.0)"> </text><text xml:space="preserve" font-family="HelveticaNeue-Light" font-size="22.0" fill="#FFFFFF" transform="matrix(1.00, 0.00, -0.00, -1.00, 435.3, 223.0)">&amp;</text><text xml:space="preserve" font-family="HelveticaNeue-Light" font-size="22.0" fill="#FFFFFF" transform="matrix(1.00, 0.00, -0.00, -1.00, 448.7, 223.0)"> </text><text xml:space="preserve" font-family="HelveticaNeue-Light" font-size="22.0" fill="#FFFFFF" transform="matrix(1.00, 0.00, -0.00, -1.00, 454.9, 223.0)">U</text><text xml:space="preserve" font-family="HelveticaNeue-Light" font-size="22.0" fill="#FFFFFF" transform="matrix(1.00, 0.00, -0.00, -1.00, 469.9, 223.0)">n</text><text xml:space="preserve" font-family="HelveticaNeue-Light" font-size="22.0" fill="#FFFFFF" transform="matrix(1.00, 0.00, -0.00, -1.00, 481.7, 223.0)">i</text><text xml:space="preserve" font-family="HelveticaNeue-Light" font-size="22.0" fill="#FFFFFF" transform="matrix(1.00, 0.00, -0.00, -1.00, 485.8, 223.0)">t</text><text xml:space="preserve" font-family="HelveticaNeue-Light" font-size="22.0" fill="#FFFFFF" transform="matrix(1.00, 0.00, -0.00, -1.00, 492.3, 223.0)">e</text><text xml:space="preserve" font-family="HelveticaNeue-Light" font-size="22.0" fill="#FFFFFF" transform="matrix(1.00, 0.00, -0.00, -1.00, 503.7, 223.0)">d</text><text xml:space="preserve" font-family="HelveticaNeue-Light" font-size="22.0" fill="#FFFFFF" transform="matrix(1.00, 0.00, -0.00, -1.00, 516.4, 223.0)"> </text><text xml:space="preserve" font-family="HelveticaNeue-Light" font-size="22.0" fill="#FFFFFF" transform="matrix(1.00, 0.00, -0.00, -1.00, 522.5, 223.0)">N</text><text xml:space="preserve" font-family="HelveticaNeue-Light" font-size="22.0" fill="#FFFFFF" transform="matrix(1.00, 0.00, -0.00, -1.00, 538.0, 223.0)">a</text><text xml:space="preserve" font-family="HelveticaNeue-Light" font-size="22.0" fill="#FFFFFF" transform="matrix(1.00, 0.00, -0.00, -1.00, 549.4, 223.0)">t</text><text xml:space="preserve" font-family="HelveticaNeue-Light" font-size="22.0" fill="#FFFFFF" transform="matrix(1.00, 0.00, -0.00, -1.00, 555.9, 223.0)">i</text><text xml:space="preserve" font-family="HelveticaNeue-Light" font-size="22.0" fill="#FFFFFF" transform="matrix(1.00, 0.00, -0.00, -1.00, 560.0, 223.0)">o</text><text xml:space="preserve" font-family="HelveticaNeue-Light" font-size="22.0" fill="#FFFFFF" transform="matrix(1.00, 0.00, -0.00, -1.00, 572.2, 223.0)">n</text><text xml:space="preserve" font-family="HelveticaNeue-Light" font-size="22.0" fill="#FFFFFF" transform="matrix(1.00, 0.00, -0.00, -1.00, 584.0, 223.0)">s</text><text xml:space="preserve" font-family="HelveticaNeue-Light" font-size="22.0" fill="#FFFFFF" transform="matrix(1.00, 0.00, -0.00, -1.00, 594.6, 223.0)"> </text><text xml:space="preserve" font-family="HelveticaNeue-Light" font-size="22.0" fill="#FFFFFF" transform="matrix(1.00, 0.00, -0.00, -1.00, 104.0, 196.0)">U</text><text xml:space="preserve" font-family="HelveticaNeue-Light" font-size="22.0" fill="#FFFFFF" transform="matrix(1.00, 0.00, -0.00, -1.00, 119.1, 196.0)">n</text><text xml:space="preserve" font-family="HelveticaNeue-Light" font-size="22.0" fill="#FFFFFF" transform="matrix(1.00, 0.00, -0.00, -1.00, 130.9, 196.0)">i</text><text xml:space="preserve" font-family="HelveticaNeue-Light" font-size="22.0" fill="#FFFFFF" transform="matrix(1.00, 0.00, -0.00, -1.00, 135.0, 196.0)">v</text><text xml:space="preserve" font-family="HelveticaNeue-Light" font-size="22.0" fill="#FFFFFF" transform="matrix(1.00, 0.00, -0.00, -1.00, 145.1, 196.0)">e</text><text xml:space="preserve" font-family="HelveticaNeue-Light" font-size="22.0" fill="#FFFFFF" transform="matrix(1.00, 0.00, -0.00, -1.00, 156.6, 196.0)">r</text><text xml:space="preserve" font-family="HelveticaNeue-Light" font-size="22.0" fill="#FFFFFF" transform="matrix(1.00, 0.00, -0.00, -1.00, 163.5, 196.0)">s</text><text xml:space="preserve" font-family="HelveticaNeue-Light" font-size="22.0" fill="#FFFFFF" transform="matrix(1.00, 0.00, -0.00, -1.00, 174.1, 196.0)">i</text><text xml:space="preserve" font-family="HelveticaNeue-Light" font-size="22.0" fill="#FFFFFF" transform="matrix(1.00, 0.00, -0.00, -1.00, 178.1, 196.0)">t</text><text xml:space="preserve" font-family="HelveticaNeue-Light" font-size="22.0" fill="#FFFFFF" transform="matrix(1.00, 0.00, -0.00, -1.00, 184.7, 196.0)">y</text><text xml:space="preserve" font-family="HelveticaNeue-Light" font-size="22.0" fill="#FFFFFF" transform="matrix(1.00, 0.00, -0.00, -1.00, 192.8, 196.0)">,</text><text xml:space="preserve" font-family="HelveticaNeue-Light" font-size="22.0" fill="#FFFFFF" transform="matrix(1.00, 0.00, -0.00, -1.00, 198.9, 196.0)"> </text><text xml:space="preserve" font-family="HelveticaNeue-Light" font-size="22.0" fill="#FFFFFF" transform="matrix(1.00, 0.00, -0.00, -1.00, 205.0, 196.0)">I</text><text xml:space="preserve" font-family="HelveticaNeue-Light" font-size="22.0" fill="#FFFFFF" transform="matrix(1.00, 0.00, -0.00, -1.00, 209.9, 196.0)">n</text><text xml:space="preserve" font-family="HelveticaNeue-Light" font-size="22.0" fill="#FFFFFF" transform="matrix(1.00, 0.00, -0.00, -1.00, 221.7, 196.0)">s</text><text xml:space="preserve" font-family="HelveticaNeue-Light" font-size="22.0" fill="#FFFFFF" transform="matrix(1.00, 0.00, -0.00, -1.00, 232.3, 196.0)">t</text><text xml:space="preserve" font-family="HelveticaNeue-Light" font-size="22.0" fill="#FFFFFF" transform="matrix(1.00, 0.00, -0.00, -1.00, 238.8, 196.0)">i</text><text xml:space="preserve" font-family="HelveticaNeue-Light" font-size="22.0" fill="#FFFFFF" transform="matrix(1.00, 0.00, -0.00, -1.00, 242.9, 196.0)">t</text><text xml:space="preserve" font-family="HelveticaNeue-Light" font-size="22.0" fill="#FFFFFF" transform="matrix(1.00, 0.00, -0.00, -1.00, 249.4, 196.0)">u</text><text xml:space="preserve" font-family="HelveticaNeue-Light" font-size="22.0" fill="#FFFFFF" transform="matrix(1.00, 0.00, -0.00, -1.00, 261.2, 196.0)">t</text><text xml:space="preserve" font-family="HelveticaNeue-Light" font-size="22.0" fill="#FFFFFF" transform="matrix(1.00, 0.00, -0.00, -1.00, 267.7, 196.0)">e</text><text xml:space="preserve" font-family="HelveticaNeue-Light" font-size="22.0" fill="#FFFFFF" transform="matrix(1.00, 0.00, -0.00, -1.00, 279.2, 196.0)"> </text><text xml:space="preserve" font-family="HelveticaNeue-Light" font-size="22.0" fill="#FFFFFF" transform="matrix(1.00, 0.00, -0.00, -1.00, 285.3, 196.0)">f</text><text xml:space="preserve" font-family="HelveticaNeue-Light" font-size="22.0" fill="#FFFFFF" transform="matrix(1.00, 0.00, -0.00, -1.00, 291.0, 196.0)">o</text><text xml:space="preserve" font-family="HelveticaNeue-Light" font-size="22.0" fill="#FFFFFF" transform="matrix(1.00, 0.00, -0.00, -1.00, 303.2, 196.0)">r</text><text xml:space="preserve" font-family="HelveticaNeue-Light" font-size="22.0" fill="#FFFFFF" transform="matrix(1.00, 0.00, -0.00, -1.00, 310.1, 196.0)"> </text><text xml:space="preserve" font-family="HelveticaNeue-Light" font-size="22.0" fill="#FFFFFF" transform="matrix(1.00, 0.00, -0.00, -1.00, 316.3, 196.0)">A</text><text xml:space="preserve" font-family="HelveticaNeue-Light" font-size="22.0" fill="#FFFFFF" transform="matrix(1.00, 0.00, -0.00, -1.00, 330.1, 196.0)">d</text><text xml:space="preserve" font-family="HelveticaNeue-Light" font-size="22.0" fill="#FFFFFF" transform="matrix(1.00, 0.00, -0.00, -1.00, 342.7, 196.0)">v</text><text xml:space="preserve" font-family="HelveticaNeue-Light" font-size="22.0" fill="#FFFFFF" transform="matrix(1.00, 0.00, -0.00, -1.00, 352.9, 196.0)">a</text><text xml:space="preserve" font-family="HelveticaNeue-Light" font-size="22.0" fill="#FFFFFF" transform="matrix(1.00, 0.00, -0.00, -1.00, 364.3, 196.0)">n</text><text xml:space="preserve" font-family="HelveticaNeue-Light" font-size="22.0" fill="#FFFFFF" transform="matrix(1.00, 0.00, -0.00, -1.00, 376.2, 196.0)">c</text><text xml:space="preserve" font-family="HelveticaNeue-Light" font-size="22.0" fill="#FFFFFF" transform="matrix(1.00, 0.00, -0.00, -1.00, 387.6, 196.0)">e</text><text xml:space="preserve" font-family="HelveticaNeue-Light" font-size="22.0" fill="#FFFFFF" transform="matrix(1.00, 0.00, -0.00, -1.00, 399.0, 196.0)">d</text><text xml:space="preserve" font-family="HelveticaNeue-Light" font-size="22.0" fill="#FFFFFF" transform="matrix(1.00, 0.00, -0.00, -1.00, 411.6, 196.0)"> </text><text xml:space="preserve" font-family="HelveticaNeue-Light" font-size="22.0" fill="#FFFFFF" transform="matrix(1.00, 0.00, -0.00, -1.00, 417.7, 196.0)">S</text><text xml:space="preserve" font-family="HelveticaNeue-Light" font-size="22.0" fill="#FFFFFF" transform="matrix(1.00, 0.00, -0.00, -1.00, 431.6, 196.0)">t</text><text xml:space="preserve" font-family="HelveticaNeue-Light" font-size="22.0" fill="#FFFFFF" transform="matrix(1.00, 0.00, -0.00, -1.00, 438.1, 196.0)">u</text><text xml:space="preserve" font-family="HelveticaNeue-Light" font-size="22.0" fill="#FFFFFF" transform="matrix(1.00, 0.00, -0.00, -1.00, 449.9, 196.0)">d</text><text xml:space="preserve" font-family="HelveticaNeue-Light" font-size="22.0" fill="#FFFFFF" transform="matrix(1.00, 0.00, -0.00, -1.00, 462.6, 196.0)">y</text><text xml:space="preserve" font-family="HelveticaNeue-Light" font-size="22.0" fill="#FFFFFF" transform="matrix(1.00, 0.00, -0.00, -1.00, 472.7, 196.0)"> </text><text xml:space="preserve" font-family="HelveticaNeue-Light" font-size="22.0" fill="#FFFFFF" transform="matrix(1.00, 0.00, -0.00, -1.00, 478.9, 196.0)">o</text><text xml:space="preserve" font-family="HelveticaNeue-Light" font-size="22.0" fill="#FFFFFF" transform="matrix(1.00, 0.00, -0.00, -1.00, 491.1, 196.0)">f</text><text xml:space="preserve" font-family="HelveticaNeue-Light" font-size="22.0" fill="#FFFFFF" transform="matrix(1.00, 0.00, -0.00, -1.00, 496.8, 196.0)"> </text><text xml:space="preserve" font-family="HelveticaNeue-Light" font-size="22.0" fill="#FFFFFF" transform="matrix(1.00, 0.00, -0.00, -1.00, 502.9, 196.0)">S</text><text xml:space="preserve" font-family="HelveticaNeue-Light" font-size="22.0" fill="#FFFFFF" transform="matrix(1.00, 0.00, -0.00, -1.00, 516.8, 196.0)">u</text><text xml:space="preserve" font-family="HelveticaNeue-Light" font-size="22.0" fill="#FFFFFF" transform="matrix(1.00, 0.00, -0.00, -1.00, 528.6, 196.0)">s</text><text xml:space="preserve" font-family="HelveticaNeue-Light" font-size="22.0" fill="#FFFFFF" transform="matrix(1.00, 0.00, -0.00, -1.00, 539.2, 196.0)">t</text><text xml:space="preserve" font-family="HelveticaNeue-Light" font-size="22.0" fill="#FFFFFF" transform="matrix(1.00, 0.00, -0.00, -1.00, 545.7, 196.0)">a</text><text xml:space="preserve" font-family="HelveticaNeue-Light" font-size="22.0" fill="#FFFFFF" transform="matrix(1.00, 0.00, -0.00, -1.00, 557.1, 196.0)">i</text><text xml:space="preserve" font-family="HelveticaNeue-Light" font-size="22.0" fill="#FFFFFF" transform="matrix(1.00, 0.00, -0.00, -1.00, 561.2, 196.0)">n</text><text xml:space="preserve" font-family="HelveticaNeue-Light" font-size="22.0" fill="#FFFFFF" transform="matrix(1.00, 0.00, -0.00, -1.00, 573.0, 196.0)">a</text><text xml:space="preserve" font-family="HelveticaNeue-Light" font-size="22.0" fill="#FFFFFF" transform="matrix(1.00, 0.00, -0.00, -1.00, 584.4, 196.0)">b</text><text xml:space="preserve" font-family="HelveticaNeue-Light" font-size="22.0" fill="#FFFFFF" transform="matrix(1.00, 0.00, -0.00, -1.00, 597.0, 196.0)">i</text><text xml:space="preserve" font-family="HelveticaNeue-Light" font-size="22.0" fill="#FFFFFF" transform="matrix(1.00, 0.00, -0.00, -1.00, 601.1, 196.0)">l</text><text xml:space="preserve" font-family="HelveticaNeue-Light" font-size="22.0" fill="#FFFFFF" transform="matrix(1.00, 0.00, -0.00, -1.00, 605.2, 196.0)">i</text><text xml:space="preserve" font-family="HelveticaNeue-Light" font-size="22.0" fill="#FFFFFF" transform="matrix(1.00, 0.00, -0.00, -1.00, 609.2, 196.0)">t</text><text xml:space="preserve" font-family="HelveticaNeue-Light" font-size="22.0" fill="#FFFFFF" transform="matrix(1.00, 0.00, -0.00, -1.00, 615.7, 196.0)">y</text><text xml:space="preserve" font-family="HelveticaNeue-Light" font-size="22.0" fill="#FFFFFF" transform="matrix(1.00, 0.00, -0.00, -1.00, 625.9, 196.0)"> </text><text xml:space="preserve" font-family="HelveticaNeue-Light" font-size="22.0" fill="#FFFFFF" transform="matrix(1.00, 0.00, -0.00, -1.00, 104.0, 169.0)">(</text><text xml:space="preserve" font-family="HelveticaNeue-Light" font-size="22.0" fill="#FFFFFF" transform="matrix(1.00, 0.00, -0.00, -1.00, 109.3, 169.0)">U</text><text xml:space="preserve" font-family="HelveticaNeue-Light" font-size="22.0" fill="#FFFFFF" transform="matrix(1.00, 0.00, -0.00, -1.00, 124.4, 169.0)">N</text><text xml:space="preserve" font-family="HelveticaNeue-Light" font-size="22.0" fill="#FFFFFF" transform="matrix(1.00, 0.00, -0.00, -1.00, 139.9, 169.0)">U</text><text xml:space="preserve" font-family="HelveticaNeue-Light" font-size="22.0" fill="#FFFFFF" transform="matrix(1.00, 0.00, -0.00, -1.00, 154.9, 169.0)">-</text><text xml:space="preserve" font-family="HelveticaNeue-Light" font-size="22.0" fill="#FFFFFF" transform="matrix(1.00, 0.00, -0.00, -1.00, 163.1, 169.0)">I</text><text xml:space="preserve" font-family="HelveticaNeue-Light" font-size="22.0" fill="#FFFFFF" transform="matrix(1.00, 0.00, -0.00, -1.00, 168.0, 169.0)">A</text><text xml:space="preserve" font-family="HelveticaNeue-Light" font-size="22.0" fill="#FFFFFF" transform="matrix(1.00, 0.00, -0.00, -1.00, 181.8, 169.0)">S</text><text xml:space="preserve" font-family="HelveticaNeue-Light" font-size="22.0" fill="#FFFFFF" transform="matrix(1.00, 0.00, -0.00, -1.00, 195.7, 169.0)">)</text><text xml:space="preserve" font-family="HelveticaNeue-Light" font-size="22.0" fill="#FFFFFF" transform="matrix(1.00, 0.00, -0.00, -1.00, 201.0, 169.0)">.</text></g></svg>