<?xml version="1.0" encoding="UTF-8" standalone="no"?><svg xmlns="http://www.w3.org/2000/svg" xmlns:xlink="http://www.w3.org/1999/xlink" clip-rule="evenodd" stroke-miterlimit="4.00" viewBox="0 0 1024 768"><desc>SVG generated by Keynote</desc><defs></defs><g transform="matrix(1.00, 0.00, -0.00, -1.00, 0.0, 768.0)"><path d="M 0.0 768.0 L 1024.0 768.0 L 1024.0 0.0 L 0.0 0.0 Z M 0.0 768.0 " fill="#FEFFFF"></path><g><clipPath id="clip-5748"><path d="M 22.4 540.1 L 295.2 540.1 L 295.2 620.1 L 22.4 620.1 Z M 22.4 540.1 "></path></clipPath><g clip-path="url(#clip-5748)"><path d="M 24.4 554.1 L 24.4 606.2 C 24.4 612.8 29.8 618.1 36.4 618.1 L 281.3 618.1 C 287.9 618.1 293.2 612.8 293.2 606.2 L 293.2 554.1 C 293.2 547.5 287.9 542.1 281.3 542.1 L 36.4 542.1 C 29.8 542.1 24.4 547.5 24.4 554.1 Z M 24.4 554.1 " fill="#94DBFE"></path><path d="M 0.0 64.1 L 0.0 11.9 C 0.0 5.3 5.3 0.0 11.9 0.0 L 256.8 0.0 C 263.4 0.0 268.8 5.3 268.8 11.9 L 268.8 64.1 C 268.8 70.7 263.4 76.0 256.8 76.0 L 11.9 76.0 C 5.3 76.0 0.0 70.7 0.0 64.1 Z M 0.0 64.1 " fill="none" stroke="#85878C" stroke-width="2.00" transform="matrix(1.00, 0.00, 0.00, -1.00, 24.4, 618.1)"></path></g></g><g><clipPath id="clip-5749"><path d="M 47.3 554.9 L 270.3 554.9 L 270.3 605.4 L 47.3 605.4 Z M 47.3 554.9 "></path></clipPath><g clip-path="url(#clip-5749)"><path d="M 49.3 603.4 L 268.3 603.4 L 268.3 556.9 L 49.3 556.9 Z M 49.3 603.4 " fill="#FEFFFF"></path><path d="M 0.0 0.0 L 219.1 0.0 L 219.1 46.4 L 0.0 46.4 Z M 0.0 0.0 " fill="none" stroke="#85878C" stroke-width="2.00" transform="matrix(1.00, 0.00, 0.00, -1.00, 49.3, 603.4)"></path></g></g><g><clipPath id="clip-5750"><path d="M 47.4 557.9 L 270.2 557.9 L 270.2 602.4 L 47.4 602.4 Z M 47.4 557.9 "></path></clipPath><g clip-path="url(#clip-5750)"><text xml:space="preserve" font-family="Helvetica-Light" font-size="20.0" fill="#000000" transform="matrix(1.00, 0.00, -0.00, -1.00, 100.0, 573.0)">1</text><text xml:space="preserve" font-family="Helvetica-Light" font-size="20.0" fill="#000000" transform="matrix(1.00, 0.00, -0.00, -1.00, 111.1, 573.0)">.</text><text xml:space="preserve" font-family="Helvetica-Light" font-size="20.0" fill="#000000" transform="matrix(1.00, 0.00, -0.00, -1.00, 116.7, 573.0)"> </text><text xml:space="preserve" font-family="Helvetica-Light" font-size="20.0" fill="#000000" transform="matrix(1.00, 0.00, -0.00, -1.00, 122.2, 573.0)">A</text><text xml:space="preserve" font-family="Helvetica-Light" font-size="20.0" fill="#000000" transform="matrix(1.00, 0.00, -0.00, -1.00, 135.6, 573.0)">u</text><text xml:space="preserve" font-family="Helvetica-Light" font-size="20.0" fill="#000000" transform="matrix(1.00, 0.00, -0.00, -1.00, 146.7, 573.0)">t</text><text xml:space="preserve" font-family="Helvetica-Light" font-size="20.0" fill="#000000" transform="matrix(1.00, 0.00, -0.00, -1.00, 152.3, 573.0)">h</text><text xml:space="preserve" font-family="Helvetica-Light" font-size="20.0" fill="#000000" transform="matrix(1.00, 0.00, -0.00, -1.00, 163.4, 573.0)">o</text><text xml:space="preserve" font-family="Helvetica-Light" font-size="20.0" fill="#000000" transform="matrix(1.00, 0.00, -0.00, -1.00, 174.5, 573.0)">r</text><text xml:space="preserve" font-family="Helvetica-Light" font-size="20.0" fill="#000000" transform="matrix(1.00, 0.00, -0.00, -1.00, 181.2, 573.0)">i</text><text xml:space="preserve" font-family="Helvetica-Light" font-size="20.0" fill="#000000" transform="matrix(1.00, 0.00, -0.00, -1.00, 185.6, 573.0)">t</text><text xml:space="preserve" font-family="Helvetica-Light" font-size="20.0" fill="#000000" transform="matrix(1.00, 0.00, -0.00, -1.00, 191.2, 573.0)">i</text><text xml:space="preserve" font-family="Helvetica-Light" font-size="20.0" fill="#000000" transform="matrix(1.00, 0.00, -0.00, -1.00, 195.6, 573.0)">e</text><text xml:space="preserve" font-family="Helvetica-Light" font-size="20.0" fill="#000000" transform="matrix(1.00, 0.00, -0.00, -1.00, 206.7, 573.0)">s</text></g></g><g><clipPath id="clip-5751"><path d="M 380.4 540.1 L 653.2 540.1 L 653.2 620.1 L 380.4 620.1 Z M 380.4 540.1 "></path></clipPath><g clip-path="url(#clip-5751)"><path d="M 382.4 554.1 L 382.4 606.2 C 382.4 612.8 387.8 618.1 394.4 618.1 L 639.3 618.1 C 645.9 618.1 651.2 612.8 651.2 606.2 L 651.2 554.1 C 651.2 547.5 645.9 542.1 639.3 542.1 L 394.4 542.1 C 387.8 542.1 382.4 547.5 382.4 554.1 Z M 382.4 554.1 " fill="#58AFDC"></path><path d="M 0.0 64.1 L 0.0 11.9 C 0.0 5.3 5.3 0.0 11.9 0.0 L 256.8 0.0 C 263.4 0.0 268.8 5.3 268.8 11.9 L 268.8 64.1 C 268.8 70.7 263.4 76.0 256.8 76.0 L 11.9 76.0 C 5.3 76.0 0.0 70.7 0.0 64.1 Z M 0.0 64.1 " fill="none" stroke="#85878C" stroke-width="2.00" transform="matrix(1.00, 0.00, 0.00, -1.00, 382.4, 618.1)"></path></g></g><g><clipPath id="clip-5752"><path d="M 405.3 554.9 L 628.3 554.9 L 628.3 605.4 L 405.3 605.4 Z M 405.3 554.9 "></path></clipPath><g clip-path="url(#clip-5752)"><path d="M 407.3 603.4 L 626.3 603.4 L 626.3 556.9 L 407.3 556.9 Z M 407.3 603.4 " fill="#FEFFFF"></path><path d="M 0.0 0.0 L 219.1 0.0 L 219.1 46.4 L 0.0 46.4 Z M 0.0 0.0 " fill="none" stroke="#85878C" stroke-width="2.00" transform="matrix(1.00, 0.00, 0.00, -1.00, 407.3, 603.4)"></path></g></g><g><clipPath id="clip-5753"><path d="M 405.4 557.9 L 628.2 557.9 L 628.2 602.4 L 405.4 602.4 Z M 405.4 557.9 "></path></clipPath><g clip-path="url(#clip-5753)"><text xml:space="preserve" font-family="Helvetica-Light" font-size="20.0" fill="#000000" transform="matrix(1.00, 0.00, -0.00, -1.00, 449.0, 573.0)">6</text><text xml:space="preserve" font-family="Helvetica-Light" font-size="20.0" fill="#000000" transform="matrix(1.00, 0.00, -0.00, -1.00, 460.1, 573.0)">.</text><text xml:space="preserve" font-family="Helvetica-Light" font-size="20.0" fill="#000000" transform="matrix(1.00, 0.00, -0.00, -1.00, 465.7, 573.0)"> </text><text xml:space="preserve" font-family="Helvetica-Light" font-size="20.0" fill="#000000" transform="matrix(1.00, 0.00, -0.00, -1.00, 471.2, 573.0)">C</text><text xml:space="preserve" font-family="Helvetica-Light" font-size="20.0" fill="#000000" transform="matrix(1.00, 0.00, -0.00, -1.00, 485.7, 573.0)">o</text><text xml:space="preserve" font-family="Helvetica-Light" font-size="20.0" fill="#000000" transform="matrix(1.00, 0.00, -0.00, -1.00, 496.8, 573.0)">r</text><text xml:space="preserve" font-family="Helvetica-Light" font-size="20.0" fill="#000000" transform="matrix(1.00, 0.00, -0.00, -1.00, 503.1, 573.0)">e</text><text xml:space="preserve" font-family="Helvetica-Light" font-size="20.0" fill="#000000" transform="matrix(1.00, 0.00, -0.00, -1.00, 514.2, 573.0)"> </text><text xml:space="preserve" font-family="Helvetica-Light" font-size="20.0" fill="#000000" transform="matrix(1.00, 0.00, -0.00, -1.00, 519.8, 573.0)">S</text><text xml:space="preserve" font-family="Helvetica-Light" font-size="20.0" fill="#000000" transform="matrix(1.00, 0.00, -0.00, -1.00, 532.0, 573.0)">y</text><text xml:space="preserve" font-family="Helvetica-Light" font-size="20.0" fill="#000000" transform="matrix(1.00, 0.00, -0.00, -1.00, 542.0, 573.0)">s</text><text xml:space="preserve" font-family="Helvetica-Light" font-size="20.0" fill="#000000" transform="matrix(1.00, 0.00, -0.00, -1.00, 552.0, 573.0)">t</text><text xml:space="preserve" font-family="Helvetica-Light" font-size="20.0" fill="#000000" transform="matrix(1.00, 0.00, -0.00, -1.00, 557.6, 573.0)">e</text><text xml:space="preserve" font-family="Helvetica-Light" font-size="20.0" fill="#000000" transform="matrix(1.00, 0.00, -0.00, -1.00, 568.7, 573.0)">m</text></g></g><g><clipPath id="clip-5754"><path d="M 728.8 540.1 L 1001.6 540.1 L 1001.6 620.1 L 728.8 620.1 Z M 728.8 540.1 "></path></clipPath><g clip-path="url(#clip-5754)"><path d="M 730.8 554.1 L 730.8 606.2 C 730.8 612.8 736.1 618.1 742.7 618.1 L 987.6 618.1 C 994.2 618.1 999.6 612.8 999.6 606.2 L 999.6 554.1 C 999.6 547.5 994.2 542.1 987.6 542.1 L 742.7 542.1 C 736.1 542.1 730.8 547.5 730.8 554.1 Z M 730.8 554.1 " fill="#A4DAAD"></path><path d="M 0.0 64.1 L 0.0 11.9 C 0.0 5.3 5.3 0.0 11.9 0.0 L 256.8 0.0 C 263.4 0.0 268.8 5.3 268.8 11.9 L 268.8 64.1 C 268.8 70.7 263.4 76.0 256.8 76.0 L 11.9 76.0 C 5.3 76.0 0.0 70.7 0.0 64.1 Z M 0.0 64.1 " fill="none" stroke="#85878C" stroke-width="2.00" transform="matrix(1.00, 0.00, 0.00, -1.00, 730.8, 618.1)"></path></g></g><g><clipPath id="clip-5755"><path d="M 753.7 554.9 L 976.7 554.9 L 976.7 605.4 L 753.7 605.4 Z M 753.7 554.9 "></path></clipPath><g clip-path="url(#clip-5755)"><path d="M 755.7 603.4 L 974.7 603.4 L 974.7 556.9 L 755.7 556.9 Z M 755.7 603.4 " fill="#FEFFFF"></path><path d="M 0.0 0.0 L 219.1 0.0 L 219.1 46.4 L 0.0 46.4 Z M 0.0 0.0 " fill="none" stroke="#85878C" stroke-width="2.00" transform="matrix(1.00, 0.00, 0.00, -1.00, 755.7, 603.4)"></path></g></g><g><clipPath id="clip-5756"><path d="M 753.8 557.9 L 976.6 557.9 L 976.6 602.4 L 753.8 602.4 Z M 753.8 557.9 "></path></clipPath><g clip-path="url(#clip-5756)"><text xml:space="preserve" font-family="Helvetica-Light" font-size="20.0" fill="#000000" transform="matrix(1.00, 0.00, -0.00, -1.00, 806.0, 573.0)">2</text><text xml:space="preserve" font-family="Helvetica-Light" font-size="20.0" fill="#000000" transform="matrix(1.00, 0.00, -0.00, -1.00, 817.1, 573.0)">.</text><text xml:space="preserve" font-family="Helvetica-Light" font-size="20.0" fill="#000000" transform="matrix(1.00, 0.00, -0.00, -1.00, 822.7, 573.0)"> </text><text xml:space="preserve" font-family="Helvetica-Light" font-size="20.0" fill="#000000" transform="matrix(1.00, 0.00, -0.00, -1.00, 828.2, 573.0)">A</text><text xml:space="preserve" font-family="Helvetica-Light" font-size="20.0" fill="#000000" transform="matrix(1.00, 0.00, -0.00, -1.00, 841.6, 573.0)">p</text><text xml:space="preserve" font-family="Helvetica-Light" font-size="20.0" fill="#000000" transform="matrix(1.00, 0.00, -0.00, -1.00, 853.8, 573.0)">p</text><text xml:space="preserve" font-family="Helvetica-Light" font-size="20.0" fill="#000000" transform="matrix(1.00, 0.00, -0.00, -1.00, 866.0, 573.0)">l</text><text xml:space="preserve" font-family="Helvetica-Light" font-size="20.0" fill="#000000" transform="matrix(1.00, 0.00, -0.00, -1.00, 870.5, 573.0)">i</text><text xml:space="preserve" font-family="Helvetica-Light" font-size="20.0" fill="#000000" transform="matrix(1.00, 0.00, -0.00, -1.00, 874.9, 573.0)">c</text><text xml:space="preserve" font-family="Helvetica-Light" font-size="20.0" fill="#000000" transform="matrix(1.00, 0.00, -0.00, -1.00, 886.0, 573.0)">a</text><text xml:space="preserve" font-family="Helvetica-Light" font-size="20.0" fill="#000000" transform="matrix(1.00, 0.00, -0.00, -1.00, 897.1, 573.0)">n</text><text xml:space="preserve" font-family="Helvetica-Light" font-size="20.0" fill="#000000" transform="matrix(1.00, 0.00, -0.00, -1.00, 908.3, 573.0)">t</text><text xml:space="preserve" font-family="Helvetica-Light" font-size="20.0" fill="#000000" transform="matrix(1.00, 0.00, -0.00, -1.00, 913.8, 573.0)">s</text></g></g><g><clipPath id="clip-5757"><path d="M 380.4 242.9 L 653.2 242.9 L 653.2 322.9 L 380.4 322.9 Z M 380.4 242.9 "></path></clipPath><g clip-path="url(#clip-5757)"><path d="M 382.4 256.9 L 382.4 309.0 C 382.4 315.6 387.8 320.9 394.4 320.9 L 639.3 320.9 C 645.9 320.9 651.2 315.6 651.2 309.0 L 651.2 256.9 C 651.2 250.3 645.9 244.9 639.3 244.9 L 394.4 244.9 C 387.8 244.9 382.4 250.3 382.4 256.9 Z M 382.4 256.9 " fill="#58AFDC"></path><path d="M 0.0 64.1 L 0.0 11.9 C 0.0 5.3 5.3 0.0 11.9 0.0 L 256.8 0.0 C 263.4 0.0 268.8 5.3 268.8 11.9 L 268.8 64.1 C 268.8 70.7 263.4 76.0 256.8 76.0 L 11.9 76.0 C 5.3 76.0 0.0 70.7 0.0 64.1 Z M 0.0 64.1 " fill="none" stroke="#85878C" stroke-width="2.00" transform="matrix(1.00, 0.00, 0.00, -1.00, 382.4, 320.9)"></path></g></g><g><clipPath id="clip-5758"><path d="M 405.3 257.7 L 628.3 257.7 L 628.3 308.2 L 405.3 308.2 Z M 405.3 257.7 "></path></clipPath><g clip-path="url(#clip-5758)"><path d="M 407.3 306.2 L 626.3 306.2 L 626.3 259.7 L 407.3 259.7 Z M 407.3 306.2 " fill="#FEFFFF"></path><path d="M 0.0 0.0 L 219.1 0.0 L 219.1 46.4 L 0.0 46.4 Z M 0.0 0.0 " fill="none" stroke="#85878C" stroke-width="2.00" transform="matrix(1.00, 0.00, 0.00, -1.00, 407.3, 306.2)"></path></g></g><g><clipPath id="clip-5759"><path d="M 405.4 260.7 L 628.2 260.7 L 628.2 305.2 L 405.4 305.2 Z M 405.4 260.7 "></path></clipPath><g clip-path="url(#clip-5759)"><text xml:space="preserve" font-family="Helvetica-Light" font-size="20.0" fill="#000000" transform="matrix(1.00, 0.00, -0.00, -1.00, 426.0, 276.0)">6</text><text xml:space="preserve" font-family="Helvetica-Light" font-size="20.0" fill="#000000" transform="matrix(1.00, 0.00, -0.00, -1.00, 437.1, 276.0)">.</text><text xml:space="preserve" font-family="Helvetica-Light" font-size="20.0" fill="#000000" transform="matrix(1.00, 0.00, -0.00, -1.00, 442.7, 276.0)">3</text><text xml:space="preserve" font-family="Helvetica-Light" font-size="20.0" fill="#000000" transform="matrix(1.00, 0.00, -0.00, -1.00, 453.8, 276.0)"> </text><text xml:space="preserve" font-family="Helvetica-Light" font-size="20.0" fill="#000000" transform="matrix(1.00, 0.00, -0.00, -1.00, 459.4, 276.0)">P</text><text xml:space="preserve" font-family="Helvetica-Light" font-size="20.0" fill="#000000" transform="matrix(1.00, 0.00, -0.00, -1.00, 471.6, 276.0)">h</text><text xml:space="preserve" font-family="Helvetica-Light" font-size="20.0" fill="#000000" transform="matrix(1.00, 0.00, -0.00, -1.00, 482.7, 276.0)">y</text><text xml:space="preserve" font-family="Helvetica-Light" font-size="20.0" fill="#000000" transform="matrix(1.00, 0.00, -0.00, -1.00, 492.7, 276.0)">s</text><text xml:space="preserve" font-family="Helvetica-Light" font-size="20.0" fill="#000000" transform="matrix(1.00, 0.00, -0.00, -1.00, 502.7, 276.0)">i</text><text xml:space="preserve" font-family="Helvetica-Light" font-size="20.0" fill="#000000" transform="matrix(1.00, 0.00, -0.00, -1.00, 507.1, 276.0)">c</text><text xml:space="preserve" font-family="Helvetica-Light" font-size="20.0" fill="#000000" transform="matrix(1.00, 0.00, -0.00, -1.00, 518.3, 276.0)">a</text><text xml:space="preserve" font-family="Helvetica-Light" font-size="20.0" fill="#000000" transform="matrix(1.00, 0.00, -0.00, -1.00, 529.4, 276.0)">l</text><text xml:space="preserve" font-family="Helvetica-Light" font-size="20.0" fill="#000000" transform="matrix(1.00, 0.00, -0.00, -1.00, 533.8, 276.0)"> </text><text xml:space="preserve" font-family="Helvetica-Light" font-size="20.0" fill="#000000" transform="matrix(1.00, 0.00, -0.00, -1.00, 539.4, 276.0)">A</text><text xml:space="preserve" font-family="Helvetica-Light" font-size="20.0" fill="#000000" transform="matrix(1.00, 0.00, -0.00, -1.00, 552.7, 276.0)">r</text><text xml:space="preserve" font-family="Helvetica-Light" font-size="20.0" fill="#000000" transform="matrix(1.00, 0.00, -0.00, -1.00, 559.0, 276.0)">c</text><text xml:space="preserve" font-family="Helvetica-Light" font-size="20.0" fill="#000000" transform="matrix(1.00, 0.00, -0.00, -1.00, 570.1, 276.0)">h</text><text xml:space="preserve" font-family="Helvetica-Light" font-size="20.0" fill="#000000" transform="matrix(1.00, 0.00, -0.00, -1.00, 581.3, 276.0)">i</text><text xml:space="preserve" font-family="Helvetica-Light" font-size="20.0" fill="#000000" transform="matrix(1.00, 0.00, -0.00, -1.00, 585.7, 276.0)">v</text><text xml:space="preserve" font-family="Helvetica-Light" font-size="20.0" fill="#000000" transform="matrix(1.00, 0.00, -0.00, -1.00, 595.7, 276.0)">e</text></g></g><g><clipPath id="clip-5760"><path d="M 380.4 338.0 L 653.2 338.0 L 653.2 418.0 L 380.4 418.0 Z M 380.4 338.0 "></path></clipPath><g clip-path="url(#clip-5760)"><path d="M 382.4 351.9 L 382.4 404.1 C 382.4 410.7 387.8 416.0 394.4 416.0 L 639.3 416.0 C 645.9 416.0 651.2 410.7 651.2 404.1 L 651.2 351.9 C 651.2 345.3 645.9 340.0 639.3 340.0 L 394.4 340.0 C 387.8 340.0 382.4 345.3 382.4 351.9 Z M 382.4 351.9 " fill="#58AFDC"></path><path d="M 0.0 64.1 L 0.0 11.9 C 0.0 5.3 5.3 0.0 11.9 0.0 L 256.8 0.0 C 263.4 0.0 268.8 5.3 268.8 11.9 L 268.8 64.1 C 268.8 70.7 263.4 76.0 256.8 76.0 L 11.9 76.0 C 5.3 76.0 0.0 70.7 0.0 64.1 Z M 0.0 64.1 " fill="none" stroke="#85878C" stroke-width="2.00" transform="matrix(1.00, 0.00, 0.00, -1.00, 382.4, 416.0)"></path></g></g><g><clipPath id="clip-5761"><path d="M 405.3 352.8 L 628.3 352.8 L 628.3 403.2 L 405.3 403.2 Z M 405.3 352.8 "></path></clipPath><g clip-path="url(#clip-5761)"><path d="M 407.3 401.2 L 626.3 401.2 L 626.3 354.8 L 407.3 354.8 Z M 407.3 401.2 " fill="#FEFFFF"></path><path d="M 0.0 0.0 L 219.1 0.0 L 219.1 46.4 L 0.0 46.4 Z M 0.0 0.0 " fill="none" stroke="#85878C" stroke-width="2.00" transform="matrix(1.00, 0.00, 0.00, -1.00, 407.3, 401.2)"></path></g></g><g><clipPath id="clip-5762"><path d="M 405.4 355.8 L 628.2 355.8 L 628.2 400.2 L 405.4 400.2 Z M 405.4 355.8 "></path></clipPath><g clip-path="url(#clip-5762)"><text xml:space="preserve" font-family="Helvetica-Light" font-size="20.0" fill="#000000" transform="matrix(1.00, 0.00, -0.00, -1.00, 461.0, 371.0)">6</text><text xml:space="preserve" font-family="Helvetica-Light" font-size="20.0" fill="#000000" transform="matrix(1.00, 0.00, -0.00, -1.00, 472.1, 371.0)">.</text><text xml:space="preserve" font-family="Helvetica-Light" font-size="20.0" fill="#000000" transform="matrix(1.00, 0.00, -0.00, -1.00, 477.7, 371.0)">2</text><text xml:space="preserve" font-family="Helvetica-Light" font-size="20.0" fill="#000000" transform="matrix(1.00, 0.00, -0.00, -1.00, 488.8, 371.0)"> </text><text xml:space="preserve" font-family="Helvetica-Light" font-size="20.0" fill="#000000" transform="matrix(1.00, 0.00, -0.00, -1.00, 494.4, 371.0)">B</text><text xml:space="preserve" font-family="Helvetica-Light" font-size="20.0" fill="#000000" transform="matrix(1.00, 0.00, -0.00, -1.00, 507.7, 371.0)">a</text><text xml:space="preserve" font-family="Helvetica-Light" font-size="20.0" fill="#000000" transform="matrix(1.00, 0.00, -0.00, -1.00, 518.8, 371.0)">c</text><text xml:space="preserve" font-family="Helvetica-Light" font-size="20.0" fill="#000000" transform="matrix(1.00, 0.00, -0.00, -1.00, 529.9, 371.0)">k</text><text xml:space="preserve" font-family="Helvetica-Light" font-size="20.0" fill="#000000" transform="matrix(1.00, 0.00, -0.00, -1.00, 539.9, 371.0)">u</text><text xml:space="preserve" font-family="Helvetica-Light" font-size="20.0" fill="#000000" transform="matrix(1.00, 0.00, -0.00, -1.00, 551.1, 371.0)">p</text><text xml:space="preserve" font-family="Helvetica-Light" font-size="20.0" fill="#000000" transform="matrix(1.00, 0.00, -0.00, -1.00, 563.3, 371.0)">s</text></g></g><g><clipPath id="clip-5763"><path d="M 380.4 147.9 L 653.2 147.9 L 653.2 227.9 L 380.4 227.9 Z M 380.4 147.9 "></path></clipPath><g clip-path="url(#clip-5763)"><path d="M 382.4 161.8 L 382.4 213.9 C 382.4 220.5 387.8 225.9 394.4 225.9 L 639.3 225.9 C 645.9 225.9 651.2 220.5 651.2 213.9 L 651.2 161.8 C 651.2 155.2 645.9 149.9 639.3 149.9 L 394.4 149.9 C 387.8 149.9 382.4 155.2 382.4 161.8 Z M 382.4 161.8 " fill="#58AFDC"></path><path d="M 0.0 64.1 L 0.0 11.9 C 0.0 5.3 5.3 0.0 11.9 0.0 L 256.8 0.0 C 263.4 0.0 268.8 5.3 268.8 11.9 L 268.8 64.1 C 268.8 70.7 263.4 76.0 256.8 76.0 L 11.9 76.0 C 5.3 76.0 0.0 70.7 0.0 64.1 Z M 0.0 64.1 " fill="none" stroke="#85878C" stroke-width="2.00" transform="matrix(1.00, 0.00, 0.00, -1.00, 382.4, 225.9)"></path></g></g><g><clipPath id="clip-5764"><path d="M 405.3 162.6 L 628.3 162.6 L 628.3 213.1 L 405.3 213.1 Z M 405.3 162.6 "></path></clipPath><g clip-path="url(#clip-5764)"><path d="M 407.3 211.1 L 626.3 211.1 L 626.3 164.6 L 407.3 164.6 Z M 407.3 211.1 " fill="#FEFFFF"></path><path d="M 0.0 0.0 L 219.1 0.0 L 219.1 46.4 L 0.0 46.4 Z M 0.0 0.0 " fill="none" stroke="#85878C" stroke-width="2.00" transform="matrix(1.00, 0.00, 0.00, -1.00, 407.3, 211.1)"></path></g></g><g><clipPath id="clip-5765"><path d="M 405.4 165.6 L 628.2 165.6 L 628.2 210.1 L 405.4 210.1 Z M 405.4 165.6 "></path></clipPath><g clip-path="url(#clip-5765)"><text xml:space="preserve" font-family="Helvetica-Light" font-size="20.0" fill="#000000" transform="matrix(1.00, 0.00, -0.00, -1.00, 435.0, 181.0)">6</text><text xml:space="preserve" font-family="Helvetica-Light" font-size="20.0" fill="#000000" transform="matrix(1.00, 0.00, -0.00, -1.00, 446.1, 181.0)">.</text><text xml:space="preserve" font-family="Helvetica-Light" font-size="20.0" fill="#000000" transform="matrix(1.00, 0.00, -0.00, -1.00, 451.7, 181.0)">4</text><text xml:space="preserve" font-family="Helvetica-Light" font-size="20.0" fill="#000000" transform="matrix(1.00, 0.00, -0.00, -1.00, 462.8, 181.0)"> </text><text xml:space="preserve" font-family="Helvetica-Light" font-size="20.0" fill="#000000" transform="matrix(1.00, 0.00, -0.00, -1.00, 468.4, 181.0)">M</text><text xml:space="preserve" font-family="Helvetica-Light" font-size="20.0" fill="#000000" transform="matrix(1.00, 0.00, -0.00, -1.00, 485.0, 181.0)">o</text><text xml:space="preserve" font-family="Helvetica-Light" font-size="20.0" fill="#000000" transform="matrix(1.00, 0.00, -0.00, -1.00, 496.1, 181.0)">b</text><text xml:space="preserve" font-family="Helvetica-Light" font-size="20.0" fill="#000000" transform="matrix(1.00, 0.00, -0.00, -1.00, 508.4, 181.0)">i</text><text xml:space="preserve" font-family="Helvetica-Light" font-size="20.0" fill="#000000" transform="matrix(1.00, 0.00, -0.00, -1.00, 512.8, 181.0)">l</text><text xml:space="preserve" font-family="Helvetica-Light" font-size="20.0" fill="#000000" transform="matrix(1.00, 0.00, -0.00, -1.00, 517.2, 181.0)">e</text><text xml:space="preserve" font-family="Helvetica-Light" font-size="20.0" fill="#000000" transform="matrix(1.00, 0.00, -0.00, -1.00, 528.4, 181.0)"> </text><text xml:space="preserve" font-family="Helvetica-Light" font-size="20.0" fill="#000000" transform="matrix(1.00, 0.00, -0.00, -1.00, 533.9, 181.0)">a</text><text xml:space="preserve" font-family="Helvetica-Light" font-size="20.0" fill="#000000" transform="matrix(1.00, 0.00, -0.00, -1.00, 545.0, 181.0)">c</text><text xml:space="preserve" font-family="Helvetica-Light" font-size="20.0" fill="#000000" transform="matrix(1.00, 0.00, -0.00, -1.00, 556.2, 181.0)">c</text><text xml:space="preserve" font-family="Helvetica-Light" font-size="20.0" fill="#000000" transform="matrix(1.00, 0.00, -0.00, -1.00, 567.3, 181.0)">e</text><text xml:space="preserve" font-family="Helvetica-Light" font-size="20.0" fill="#000000" transform="matrix(1.00, 0.00, -0.00, -1.00, 578.4, 181.0)">s</text><text xml:space="preserve" font-family="Helvetica-Light" font-size="20.0" fill="#000000" transform="matrix(1.00, 0.00, -0.00, -1.00, 588.4, 181.0)">s</text></g></g><g><clipPath id="clip-5766"><path d="M 22.4 242.9 L 295.2 242.9 L 295.2 322.9 L 22.4 322.9 Z M 22.4 242.9 "></path></clipPath><g clip-path="url(#clip-5766)"><path d="M 24.4 256.9 L 24.4 309.0 C 24.4 315.6 29.8 320.9 36.4 320.9 L 281.3 320.9 C 287.9 320.9 293.2 315.6 293.2 309.0 L 293.2 256.9 C 293.2 250.3 287.9 244.9 281.3 244.9 L 36.4 244.9 C 29.8 244.9 24.4 250.3 24.4 256.9 Z M 24.4 256.9 " fill="#DE4400"></path><path d="M 0.0 64.1 L 0.0 11.9 C 0.0 5.3 5.3 0.0 11.9 0.0 L 256.8 0.0 C 263.4 0.0 268.8 5.3 268.8 11.9 L 268.8 64.1 C 268.8 70.7 263.4 76.0 256.8 76.0 L 11.9 76.0 C 5.3 76.0 0.0 70.7 0.0 64.1 Z M 0.0 64.1 " fill="none" stroke="#85878C" stroke-width="2.00" transform="matrix(1.00, 0.00, 0.00, -1.00, 24.4, 320.9)"></path></g></g><g><clipPath id="clip-5767"><path d="M 47.3 257.7 L 270.3 257.7 L 270.3 308.2 L 47.3 308.2 Z M 47.3 257.7 "></path></clipPath><g clip-path="url(#clip-5767)"><path d="M 49.3 306.2 L 268.3 306.2 L 268.3 259.7 L 49.3 259.7 Z M 49.3 306.2 " fill="#FEFFFF"></path><path d="M 0.0 0.0 L 219.1 0.0 L 219.1 46.4 L 0.0 46.4 Z M 0.0 0.0 " fill="none" stroke="#85878C" stroke-width="2.00" transform="matrix(1.00, 0.00, 0.00, -1.00, 49.3, 306.2)"></path></g></g><g><clipPath id="clip-5768"><path d="M 47.4 260.7 L 270.2 260.7 L 270.2 305.2 L 47.4 305.2 Z M 47.4 260.7 "></path></clipPath><g clip-path="url(#clip-5768)"><text xml:space="preserve" font-family="Helvetica-Light" font-size="20.0" fill="#000000" transform="matrix(1.00, 0.00, -0.00, -1.00, 100.0, 276.0)">4</text><text xml:space="preserve" font-family="Helvetica-Light" font-size="20.0" fill="#000000" transform="matrix(1.00, 0.00, -0.00, -1.00, 111.1, 276.0)">.</text><text xml:space="preserve" font-family="Helvetica-Light" font-size="20.0" fill="#000000" transform="matrix(1.00, 0.00, -0.00, -1.00, 116.7, 276.0)"> </text><text xml:space="preserve" font-family="Helvetica-Light" font-size="20.0" fill="#000000" transform="matrix(1.00, 0.00, -0.00, -1.00, 122.2, 276.0)">M</text><text xml:space="preserve" font-family="Helvetica-Light" font-size="20.0" fill="#000000" transform="matrix(1.00, 0.00, -0.00, -1.00, 138.9, 276.0)">o</text><text xml:space="preserve" font-family="Helvetica-Light" font-size="20.0" fill="#000000" transform="matrix(1.00, 0.00, -0.00, -1.00, 150.0, 276.0)">n</text><text xml:space="preserve" font-family="Helvetica-Light" font-size="20.0" fill="#000000" transform="matrix(1.00, 0.00, -0.00, -1.00, 161.1, 276.0)">i</text><text xml:space="preserve" font-family="Helvetica-Light" font-size="20.0" fill="#000000" transform="matrix(1.00, 0.00, -0.00, -1.00, 165.6, 276.0)">t</text><text xml:space="preserve" font-family="Helvetica-Light" font-size="20.0" fill="#000000" transform="matrix(1.00, 0.00, -0.00, -1.00, 171.1, 276.0)">o</text><text xml:space="preserve" font-family="Helvetica-Light" font-size="20.0" fill="#000000" transform="matrix(1.00, 0.00, -0.00, -1.00, 182.3, 276.0)">r</text><text xml:space="preserve" font-family="Helvetica-Light" font-size="20.0" fill="#000000" transform="matrix(1.00, 0.00, -0.00, -1.00, 188.9, 276.0)">i</text><text xml:space="preserve" font-family="Helvetica-Light" font-size="20.0" fill="#000000" transform="matrix(1.00, 0.00, -0.00, -1.00, 193.4, 276.0)">n</text><text xml:space="preserve" font-family="Helvetica-Light" font-size="20.0" fill="#000000" transform="matrix(1.00, 0.00, -0.00, -1.00, 204.5, 276.0)">g</text></g></g><g><clipPath id="clip-5769"><path d="M 22.4 147.9 L 295.2 147.9 L 295.2 227.9 L 22.4 227.9 Z M 22.4 147.9 "></path></clipPath><g clip-path="url(#clip-5769)"><path d="M 24.4 161.8 L 24.4 213.9 C 24.4 220.5 29.8 225.9 36.4 225.9 L 281.3 225.9 C 287.9 225.9 293.2 220.5 293.2 213.9 L 293.2 161.8 C 293.2 155.2 287.9 149.9 281.3 149.9 L 36.4 149.9 C 29.8 149.9 24.4 155.2 24.4 161.8 Z M 24.4 161.8 " fill="#C7EAEE"></path><path d="M 0.0 64.1 L 0.0 11.9 C 0.0 5.3 5.3 0.0 11.9 0.0 L 256.8 0.0 C 263.4 0.0 268.8 5.3 268.8 11.9 L 268.8 64.1 C 268.8 70.7 263.4 76.0 256.8 76.0 L 11.9 76.0 C 5.3 76.0 0.0 70.7 0.0 64.1 Z M 0.0 64.1 " fill="none" stroke="#85878C" stroke-width="2.00" transform="matrix(1.00, 0.00, 0.00, -1.00, 24.4, 225.9)"></path></g></g><g><clipPath id="clip-5770"><path d="M 47.3 162.6 L 270.3 162.6 L 270.3 213.1 L 47.3 213.1 Z M 47.3 162.6 "></path></clipPath><g clip-path="url(#clip-5770)"><path d="M 49.3 211.1 L 268.3 211.1 L 268.3 164.6 L 49.3 164.6 Z M 49.3 211.1 " fill="#FEFFFF"></path><path d="M 0.0 0.0 L 219.1 0.0 L 219.1 46.4 L 0.0 46.4 Z M 0.0 0.0 " fill="none" stroke="#85878C" stroke-width="2.00" transform="matrix(1.00, 0.00, 0.00, -1.00, 49.3, 211.1)"></path></g></g><g><clipPath id="clip-5771"><path d="M 47.4 165.6 L 270.2 165.6 L 270.2 210.1 L 47.4 210.1 Z M 47.4 165.6 "></path></clipPath><g clip-path="url(#clip-5771)"><text xml:space="preserve" font-family="Helvetica-Light" font-size="20.0" fill="#000000" transform="matrix(1.00, 0.00, -0.00, -1.00, 104.0, 181.0)">5</text><text xml:space="preserve" font-family="Helvetica-Light" font-size="20.0" fill="#000000" transform="matrix(1.00, 0.00, -0.00, -1.00, 115.1, 181.0)">.</text><text xml:space="preserve" font-family="Helvetica-Light" font-size="20.0" fill="#000000" transform="matrix(1.00, 0.00, -0.00, -1.00, 120.7, 181.0)"> </text><text xml:space="preserve" font-family="Helvetica-Light" font-size="20.0" fill="#000000" transform="matrix(1.00, 0.00, -0.00, -1.00, 126.2, 181.0)">R</text><text xml:space="preserve" font-family="Helvetica-Light" font-size="20.0" fill="#000000" transform="matrix(1.00, 0.00, -0.00, -1.00, 139.6, 181.0)">e</text><text xml:space="preserve" font-family="Helvetica-Light" font-size="20.0" fill="#000000" transform="matrix(1.00, 0.00, -0.00, -1.00, 150.7, 181.0)">p</text><text xml:space="preserve" font-family="Helvetica-Light" font-size="20.0" fill="#000000" transform="matrix(1.00, 0.00, -0.00, -1.00, 162.9, 181.0)">o</text><text xml:space="preserve" font-family="Helvetica-Light" font-size="20.0" fill="#000000" transform="matrix(1.00, 0.00, -0.00, -1.00, 174.0, 181.0)">r</text><text xml:space="preserve" font-family="Helvetica-Light" font-size="20.0" fill="#000000" transform="matrix(1.00, 0.00, -0.00, -1.00, 181.1, 181.0)">t</text><text xml:space="preserve" font-family="Helvetica-Light" font-size="20.0" fill="#000000" transform="matrix(1.00, 0.00, -0.00, -1.00, 186.6, 181.0)">i</text><text xml:space="preserve" font-family="Helvetica-Light" font-size="20.0" fill="#000000" transform="matrix(1.00, 0.00, -0.00, -1.00, 191.1, 181.0)">n</text><text xml:space="preserve" font-family="Helvetica-Light" font-size="20.0" fill="#000000" transform="matrix(1.00, 0.00, -0.00, -1.00, 202.2, 181.0)">g</text></g></g><g><clipPath id="clip-5772"><path d="M 22.4 338.0 L 295.2 338.0 L 295.2 418.0 L 22.4 418.0 Z M 22.4 338.0 "></path></clipPath><g clip-path="url(#clip-5772)"><path d="M 24.4 351.9 L 24.4 404.1 C 24.4 410.7 29.8 416.0 36.4 416.0 L 281.3 416.0 C 287.9 416.0 293.2 410.7 293.2 404.1 L 293.2 351.9 C 293.2 345.3 287.9 340.0 281.3 340.0 L 36.4 340.0 C 29.8 340.0 24.4 345.3 24.4 351.9 Z M 24.4 351.9 " fill="#F6FCCC"></path><path d="M 0.0 64.1 L 0.0 11.9 C 0.0 5.3 5.3 0.0 11.9 0.0 L 256.8 0.0 C 263.4 0.0 268.8 5.3 268.8 11.9 L 268.8 64.1 C 268.8 70.7 263.4 76.0 256.8 76.0 L 11.9 76.0 C 5.3 76.0 0.0 70.7 0.0 64.1 Z M 0.0 64.1 " fill="none" stroke="#85878C" stroke-width="2.00" transform="matrix(1.00, 0.00, 0.00, -1.00, 24.4, 416.0)"></path></g></g><g><clipPath id="clip-5773"><path d="M 47.3 352.8 L 270.3 352.8 L 270.3 403.2 L 47.3 403.2 Z M 47.3 352.8 "></path></clipPath><g clip-path="url(#clip-5773)"><path d="M 49.3 401.2 L 268.3 401.2 L 268.3 354.8 L 49.3 354.8 Z M 49.3 401.2 " fill="#FEFFFF"></path><path d="M 0.0 0.0 L 219.1 0.0 L 219.1 46.4 L 0.0 46.4 Z M 0.0 0.0 " fill="none" stroke="#85878C" stroke-width="2.00" transform="matrix(1.00, 0.00, 0.00, -1.00, 49.3, 401.2)"></path></g></g><g><clipPath id="clip-5774"><path d="M 47.4 355.8 L 270.2 355.8 L 270.2 400.2 L 47.4 400.2 Z M 47.4 355.8 "></path></clipPath><g clip-path="url(#clip-5774)"><text xml:space="preserve" font-family="Helvetica-Light" font-size="20.0" fill="#000000" transform="matrix(1.00, 0.00, -0.00, -1.00, 123.0, 371.0)">3</text><text xml:space="preserve" font-family="Helvetica-Light" font-size="20.0" fill="#000000" transform="matrix(1.00, 0.00, -0.00, -1.00, 134.1, 371.0)">.</text><text xml:space="preserve" font-family="Helvetica-Light" font-size="20.0" fill="#000000" transform="matrix(1.00, 0.00, -0.00, -1.00, 139.7, 371.0)"> </text><text xml:space="preserve" font-family="Helvetica-Light" font-size="20.0" fill="#000000" transform="matrix(1.00, 0.00, -0.00, -1.00, 145.2, 371.0)">L</text><text xml:space="preserve" font-family="Helvetica-Light" font-size="20.0" fill="#000000" transform="matrix(1.00, 0.00, -0.00, -1.00, 156.4, 371.0)">e</text><text xml:space="preserve" font-family="Helvetica-Light" font-size="20.0" fill="#000000" transform="matrix(1.00, 0.00, -0.00, -1.00, 167.5, 371.0)">g</text><text xml:space="preserve" font-family="Helvetica-Light" font-size="20.0" fill="#000000" transform="matrix(1.00, 0.00, -0.00, -1.00, 179.7, 371.0)">a</text><text xml:space="preserve" font-family="Helvetica-Light" font-size="20.0" fill="#000000" transform="matrix(1.00, 0.00, -0.00, -1.00, 190.8, 371.0)">l</text></g></g><g><clipPath id="clip-5775"><path d="M 380.4 439.1 L 653.2 439.1 L 653.2 519.1 L 380.4 519.1 Z M 380.4 439.1 "></path></clipPath><g clip-path="url(#clip-5775)"><path d="M 382.4 453.0 L 382.4 505.2 C 382.4 511.7 387.8 517.1 394.4 517.1 L 639.3 517.1 C 645.9 517.1 651.2 511.7 651.2 505.2 L 651.2 453.0 C 651.2 446.4 645.9 441.1 639.3 441.1 L 394.4 441.1 C 387.8 441.1 382.4 446.4 382.4 453.0 Z M 382.4 453.0 " fill="#58AFDC"></path><path d="M 0.0 64.1 L 0.0 11.9 C 0.0 5.3 5.3 0.0 11.9 0.0 L 256.8 0.0 C 263.4 0.0 268.8 5.3 268.8 11.9 L 268.8 64.1 C 268.8 70.7 263.4 76.0 256.8 76.0 L 11.9 76.0 C 5.3 76.0 0.0 70.7 0.0 64.1 Z M 0.0 64.1 " fill="none" stroke="#85878C" stroke-width="2.00" transform="matrix(1.00, 0.00, 0.00, -1.00, 382.4, 517.1)"></path></g></g><g><clipPath id="clip-5776"><path d="M 405.3 453.9 L 628.3 453.9 L 628.3 504.3 L 405.3 504.3 Z M 405.3 453.9 "></path></clipPath><g clip-path="url(#clip-5776)"><path d="M 407.3 502.3 L 626.3 502.3 L 626.3 455.9 L 407.3 455.9 Z M 407.3 502.3 " fill="#FEFFFF"></path><path d="M 0.0 0.0 L 219.1 0.0 L 219.1 46.4 L 0.0 46.4 Z M 0.0 0.0 " fill="none" stroke="#85878C" stroke-width="2.00" transform="matrix(1.00, 0.00, 0.00, -1.00, 407.3, 502.3)"></path></g></g><g><clipPath id="clip-5777"><path d="M 405.4 456.9 L 628.2 456.9 L 628.2 501.3 L 405.4 501.3 Z M 405.4 456.9 "></path></clipPath><g clip-path="url(#clip-5777)"><text xml:space="preserve" font-family="Helvetica-Light" font-size="20.0" fill="#000000" transform="matrix(1.00, 0.00, -0.00, -1.00, 420.0, 472.0)">6</text><text xml:space="preserve" font-family="Helvetica-Light" font-size="20.0" fill="#000000" transform="matrix(1.00, 0.00, -0.00, -1.00, 431.1, 472.0)">.</text><text xml:space="preserve" font-family="Helvetica-Light" font-size="20.0" fill="#000000" transform="matrix(1.00, 0.00, -0.00, -1.00, 436.7, 472.0)">1</text><text xml:space="preserve" font-family="Helvetica-Light" font-size="20.0" fill="#000000" transform="matrix(1.00, 0.00, -0.00, -1.00, 447.8, 472.0)"> </text><text xml:space="preserve" font-family="Helvetica-Light" font-size="20.0" fill="#000000" transform="matrix(1.00, 0.00, -0.00, -1.00, 453.4, 472.0)">O</text><text xml:space="preserve" font-family="Helvetica-Light" font-size="20.0" fill="#000000" transform="matrix(1.00, 0.00, -0.00, -1.00, 468.9, 472.0)">n</text><text xml:space="preserve" font-family="Helvetica-Light" font-size="20.0" fill="#000000" transform="matrix(1.00, 0.00, -0.00, -1.00, 480.0, 472.0)">l</text><text xml:space="preserve" font-family="Helvetica-Light" font-size="20.0" fill="#000000" transform="matrix(1.00, 0.00, -0.00, -1.00, 484.5, 472.0)">i</text><text xml:space="preserve" font-family="Helvetica-Light" font-size="20.0" fill="#000000" transform="matrix(1.00, 0.00, -0.00, -1.00, 488.9, 472.0)">n</text><text xml:space="preserve" font-family="Helvetica-Light" font-size="20.0" fill="#000000" transform="matrix(1.00, 0.00, -0.00, -1.00, 500.0, 472.0)">e</text><text xml:space="preserve" font-family="Helvetica-Light" font-size="20.0" fill="#000000" transform="matrix(1.00, 0.00, -0.00, -1.00, 511.2, 472.0)"> </text><text xml:space="preserve" font-family="Helvetica-Light" font-size="20.0" fill="#000000" transform="matrix(1.00, 0.00, -0.00, -1.00, 516.7, 472.0)">F</text><text xml:space="preserve" font-family="Helvetica-Light" font-size="20.0" fill="#000000" transform="matrix(1.00, 0.00, -0.00, -1.00, 527.8, 472.0)">r</text><text xml:space="preserve" font-family="Helvetica-Light" font-size="20.0" fill="#000000" transform="matrix(1.00, 0.00, -0.00, -1.00, 534.1, 472.0)">o</text><text xml:space="preserve" font-family="Helvetica-Light" font-size="20.0" fill="#000000" transform="matrix(1.00, 0.00, -0.00, -1.00, 545.3, 472.0)">n</text><text xml:space="preserve" font-family="Helvetica-Light" font-size="20.0" fill="#000000" transform="matrix(1.00, 0.00, -0.00, -1.00, 556.4, 472.0)">t</text><text xml:space="preserve" font-family="Helvetica-Light" font-size="20.0" fill="#000000" transform="matrix(1.00, 0.00, -0.00, -1.00, 561.9, 472.0)"> </text><text xml:space="preserve" font-family="Helvetica-Light" font-size="20.0" fill="#000000" transform="matrix(1.00, 0.00, -0.00, -1.00, 567.5, 472.0)">P</text><text xml:space="preserve" font-family="Helvetica-Light" font-size="20.0" fill="#000000" transform="matrix(1.00, 0.00, -0.00, -1.00, 579.7, 472.0)">a</text><text xml:space="preserve" font-family="Helvetica-Light" font-size="20.0" fill="#000000" transform="matrix(1.00, 0.00, -0.00, -1.00, 590.8, 472.0)">g</text><text xml:space="preserve" font-family="Helvetica-Light" font-size="20.0" fill="#000000" transform="matrix(1.00, 0.00, -0.00, -1.00, 603.1, 472.0)">e</text></g></g></g></svg>