<?xml version="1.0" encoding="UTF-8" standalone="no"?><svg xmlns="http://www.w3.org/2000/svg" xmlns:xlink="http://www.w3.org/1999/xlink" clip-rule="evenodd" stroke-miterlimit="4.00" viewBox="0 0 1024 768"><desc>SVG generated by Keynote</desc><defs></defs><g transform="matrix(1.00, 0.00, -0.00, -1.00, 0.0, 768.0)"><path d="M 0.0 768.0 L 1024.0 768.0 L 1024.0 0.0 L 0.0 0.0 Z M 0.0 768.0 " fill="#FEFFFF"></path><g><clipPath id="clip-11166"><path d="M 42.6 242.4 L 315.4 242.4 L 315.4 322.5 L 42.6 322.5 Z M 42.6 242.4 "></path></clipPath><g clip-path="url(#clip-11166)"><path d="M 44.6 256.4 L 44.6 308.5 C 44.6 315.1 50.0 320.5 56.5 320.5 L 301.5 320.5 C 308.0 320.5 313.4 315.1 313.4 308.5 L 313.4 256.4 C 313.4 249.8 308.0 244.4 301.5 244.4 L 56.5 244.4 C 50.0 244.4 44.6 249.8 44.6 256.4 Z M 44.6 256.4 " fill="#C7EAEE"></path><path d="M 0.0 64.1 L 0.0 11.9 C 0.0 5.3 5.3 0.0 11.9 0.0 L 256.8 0.0 C 263.4 0.0 268.8 5.3 268.8 11.9 L 268.8 64.1 C 268.8 70.7 263.4 76.0 256.8 76.0 L 11.9 76.0 C 5.3 76.0 0.0 70.7 0.0 64.1 Z M 0.0 64.1 " fill="none" stroke="#85878C" stroke-width="2.00" transform="matrix(1.00, 0.00, 0.00, -1.00, 44.6, 320.5)"></path></g></g><g><clipPath id="clip-11167"><path d="M 67.5 257.2 L 290.5 257.2 L 290.5 307.7 L 67.5 307.7 Z M 67.5 257.2 "></path></clipPath><g clip-path="url(#clip-11167)"><path d="M 69.5 305.7 L 288.5 305.7 L 288.5 259.2 L 69.5 259.2 Z M 69.5 305.7 " fill="#FEFFFF"></path><path d="M 0.0 0.0 L 219.1 0.0 L 219.1 46.4 L 0.0 46.4 Z M 0.0 0.0 " fill="none" stroke="#85878C" stroke-width="2.00" transform="matrix(1.00, 0.00, 0.00, -1.00, 69.5, 305.7)"></path></g></g><g><clipPath id="clip-11168"><path d="M 67.6 260.2 L 290.4 260.2 L 290.4 304.7 L 67.6 304.7 Z M 67.6 260.2 "></path></clipPath><g clip-path="url(#clip-11168)"><text xml:space="preserve" font-family="Helvetica-Light" font-size="20.0" fill="#000000" transform="matrix(1.00, 0.00, -0.00, -1.00, 97.0, 275.0)">5</text><text xml:space="preserve" font-family="Helvetica-Light" font-size="20.0" fill="#000000" transform="matrix(1.00, 0.00, -0.00, -1.00, 108.1, 275.0)">.</text><text xml:space="preserve" font-family="Helvetica-Light" font-size="20.0" fill="#000000" transform="matrix(1.00, 0.00, -0.00, -1.00, 113.7, 275.0)">4</text><text xml:space="preserve" font-family="Helvetica-Light" font-size="20.0" fill="#000000" transform="matrix(1.00, 0.00, -0.00, -1.00, 124.8, 275.0)">.</text><text xml:space="preserve" font-family="Helvetica-Light" font-size="20.0" fill="#000000" transform="matrix(1.00, 0.00, -0.00, -1.00, 130.4, 275.0)"> </text><text xml:space="preserve" font-family="Helvetica-Light" font-size="20.0" fill="#000000" transform="matrix(1.00, 0.00, -0.00, -1.00, 135.9, 275.0)">O</text><text xml:space="preserve" font-family="Helvetica-Light" font-size="20.0" fill="#000000" transform="matrix(1.00, 0.00, -0.00, -1.00, 151.5, 275.0)">t</text><text xml:space="preserve" font-family="Helvetica-Light" font-size="20.0" fill="#000000" transform="matrix(1.00, 0.00, -0.00, -1.00, 157.0, 275.0)">h</text><text xml:space="preserve" font-family="Helvetica-Light" font-size="20.0" fill="#000000" transform="matrix(1.00, 0.00, -0.00, -1.00, 168.2, 275.0)">e</text><text xml:space="preserve" font-family="Helvetica-Light" font-size="20.0" fill="#000000" transform="matrix(1.00, 0.00, -0.00, -1.00, 179.3, 275.0)">r</text><text xml:space="preserve" font-family="Helvetica-Light" font-size="20.0" fill="#000000" transform="matrix(1.00, 0.00, -0.00, -1.00, 185.9, 275.0)"> </text><text xml:space="preserve" font-family="Helvetica-Light" font-size="20.0" fill="#000000" transform="matrix(1.00, 0.00, -0.00, -1.00, 191.5, 275.0)">T</text><text xml:space="preserve" font-family="Helvetica-Light" font-size="20.0" fill="#000000" transform="matrix(1.00, 0.00, -0.00, -1.00, 200.8, 275.0)">r</text><text xml:space="preserve" font-family="Helvetica-Light" font-size="20.0" fill="#000000" transform="matrix(1.00, 0.00, -0.00, -1.00, 207.1, 275.0)">e</text><text xml:space="preserve" font-family="Helvetica-Light" font-size="20.0" fill="#000000" transform="matrix(1.00, 0.00, -0.00, -1.00, 218.2, 275.0)">a</text><text xml:space="preserve" font-family="Helvetica-Light" font-size="20.0" fill="#000000" transform="matrix(1.00, 0.00, -0.00, -1.00, 229.3, 275.0)">t</text><text xml:space="preserve" font-family="Helvetica-Light" font-size="20.0" fill="#000000" transform="matrix(1.00, 0.00, -0.00, -1.00, 234.9, 275.0)">i</text><text xml:space="preserve" font-family="Helvetica-Light" font-size="20.0" fill="#000000" transform="matrix(1.00, 0.00, -0.00, -1.00, 239.3, 275.0)">e</text><text xml:space="preserve" font-family="Helvetica-Light" font-size="20.0" fill="#000000" transform="matrix(1.00, 0.00, -0.00, -1.00, 250.4, 275.0)">s</text></g></g><g><clipPath id="clip-11169"><path d="M 42.6 448.7 L 315.4 448.7 L 315.4 528.7 L 42.6 528.7 Z M 42.6 448.7 "></path></clipPath><g clip-path="url(#clip-11169)"><path d="M 44.6 462.6 L 44.6 514.8 C 44.6 521.3 50.0 526.7 56.5 526.7 L 301.5 526.7 C 308.0 526.7 313.4 521.3 313.4 514.8 L 313.4 462.6 C 313.4 456.0 308.0 450.7 301.5 450.7 L 56.5 450.7 C 50.0 450.7 44.6 456.0 44.6 462.6 Z M 44.6 462.6 " fill="#C7EAEE"></path><path d="M 0.0 64.1 L 0.0 11.9 C 0.0 5.3 5.3 0.0 11.9 0.0 L 256.8 0.0 C 263.4 0.0 268.8 5.3 268.8 11.9 L 268.8 64.1 C 268.8 70.7 263.4 76.0 256.8 76.0 L 11.9 76.0 C 5.3 76.0 0.0 70.7 0.0 64.1 Z M 0.0 64.1 " fill="none" stroke="#85878C" stroke-width="2.00" transform="matrix(1.00, 0.00, 0.00, -1.00, 44.6, 526.7)"></path></g></g><g><clipPath id="clip-11170"><path d="M 67.5 463.5 L 290.5 463.5 L 290.5 513.9 L 67.5 513.9 Z M 67.5 463.5 "></path></clipPath><g clip-path="url(#clip-11170)"><path d="M 69.5 511.9 L 288.5 511.9 L 288.5 465.5 L 69.5 465.5 Z M 69.5 511.9 " fill="#FEFFFF"></path><path d="M 0.0 0.0 L 219.1 0.0 L 219.1 46.4 L 0.0 46.4 Z M 0.0 0.0 " fill="none" stroke="#85878C" stroke-width="2.00" transform="matrix(1.00, 0.00, 0.00, -1.00, 69.5, 511.9)"></path></g></g><g><clipPath id="clip-11171"><path d="M 67.6 466.5 L 290.4 466.5 L 290.4 510.9 L 67.6 510.9 Z M 67.6 466.5 "></path></clipPath><g clip-path="url(#clip-11171)"><text xml:space="preserve" font-family="Helvetica-Light" font-size="20.0" fill="#000000" transform="matrix(1.00, 0.00, -0.00, -1.00, 115.0, 481.0)">5</text><text xml:space="preserve" font-family="Helvetica-Light" font-size="20.0" fill="#000000" transform="matrix(1.00, 0.00, -0.00, -1.00, 126.1, 481.0)">.</text><text xml:space="preserve" font-family="Helvetica-Light" font-size="20.0" fill="#000000" transform="matrix(1.00, 0.00, -0.00, -1.00, 131.7, 481.0)">2</text><text xml:space="preserve" font-family="Helvetica-Light" font-size="20.0" fill="#000000" transform="matrix(1.00, 0.00, -0.00, -1.00, 142.8, 481.0)">.</text><text xml:space="preserve" font-family="Helvetica-Light" font-size="20.0" fill="#000000" transform="matrix(1.00, 0.00, -0.00, -1.00, 148.4, 481.0)"> </text><text xml:space="preserve" font-family="Helvetica-Light" font-size="20.0" fill="#000000" transform="matrix(1.00, 0.00, -0.00, -1.00, 153.9, 481.0)">A</text><text xml:space="preserve" font-family="Helvetica-Light" font-size="20.0" fill="#000000" transform="matrix(1.00, 0.00, -0.00, -1.00, 167.3, 481.0)">B</text><text xml:space="preserve" font-family="Helvetica-Light" font-size="20.0" fill="#000000" transform="matrix(1.00, 0.00, -0.00, -1.00, 180.6, 481.0)">S</text><text xml:space="preserve" font-family="Helvetica-Light" font-size="20.0" fill="#000000" transform="matrix(1.00, 0.00, -0.00, -1.00, 192.8, 481.0)"> </text><text xml:space="preserve" font-family="Helvetica-Light" font-size="20.0" fill="#000000" transform="matrix(1.00, 0.00, -0.00, -1.00, 198.4, 481.0)">C</text><text xml:space="preserve" font-family="Helvetica-Light" font-size="20.0" fill="#000000" transform="matrix(1.00, 0.00, -0.00, -1.00, 212.8, 481.0)">H</text><text xml:space="preserve" font-family="Helvetica-Light" font-size="20.0" fill="#000000" transform="matrix(1.00, 0.00, -0.00, -1.00, 227.3, 481.0)">M</text></g></g><g><clipPath id="clip-11172"><path d="M 42.6 549.4 L 315.4 549.4 L 315.4 629.4 L 42.6 629.4 Z M 42.6 549.4 "></path></clipPath><g clip-path="url(#clip-11172)"><path d="M 44.6 563.3 L 44.6 615.5 C 44.6 622.1 50.0 627.4 56.5 627.4 L 301.5 627.4 C 308.0 627.4 313.4 622.1 313.4 615.5 L 313.4 563.3 C 313.4 556.8 308.0 551.4 301.5 551.4 L 56.5 551.4 C 50.0 551.4 44.6 556.8 44.6 563.3 Z M 44.6 563.3 " fill="#C7EAEE"></path><path d="M 0.0 64.1 L 0.0 11.9 C 0.0 5.3 5.3 0.0 11.9 0.0 L 256.8 0.0 C 263.4 0.0 268.8 5.3 268.8 11.9 L 268.8 64.1 C 268.8 70.7 263.4 76.0 256.8 76.0 L 11.9 76.0 C 5.3 76.0 0.0 70.7 0.0 64.1 Z M 0.0 64.1 " fill="none" stroke="#85878C" stroke-width="2.00" transform="matrix(1.00, 0.00, 0.00, -1.00, 44.6, 627.4)"></path></g></g><g><clipPath id="clip-11173"><path d="M 67.5 564.2 L 290.5 564.2 L 290.5 614.6 L 67.5 614.6 Z M 67.5 564.2 "></path></clipPath><g clip-path="url(#clip-11173)"><path d="M 69.5 612.6 L 288.5 612.6 L 288.5 566.2 L 69.5 566.2 Z M 69.5 612.6 " fill="#FEFFFF"></path><path d="M 0.0 0.0 L 219.1 0.0 L 219.1 46.4 L 0.0 46.4 Z M 0.0 0.0 " fill="none" stroke="#85878C" stroke-width="2.00" transform="matrix(1.00, 0.00, 0.00, -1.00, 69.5, 612.6)"></path></g></g><g><clipPath id="clip-11174"><path d="M 67.6 567.2 L 290.4 567.2 L 290.4 611.6 L 67.6 611.6 Z M 67.6 567.2 "></path></clipPath><g clip-path="url(#clip-11174)"><text xml:space="preserve" font-family="Helvetica-Light" font-size="20.0" fill="#000000" transform="matrix(1.00, 0.00, -0.00, -1.00, 85.0, 582.0)">5</text><text xml:space="preserve" font-family="Helvetica-Light" font-size="20.0" fill="#000000" transform="matrix(1.00, 0.00, -0.00, -1.00, 96.1, 582.0)">.</text><text xml:space="preserve" font-family="Helvetica-Light" font-size="20.0" fill="#000000" transform="matrix(1.00, 0.00, -0.00, -1.00, 101.7, 582.0)">1</text><text xml:space="preserve" font-family="Helvetica-Light" font-size="20.0" fill="#000000" transform="matrix(1.00, 0.00, -0.00, -1.00, 112.8, 582.0)">.</text><text xml:space="preserve" font-family="Helvetica-Light" font-size="20.0" fill="#000000" transform="matrix(1.00, 0.00, -0.00, -1.00, 118.4, 582.0)"> </text><text xml:space="preserve" font-family="Helvetica-Light" font-size="20.0" fill="#000000" transform="matrix(1.00, 0.00, -0.00, -1.00, 123.9, 582.0)">N</text><text xml:space="preserve" font-family="Helvetica-Light" font-size="20.0" fill="#000000" transform="matrix(1.00, 0.00, -0.00, -1.00, 138.4, 582.0)">a</text><text xml:space="preserve" font-family="Helvetica-Light" font-size="20.0" fill="#000000" transform="matrix(1.00, 0.00, -0.00, -1.00, 149.5, 582.0)">g</text><text xml:space="preserve" font-family="Helvetica-Light" font-size="20.0" fill="#000000" transform="matrix(1.00, 0.00, -0.00, -1.00, 161.7, 582.0)">o</text><text xml:space="preserve" font-family="Helvetica-Light" font-size="20.0" fill="#000000" transform="matrix(1.00, 0.00, -0.00, -1.00, 172.8, 582.0)">y</text><text xml:space="preserve" font-family="Helvetica-Light" font-size="20.0" fill="#000000" transform="matrix(1.00, 0.00, -0.00, -1.00, 182.8, 582.0)">a</text><text xml:space="preserve" font-family="Helvetica-Light" font-size="20.0" fill="#000000" transform="matrix(1.00, 0.00, -0.00, -1.00, 193.9, 582.0)"> </text><text xml:space="preserve" font-family="Helvetica-Light" font-size="20.0" fill="#000000" transform="matrix(1.00, 0.00, -0.00, -1.00, 199.5, 582.0)">P</text><text xml:space="preserve" font-family="Helvetica-Light" font-size="20.0" fill="#000000" transform="matrix(1.00, 0.00, -0.00, -1.00, 211.7, 582.0)">r</text><text xml:space="preserve" font-family="Helvetica-Light" font-size="20.0" fill="#000000" transform="matrix(1.00, 0.00, -0.00, -1.00, 218.0, 582.0)">o</text><text xml:space="preserve" font-family="Helvetica-Light" font-size="20.0" fill="#000000" transform="matrix(1.00, 0.00, -0.00, -1.00, 229.1, 582.0)">t</text><text xml:space="preserve" font-family="Helvetica-Light" font-size="20.0" fill="#000000" transform="matrix(1.00, 0.00, -0.00, -1.00, 234.7, 582.0)">o</text><text xml:space="preserve" font-family="Helvetica-Light" font-size="20.0" fill="#000000" transform="matrix(1.00, 0.00, -0.00, -1.00, 245.8, 582.0)">c</text><text xml:space="preserve" font-family="Helvetica-Light" font-size="20.0" fill="#000000" transform="matrix(1.00, 0.00, -0.00, -1.00, 256.9, 582.0)">o</text><text xml:space="preserve" font-family="Helvetica-Light" font-size="20.0" fill="#000000" transform="matrix(1.00, 0.00, -0.00, -1.00, 268.1, 582.0)">l</text><text xml:space="preserve" font-family="Helvetica-Light" font-size="20.0" fill="#000000" transform="matrix(1.00, 0.00, -0.00, -1.00, 272.5, 582.0)"> </text></g></g><g><clipPath id="clip-11175"><path d="M 42.6 650.2 L 315.4 650.2 L 315.4 730.2 L 42.6 730.2 Z M 42.6 650.2 "></path></clipPath><g clip-path="url(#clip-11175)"><path d="M 44.6 664.1 L 44.6 716.3 C 44.6 722.8 50.0 728.2 56.5 728.2 L 301.5 728.2 C 308.0 728.2 313.4 722.8 313.4 716.3 L 313.4 664.1 C 313.4 657.5 308.0 652.2 301.5 652.2 L 56.5 652.2 C 50.0 652.2 44.6 657.5 44.6 664.1 Z M 44.6 664.1 " fill="#58AFDC"></path><path d="M 0.0 64.1 L 0.0 11.9 C 0.0 5.3 5.3 0.0 11.9 0.0 L 256.8 0.0 C 263.4 0.0 268.8 5.3 268.8 11.9 L 268.8 64.1 C 268.8 70.7 263.4 76.0 256.8 76.0 L 11.9 76.0 C 5.3 76.0 0.0 70.7 0.0 64.1 Z M 0.0 64.1 " fill="none" stroke="#85878C" stroke-width="2.00" transform="matrix(1.00, 0.00, 0.00, -1.00, 44.6, 728.2)"></path></g></g><g><clipPath id="clip-11176"><path d="M 67.5 665.0 L 290.5 665.0 L 290.5 715.4 L 67.5 715.4 Z M 67.5 665.0 "></path></clipPath><g clip-path="url(#clip-11176)"><path d="M 69.5 713.4 L 288.5 713.4 L 288.5 667.0 L 69.5 667.0 Z M 69.5 713.4 " fill="#FEFFFF"></path><path d="M 0.0 0.0 L 219.1 0.0 L 219.1 46.4 L 0.0 46.4 Z M 0.0 0.0 " fill="none" stroke="#85878C" stroke-width="2.00" transform="matrix(1.00, 0.00, 0.00, -1.00, 69.5, 713.4)"></path></g></g><g><clipPath id="clip-11177"><path d="M 67.6 668.0 L 290.4 668.0 L 290.4 712.4 L 67.6 712.4 Z M 67.6 668.0 "></path></clipPath><g clip-path="url(#clip-11177)"><text xml:space="preserve" font-family="Helvetica-Light" font-size="20.0" fill="#000000" transform="matrix(1.00, 0.00, -0.00, -1.00, 122.0, 683.0)">C</text><text xml:space="preserve" font-family="Helvetica-Light" font-size="20.0" fill="#000000" transform="matrix(1.00, 0.00, -0.00, -1.00, 136.4, 683.0)">o</text><text xml:space="preserve" font-family="Helvetica-Light" font-size="20.0" fill="#000000" transform="matrix(1.00, 0.00, -0.00, -1.00, 147.6, 683.0)">r</text><text xml:space="preserve" font-family="Helvetica-Light" font-size="20.0" fill="#000000" transform="matrix(1.00, 0.00, -0.00, -1.00, 153.9, 683.0)">e</text><text xml:space="preserve" font-family="Helvetica-Light" font-size="20.0" fill="#000000" transform="matrix(1.00, 0.00, -0.00, -1.00, 165.0, 683.0)"> </text><text xml:space="preserve" font-family="Helvetica-Light" font-size="20.0" fill="#000000" transform="matrix(1.00, 0.00, -0.00, -1.00, 170.5, 683.0)">S</text><text xml:space="preserve" font-family="Helvetica-Light" font-size="20.0" fill="#000000" transform="matrix(1.00, 0.00, -0.00, -1.00, 182.8, 683.0)">y</text><text xml:space="preserve" font-family="Helvetica-Light" font-size="20.0" fill="#000000" transform="matrix(1.00, 0.00, -0.00, -1.00, 192.8, 683.0)">s</text><text xml:space="preserve" font-family="Helvetica-Light" font-size="20.0" fill="#000000" transform="matrix(1.00, 0.00, -0.00, -1.00, 202.8, 683.0)">t</text><text xml:space="preserve" font-family="Helvetica-Light" font-size="20.0" fill="#000000" transform="matrix(1.00, 0.00, -0.00, -1.00, 208.3, 683.0)">e</text><text xml:space="preserve" font-family="Helvetica-Light" font-size="20.0" fill="#000000" transform="matrix(1.00, 0.00, -0.00, -1.00, 219.4, 683.0)">m</text></g></g><g><clipPath id="clip-11178"><path d="M 42.6 650.2 L 315.4 650.2 L 315.4 730.2 L 42.6 730.2 Z M 42.6 650.2 "></path></clipPath><g clip-path="url(#clip-11178)"><path d="M 44.6 664.1 L 44.6 716.3 C 44.6 722.8 50.0 728.2 56.5 728.2 L 301.5 728.2 C 308.0 728.2 313.4 722.8 313.4 716.3 L 313.4 664.1 C 313.4 657.5 308.0 652.2 301.5 652.2 L 56.5 652.2 C 50.0 652.2 44.6 657.5 44.6 664.1 Z M 44.6 664.1 " fill="#C7EAEE"></path><path d="M 0.0 64.1 L 0.0 11.9 C 0.0 5.3 5.3 0.0 11.9 0.0 L 256.8 0.0 C 263.4 0.0 268.8 5.3 268.8 11.9 L 268.8 64.1 C 268.8 70.7 263.4 76.0 256.8 76.0 L 11.9 76.0 C 5.3 76.0 0.0 70.7 0.0 64.1 Z M 0.0 64.1 " fill="none" stroke="#85878C" stroke-width="2.00" transform="matrix(1.00, 0.00, 0.00, -1.00, 44.6, 728.2)"></path></g></g><g><clipPath id="clip-11179"><path d="M 67.5 665.0 L 290.5 665.0 L 290.5 715.4 L 67.5 715.4 Z M 67.5 665.0 "></path></clipPath><g clip-path="url(#clip-11179)"><path d="M 69.5 713.4 L 288.5 713.4 L 288.5 667.0 L 69.5 667.0 Z M 69.5 713.4 " fill="#FEFFFF"></path><path d="M 0.0 0.0 L 219.1 0.0 L 219.1 46.4 L 0.0 46.4 Z M 0.0 0.0 " fill="none" stroke="#85878C" stroke-width="2.00" transform="matrix(1.00, 0.00, 0.00, -1.00, 69.5, 713.4)"></path></g></g><g><clipPath id="clip-11180"><path d="M 67.6 668.0 L 290.4 668.0 L 290.4 712.4 L 67.6 712.4 Z M 67.6 668.0 "></path></clipPath><g clip-path="url(#clip-11180)"><text xml:space="preserve" font-family="Helvetica-Light" font-size="20.0" fill="#000000" transform="matrix(1.00, 0.00, -0.00, -1.00, 124.0, 683.0)">5</text><text xml:space="preserve" font-family="Helvetica-Light" font-size="20.0" fill="#000000" transform="matrix(1.00, 0.00, -0.00, -1.00, 135.1, 683.0)">.</text><text xml:space="preserve" font-family="Helvetica-Light" font-size="20.0" fill="#000000" transform="matrix(1.00, 0.00, -0.00, -1.00, 140.7, 683.0)"> </text><text xml:space="preserve" font-family="Helvetica-Light" font-size="20.0" fill="#000000" transform="matrix(1.00, 0.00, -0.00, -1.00, 146.2, 683.0)">R</text><text xml:space="preserve" font-family="Helvetica-Light" font-size="20.0" fill="#000000" transform="matrix(1.00, 0.00, -0.00, -1.00, 159.6, 683.0)">e</text><text xml:space="preserve" font-family="Helvetica-Light" font-size="20.0" fill="#000000" transform="matrix(1.00, 0.00, -0.00, -1.00, 170.7, 683.0)">p</text><text xml:space="preserve" font-family="Helvetica-Light" font-size="20.0" fill="#000000" transform="matrix(1.00, 0.00, -0.00, -1.00, 182.9, 683.0)">o</text><text xml:space="preserve" font-family="Helvetica-Light" font-size="20.0" fill="#000000" transform="matrix(1.00, 0.00, -0.00, -1.00, 194.0, 683.0)">r</text><text xml:space="preserve" font-family="Helvetica-Light" font-size="20.0" fill="#000000" transform="matrix(1.00, 0.00, -0.00, -1.00, 201.1, 683.0)">t</text><text xml:space="preserve" font-family="Helvetica-Light" font-size="20.0" fill="#000000" transform="matrix(1.00, 0.00, -0.00, -1.00, 206.6, 683.0)">i</text><text xml:space="preserve" font-family="Helvetica-Light" font-size="20.0" fill="#000000" transform="matrix(1.00, 0.00, -0.00, -1.00, 211.1, 683.0)">n</text><text xml:space="preserve" font-family="Helvetica-Light" font-size="20.0" fill="#000000" transform="matrix(1.00, 0.00, -0.00, -1.00, 222.2, 683.0)">g</text></g></g><g><clipPath id="clip-11181"><path d="M 42.6 40.9 L 315.4 40.9 L 315.4 121.0 L 42.6 121.0 Z M 42.6 40.9 "></path></clipPath><g clip-path="url(#clip-11181)"><path d="M 44.6 54.9 L 44.6 107.0 C 44.6 113.6 50.0 119.0 56.5 119.0 L 301.5 119.0 C 308.0 119.0 313.4 113.6 313.4 107.0 L 313.4 54.9 C 313.4 48.3 308.0 42.9 301.5 42.9 L 56.5 42.9 C 50.0 42.9 44.6 48.3 44.6 54.9 Z M 44.6 54.9 " fill="#58AFDC"></path><path d="M 0.0 64.1 L 0.0 11.9 C 0.0 5.3 5.3 0.0 11.9 0.0 L 256.8 0.0 C 263.4 0.0 268.8 5.3 268.8 11.9 L 268.8 64.1 C 268.8 70.7 263.4 76.0 256.8 76.0 L 11.9 76.0 C 5.3 76.0 0.0 70.7 0.0 64.1 Z M 0.0 64.1 " fill="none" stroke="#85878C" stroke-width="2.00" transform="matrix(1.00, 0.00, 0.00, -1.00, 44.6, 119.0)"></path></g></g><g><clipPath id="clip-11182"><path d="M 67.5 55.7 L 290.5 55.7 L 290.5 106.2 L 67.5 106.2 Z M 67.5 55.7 "></path></clipPath><g clip-path="url(#clip-11182)"><path d="M 69.5 104.2 L 288.5 104.2 L 288.5 57.7 L 69.5 57.7 Z M 69.5 104.2 " fill="#FEFFFF"></path><path d="M 0.0 0.0 L 219.1 0.0 L 219.1 46.4 L 0.0 46.4 Z M 0.0 0.0 " fill="none" stroke="#85878C" stroke-width="2.00" transform="matrix(1.00, 0.00, 0.00, -1.00, 69.5, 104.2)"></path></g></g><g><clipPath id="clip-11183"><path d="M 67.6 58.7 L 290.4 58.7 L 290.4 103.2 L 67.6 103.2 Z M 67.6 58.7 "></path></clipPath><g clip-path="url(#clip-11183)"><text xml:space="preserve" font-family="Helvetica-Light" font-size="20.0" fill="#000000" transform="matrix(1.00, 0.00, -0.00, -1.00, 102.0, 74.0)">4</text><text xml:space="preserve" font-family="Helvetica-Light" font-size="20.0" fill="#000000" transform="matrix(1.00, 0.00, -0.00, -1.00, 113.1, 74.0)">.</text><text xml:space="preserve" font-family="Helvetica-Light" font-size="20.0" fill="#000000" transform="matrix(1.00, 0.00, -0.00, -1.00, 118.7, 74.0)">6</text><text xml:space="preserve" font-family="Helvetica-Light" font-size="20.0" fill="#000000" transform="matrix(1.00, 0.00, -0.00, -1.00, 129.8, 74.0)">.</text><text xml:space="preserve" font-family="Helvetica-Light" font-size="20.0" fill="#000000" transform="matrix(1.00, 0.00, -0.00, -1.00, 135.4, 74.0)"> </text><text xml:space="preserve" font-family="Helvetica-Light" font-size="20.0" fill="#000000" transform="matrix(1.00, 0.00, -0.00, -1.00, 140.9, 74.0)">D</text><text xml:space="preserve" font-family="Helvetica-Light" font-size="20.0" fill="#000000" transform="matrix(1.00, 0.00, -0.00, -1.00, 155.4, 74.0)">a</text><text xml:space="preserve" font-family="Helvetica-Light" font-size="20.0" fill="#000000" transform="matrix(1.00, 0.00, -0.00, -1.00, 166.5, 74.0)">t</text><text xml:space="preserve" font-family="Helvetica-Light" font-size="20.0" fill="#000000" transform="matrix(1.00, 0.00, -0.00, -1.00, 172.0, 74.0)">a</text><text xml:space="preserve" font-family="Helvetica-Light" font-size="20.0" fill="#000000" transform="matrix(1.00, 0.00, -0.00, -1.00, 183.2, 74.0)"> </text><text xml:space="preserve" font-family="Helvetica-Light" font-size="20.0" fill="#000000" transform="matrix(1.00, 0.00, -0.00, -1.00, 188.7, 74.0)">A</text><text xml:space="preserve" font-family="Helvetica-Light" font-size="20.0" fill="#000000" transform="matrix(1.00, 0.00, -0.00, -1.00, 202.1, 74.0)">r</text><text xml:space="preserve" font-family="Helvetica-Light" font-size="20.0" fill="#000000" transform="matrix(1.00, 0.00, -0.00, -1.00, 208.4, 74.0)">c</text><text xml:space="preserve" font-family="Helvetica-Light" font-size="20.0" fill="#000000" transform="matrix(1.00, 0.00, -0.00, -1.00, 219.5, 74.0)">h</text><text xml:space="preserve" font-family="Helvetica-Light" font-size="20.0" fill="#000000" transform="matrix(1.00, 0.00, -0.00, -1.00, 230.6, 74.0)">i</text><text xml:space="preserve" font-family="Helvetica-Light" font-size="20.0" fill="#000000" transform="matrix(1.00, 0.00, -0.00, -1.00, 235.0, 74.0)">v</text><text xml:space="preserve" font-family="Helvetica-Light" font-size="20.0" fill="#000000" transform="matrix(1.00, 0.00, -0.00, -1.00, 245.0, 74.0)">e</text></g></g><g><clipPath id="clip-11184"><path d="M 42.6 139.1 L 315.4 139.1 L 315.4 219.1 L 42.6 219.1 Z M 42.6 139.1 "></path></clipPath><g clip-path="url(#clip-11184)"><path d="M 44.6 153.0 L 44.6 205.2 C 44.6 211.8 50.0 217.1 56.5 217.1 L 301.5 217.1 C 308.0 217.1 313.4 211.8 313.4 205.2 L 313.4 153.0 C 313.4 146.5 308.0 141.1 301.5 141.1 L 56.5 141.1 C 50.0 141.1 44.6 146.5 44.6 153.0 Z M 44.6 153.0 " fill="#C7EAEE"></path><path d="M 0.0 64.1 L 0.0 11.9 C 0.0 5.3 5.3 0.0 11.9 0.0 L 256.8 0.0 C 263.4 0.0 268.8 5.3 268.8 11.9 L 268.8 64.1 C 268.8 70.7 263.4 76.0 256.8 76.0 L 11.9 76.0 C 5.3 76.0 0.0 70.7 0.0 64.1 Z M 0.0 64.1 " fill="none" stroke="#85878C" stroke-width="2.00" transform="matrix(1.00, 0.00, 0.00, -1.00, 44.6, 217.1)"></path></g></g><g><clipPath id="clip-11185"><path d="M 67.5 153.9 L 290.5 153.9 L 290.5 204.3 L 67.5 204.3 Z M 67.5 153.9 "></path></clipPath><g clip-path="url(#clip-11185)"><path d="M 69.5 202.3 L 288.5 202.3 L 288.5 155.9 L 69.5 155.9 Z M 69.5 202.3 " fill="#FEFFFF"></path><path d="M 0.0 0.0 L 219.1 0.0 L 219.1 46.4 L 0.0 46.4 Z M 0.0 0.0 " fill="none" stroke="#85878C" stroke-width="2.00" transform="matrix(1.00, 0.00, 0.00, -1.00, 69.5, 202.3)"></path></g></g><g><clipPath id="clip-11186"><path d="M 67.6 156.9 L 290.4 156.9 L 290.4 201.3 L 67.6 201.3 Z M 67.6 156.9 "></path></clipPath><g clip-path="url(#clip-11186)"><text xml:space="preserve" font-family="Helvetica-Light" font-size="20.0" fill="#000000" transform="matrix(1.00, 0.00, -0.00, -1.00, 85.0, 172.0)">5</text><text xml:space="preserve" font-family="Helvetica-Light" font-size="20.0" fill="#000000" transform="matrix(1.00, 0.00, -0.00, -1.00, 96.1, 172.0)">.</text><text xml:space="preserve" font-family="Helvetica-Light" font-size="20.0" fill="#000000" transform="matrix(1.00, 0.00, -0.00, -1.00, 101.7, 172.0)">5</text><text xml:space="preserve" font-family="Helvetica-Light" font-size="20.0" fill="#000000" transform="matrix(1.00, 0.00, -0.00, -1.00, 112.8, 172.0)">.</text><text xml:space="preserve" font-family="Helvetica-Light" font-size="20.0" fill="#000000" transform="matrix(1.00, 0.00, -0.00, -1.00, 118.4, 172.0)"> </text><text xml:space="preserve" font-family="Helvetica-Light" font-size="20.0" fill="#000000" transform="matrix(1.00, 0.00, -0.00, -1.00, 123.9, 172.0)">O</text><text xml:space="preserve" font-family="Helvetica-Light" font-size="20.0" fill="#000000" transform="matrix(1.00, 0.00, -0.00, -1.00, 139.5, 172.0)">t</text><text xml:space="preserve" font-family="Helvetica-Light" font-size="20.0" fill="#000000" transform="matrix(1.00, 0.00, -0.00, -1.00, 145.0, 172.0)">h</text><text xml:space="preserve" font-family="Helvetica-Light" font-size="20.0" fill="#000000" transform="matrix(1.00, 0.00, -0.00, -1.00, 156.2, 172.0)">e</text><text xml:space="preserve" font-family="Helvetica-Light" font-size="20.0" fill="#000000" transform="matrix(1.00, 0.00, -0.00, -1.00, 167.3, 172.0)">r</text><text xml:space="preserve" font-family="Helvetica-Light" font-size="20.0" fill="#000000" transform="matrix(1.00, 0.00, -0.00, -1.00, 173.9, 172.0)"> </text><text xml:space="preserve" font-family="Helvetica-Light" font-size="20.0" fill="#000000" transform="matrix(1.00, 0.00, -0.00, -1.00, 179.5, 172.0)">P</text><text xml:space="preserve" font-family="Helvetica-Light" font-size="20.0" fill="#000000" transform="matrix(1.00, 0.00, -0.00, -1.00, 191.7, 172.0)">r</text><text xml:space="preserve" font-family="Helvetica-Light" font-size="20.0" fill="#000000" transform="matrix(1.00, 0.00, -0.00, -1.00, 198.0, 172.0)">o</text><text xml:space="preserve" font-family="Helvetica-Light" font-size="20.0" fill="#000000" transform="matrix(1.00, 0.00, -0.00, -1.00, 209.1, 172.0)">c</text><text xml:space="preserve" font-family="Helvetica-Light" font-size="20.0" fill="#000000" transform="matrix(1.00, 0.00, -0.00, -1.00, 220.3, 172.0)">e</text><text xml:space="preserve" font-family="Helvetica-Light" font-size="20.0" fill="#000000" transform="matrix(1.00, 0.00, -0.00, -1.00, 231.4, 172.0)">s</text><text xml:space="preserve" font-family="Helvetica-Light" font-size="20.0" fill="#000000" transform="matrix(1.00, 0.00, -0.00, -1.00, 241.4, 172.0)">s</text><text xml:space="preserve" font-family="Helvetica-Light" font-size="20.0" fill="#000000" transform="matrix(1.00, 0.00, -0.00, -1.00, 251.4, 172.0)">e</text><text xml:space="preserve" font-family="Helvetica-Light" font-size="20.0" fill="#000000" transform="matrix(1.00, 0.00, -0.00, -1.00, 262.5, 172.0)">s</text></g></g><g><clipPath id="clip-11187"><path d="M 389.6 445.5 L 662.4 445.5 L 662.4 525.5 L 389.6 525.5 Z M 389.6 445.5 "></path></clipPath><g clip-path="url(#clip-11187)"><path d="M 391.6 459.4 L 391.6 511.6 C 391.6 518.2 397.0 523.5 403.5 523.5 L 648.5 523.5 C 655.0 523.5 660.4 518.2 660.4 511.6 L 660.4 459.4 C 660.4 452.9 655.0 447.5 648.5 447.5 L 403.5 447.5 C 397.0 447.5 391.6 452.9 391.6 459.4 Z M 391.6 459.4 " fill="#7BC8C5"></path><path d="M 0.0 64.1 L 0.0 11.9 C 0.0 5.3 5.3 0.0 11.9 0.0 L 256.8 0.0 C 263.4 0.0 268.8 5.3 268.8 11.9 L 268.8 64.1 C 268.8 70.7 263.4 76.0 256.8 76.0 L 11.9 76.0 C 5.3 76.0 0.0 70.7 0.0 64.1 Z M 0.0 64.1 " fill="none" stroke="#85878C" stroke-width="2.00" transform="matrix(1.00, 0.00, 0.00, -1.00, 391.6, 523.5)"></path></g></g><g><clipPath id="clip-11188"><path d="M 414.5 460.3 L 637.5 460.3 L 637.5 510.7 L 414.5 510.7 Z M 414.5 460.3 "></path></clipPath><g clip-path="url(#clip-11188)"><path d="M 416.5 508.7 L 635.5 508.7 L 635.5 462.3 L 416.5 462.3 Z M 416.5 508.7 " fill="#FEFFFF"></path><path d="M 0.0 0.0 L 219.1 0.0 L 219.1 46.4 L 0.0 46.4 Z M 0.0 0.0 " fill="none" stroke="#85878C" stroke-width="2.00" transform="matrix(1.00, 0.00, 0.00, -1.00, 416.5, 508.7)"></path></g></g><g><clipPath id="clip-11189"><path d="M 414.6 463.3 L 637.4 463.3 L 637.4 507.7 L 414.6 507.7 Z M 414.6 463.3 "></path></clipPath><g clip-path="url(#clip-11189)"><text xml:space="preserve" font-family="Helvetica-Light" font-size="20.0" fill="#000000" transform="matrix(1.00, 0.00, -0.00, -1.00, 477.0, 478.0)">C</text><text xml:space="preserve" font-family="Helvetica-Light" font-size="20.0" fill="#000000" transform="matrix(1.00, 0.00, -0.00, -1.00, 491.4, 478.0)">a</text><text xml:space="preserve" font-family="Helvetica-Light" font-size="20.0" fill="#000000" transform="matrix(1.00, 0.00, -0.00, -1.00, 502.6, 478.0)">t</text><text xml:space="preserve" font-family="Helvetica-Light" font-size="20.0" fill="#000000" transform="matrix(1.00, 0.00, -0.00, -1.00, 508.1, 478.0)">e</text><text xml:space="preserve" font-family="Helvetica-Light" font-size="20.0" fill="#000000" transform="matrix(1.00, 0.00, -0.00, -1.00, 519.2, 478.0)">g</text><text xml:space="preserve" font-family="Helvetica-Light" font-size="20.0" fill="#000000" transform="matrix(1.00, 0.00, -0.00, -1.00, 531.5, 478.0)">o</text><text xml:space="preserve" font-family="Helvetica-Light" font-size="20.0" fill="#000000" transform="matrix(1.00, 0.00, -0.00, -1.00, 542.6, 478.0)">r</text><text xml:space="preserve" font-family="Helvetica-Light" font-size="20.0" fill="#000000" transform="matrix(1.00, 0.00, -0.00, -1.00, 549.2, 478.0)">i</text><text xml:space="preserve" font-family="Helvetica-Light" font-size="20.0" fill="#000000" transform="matrix(1.00, 0.00, -0.00, -1.00, 553.7, 478.0)">e</text><text xml:space="preserve" font-family="Helvetica-Light" font-size="20.0" fill="#000000" transform="matrix(1.00, 0.00, -0.00, -1.00, 564.8, 478.0)">s</text></g></g><path d="M 0.0 0.0 L 80.0 0.0 " fill="none" stroke="#000000" stroke-width="2.00" transform="matrix(1.00, 0.00, 0.00, -1.00, 313.0, 485.5)"></path><g><clipPath id="clip-11190"><path d="M 387.6 345.6 L 660.4 345.6 L 660.4 425.6 L 387.6 425.6 Z M 387.6 345.6 "></path></clipPath><g clip-path="url(#clip-11190)"><path d="M 389.6 359.5 L 389.6 411.6 C 389.6 418.2 395.0 423.6 401.5 423.6 L 646.5 423.6 C 653.0 423.6 658.4 418.2 658.4 411.6 L 658.4 359.5 C 658.4 352.9 653.0 347.6 646.5 347.6 L 401.5 347.6 C 395.0 347.6 389.6 352.9 389.6 359.5 Z M 389.6 359.5 " fill="#7BC8C5"></path><path d="M 0.0 64.1 L 0.0 11.9 C 0.0 5.3 5.3 0.0 11.9 0.0 L 256.8 0.0 C 263.4 0.0 268.8 5.3 268.8 11.9 L 268.8 64.1 C 268.8 70.7 263.4 76.0 256.8 76.0 L 11.9 76.0 C 5.3 76.0 0.0 70.7 0.0 64.1 Z M 0.0 64.1 " fill="none" stroke="#85878C" stroke-width="2.00" transform="matrix(1.00, 0.00, 0.00, -1.00, 389.6, 423.6)"></path></g></g><g><clipPath id="clip-11191"><path d="M 412.5 360.3 L 635.5 360.3 L 635.5 410.8 L 412.5 410.8 Z M 412.5 360.3 "></path></clipPath><g clip-path="url(#clip-11191)"><path d="M 414.5 408.8 L 633.5 408.8 L 633.5 362.3 L 414.5 362.3 Z M 414.5 408.8 " fill="#FEFFFF"></path><path d="M 0.0 0.0 L 219.1 0.0 L 219.1 46.4 L 0.0 46.4 Z M 0.0 0.0 " fill="none" stroke="#85878C" stroke-width="2.00" transform="matrix(1.00, 0.00, 0.00, -1.00, 414.5, 408.8)"></path></g></g><g><clipPath id="clip-11192"><path d="M 412.6 363.3 L 635.4 363.3 L 635.4 407.8 L 412.6 407.8 Z M 412.6 363.3 "></path></clipPath><g clip-path="url(#clip-11192)"><text xml:space="preserve" font-family="Helvetica-Light" font-size="20.0" fill="#000000" transform="matrix(1.00, 0.00, -0.00, -1.00, 469.0, 378.0)">A</text><text xml:space="preserve" font-family="Helvetica-Light" font-size="20.0" fill="#000000" transform="matrix(1.00, 0.00, -0.00, -1.00, 482.3, 378.0)">s</text><text xml:space="preserve" font-family="Helvetica-Light" font-size="20.0" fill="#000000" transform="matrix(1.00, 0.00, -0.00, -1.00, 492.3, 378.0)"> </text><text xml:space="preserve" font-family="Helvetica-Light" font-size="20.0" fill="#000000" transform="matrix(1.00, 0.00, -0.00, -1.00, 497.9, 378.0)">R</text><text xml:space="preserve" font-family="Helvetica-Light" font-size="20.0" fill="#000000" transform="matrix(1.00, 0.00, -0.00, -1.00, 511.2, 378.0)">e</text><text xml:space="preserve" font-family="Helvetica-Light" font-size="20.0" fill="#000000" transform="matrix(1.00, 0.00, -0.00, -1.00, 522.4, 378.0)">q</text><text xml:space="preserve" font-family="Helvetica-Light" font-size="20.0" fill="#000000" transform="matrix(1.00, 0.00, -0.00, -1.00, 534.6, 378.0)">u</text><text xml:space="preserve" font-family="Helvetica-Light" font-size="20.0" fill="#000000" transform="matrix(1.00, 0.00, -0.00, -1.00, 545.7, 378.0)">i</text><text xml:space="preserve" font-family="Helvetica-Light" font-size="20.0" fill="#000000" transform="matrix(1.00, 0.00, -0.00, -1.00, 550.1, 378.0)">r</text><text xml:space="preserve" font-family="Helvetica-Light" font-size="20.0" fill="#000000" transform="matrix(1.00, 0.00, -0.00, -1.00, 556.4, 378.0)">e</text><text xml:space="preserve" font-family="Helvetica-Light" font-size="20.0" fill="#000000" transform="matrix(1.00, 0.00, -0.00, -1.00, 567.6, 378.0)">d</text></g></g><path d="M 0.0 0.0 L 80.0 0.0 " fill="none" stroke="#000000" stroke-width="2.00" transform="matrix(1.00, 0.00, 0.00, -1.00, 311.0, 385.6)"></path><g><clipPath id="clip-11193"><path d="M 390.6 245.6 L 663.4 245.6 L 663.4 325.6 L 390.6 325.6 Z M 390.6 245.6 "></path></clipPath><g clip-path="url(#clip-11193)"><path d="M 392.6 259.5 L 392.6 311.7 C 392.6 318.3 398.0 323.6 404.5 323.6 L 649.5 323.6 C 656.0 323.6 661.4 318.3 661.4 311.7 L 661.4 259.5 C 661.4 252.9 656.0 247.6 649.5 247.6 L 404.5 247.6 C 398.0 247.6 392.6 252.9 392.6 259.5 Z M 392.6 259.5 " fill="#7BC8C5"></path><path d="M 0.0 64.1 L 0.0 11.9 C 0.0 5.3 5.3 0.0 11.9 0.0 L 256.8 0.0 C 263.4 0.0 268.8 5.3 268.8 11.9 L 268.8 64.1 C 268.8 70.7 263.4 76.0 256.8 76.0 L 11.9 76.0 C 5.3 76.0 0.0 70.7 0.0 64.1 Z M 0.0 64.1 " fill="none" stroke="#85878C" stroke-width="2.00" transform="matrix(1.00, 0.00, 0.00, -1.00, 392.6, 323.6)"></path></g></g><g><clipPath id="clip-11194"><path d="M 415.5 260.4 L 638.5 260.4 L 638.5 310.8 L 415.5 310.8 Z M 415.5 260.4 "></path></clipPath><g clip-path="url(#clip-11194)"><path d="M 417.5 308.8 L 636.5 308.8 L 636.5 262.4 L 417.5 262.4 Z M 417.5 308.8 " fill="#FEFFFF"></path><path d="M 0.0 0.0 L 219.1 0.0 L 219.1 46.4 L 0.0 46.4 Z M 0.0 0.0 " fill="none" stroke="#85878C" stroke-width="2.00" transform="matrix(1.00, 0.00, 0.00, -1.00, 417.5, 308.8)"></path></g></g><g><clipPath id="clip-11195"><path d="M 415.6 263.4 L 638.4 263.4 L 638.4 307.8 L 415.6 307.8 Z M 415.6 263.4 "></path></clipPath><g clip-path="url(#clip-11195)"><text xml:space="preserve" font-family="Helvetica-Light" font-size="20.0" fill="#000000" transform="matrix(1.00, 0.00, -0.00, -1.00, 472.0, 278.0)">A</text><text xml:space="preserve" font-family="Helvetica-Light" font-size="20.0" fill="#000000" transform="matrix(1.00, 0.00, -0.00, -1.00, 485.3, 278.0)">s</text><text xml:space="preserve" font-family="Helvetica-Light" font-size="20.0" fill="#000000" transform="matrix(1.00, 0.00, -0.00, -1.00, 495.3, 278.0)"> </text><text xml:space="preserve" font-family="Helvetica-Light" font-size="20.0" fill="#000000" transform="matrix(1.00, 0.00, -0.00, -1.00, 500.9, 278.0)">R</text><text xml:space="preserve" font-family="Helvetica-Light" font-size="20.0" fill="#000000" transform="matrix(1.00, 0.00, -0.00, -1.00, 514.2, 278.0)">e</text><text xml:space="preserve" font-family="Helvetica-Light" font-size="20.0" fill="#000000" transform="matrix(1.00, 0.00, -0.00, -1.00, 525.4, 278.0)">q</text><text xml:space="preserve" font-family="Helvetica-Light" font-size="20.0" fill="#000000" transform="matrix(1.00, 0.00, -0.00, -1.00, 537.6, 278.0)">u</text><text xml:space="preserve" font-family="Helvetica-Light" font-size="20.0" fill="#000000" transform="matrix(1.00, 0.00, -0.00, -1.00, 548.7, 278.0)">i</text><text xml:space="preserve" font-family="Helvetica-Light" font-size="20.0" fill="#000000" transform="matrix(1.00, 0.00, -0.00, -1.00, 553.1, 278.0)">r</text><text xml:space="preserve" font-family="Helvetica-Light" font-size="20.0" fill="#000000" transform="matrix(1.00, 0.00, -0.00, -1.00, 559.4, 278.0)">e</text><text xml:space="preserve" font-family="Helvetica-Light" font-size="20.0" fill="#000000" transform="matrix(1.00, 0.00, -0.00, -1.00, 570.6, 278.0)">d</text></g></g><path d="M 0.0 0.0 L 80.0 0.0 " fill="none" stroke="#000000" stroke-width="2.00" transform="matrix(1.00, 0.00, 0.00, -1.00, 314.0, 285.6)"></path><g><clipPath id="clip-11196"><path d="M 390.6 145.6 L 663.4 145.6 L 663.4 225.7 L 390.6 225.7 Z M 390.6 145.6 "></path></clipPath><g clip-path="url(#clip-11196)"><path d="M 392.6 159.6 L 392.6 211.7 C 392.6 218.3 398.0 223.7 404.5 223.7 L 649.5 223.7 C 656.0 223.7 661.4 218.3 661.4 211.7 L 661.4 159.6 C 661.4 153.0 656.0 147.6 649.5 147.6 L 404.5 147.6 C 398.0 147.6 392.6 153.0 392.6 159.6 Z M 392.6 159.6 " fill="#7BC8C5"></path><path d="M 0.0 64.1 L 0.0 11.9 C 0.0 5.3 5.3 0.0 11.9 0.0 L 256.8 0.0 C 263.4 0.0 268.8 5.3 268.8 11.9 L 268.8 64.1 C 268.8 70.7 263.4 76.0 256.8 76.0 L 11.9 76.0 C 5.3 76.0 0.0 70.7 0.0 64.1 Z M 0.0 64.1 " fill="none" stroke="#85878C" stroke-width="2.00" transform="matrix(1.00, 0.00, 0.00, -1.00, 392.6, 223.7)"></path></g></g><g><clipPath id="clip-11197"><path d="M 415.5 160.4 L 638.5 160.4 L 638.5 210.9 L 415.5 210.9 Z M 415.5 160.4 "></path></clipPath><g clip-path="url(#clip-11197)"><path d="M 417.5 208.9 L 636.5 208.9 L 636.5 162.4 L 417.5 162.4 Z M 417.5 208.9 " fill="#FEFFFF"></path><path d="M 0.0 0.0 L 219.1 0.0 L 219.1 46.4 L 0.0 46.4 Z M 0.0 0.0 " fill="none" stroke="#85878C" stroke-width="2.00" transform="matrix(1.00, 0.00, 0.00, -1.00, 417.5, 208.9)"></path></g></g><g><clipPath id="clip-11198"><path d="M 415.6 163.4 L 638.4 163.4 L 638.4 207.9 L 415.6 207.9 Z M 415.6 163.4 "></path></clipPath><g clip-path="url(#clip-11198)"><text xml:space="preserve" font-family="Helvetica-Light" font-size="20.0" fill="#000000" transform="matrix(1.00, 0.00, -0.00, -1.00, 472.0, 178.0)">A</text><text xml:space="preserve" font-family="Helvetica-Light" font-size="20.0" fill="#000000" transform="matrix(1.00, 0.00, -0.00, -1.00, 485.3, 178.0)">s</text><text xml:space="preserve" font-family="Helvetica-Light" font-size="20.0" fill="#000000" transform="matrix(1.00, 0.00, -0.00, -1.00, 495.3, 178.0)"> </text><text xml:space="preserve" font-family="Helvetica-Light" font-size="20.0" fill="#000000" transform="matrix(1.00, 0.00, -0.00, -1.00, 500.9, 178.0)">R</text><text xml:space="preserve" font-family="Helvetica-Light" font-size="20.0" fill="#000000" transform="matrix(1.00, 0.00, -0.00, -1.00, 514.2, 178.0)">e</text><text xml:space="preserve" font-family="Helvetica-Light" font-size="20.0" fill="#000000" transform="matrix(1.00, 0.00, -0.00, -1.00, 525.4, 178.0)">q</text><text xml:space="preserve" font-family="Helvetica-Light" font-size="20.0" fill="#000000" transform="matrix(1.00, 0.00, -0.00, -1.00, 537.6, 178.0)">u</text><text xml:space="preserve" font-family="Helvetica-Light" font-size="20.0" fill="#000000" transform="matrix(1.00, 0.00, -0.00, -1.00, 548.7, 178.0)">i</text><text xml:space="preserve" font-family="Helvetica-Light" font-size="20.0" fill="#000000" transform="matrix(1.00, 0.00, -0.00, -1.00, 553.1, 178.0)">r</text><text xml:space="preserve" font-family="Helvetica-Light" font-size="20.0" fill="#000000" transform="matrix(1.00, 0.00, -0.00, -1.00, 559.4, 178.0)">e</text><text xml:space="preserve" font-family="Helvetica-Light" font-size="20.0" fill="#000000" transform="matrix(1.00, 0.00, -0.00, -1.00, 570.6, 178.0)">d</text></g></g><path d="M 0.0 0.0 L 80.0 0.0 " fill="none" stroke="#000000" stroke-width="2.00" transform="matrix(1.00, 0.00, 0.00, -1.00, 314.0, 185.7)"></path><g><clipPath id="clip-11199"><path d="M 42.6 345.6 L 315.4 345.6 L 315.4 425.6 L 42.6 425.6 Z M 42.6 345.6 "></path></clipPath><g clip-path="url(#clip-11199)"><path d="M 44.6 359.5 L 44.6 411.6 C 44.6 418.2 50.0 423.6 56.5 423.6 L 301.5 423.6 C 308.0 423.6 313.4 418.2 313.4 411.6 L 313.4 359.5 C 313.4 352.9 308.0 347.6 301.5 347.6 L 56.5 347.6 C 50.0 347.6 44.6 352.9 44.6 359.5 Z M 44.6 359.5 " fill="#C7EAEE"></path><path d="M 0.0 64.1 L 0.0 11.9 C 0.0 5.3 5.3 0.0 11.9 0.0 L 256.8 0.0 C 263.4 0.0 268.8 5.3 268.8 11.9 L 268.8 64.1 C 268.8 70.7 263.4 76.0 256.8 76.0 L 11.9 76.0 C 5.3 76.0 0.0 70.7 0.0 64.1 Z M 0.0 64.1 " fill="none" stroke="#85878C" stroke-width="2.00" transform="matrix(1.00, 0.00, 0.00, -1.00, 44.6, 423.6)"></path></g></g><g><clipPath id="clip-11200"><path d="M 67.5 360.3 L 290.5 360.3 L 290.5 410.8 L 67.5 410.8 Z M 67.5 360.3 "></path></clipPath><g clip-path="url(#clip-11200)"><path d="M 69.5 408.8 L 288.5 408.8 L 288.5 362.3 L 69.5 362.3 Z M 69.5 408.8 " fill="#FEFFFF"></path><path d="M 0.0 0.0 L 219.1 0.0 L 219.1 46.4 L 0.0 46.4 Z M 0.0 0.0 " fill="none" stroke="#85878C" stroke-width="2.00" transform="matrix(1.00, 0.00, 0.00, -1.00, 69.5, 408.8)"></path></g></g><g><clipPath id="clip-11201"><path d="M 67.6 363.3 L 290.4 363.3 L 290.4 407.8 L 67.6 407.8 Z M 67.6 363.3 "></path></clipPath><g clip-path="url(#clip-11201)"><text xml:space="preserve" font-family="Helvetica-Light" font-size="20.0" fill="#000000" transform="matrix(1.00, 0.00, -0.00, -1.00, 108.0, 378.0)">5</text><text xml:space="preserve" font-family="Helvetica-Light" font-size="20.0" fill="#000000" transform="matrix(1.00, 0.00, -0.00, -1.00, 119.1, 378.0)">.</text><text xml:space="preserve" font-family="Helvetica-Light" font-size="20.0" fill="#000000" transform="matrix(1.00, 0.00, -0.00, -1.00, 124.7, 378.0)">3</text><text xml:space="preserve" font-family="Helvetica-Light" font-size="20.0" fill="#000000" transform="matrix(1.00, 0.00, -0.00, -1.00, 135.8, 378.0)">.</text><text xml:space="preserve" font-family="Helvetica-Light" font-size="20.0" fill="#000000" transform="matrix(1.00, 0.00, -0.00, -1.00, 141.4, 378.0)"> </text><text xml:space="preserve" font-family="Helvetica-Light" font-size="20.0" fill="#000000" transform="matrix(1.00, 0.00, -0.00, -1.00, 146.9, 378.0)">P</text><text xml:space="preserve" font-family="Helvetica-Light" font-size="20.0" fill="#000000" transform="matrix(1.00, 0.00, -0.00, -1.00, 159.1, 378.0)">l</text><text xml:space="preserve" font-family="Helvetica-Light" font-size="20.0" fill="#000000" transform="matrix(1.00, 0.00, -0.00, -1.00, 163.6, 378.0)">a</text><text xml:space="preserve" font-family="Helvetica-Light" font-size="20.0" fill="#000000" transform="matrix(1.00, 0.00, -0.00, -1.00, 174.7, 378.0)">n</text><text xml:space="preserve" font-family="Helvetica-Light" font-size="20.0" fill="#000000" transform="matrix(1.00, 0.00, -0.00, -1.00, 185.8, 378.0)">t</text><text xml:space="preserve" font-family="Helvetica-Light" font-size="20.0" fill="#000000" transform="matrix(1.00, 0.00, -0.00, -1.00, 191.4, 378.0)"> </text><text xml:space="preserve" font-family="Helvetica-Light" font-size="20.0" fill="#000000" transform="matrix(1.00, 0.00, -0.00, -1.00, 196.9, 378.0)">T</text><text xml:space="preserve" font-family="Helvetica-Light" font-size="20.0" fill="#000000" transform="matrix(1.00, 0.00, -0.00, -1.00, 206.2, 378.0)">r</text><text xml:space="preserve" font-family="Helvetica-Light" font-size="20.0" fill="#000000" transform="matrix(1.00, 0.00, -0.00, -1.00, 212.5, 378.0)">e</text><text xml:space="preserve" font-family="Helvetica-Light" font-size="20.0" fill="#000000" transform="matrix(1.00, 0.00, -0.00, -1.00, 223.6, 378.0)">a</text><text xml:space="preserve" font-family="Helvetica-Light" font-size="20.0" fill="#000000" transform="matrix(1.00, 0.00, -0.00, -1.00, 234.8, 378.0)">t</text><text xml:space="preserve" font-family="Helvetica-Light" font-size="20.0" fill="#000000" transform="matrix(1.00, 0.00, -0.00, -1.00, 240.3, 378.0)">y</text></g></g></g></svg>