<?xml version="1.0" encoding="UTF-8" standalone="no"?><svg xmlns="http://www.w3.org/2000/svg" xmlns:xlink="http://www.w3.org/1999/xlink" clip-rule="evenodd" stroke-miterlimit="4.00" viewBox="0 0 1024 768"><desc>SVG generated by Keynote</desc><defs></defs><g transform="matrix(1.00, 0.00, -0.00, -1.00, 0.0, 768.0)"><path d="M 0.0 768.0 L 1024.0 768.0 L 1024.0 0.0 L 0.0 0.0 Z M 0.0 768.0 " fill="#FEFFFF"></path><path d="M 51.2 716.6 L 902.3 716.6 L 902.3 51.6 L 51.2 51.6 Z M 51.2 716.6 " fill="#58AFDC"></path><path d="M 920.5 532.5 L 972.4 532.5 L 972.4 51.6 L 920.5 51.6 Z M 920.5 532.5 " fill="#58AFDC"></path><path d="M 920.5 716.7 L 972.4 716.7 L 972.4 550.5 L 920.5 550.5 Z M 920.5 716.7 " fill="#94DBFE"></path><text xml:space="preserve" font-family="HelveticaNeue-Light" font-size="56.0" fill="#FFFFFF" transform="matrix(1.00, 0.00, -0.00, -1.00, 104.0, 393.0)">D</text><text xml:space="preserve" font-family="HelveticaNeue-Light" font-size="56.0" fill="#FFFFFF" transform="matrix(1.00, 0.00, -0.00, -1.00, 142.4, 393.0)">a</text><text xml:space="preserve" font-family="HelveticaNeue-Light" font-size="56.0" fill="#FFFFFF" transform="matrix(1.00, 0.00, -0.00, -1.00, 171.4, 393.0)">t</text><text xml:space="preserve" font-family="HelveticaNeue-Light" font-size="56.0" fill="#FFFFFF" transform="matrix(1.00, 0.00, -0.00, -1.00, 188.0, 393.0)">a</text><text xml:space="preserve" font-family="HelveticaNeue-Light" font-size="56.0" fill="#FFFFFF" transform="matrix(1.00, 0.00, -0.00, -1.00, 217.1, 393.0)"> </text><text xml:space="preserve" font-family="HelveticaNeue-Light" font-size="56.0" fill="#FFFFFF" transform="matrix(1.00, 0.00, -0.00, -1.00, 232.6, 393.0)">A</text><text xml:space="preserve" font-family="HelveticaNeue-Light" font-size="56.0" fill="#FFFFFF" transform="matrix(1.00, 0.00, -0.00, -1.00, 267.9, 393.0)">n</text><text xml:space="preserve" font-family="HelveticaNeue-Light" font-size="56.0" fill="#FFFFFF" transform="matrix(1.00, 0.00, -0.00, -1.00, 298.0, 393.0)">a</text><text xml:space="preserve" font-family="HelveticaNeue-Light" font-size="56.0" fill="#FFFFFF" transform="matrix(1.00, 0.00, -0.00, -1.00, 327.0, 393.0)">l</text><text xml:space="preserve" font-family="HelveticaNeue-Light" font-size="56.0" fill="#FFFFFF" transform="matrix(1.00, 0.00, -0.00, -1.00, 337.4, 393.0)">y</text><text xml:space="preserve" font-family="HelveticaNeue-Light" font-size="56.0" fill="#FFFFFF" transform="matrix(1.00, 0.00, -0.00, -1.00, 363.3, 393.0)">s</text><text xml:space="preserve" font-family="HelveticaNeue-Light" font-size="56.0" fill="#FFFFFF" transform="matrix(1.00, 0.00, -0.00, -1.00, 390.3, 393.0)">i</text><text xml:space="preserve" font-family="HelveticaNeue-Light" font-size="56.0" fill="#FFFFFF" transform="matrix(1.00, 0.00, -0.00, -1.00, 400.6, 393.0)">s</text><text xml:space="preserve" font-family="HelveticaNeue-Light" font-size="56.0" fill="#FFFFFF" transform="matrix(1.00, 0.00, -0.00, -1.00, 427.6, 393.0)"> </text><text xml:space="preserve" font-family="HelveticaNeue-Light" font-size="56.0" fill="#FFFFFF" transform="matrix(1.00, 0.00, -0.00, -1.00, 443.1, 393.0)"> </text><text xml:space="preserve" font-family="HelveticaNeue-Light" font-size="56.0" fill="#FFFFFF" transform="matrix(1.00, 0.00, -0.00, -1.00, 104.0, 332.0)">(</text><text xml:space="preserve" font-family="HelveticaNeue-Light" font-size="56.0" fill="#FFFFFF" transform="matrix(1.00, 0.00, -0.00, -1.00, 117.5, 332.0)">s</text><text xml:space="preserve" font-family="HelveticaNeue-Light" font-size="56.0" fill="#FFFFFF" transform="matrix(1.00, 0.00, -0.00, -1.00, 144.4, 332.0)">u</text><text xml:space="preserve" font-family="HelveticaNeue-Light" font-size="56.0" fill="#FFFFFF" transform="matrix(1.00, 0.00, -0.00, -1.00, 174.5, 332.0)">b</text><text xml:space="preserve" font-family="HelveticaNeue-Light" font-size="56.0" fill="#FFFFFF" transform="matrix(1.00, 0.00, -0.00, -1.00, 206.6, 332.0)">-</text><text xml:space="preserve" font-family="HelveticaNeue-Light" font-size="56.0" fill="#FFFFFF" transform="matrix(1.00, 0.00, -0.00, -1.00, 227.4, 332.0)">c</text><text xml:space="preserve" font-family="HelveticaNeue-Light" font-size="56.0" fill="#FFFFFF" transform="matrix(1.00, 0.00, -0.00, -1.00, 256.4, 332.0)">o</text><text xml:space="preserve" font-family="HelveticaNeue-Light" font-size="56.0" fill="#FFFFFF" transform="matrix(1.00, 0.00, -0.00, -1.00, 287.6, 332.0)">m</text><text xml:space="preserve" font-family="HelveticaNeue-Light" font-size="56.0" fill="#FFFFFF" transform="matrix(1.00, 0.00, -0.00, -1.00, 334.2, 332.0)">p</text><text xml:space="preserve" font-family="HelveticaNeue-Light" font-size="56.0" fill="#FFFFFF" transform="matrix(1.00, 0.00, -0.00, -1.00, 366.4, 332.0)">o</text><text xml:space="preserve" font-family="HelveticaNeue-Light" font-size="56.0" fill="#FFFFFF" transform="matrix(1.00, 0.00, -0.00, -1.00, 397.5, 332.0)">n</text><text xml:space="preserve" font-family="HelveticaNeue-Light" font-size="56.0" fill="#FFFFFF" transform="matrix(1.00, 0.00, -0.00, -1.00, 427.6, 332.0)">e</text><text xml:space="preserve" font-family="HelveticaNeue-Light" font-size="56.0" fill="#FFFFFF" transform="matrix(1.00, 0.00, -0.00, -1.00, 456.6, 332.0)">n</text><text xml:space="preserve" font-family="HelveticaNeue-Light" font-size="56.0" fill="#FFFFFF" transform="matrix(1.00, 0.00, -0.00, -1.00, 486.7, 332.0)">t</text><text xml:space="preserve" font-family="HelveticaNeue-Light" font-size="56.0" fill="#FFFFFF" transform="matrix(1.00, 0.00, -0.00, -1.00, 503.3, 332.0)">)</text></g></svg>