<?xml version="1.0" encoding="UTF-8" standalone="no"?><svg xmlns="http://www.w3.org/2000/svg" xmlns:xlink="http://www.w3.org/1999/xlink" clip-rule="evenodd" stroke-miterlimit="4.00" viewBox="0 0 1024 768"><desc>SVG generated by Keynote</desc><defs></defs><g transform="matrix(1.00, 0.00, -0.00, -1.00, 0.0, 768.0)"><path d="M 0.0 768.0 L 1024.0 768.0 L 1024.0 0.0 L 0.0 0.0 Z M 0.0 768.0 " fill="#FEFFFF"></path><g><clipPath id="clip-412"><path d="M 371.5 673.1 L 652.5 673.1 L 652.5 759.0 L 371.5 759.0 Z M 371.5 673.1 "></path></clipPath><g clip-path="url(#clip-412)"><path d="M 373.5 687.4 L 373.5 744.7 C 373.5 751.5 379.0 757.0 385.8 757.0 L 638.2 757.0 C 645.0 757.0 650.5 751.5 650.5 744.7 L 650.5 687.4 C 650.5 680.6 645.0 675.1 638.2 675.1 L 385.8 675.1 C 379.0 675.1 373.5 680.6 373.5 687.4 Z M 373.5 687.4 " fill="#94DBFE"></path><path d="M 0.0 69.6 L 0.0 12.3 C 0.0 5.5 5.5 0.0 12.3 0.0 L 264.7 0.0 C 271.4 0.0 276.9 5.5 276.9 12.3 L 276.9 69.6 C 276.9 76.4 271.4 81.9 264.7 81.9 L 12.3 81.9 C 5.5 81.9 0.0 76.4 0.0 69.6 Z M 0.0 69.6 " fill="none" stroke="#85878C" stroke-width="2.00" transform="matrix(1.00, 0.00, 0.00, -1.00, 373.5, 757.0)"></path></g></g><g><clipPath id="clip-413"><path d="M 424.2 684.6 L 599.8 684.6 L 599.8 747.5 L 424.2 747.5 Z M 424.2 684.6 "></path></clipPath><g clip-path="url(#clip-413)"><path d="M 426.2 745.5 L 597.8 745.5 L 597.8 686.6 L 426.2 686.6 Z M 426.2 745.5 " fill="#FEFFFF"></path><path d="M 0.0 0.0 L 171.7 0.0 L 171.7 58.9 L 0.0 58.9 Z M 0.0 0.0 " fill="none" stroke="#85878C" stroke-width="2.00" transform="matrix(1.00, 0.00, 0.00, -1.00, 426.2, 745.5)"></path></g></g><g><clipPath id="clip-414"><path d="M 424.3 687.6 L 599.7 687.6 L 599.7 744.5 L 424.3 744.5 Z M 424.3 687.6 "></path></clipPath><g clip-path="url(#clip-414)"><text xml:space="preserve" font-family="Helvetica-Light" font-size="20.0" fill="#000000" transform="matrix(1.00, 0.00, -0.00, -1.00, 436.0, 709.0)">A</text><text xml:space="preserve" font-family="Helvetica-Light" font-size="20.0" fill="#000000" transform="matrix(1.00, 0.00, -0.00, -1.00, 449.3, 709.0)">u</text><text xml:space="preserve" font-family="Helvetica-Light" font-size="20.0" fill="#000000" transform="matrix(1.00, 0.00, -0.00, -1.00, 460.5, 709.0)">t</text><text xml:space="preserve" font-family="Helvetica-Light" font-size="20.0" fill="#000000" transform="matrix(1.00, 0.00, -0.00, -1.00, 466.0, 709.0)">h</text><text xml:space="preserve" font-family="Helvetica-Light" font-size="20.0" fill="#000000" transform="matrix(1.00, 0.00, -0.00, -1.00, 477.1, 709.0)">o</text><text xml:space="preserve" font-family="Helvetica-Light" font-size="20.0" fill="#000000" transform="matrix(1.00, 0.00, -0.00, -1.00, 488.3, 709.0)">r</text><text xml:space="preserve" font-family="Helvetica-Light" font-size="20.0" fill="#000000" transform="matrix(1.00, 0.00, -0.00, -1.00, 494.9, 709.0)">i</text><text xml:space="preserve" font-family="Helvetica-Light" font-size="20.0" fill="#000000" transform="matrix(1.00, 0.00, -0.00, -1.00, 499.4, 709.0)">t</text><text xml:space="preserve" font-family="Helvetica-Light" font-size="20.0" fill="#000000" transform="matrix(1.00, 0.00, -0.00, -1.00, 504.9, 709.0)">i</text><text xml:space="preserve" font-family="Helvetica-Light" font-size="20.0" fill="#000000" transform="matrix(1.00, 0.00, -0.00, -1.00, 509.4, 709.0)">e</text><text xml:space="preserve" font-family="Helvetica-Light" font-size="20.0" fill="#000000" transform="matrix(1.00, 0.00, -0.00, -1.00, 520.5, 709.0)">s</text><text xml:space="preserve" font-family="Helvetica-Light" font-size="20.0" fill="#000000" transform="matrix(1.00, 0.00, -0.00, -1.00, 530.5, 709.0)"> </text><text xml:space="preserve" font-family="Helvetica-Light" font-size="20.0" fill="#000000" transform="matrix(1.00, 0.00, -0.00, -1.00, 536.0, 709.0)">P</text><text xml:space="preserve" font-family="Helvetica-Light" font-size="20.0" fill="#000000" transform="matrix(1.00, 0.00, -0.00, -1.00, 548.3, 709.0)">o</text><text xml:space="preserve" font-family="Helvetica-Light" font-size="20.0" fill="#000000" transform="matrix(1.00, 0.00, -0.00, -1.00, 559.4, 709.0)">r</text><text xml:space="preserve" font-family="Helvetica-Light" font-size="20.0" fill="#000000" transform="matrix(1.00, 0.00, -0.00, -1.00, 566.4, 709.0)">t</text><text xml:space="preserve" font-family="Helvetica-Light" font-size="20.0" fill="#000000" transform="matrix(1.00, 0.00, -0.00, -1.00, 572.0, 709.0)">a</text><text xml:space="preserve" font-family="Helvetica-Light" font-size="20.0" fill="#000000" transform="matrix(1.00, 0.00, -0.00, -1.00, 583.1, 709.0)">l</text></g></g><g><clipPath id="clip-415"><path d="M 375.6 294.2 L 648.4 294.2 L 648.4 374.3 L 375.6 374.3 Z M 375.6 294.2 "></path></clipPath><g clip-path="url(#clip-415)"><path d="M 377.6 308.2 L 377.6 360.3 C 377.6 366.9 383.0 372.3 389.5 372.3 L 634.5 372.3 C 641.0 372.3 646.4 366.9 646.4 360.3 L 646.4 308.2 C 646.4 301.6 641.0 296.2 634.5 296.2 L 389.5 296.2 C 383.0 296.2 377.6 301.6 377.6 308.2 Z M 377.6 308.2 " fill="#94DBFE"></path><path d="M 0.0 64.1 L 0.0 11.9 C 0.0 5.3 5.3 0.0 11.9 0.0 L 256.8 0.0 C 263.4 0.0 268.8 5.3 268.8 11.9 L 268.8 64.1 C 268.8 70.7 263.4 76.0 256.8 76.0 L 11.9 76.0 C 5.3 76.0 0.0 70.7 0.0 64.1 Z M 0.0 64.1 " fill="none" stroke="#85878C" stroke-width="2.00" transform="matrix(1.00, 0.00, 0.00, -1.00, 377.6, 372.3)"></path></g></g><g><clipPath id="clip-416"><path d="M 400.5 309.0 L 623.5 309.0 L 623.5 359.5 L 400.5 359.5 Z M 400.5 309.0 "></path></clipPath><g clip-path="url(#clip-416)"><path d="M 402.5 357.5 L 621.5 357.5 L 621.5 311.0 L 402.5 311.0 Z M 402.5 357.5 " fill="#FEFFFF"></path><path d="M 0.0 0.0 L 219.1 0.0 L 219.1 46.4 L 0.0 46.4 Z M 0.0 0.0 " fill="none" stroke="#85878C" stroke-width="2.00" transform="matrix(1.00, 0.00, 0.00, -1.00, 402.5, 357.5)"></path></g></g><g><clipPath id="clip-417"><path d="M 400.6 312.0 L 623.4 312.0 L 623.4 356.5 L 400.6 356.5 Z M 400.6 312.0 "></path></clipPath><g clip-path="url(#clip-417)"><text xml:space="preserve" font-family="Helvetica-Light" font-size="20.0" fill="#000000" transform="matrix(1.00, 0.00, -0.00, -1.00, 423.0, 327.0)">1</text><text xml:space="preserve" font-family="Helvetica-Light" font-size="20.0" fill="#000000" transform="matrix(1.00, 0.00, -0.00, -1.00, 434.1, 327.0)">.</text><text xml:space="preserve" font-family="Helvetica-Light" font-size="20.0" fill="#000000" transform="matrix(1.00, 0.00, -0.00, -1.00, 439.7, 327.0)">4</text><text xml:space="preserve" font-family="Helvetica-Light" font-size="20.0" fill="#000000" transform="matrix(1.00, 0.00, -0.00, -1.00, 450.8, 327.0)">.</text><text xml:space="preserve" font-family="Helvetica-Light" font-size="20.0" fill="#000000" transform="matrix(1.00, 0.00, -0.00, -1.00, 456.4, 327.0)"> </text><text xml:space="preserve" font-family="Helvetica-Light" font-size="20.0" fill="#000000" transform="matrix(1.00, 0.00, -0.00, -1.00, 461.9, 327.0)">A</text><text xml:space="preserve" font-family="Helvetica-Light" font-size="20.0" fill="#000000" transform="matrix(1.00, 0.00, -0.00, -1.00, 475.3, 327.0)">p</text><text xml:space="preserve" font-family="Helvetica-Light" font-size="20.0" fill="#000000" transform="matrix(1.00, 0.00, -0.00, -1.00, 487.5, 327.0)">p</text><text xml:space="preserve" font-family="Helvetica-Light" font-size="20.0" fill="#000000" transform="matrix(1.00, 0.00, -0.00, -1.00, 499.7, 327.0)">r</text><text xml:space="preserve" font-family="Helvetica-Light" font-size="20.0" fill="#000000" transform="matrix(1.00, 0.00, -0.00, -1.00, 506.0, 327.0)">o</text><text xml:space="preserve" font-family="Helvetica-Light" font-size="20.0" fill="#000000" transform="matrix(1.00, 0.00, -0.00, -1.00, 517.1, 327.0)">v</text><text xml:space="preserve" font-family="Helvetica-Light" font-size="20.0" fill="#000000" transform="matrix(1.00, 0.00, -0.00, -1.00, 527.1, 327.0)">e</text><text xml:space="preserve" font-family="Helvetica-Light" font-size="20.0" fill="#000000" transform="matrix(1.00, 0.00, -0.00, -1.00, 538.2, 327.0)">/</text><text xml:space="preserve" font-family="Helvetica-Light" font-size="20.0" fill="#000000" transform="matrix(1.00, 0.00, -0.00, -1.00, 543.8, 327.0)">R</text><text xml:space="preserve" font-family="Helvetica-Light" font-size="20.0" fill="#000000" transform="matrix(1.00, 0.00, -0.00, -1.00, 557.1, 327.0)">e</text><text xml:space="preserve" font-family="Helvetica-Light" font-size="20.0" fill="#000000" transform="matrix(1.00, 0.00, -0.00, -1.00, 568.3, 327.0)">j</text><text xml:space="preserve" font-family="Helvetica-Light" font-size="20.0" fill="#000000" transform="matrix(1.00, 0.00, -0.00, -1.00, 572.7, 327.0)">e</text><text xml:space="preserve" font-family="Helvetica-Light" font-size="20.0" fill="#000000" transform="matrix(1.00, 0.00, -0.00, -1.00, 583.8, 327.0)">c</text><text xml:space="preserve" font-family="Helvetica-Light" font-size="20.0" fill="#000000" transform="matrix(1.00, 0.00, -0.00, -1.00, 594.9, 327.0)">t</text></g></g><g><clipPath id="clip-418"><path d="M 375.6 483.7 L 648.4 483.7 L 648.4 563.7 L 375.6 563.7 Z M 375.6 483.7 "></path></clipPath><g clip-path="url(#clip-418)"><path d="M 377.6 497.6 L 377.6 549.7 C 377.6 556.3 383.0 561.7 389.5 561.7 L 634.5 561.7 C 641.0 561.7 646.4 556.3 646.4 549.7 L 646.4 497.6 C 646.4 491.0 641.0 485.7 634.5 485.7 L 389.5 485.7 C 383.0 485.7 377.6 491.0 377.6 497.6 Z M 377.6 497.6 " fill="#94DBFE"></path><path d="M 0.0 64.1 L 0.0 11.9 C 0.0 5.3 5.3 0.0 11.9 0.0 L 256.8 0.0 C 263.4 0.0 268.8 5.3 268.8 11.9 L 268.8 64.1 C 268.8 70.7 263.4 76.0 256.8 76.0 L 11.9 76.0 C 5.3 76.0 0.0 70.7 0.0 64.1 Z M 0.0 64.1 " fill="none" stroke="#85878C" stroke-width="2.00" transform="matrix(1.00, 0.00, 0.00, -1.00, 377.6, 561.7)"></path></g></g><g><clipPath id="clip-419"><path d="M 400.5 498.4 L 623.5 498.4 L 623.5 548.9 L 400.5 548.9 Z M 400.5 498.4 "></path></clipPath><g clip-path="url(#clip-419)"><path d="M 402.5 546.9 L 621.5 546.9 L 621.5 500.4 L 402.5 500.4 Z M 402.5 546.9 " fill="#FEFFFF"></path><path d="M 0.0 0.0 L 219.1 0.0 L 219.1 46.4 L 0.0 46.4 Z M 0.0 0.0 " fill="none" stroke="#85878C" stroke-width="2.00" transform="matrix(1.00, 0.00, 0.00, -1.00, 402.5, 546.9)"></path></g></g><g><clipPath id="clip-420"><path d="M 400.6 501.4 L 623.4 501.4 L 623.4 545.9 L 400.6 545.9 Z M 400.6 501.4 "></path></clipPath><g clip-path="url(#clip-420)"><text xml:space="preserve" font-family="Helvetica-Light" font-size="20.0" fill="#000000" transform="matrix(1.00, 0.00, -0.00, -1.00, 460.0, 516.0)">1</text><text xml:space="preserve" font-family="Helvetica-Light" font-size="20.0" fill="#000000" transform="matrix(1.00, 0.00, -0.00, -1.00, 471.1, 516.0)">.</text><text xml:space="preserve" font-family="Helvetica-Light" font-size="20.0" fill="#000000" transform="matrix(1.00, 0.00, -0.00, -1.00, 476.7, 516.0)">2</text><text xml:space="preserve" font-family="Helvetica-Light" font-size="20.0" fill="#000000" transform="matrix(1.00, 0.00, -0.00, -1.00, 487.8, 516.0)">.</text><text xml:space="preserve" font-family="Helvetica-Light" font-size="20.0" fill="#000000" transform="matrix(1.00, 0.00, -0.00, -1.00, 493.4, 516.0)"> </text><text xml:space="preserve" font-family="Helvetica-Light" font-size="20.0" fill="#000000" transform="matrix(1.00, 0.00, -0.00, -1.00, 498.9, 516.0)">R</text><text xml:space="preserve" font-family="Helvetica-Light" font-size="20.0" fill="#000000" transform="matrix(1.00, 0.00, -0.00, -1.00, 512.3, 516.0)">e</text><text xml:space="preserve" font-family="Helvetica-Light" font-size="20.0" fill="#000000" transform="matrix(1.00, 0.00, -0.00, -1.00, 523.4, 516.0)">v</text><text xml:space="preserve" font-family="Helvetica-Light" font-size="20.0" fill="#000000" transform="matrix(1.00, 0.00, -0.00, -1.00, 533.4, 516.0)">i</text><text xml:space="preserve" font-family="Helvetica-Light" font-size="20.0" fill="#000000" transform="matrix(1.00, 0.00, -0.00, -1.00, 537.8, 516.0)">e</text><text xml:space="preserve" font-family="Helvetica-Light" font-size="20.0" fill="#000000" transform="matrix(1.00, 0.00, -0.00, -1.00, 548.9, 516.0)">w</text></g></g><g><clipPath id="clip-421"><path d="M 375.6 388.9 L 648.4 388.9 L 648.4 469.0 L 375.6 469.0 Z M 375.6 388.9 "></path></clipPath><g clip-path="url(#clip-421)"><path d="M 377.6 402.9 L 377.6 455.0 C 377.6 461.6 383.0 467.0 389.5 467.0 L 634.5 467.0 C 641.0 467.0 646.4 461.6 646.4 455.0 L 646.4 402.9 C 646.4 396.3 641.0 390.9 634.5 390.9 L 389.5 390.9 C 383.0 390.9 377.6 396.3 377.6 402.9 Z M 377.6 402.9 " fill="#94DBFE"></path><path d="M 0.0 64.1 L 0.0 11.9 C 0.0 5.3 5.3 0.0 11.9 0.0 L 256.8 0.0 C 263.4 0.0 268.8 5.3 268.8 11.9 L 268.8 64.1 C 268.8 70.7 263.4 76.0 256.8 76.0 L 11.9 76.0 C 5.3 76.0 0.0 70.7 0.0 64.1 Z M 0.0 64.1 " fill="none" stroke="#85878C" stroke-width="2.00" transform="matrix(1.00, 0.00, 0.00, -1.00, 377.6, 467.0)"></path></g></g><g><clipPath id="clip-422"><path d="M 400.5 403.7 L 623.5 403.7 L 623.5 454.2 L 400.5 454.2 Z M 400.5 403.7 "></path></clipPath><g clip-path="url(#clip-422)"><path d="M 402.5 452.2 L 621.5 452.2 L 621.5 405.7 L 402.5 405.7 Z M 402.5 452.2 " fill="#FEFFFF"></path><path d="M 0.0 0.0 L 219.1 0.0 L 219.1 46.4 L 0.0 46.4 Z M 0.0 0.0 " fill="none" stroke="#85878C" stroke-width="2.00" transform="matrix(1.00, 0.00, 0.00, -1.00, 402.5, 452.2)"></path></g></g><g><clipPath id="clip-423"><path d="M 400.6 406.7 L 623.4 406.7 L 623.4 451.2 L 400.6 451.2 Z M 400.6 406.7 "></path></clipPath><g clip-path="url(#clip-423)"><text xml:space="preserve" font-family="Helvetica-Light" font-size="20.0" fill="#000000" transform="matrix(1.00, 0.00, -0.00, -1.00, 449.0, 422.0)">1</text><text xml:space="preserve" font-family="Helvetica-Light" font-size="20.0" fill="#000000" transform="matrix(1.00, 0.00, -0.00, -1.00, 460.1, 422.0)">.</text><text xml:space="preserve" font-family="Helvetica-Light" font-size="20.0" fill="#000000" transform="matrix(1.00, 0.00, -0.00, -1.00, 465.7, 422.0)">3</text><text xml:space="preserve" font-family="Helvetica-Light" font-size="20.0" fill="#000000" transform="matrix(1.00, 0.00, -0.00, -1.00, 476.8, 422.0)">.</text><text xml:space="preserve" font-family="Helvetica-Light" font-size="20.0" fill="#000000" transform="matrix(1.00, 0.00, -0.00, -1.00, 482.4, 422.0)"> </text><text xml:space="preserve" font-family="Helvetica-Light" font-size="20.0" fill="#000000" transform="matrix(1.00, 0.00, -0.00, -1.00, 487.9, 422.0)">N</text><text xml:space="preserve" font-family="Helvetica-Light" font-size="20.0" fill="#000000" transform="matrix(1.00, 0.00, -0.00, -1.00, 502.4, 422.0)">e</text><text xml:space="preserve" font-family="Helvetica-Light" font-size="20.0" fill="#000000" transform="matrix(1.00, 0.00, -0.00, -1.00, 513.5, 422.0)">g</text><text xml:space="preserve" font-family="Helvetica-Light" font-size="20.0" fill="#000000" transform="matrix(1.00, 0.00, -0.00, -1.00, 525.7, 422.0)">o</text><text xml:space="preserve" font-family="Helvetica-Light" font-size="20.0" fill="#000000" transform="matrix(1.00, 0.00, -0.00, -1.00, 536.8, 422.0)">t</text><text xml:space="preserve" font-family="Helvetica-Light" font-size="20.0" fill="#000000" transform="matrix(1.00, 0.00, -0.00, -1.00, 542.4, 422.0)">i</text><text xml:space="preserve" font-family="Helvetica-Light" font-size="20.0" fill="#000000" transform="matrix(1.00, 0.00, -0.00, -1.00, 546.8, 422.0)">a</text><text xml:space="preserve" font-family="Helvetica-Light" font-size="20.0" fill="#000000" transform="matrix(1.00, 0.00, -0.00, -1.00, 557.9, 422.0)">t</text><text xml:space="preserve" font-family="Helvetica-Light" font-size="20.0" fill="#000000" transform="matrix(1.00, 0.00, -0.00, -1.00, 563.5, 422.0)">e</text></g></g><g><clipPath id="clip-424"><path d="M 375.6 578.4 L 648.4 578.4 L 648.4 658.4 L 375.6 658.4 Z M 375.6 578.4 "></path></clipPath><g clip-path="url(#clip-424)"><path d="M 377.6 592.3 L 377.6 644.4 C 377.6 651.0 383.0 656.4 389.5 656.4 L 634.5 656.4 C 641.0 656.4 646.4 651.0 646.4 644.4 L 646.4 592.3 C 646.4 585.7 641.0 580.4 634.5 580.4 L 389.5 580.4 C 383.0 580.4 377.6 585.7 377.6 592.3 Z M 377.6 592.3 " fill="#94DBFE"></path><path d="M 0.0 64.1 L 0.0 11.9 C 0.0 5.3 5.3 0.0 11.9 0.0 L 256.8 0.0 C 263.4 0.0 268.8 5.3 268.8 11.9 L 268.8 64.1 C 268.8 70.7 263.4 76.0 256.8 76.0 L 11.9 76.0 C 5.3 76.0 0.0 70.7 0.0 64.1 Z M 0.0 64.1 " fill="none" stroke="#85878C" stroke-width="2.00" transform="matrix(1.00, 0.00, 0.00, -1.00, 377.6, 656.4)"></path></g></g><g><clipPath id="clip-425"><path d="M 400.5 593.1 L 623.5 593.1 L 623.5 643.6 L 400.5 643.6 Z M 400.5 593.1 "></path></clipPath><g clip-path="url(#clip-425)"><path d="M 402.5 641.6 L 621.5 641.6 L 621.5 595.1 L 402.5 595.1 Z M 402.5 641.6 " fill="#FEFFFF"></path><path d="M 0.0 0.0 L 219.1 0.0 L 219.1 46.4 L 0.0 46.4 Z M 0.0 0.0 " fill="none" stroke="#85878C" stroke-width="2.00" transform="matrix(1.00, 0.00, 0.00, -1.00, 402.5, 641.6)"></path></g></g><g><clipPath id="clip-426"><path d="M 400.6 596.1 L 623.4 596.1 L 623.4 640.6 L 400.6 640.6 Z M 400.6 596.1 "></path></clipPath><g clip-path="url(#clip-426)"><text xml:space="preserve" font-family="Helvetica-Light" font-size="20.0" fill="#000000" transform="matrix(1.00, 0.00, -0.00, -1.00, 451.0, 611.0)">1</text><text xml:space="preserve" font-family="Helvetica-Light" font-size="20.0" fill="#000000" transform="matrix(1.00, 0.00, -0.00, -1.00, 462.1, 611.0)">.</text><text xml:space="preserve" font-family="Helvetica-Light" font-size="20.0" fill="#000000" transform="matrix(1.00, 0.00, -0.00, -1.00, 467.7, 611.0)">1</text><text xml:space="preserve" font-family="Helvetica-Light" font-size="20.0" fill="#000000" transform="matrix(1.00, 0.00, -0.00, -1.00, 478.8, 611.0)">.</text><text xml:space="preserve" font-family="Helvetica-Light" font-size="20.0" fill="#000000" transform="matrix(1.00, 0.00, -0.00, -1.00, 484.4, 611.0)"> </text><text xml:space="preserve" font-family="Helvetica-Light" font-size="20.0" fill="#000000" transform="matrix(1.00, 0.00, -0.00, -1.00, 489.9, 611.0)">E</text><text xml:space="preserve" font-family="Helvetica-Light" font-size="20.0" fill="#000000" transform="matrix(1.00, 0.00, -0.00, -1.00, 502.1, 611.0)">n</text><text xml:space="preserve" font-family="Helvetica-Light" font-size="20.0" fill="#000000" transform="matrix(1.00, 0.00, -0.00, -1.00, 513.3, 611.0)">q</text><text xml:space="preserve" font-family="Helvetica-Light" font-size="20.0" fill="#000000" transform="matrix(1.00, 0.00, -0.00, -1.00, 525.5, 611.0)">u</text><text xml:space="preserve" font-family="Helvetica-Light" font-size="20.0" fill="#000000" transform="matrix(1.00, 0.00, -0.00, -1.00, 536.6, 611.0)">i</text><text xml:space="preserve" font-family="Helvetica-Light" font-size="20.0" fill="#000000" transform="matrix(1.00, 0.00, -0.00, -1.00, 541.0, 611.0)">r</text><text xml:space="preserve" font-family="Helvetica-Light" font-size="20.0" fill="#000000" transform="matrix(1.00, 0.00, -0.00, -1.00, 547.7, 611.0)">i</text><text xml:space="preserve" font-family="Helvetica-Light" font-size="20.0" fill="#000000" transform="matrix(1.00, 0.00, -0.00, -1.00, 552.1, 611.0)">e</text><text xml:space="preserve" font-family="Helvetica-Light" font-size="20.0" fill="#000000" transform="matrix(1.00, 0.00, -0.00, -1.00, 563.3, 611.0)">s</text></g></g><g><clipPath id="clip-427"><path d="M 375.6 199.5 L 648.4 199.5 L 648.4 279.5 L 375.6 279.5 Z M 375.6 199.5 "></path></clipPath><g clip-path="url(#clip-427)"><path d="M 377.6 213.5 L 377.6 265.6 C 377.6 272.2 383.0 277.5 389.5 277.5 L 634.5 277.5 C 641.0 277.5 646.4 272.2 646.4 265.6 L 646.4 213.5 C 646.4 206.9 641.0 201.5 634.5 201.5 L 389.5 201.5 C 383.0 201.5 377.6 206.9 377.6 213.5 Z M 377.6 213.5 " fill="#94DBFE"></path><path d="M 0.0 64.1 L 0.0 11.9 C 0.0 5.3 5.3 0.0 11.9 0.0 L 256.8 0.0 C 263.4 0.0 268.8 5.3 268.8 11.9 L 268.8 64.1 C 268.8 70.7 263.4 76.0 256.8 76.0 L 11.9 76.0 C 5.3 76.0 0.0 70.7 0.0 64.1 Z M 0.0 64.1 " fill="none" stroke="#85878C" stroke-width="2.00" transform="matrix(1.00, 0.00, 0.00, -1.00, 377.6, 277.5)"></path></g></g><g><clipPath id="clip-428"><path d="M 400.5 214.3 L 623.5 214.3 L 623.5 264.8 L 400.5 264.8 Z M 400.5 214.3 "></path></clipPath><g clip-path="url(#clip-428)"><path d="M 402.5 262.8 L 621.5 262.8 L 621.5 216.3 L 402.5 216.3 Z M 402.5 262.8 " fill="#FEFFFF"></path><path d="M 0.0 0.0 L 219.1 0.0 L 219.1 46.4 L 0.0 46.4 Z M 0.0 0.0 " fill="none" stroke="#85878C" stroke-width="2.00" transform="matrix(1.00, 0.00, 0.00, -1.00, 402.5, 262.8)"></path></g></g><g><clipPath id="clip-429"><path d="M 400.6 217.3 L 623.4 217.3 L 623.4 261.8 L 400.6 261.8 Z M 400.6 217.3 "></path></clipPath><g clip-path="url(#clip-429)"><text xml:space="preserve" font-family="Helvetica-Light" font-size="20.0" fill="#000000" transform="matrix(1.00, 0.00, -0.00, -1.00, 455.0, 232.0)">1</text><text xml:space="preserve" font-family="Helvetica-Light" font-size="20.0" fill="#000000" transform="matrix(1.00, 0.00, -0.00, -1.00, 466.1, 232.0)">.</text><text xml:space="preserve" font-family="Helvetica-Light" font-size="20.0" fill="#000000" transform="matrix(1.00, 0.00, -0.00, -1.00, 471.7, 232.0)">5</text><text xml:space="preserve" font-family="Helvetica-Light" font-size="20.0" fill="#000000" transform="matrix(1.00, 0.00, -0.00, -1.00, 482.8, 232.0)">.</text><text xml:space="preserve" font-family="Helvetica-Light" font-size="20.0" fill="#000000" transform="matrix(1.00, 0.00, -0.00, -1.00, 488.4, 232.0)"> </text><text xml:space="preserve" font-family="Helvetica-Light" font-size="20.0" fill="#000000" transform="matrix(1.00, 0.00, -0.00, -1.00, 493.9, 232.0)">A</text><text xml:space="preserve" font-family="Helvetica-Light" font-size="20.0" fill="#000000" transform="matrix(1.00, 0.00, -0.00, -1.00, 507.3, 232.0)">p</text><text xml:space="preserve" font-family="Helvetica-Light" font-size="20.0" fill="#000000" transform="matrix(1.00, 0.00, -0.00, -1.00, 519.5, 232.0)">p</text><text xml:space="preserve" font-family="Helvetica-Light" font-size="20.0" fill="#000000" transform="matrix(1.00, 0.00, -0.00, -1.00, 531.7, 232.0)">e</text><text xml:space="preserve" font-family="Helvetica-Light" font-size="20.0" fill="#000000" transform="matrix(1.00, 0.00, -0.00, -1.00, 542.8, 232.0)">a</text><text xml:space="preserve" font-family="Helvetica-Light" font-size="20.0" fill="#000000" transform="matrix(1.00, 0.00, -0.00, -1.00, 553.9, 232.0)">l</text><text xml:space="preserve" font-family="Helvetica-Light" font-size="20.0" fill="#000000" transform="matrix(1.00, 0.00, -0.00, -1.00, 558.4, 232.0)">s</text></g></g><g><clipPath id="clip-430"><path d="M 721.6 297.6 L 994.4 297.6 L 994.4 377.7 L 721.6 377.7 Z M 721.6 297.6 "></path></clipPath><g clip-path="url(#clip-430)"><path d="M 723.6 311.6 L 723.6 363.7 C 723.6 370.3 729.0 375.7 735.5 375.7 L 980.5 375.7 C 987.0 375.7 992.4 370.3 992.4 363.7 L 992.4 311.6 C 992.4 305.0 987.0 299.6 980.5 299.6 L 735.5 299.6 C 729.0 299.6 723.6 305.0 723.6 311.6 Z M 723.6 311.6 " fill="#7BC8C5"></path><path d="M 0.0 64.1 L 0.0 11.9 C 0.0 5.3 5.3 0.0 11.9 0.0 L 256.8 0.0 C 263.4 0.0 268.8 5.3 268.8 11.9 L 268.8 64.1 C 268.8 70.7 263.4 76.0 256.8 76.0 L 11.9 76.0 C 5.3 76.0 0.0 70.7 0.0 64.1 Z M 0.0 64.1 " fill="none" stroke="#85878C" stroke-width="2.00" transform="matrix(1.00, 0.00, 0.00, -1.00, 723.6, 375.7)"></path></g></g><g><clipPath id="clip-431"><path d="M 746.5 312.4 L 969.5 312.4 L 969.5 362.9 L 746.5 362.9 Z M 746.5 312.4 "></path></clipPath><g clip-path="url(#clip-431)"><path d="M 748.5 360.9 L 967.5 360.9 L 967.5 314.4 L 748.5 314.4 Z M 748.5 360.9 " fill="#FEFFFF"></path><path d="M 0.0 0.0 L 219.1 0.0 L 219.1 46.4 L 0.0 46.4 Z M 0.0 0.0 " fill="none" stroke="#85878C" stroke-width="2.00" transform="matrix(1.00, 0.00, 0.00, -1.00, 748.5, 360.9)"></path></g></g><g><clipPath id="clip-432"><path d="M 746.6 315.4 L 969.4 315.4 L 969.4 359.9 L 746.6 359.9 Z M 746.6 315.4 "></path></clipPath><g clip-path="url(#clip-432)"><text xml:space="preserve" font-family="Helvetica-Light" font-size="20.0" fill="#000000" transform="matrix(1.00, 0.00, -0.00, -1.00, 821.0, 330.0)">T</text><text xml:space="preserve" font-family="Helvetica-Light" font-size="20.0" fill="#000000" transform="matrix(1.00, 0.00, -0.00, -1.00, 832.1, 330.0)">i</text><text xml:space="preserve" font-family="Helvetica-Light" font-size="20.0" fill="#000000" transform="matrix(1.00, 0.00, -0.00, -1.00, 836.6, 330.0)">m</text><text xml:space="preserve" font-family="Helvetica-Light" font-size="20.0" fill="#000000" transform="matrix(1.00, 0.00, -0.00, -1.00, 853.2, 330.0)">e</text><text xml:space="preserve" font-family="Helvetica-Light" font-size="20.0" fill="#000000" transform="matrix(1.00, 0.00, -0.00, -1.00, 864.3, 330.0)">l</text><text xml:space="preserve" font-family="Helvetica-Light" font-size="20.0" fill="#000000" transform="matrix(1.00, 0.00, -0.00, -1.00, 868.8, 330.0)">i</text><text xml:space="preserve" font-family="Helvetica-Light" font-size="20.0" fill="#000000" transform="matrix(1.00, 0.00, -0.00, -1.00, 873.2, 330.0)">n</text><text xml:space="preserve" font-family="Helvetica-Light" font-size="20.0" fill="#000000" transform="matrix(1.00, 0.00, -0.00, -1.00, 884.3, 330.0)">e</text></g></g><g><clipPath id="clip-433"><path d="M 721.6 199.8 L 994.4 199.8 L 994.4 279.8 L 721.6 279.8 Z M 721.6 199.8 "></path></clipPath><g clip-path="url(#clip-433)"><path d="M 723.6 213.7 L 723.6 265.9 C 723.6 272.5 729.0 277.8 735.5 277.8 L 980.5 277.8 C 987.0 277.8 992.4 272.5 992.4 265.9 L 992.4 213.7 C 992.4 207.2 987.0 201.8 980.5 201.8 L 735.5 201.8 C 729.0 201.8 723.6 207.2 723.6 213.7 Z M 723.6 213.7 " fill="#7BC8C5"></path><path d="M 0.0 64.1 L 0.0 11.9 C 0.0 5.3 5.3 0.0 11.9 0.0 L 256.8 0.0 C 263.4 0.0 268.8 5.3 268.8 11.9 L 268.8 64.1 C 268.8 70.7 263.4 76.0 256.8 76.0 L 11.9 76.0 C 5.3 76.0 0.0 70.7 0.0 64.1 Z M 0.0 64.1 " fill="none" stroke="#85878C" stroke-width="2.00" transform="matrix(1.00, 0.00, 0.00, -1.00, 723.6, 277.8)"></path></g></g><g><clipPath id="clip-434"><path d="M 746.5 214.6 L 969.5 214.6 L 969.5 265.0 L 746.5 265.0 Z M 746.5 214.6 "></path></clipPath><g clip-path="url(#clip-434)"><path d="M 748.5 263.0 L 967.5 263.0 L 967.5 216.6 L 748.5 216.6 Z M 748.5 263.0 " fill="#FEFFFF"></path><path d="M 0.0 0.0 L 219.1 0.0 L 219.1 46.4 L 0.0 46.4 Z M 0.0 0.0 " fill="none" stroke="#85878C" stroke-width="2.00" transform="matrix(1.00, 0.00, 0.00, -1.00, 748.5, 263.0)"></path></g></g><g><clipPath id="clip-435"><path d="M 746.6 217.6 L 969.4 217.6 L 969.4 262.0 L 746.6 262.0 Z M 746.6 217.6 "></path></clipPath><g clip-path="url(#clip-435)"><text xml:space="preserve" font-family="Helvetica-Light" font-size="20.0" fill="#000000" transform="matrix(1.00, 0.00, -0.00, -1.00, 803.0, 233.0)">N</text><text xml:space="preserve" font-family="Helvetica-Light" font-size="20.0" fill="#000000" transform="matrix(1.00, 0.00, -0.00, -1.00, 817.4, 233.0)">o</text><text xml:space="preserve" font-family="Helvetica-Light" font-size="20.0" fill="#000000" transform="matrix(1.00, 0.00, -0.00, -1.00, 828.6, 233.0)">t</text><text xml:space="preserve" font-family="Helvetica-Light" font-size="20.0" fill="#000000" transform="matrix(1.00, 0.00, -0.00, -1.00, 834.1, 233.0)">i</text><text xml:space="preserve" font-family="Helvetica-Light" font-size="20.0" fill="#000000" transform="matrix(1.00, 0.00, -0.00, -1.00, 838.6, 233.0)">ﬁ</text><text xml:space="preserve" font-family="Helvetica-Light" font-size="20.0" fill="#000000" transform="matrix(1.00, 0.00, -0.00, -1.00, 848.6, 233.0)">c</text><text xml:space="preserve" font-family="Helvetica-Light" font-size="20.0" fill="#000000" transform="matrix(1.00, 0.00, -0.00, -1.00, 859.7, 233.0)">a</text><text xml:space="preserve" font-family="Helvetica-Light" font-size="20.0" fill="#000000" transform="matrix(1.00, 0.00, -0.00, -1.00, 870.8, 233.0)">t</text><text xml:space="preserve" font-family="Helvetica-Light" font-size="20.0" fill="#000000" transform="matrix(1.00, 0.00, -0.00, -1.00, 876.4, 233.0)">i</text><text xml:space="preserve" font-family="Helvetica-Light" font-size="20.0" fill="#000000" transform="matrix(1.00, 0.00, -0.00, -1.00, 880.8, 233.0)">o</text><text xml:space="preserve" font-family="Helvetica-Light" font-size="20.0" fill="#000000" transform="matrix(1.00, 0.00, -0.00, -1.00, 891.9, 233.0)">n</text><text xml:space="preserve" font-family="Helvetica-Light" font-size="20.0" fill="#000000" transform="matrix(1.00, 0.00, -0.00, -1.00, 903.0, 233.0)">s</text></g></g><g><clipPath id="clip-436"><path d="M 721.6 101.4 L 994.4 101.4 L 994.4 181.4 L 721.6 181.4 Z M 721.6 101.4 "></path></clipPath><g clip-path="url(#clip-436)"><path d="M 723.6 115.4 L 723.6 167.5 C 723.6 174.1 729.0 179.4 735.5 179.4 L 980.5 179.4 C 987.0 179.4 992.4 174.1 992.4 167.5 L 992.4 115.4 C 992.4 108.8 987.0 103.4 980.5 103.4 L 735.5 103.4 C 729.0 103.4 723.6 108.8 723.6 115.4 Z M 723.6 115.4 " fill="#7BC8C5"></path><path d="M 0.0 64.1 L 0.0 11.9 C 0.0 5.3 5.3 0.0 11.9 0.0 L 256.8 0.0 C 263.4 0.0 268.8 5.3 268.8 11.9 L 268.8 64.1 C 268.8 70.7 263.4 76.0 256.8 76.0 L 11.9 76.0 C 5.3 76.0 0.0 70.7 0.0 64.1 Z M 0.0 64.1 " fill="none" stroke="#85878C" stroke-width="2.00" transform="matrix(1.00, 0.00, 0.00, -1.00, 723.6, 179.4)"></path></g></g><g><clipPath id="clip-437"><path d="M 746.5 116.2 L 969.5 116.2 L 969.5 166.7 L 746.5 166.7 Z M 746.5 116.2 "></path></clipPath><g clip-path="url(#clip-437)"><path d="M 748.5 164.7 L 967.5 164.7 L 967.5 118.2 L 748.5 118.2 Z M 748.5 164.7 " fill="#FEFFFF"></path><path d="M 0.0 0.0 L 219.1 0.0 L 219.1 46.4 L 0.0 46.4 Z M 0.0 0.0 " fill="none" stroke="#85878C" stroke-width="2.00" transform="matrix(1.00, 0.00, 0.00, -1.00, 748.5, 164.7)"></path></g></g><g><clipPath id="clip-438"><path d="M 746.6 119.2 L 969.4 119.2 L 969.4 163.7 L 746.6 163.7 Z M 746.6 119.2 "></path></clipPath><g clip-path="url(#clip-438)"><text xml:space="preserve" font-family="Helvetica-Light" font-size="20.0" fill="#000000" transform="matrix(1.00, 0.00, -0.00, -1.00, 795.0, 134.0)">F</text><text xml:space="preserve" font-family="Helvetica-Light" font-size="20.0" fill="#000000" transform="matrix(1.00, 0.00, -0.00, -1.00, 806.1, 134.0)">i</text><text xml:space="preserve" font-family="Helvetica-Light" font-size="20.0" fill="#000000" transform="matrix(1.00, 0.00, -0.00, -1.00, 810.6, 134.0)">n</text><text xml:space="preserve" font-family="Helvetica-Light" font-size="20.0" fill="#000000" transform="matrix(1.00, 0.00, -0.00, -1.00, 821.7, 134.0)">a</text><text xml:space="preserve" font-family="Helvetica-Light" font-size="20.0" fill="#000000" transform="matrix(1.00, 0.00, -0.00, -1.00, 832.8, 134.0)">l</text><text xml:space="preserve" font-family="Helvetica-Light" font-size="20.0" fill="#000000" transform="matrix(1.00, 0.00, -0.00, -1.00, 837.2, 134.0)"> </text><text xml:space="preserve" font-family="Helvetica-Light" font-size="20.0" fill="#000000" transform="matrix(1.00, 0.00, -0.00, -1.00, 842.8, 134.0)">D</text><text xml:space="preserve" font-family="Helvetica-Light" font-size="20.0" fill="#000000" transform="matrix(1.00, 0.00, -0.00, -1.00, 857.2, 134.0)">e</text><text xml:space="preserve" font-family="Helvetica-Light" font-size="20.0" fill="#000000" transform="matrix(1.00, 0.00, -0.00, -1.00, 868.4, 134.0)">c</text><text xml:space="preserve" font-family="Helvetica-Light" font-size="20.0" fill="#000000" transform="matrix(1.00, 0.00, -0.00, -1.00, 879.5, 134.0)">i</text><text xml:space="preserve" font-family="Helvetica-Light" font-size="20.0" fill="#000000" transform="matrix(1.00, 0.00, -0.00, -1.00, 883.9, 134.0)">s</text><text xml:space="preserve" font-family="Helvetica-Light" font-size="20.0" fill="#000000" transform="matrix(1.00, 0.00, -0.00, -1.00, 893.9, 134.0)">i</text><text xml:space="preserve" font-family="Helvetica-Light" font-size="20.0" fill="#000000" transform="matrix(1.00, 0.00, -0.00, -1.00, 898.4, 134.0)">o</text><text xml:space="preserve" font-family="Helvetica-Light" font-size="20.0" fill="#000000" transform="matrix(1.00, 0.00, -0.00, -1.00, 909.5, 134.0)">n</text></g></g><g><clipPath id="clip-439"><path d="M 646.8 240.4 L 721.0 340.9 L 724.2 338.6 L 650.0 238.1 Z M 646.8 240.4 "></path></clipPath><g clip-path="url(#clip-439)"><path d="M 0.0 0.0 L 122.9 0.0 " fill="none" stroke="#000000" stroke-width="2.00" transform="matrix(0.59, 0.80, 0.80, -0.59, 649.0, 240.1)"></path></g></g><g><clipPath id="clip-440"><path d="M 648.0 238.1 L 723.0 238.1 L 723.0 242.1 L 648.0 242.1 Z M 648.0 238.1 "></path></clipPath><g clip-path="url(#clip-440)"><path d="M 0.0 0.0 L 73.0 0.0 " fill="none" stroke="#000000" stroke-width="2.00" transform="matrix(1.00, 0.00, 0.00, -1.00, 649.0, 240.1)"></path></g></g><g><clipPath id="clip-441"><path d="M 650.8 241.5 L 723.4 141.1 L 720.2 138.7 L 647.6 239.2 Z M 650.8 241.5 "></path></clipPath><g clip-path="url(#clip-441)"><path d="M 0.0 0.0 L 121.9 0.0 " fill="none" stroke="#000000" stroke-width="2.00" transform="matrix(0.59, -0.81, -0.81, -0.59, 649.8, 239.5)"></path></g></g><g><clipPath id="clip-442"><path d="M 721.6 396.0 L 994.4 396.0 L 994.4 476.0 L 721.6 476.0 Z M 721.6 396.0 "></path></clipPath><g clip-path="url(#clip-442)"><path d="M 723.6 410.0 L 723.6 462.1 C 723.6 468.7 729.0 474.0 735.5 474.0 L 980.5 474.0 C 987.0 474.0 992.4 468.7 992.4 462.1 L 992.4 410.0 C 992.4 403.4 987.0 398.0 980.5 398.0 L 735.5 398.0 C 729.0 398.0 723.6 403.4 723.6 410.0 Z M 723.6 410.0 " fill="#7BC8C5"></path><path d="M 0.0 64.1 L 0.0 11.9 C 0.0 5.3 5.3 0.0 11.9 0.0 L 256.8 0.0 C 263.4 0.0 268.8 5.3 268.8 11.9 L 268.8 64.1 C 268.8 70.7 263.4 76.0 256.8 76.0 L 11.9 76.0 C 5.3 76.0 0.0 70.7 0.0 64.1 Z M 0.0 64.1 " fill="none" stroke="#85878C" stroke-width="2.00" transform="matrix(1.00, 0.00, 0.00, -1.00, 723.6, 474.0)"></path></g></g><g><clipPath id="clip-443"><path d="M 746.5 410.8 L 969.5 410.8 L 969.5 461.3 L 746.5 461.3 Z M 746.5 410.8 "></path></clipPath><g clip-path="url(#clip-443)"><path d="M 748.5 459.3 L 967.5 459.3 L 967.5 412.8 L 748.5 412.8 Z M 748.5 459.3 " fill="#FEFFFF"></path><path d="M 0.0 0.0 L 219.1 0.0 L 219.1 46.4 L 0.0 46.4 Z M 0.0 0.0 " fill="none" stroke="#85878C" stroke-width="2.00" transform="matrix(1.00, 0.00, 0.00, -1.00, 748.5, 459.3)"></path></g></g><g><clipPath id="clip-444"><path d="M 746.6 413.8 L 969.4 413.8 L 969.4 458.3 L 746.6 458.3 Z M 746.6 413.8 "></path></clipPath><g clip-path="url(#clip-444)"><text xml:space="preserve" font-family="Helvetica-Light" font-size="20.0" fill="#000000" transform="matrix(1.00, 0.00, -0.00, -1.00, 814.0, 429.0)">G</text><text xml:space="preserve" font-family="Helvetica-Light" font-size="20.0" fill="#000000" transform="matrix(1.00, 0.00, -0.00, -1.00, 829.6, 429.0)">u</text><text xml:space="preserve" font-family="Helvetica-Light" font-size="20.0" fill="#000000" transform="matrix(1.00, 0.00, -0.00, -1.00, 840.7, 429.0)">i</text><text xml:space="preserve" font-family="Helvetica-Light" font-size="20.0" fill="#000000" transform="matrix(1.00, 0.00, -0.00, -1.00, 845.1, 429.0)">d</text><text xml:space="preserve" font-family="Helvetica-Light" font-size="20.0" fill="#000000" transform="matrix(1.00, 0.00, -0.00, -1.00, 857.3, 429.0)">a</text><text xml:space="preserve" font-family="Helvetica-Light" font-size="20.0" fill="#000000" transform="matrix(1.00, 0.00, -0.00, -1.00, 868.5, 429.0)">n</text><text xml:space="preserve" font-family="Helvetica-Light" font-size="20.0" fill="#000000" transform="matrix(1.00, 0.00, -0.00, -1.00, 879.6, 429.0)">c</text><text xml:space="preserve" font-family="Helvetica-Light" font-size="20.0" fill="#000000" transform="matrix(1.00, 0.00, -0.00, -1.00, 890.7, 429.0)">e</text></g></g><path d="M 0.0 0.0 L 210.4 0.0 " fill="none" stroke="#000000" stroke-width="2.00" transform="matrix(0.35, 0.94, 0.94, -0.35, 648.5, 239.3)"></path><g><clipPath id="clip-445"><path d="M 375.6 104.8 L 648.4 104.8 L 648.4 184.8 L 375.6 184.8 Z M 375.6 104.8 "></path></clipPath><g clip-path="url(#clip-445)"><path d="M 377.6 118.8 L 377.6 170.9 C 377.6 177.5 383.0 182.8 389.5 182.8 L 634.5 182.8 C 641.0 182.8 646.4 177.5 646.4 170.9 L 646.4 118.8 C 646.4 112.2 641.0 106.8 634.5 106.8 L 389.5 106.8 C 383.0 106.8 377.6 112.2 377.6 118.8 Z M 377.6 118.8 " fill="#DE4400"></path><path d="M 0.0 64.1 L 0.0 11.9 C 0.0 5.3 5.3 0.0 11.9 0.0 L 256.8 0.0 C 263.4 0.0 268.8 5.3 268.8 11.9 L 268.8 64.1 C 268.8 70.7 263.4 76.0 256.8 76.0 L 11.9 76.0 C 5.3 76.0 0.0 70.7 0.0 64.1 Z M 0.0 64.1 " fill="none" stroke="#85878C" stroke-width="2.00" transform="matrix(1.00, 0.00, 0.00, -1.00, 377.6, 182.8)"></path></g></g><g><clipPath id="clip-446"><path d="M 400.5 119.6 L 623.5 119.6 L 623.5 170.1 L 400.5 170.1 Z M 400.5 119.6 "></path></clipPath><g clip-path="url(#clip-446)"><path d="M 402.5 168.1 L 621.5 168.1 L 621.5 121.6 L 402.5 121.6 Z M 402.5 168.1 " fill="#FEFFFF"></path><path d="M 0.0 0.0 L 219.1 0.0 L 219.1 46.4 L 0.0 46.4 Z M 0.0 0.0 " fill="none" stroke="#85878C" stroke-width="2.00" transform="matrix(1.00, 0.00, 0.00, -1.00, 402.5, 168.1)"></path></g></g><g><clipPath id="clip-447"><path d="M 400.6 122.6 L 623.4 122.6 L 623.4 167.1 L 400.6 167.1 Z M 400.6 122.6 "></path></clipPath><g clip-path="url(#clip-447)"><text xml:space="preserve" font-family="Helvetica-Light" font-size="20.0" fill="#000000" transform="matrix(1.00, 0.00, -0.00, -1.00, 454.0, 138.0)">6</text><text xml:space="preserve" font-family="Helvetica-Light" font-size="20.0" fill="#000000" transform="matrix(1.00, 0.00, -0.00, -1.00, 465.1, 138.0)">.</text><text xml:space="preserve" font-family="Helvetica-Light" font-size="20.0" fill="#000000" transform="matrix(1.00, 0.00, -0.00, -1.00, 470.7, 138.0)"> </text><text xml:space="preserve" font-family="Helvetica-Light" font-size="20.0" fill="#000000" transform="matrix(1.00, 0.00, -0.00, -1.00, 476.2, 138.0)">M</text><text xml:space="preserve" font-family="Helvetica-Light" font-size="20.0" fill="#000000" transform="matrix(1.00, 0.00, -0.00, -1.00, 492.9, 138.0)">o</text><text xml:space="preserve" font-family="Helvetica-Light" font-size="20.0" fill="#000000" transform="matrix(1.00, 0.00, -0.00, -1.00, 504.0, 138.0)">n</text><text xml:space="preserve" font-family="Helvetica-Light" font-size="20.0" fill="#000000" transform="matrix(1.00, 0.00, -0.00, -1.00, 515.1, 138.0)">i</text><text xml:space="preserve" font-family="Helvetica-Light" font-size="20.0" fill="#000000" transform="matrix(1.00, 0.00, -0.00, -1.00, 519.6, 138.0)">t</text><text xml:space="preserve" font-family="Helvetica-Light" font-size="20.0" fill="#000000" transform="matrix(1.00, 0.00, -0.00, -1.00, 525.1, 138.0)">o</text><text xml:space="preserve" font-family="Helvetica-Light" font-size="20.0" fill="#000000" transform="matrix(1.00, 0.00, -0.00, -1.00, 536.3, 138.0)">r</text><text xml:space="preserve" font-family="Helvetica-Light" font-size="20.0" fill="#000000" transform="matrix(1.00, 0.00, -0.00, -1.00, 542.9, 138.0)">i</text><text xml:space="preserve" font-family="Helvetica-Light" font-size="20.0" fill="#000000" transform="matrix(1.00, 0.00, -0.00, -1.00, 547.4, 138.0)">n</text><text xml:space="preserve" font-family="Helvetica-Light" font-size="20.0" fill="#000000" transform="matrix(1.00, 0.00, -0.00, -1.00, 558.5, 138.0)">g</text></g></g><g><clipPath id="clip-448"><path d="M 375.6 10.1 L 648.4 10.1 L 648.4 90.1 L 375.6 90.1 Z M 375.6 10.1 "></path></clipPath><g clip-path="url(#clip-448)"><path d="M 377.6 24.0 L 377.6 76.2 C 377.6 82.8 383.0 88.1 389.5 88.1 L 634.5 88.1 C 641.0 88.1 646.4 82.8 646.4 76.2 L 646.4 24.0 C 646.4 17.5 641.0 12.1 634.5 12.1 L 389.5 12.1 C 383.0 12.1 377.6 17.5 377.6 24.0 Z M 377.6 24.0 " fill="#C7EAEE"></path><path d="M 0.0 64.1 L 0.0 11.9 C 0.0 5.3 5.3 0.0 11.9 0.0 L 256.8 0.0 C 263.4 0.0 268.8 5.3 268.8 11.9 L 268.8 64.1 C 268.8 70.7 263.4 76.0 256.8 76.0 L 11.9 76.0 C 5.3 76.0 0.0 70.7 0.0 64.1 Z M 0.0 64.1 " fill="none" stroke="#85878C" stroke-width="2.00" transform="matrix(1.00, 0.00, 0.00, -1.00, 377.6, 88.1)"></path></g></g><g><clipPath id="clip-449"><path d="M 400.5 24.9 L 623.5 24.9 L 623.5 75.3 L 400.5 75.3 Z M 400.5 24.9 "></path></clipPath><g clip-path="url(#clip-449)"><path d="M 402.5 73.3 L 621.5 73.3 L 621.5 26.9 L 402.5 26.9 Z M 402.5 73.3 " fill="#FEFFFF"></path><path d="M 0.0 0.0 L 219.1 0.0 L 219.1 46.4 L 0.0 46.4 Z M 0.0 0.0 " fill="none" stroke="#85878C" stroke-width="2.00" transform="matrix(1.00, 0.00, 0.00, -1.00, 402.5, 73.3)"></path></g></g><g><clipPath id="clip-450"><path d="M 400.6 27.9 L 623.4 27.9 L 623.4 72.3 L 400.6 72.3 Z M 400.6 27.9 "></path></clipPath><g clip-path="url(#clip-450)"><text xml:space="preserve" font-family="Helvetica-Light" font-size="20.0" fill="#000000" transform="matrix(1.00, 0.00, -0.00, -1.00, 457.0, 43.0)">7</text><text xml:space="preserve" font-family="Helvetica-Light" font-size="20.0" fill="#000000" transform="matrix(1.00, 0.00, -0.00, -1.00, 468.1, 43.0)">.</text><text xml:space="preserve" font-family="Helvetica-Light" font-size="20.0" fill="#000000" transform="matrix(1.00, 0.00, -0.00, -1.00, 473.7, 43.0)"> </text><text xml:space="preserve" font-family="Helvetica-Light" font-size="20.0" fill="#000000" transform="matrix(1.00, 0.00, -0.00, -1.00, 479.2, 43.0)">R</text><text xml:space="preserve" font-family="Helvetica-Light" font-size="20.0" fill="#000000" transform="matrix(1.00, 0.00, -0.00, -1.00, 492.6, 43.0)">e</text><text xml:space="preserve" font-family="Helvetica-Light" font-size="20.0" fill="#000000" transform="matrix(1.00, 0.00, -0.00, -1.00, 503.7, 43.0)">p</text><text xml:space="preserve" font-family="Helvetica-Light" font-size="20.0" fill="#000000" transform="matrix(1.00, 0.00, -0.00, -1.00, 515.9, 43.0)">o</text><text xml:space="preserve" font-family="Helvetica-Light" font-size="20.0" fill="#000000" transform="matrix(1.00, 0.00, -0.00, -1.00, 527.0, 43.0)">r</text><text xml:space="preserve" font-family="Helvetica-Light" font-size="20.0" fill="#000000" transform="matrix(1.00, 0.00, -0.00, -1.00, 534.1, 43.0)">t</text><text xml:space="preserve" font-family="Helvetica-Light" font-size="20.0" fill="#000000" transform="matrix(1.00, 0.00, -0.00, -1.00, 539.6, 43.0)">i</text><text xml:space="preserve" font-family="Helvetica-Light" font-size="20.0" fill="#000000" transform="matrix(1.00, 0.00, -0.00, -1.00, 544.1, 43.0)">n</text><text xml:space="preserve" font-family="Helvetica-Light" font-size="20.0" fill="#000000" transform="matrix(1.00, 0.00, -0.00, -1.00, 555.2, 43.0)">g</text></g></g></g></svg>