<?xml version="1.0" encoding="UTF-8" standalone="no"?><svg xmlns="http://www.w3.org/2000/svg" xmlns:xlink="http://www.w3.org/1999/xlink" clip-rule="evenodd" stroke-miterlimit="4.00" viewBox="0 0 1024 768"><desc>SVG generated by Keynote</desc><defs></defs><g transform="matrix(1.00, 0.00, -0.00, -1.00, 0.0, 768.0)"><path d="M 0.0 768.0 L 1024.0 768.0 L 1024.0 0.0 L 0.0 0.0 Z M 0.0 768.0 " fill="#FEFFFF"></path><g><clipPath id="clip-11292"><path d="M 724.0 666.2 L 996.8 666.2 L 996.8 749.8 L 724.0 749.8 Z M 724.0 666.2 "></path></clipPath><g clip-path="url(#clip-11292)"><path d="M 726.0 680.2 L 726.0 735.8 C 726.0 742.4 731.3 747.8 737.9 747.8 L 982.8 747.8 C 989.4 747.8 994.8 742.4 994.8 735.8 L 994.8 680.2 C 994.8 673.6 989.4 668.2 982.8 668.2 L 737.9 668.2 C 731.3 668.2 726.0 673.6 726.0 680.2 Z M 726.0 680.2 " fill="#C7EAEE"></path><path d="M 0.0 67.6 L 0.0 11.9 C 0.0 5.3 5.3 0.0 11.9 0.0 L 256.8 0.0 C 263.4 0.0 268.8 5.3 268.8 11.9 L 268.8 67.6 C 268.8 74.2 263.4 79.5 256.8 79.5 L 11.9 79.5 C 5.3 79.5 0.0 74.2 0.0 67.6 Z M 0.0 67.6 " fill="none" stroke="#85878C" stroke-width="2.00" transform="matrix(1.00, 0.00, 0.00, -1.00, 726.0, 747.8)"></path></g></g><g><clipPath id="clip-11293"><path d="M 740.1 682.0 L 980.7 682.0 L 980.7 734.0 L 740.1 734.0 Z M 740.1 682.0 "></path></clipPath><g clip-path="url(#clip-11293)"><path d="M 742.1 732.0 L 978.7 732.0 L 978.7 684.0 L 742.1 684.0 Z M 742.1 732.0 " fill="#FEFFFF"></path><path d="M 0.0 0.0 L 236.6 0.0 L 236.6 48.0 L 0.0 48.0 Z M 0.0 0.0 " fill="none" stroke="#85878C" stroke-width="2.00" transform="matrix(1.00, 0.00, 0.00, -1.00, 742.1, 732.0)"></path></g></g><g><clipPath id="clip-11294"><path d="M 741.2 684.9 L 979.6 684.9 L 979.6 731.0 L 741.2 731.0 Z M 741.2 684.9 "></path></clipPath><g clip-path="url(#clip-11294)"><text xml:space="preserve" font-family="Helvetica-Light" font-size="16.0" fill="#000000" transform="matrix(1.00, 0.00, -0.00, -1.00, 787.0, 712.0)">A</text><text xml:space="preserve" font-family="Helvetica-Light" font-size="16.0" fill="#000000" transform="matrix(1.00, 0.00, -0.00, -1.00, 797.7, 712.0)">B</text><text xml:space="preserve" font-family="Helvetica-Light" font-size="16.0" fill="#000000" transform="matrix(1.00, 0.00, -0.00, -1.00, 808.3, 712.0)">S</text><text xml:space="preserve" font-family="Helvetica-Light" font-size="16.0" fill="#000000" transform="matrix(1.00, 0.00, -0.00, -1.00, 818.1, 712.0)"> </text><text xml:space="preserve" font-family="Helvetica-Light" font-size="16.0" fill="#000000" transform="matrix(1.00, 0.00, -0.00, -1.00, 822.6, 712.0)">C</text><text xml:space="preserve" font-family="Helvetica-Light" font-size="16.0" fill="#000000" transform="matrix(1.00, 0.00, -0.00, -1.00, 834.1, 712.0)">l</text><text xml:space="preserve" font-family="Helvetica-Light" font-size="16.0" fill="#000000" transform="matrix(1.00, 0.00, -0.00, -1.00, 837.7, 712.0)">e</text><text xml:space="preserve" font-family="Helvetica-Light" font-size="16.0" fill="#000000" transform="matrix(1.00, 0.00, -0.00, -1.00, 846.6, 712.0)">a</text><text xml:space="preserve" font-family="Helvetica-Light" font-size="16.0" fill="#000000" transform="matrix(1.00, 0.00, -0.00, -1.00, 855.5, 712.0)">r</text><text xml:space="preserve" font-family="Helvetica-Light" font-size="16.0" fill="#000000" transform="matrix(1.00, 0.00, -0.00, -1.00, 860.8, 712.0)">i</text><text xml:space="preserve" font-family="Helvetica-Light" font-size="16.0" fill="#000000" transform="matrix(1.00, 0.00, -0.00, -1.00, 864.3, 712.0)">n</text><text xml:space="preserve" font-family="Helvetica-Light" font-size="16.0" fill="#000000" transform="matrix(1.00, 0.00, -0.00, -1.00, 873.2, 712.0)">g</text><text xml:space="preserve" font-family="Helvetica-Light" font-size="16.0" fill="#000000" transform="matrix(1.00, 0.00, -0.00, -1.00, 883.0, 712.0)"> </text><text xml:space="preserve" font-family="Helvetica-Light" font-size="16.0" fill="#000000" transform="matrix(1.00, 0.00, -0.00, -1.00, 887.5, 712.0)">H</text><text xml:space="preserve" font-family="Helvetica-Light" font-size="16.0" fill="#000000" transform="matrix(1.00, 0.00, -0.00, -1.00, 899.0, 712.0)">o</text><text xml:space="preserve" font-family="Helvetica-Light" font-size="16.0" fill="#000000" transform="matrix(1.00, 0.00, -0.00, -1.00, 907.9, 712.0)">u</text><text xml:space="preserve" font-family="Helvetica-Light" font-size="16.0" fill="#000000" transform="matrix(1.00, 0.00, -0.00, -1.00, 916.8, 712.0)">s</text><text xml:space="preserve" font-family="Helvetica-Light" font-size="16.0" fill="#000000" transform="matrix(1.00, 0.00, -0.00, -1.00, 924.8, 712.0)">e</text><text xml:space="preserve" font-family="Helvetica-Light" font-size="16.0" fill="#000000" transform="matrix(1.00, 0.00, -0.00, -1.00, 933.7, 712.0)"> </text><text xml:space="preserve" font-family="Helvetica-Light" font-size="16.0" fill="#000000" transform="matrix(1.00, 0.00, -0.00, -1.00, 819.0, 693.0)">M</text><text xml:space="preserve" font-family="Helvetica-Light" font-size="16.0" fill="#000000" transform="matrix(1.00, 0.00, -0.00, -1.00, 832.3, 693.0)">e</text><text xml:space="preserve" font-family="Helvetica-Light" font-size="16.0" fill="#000000" transform="matrix(1.00, 0.00, -0.00, -1.00, 841.2, 693.0)">c</text><text xml:space="preserve" font-family="Helvetica-Light" font-size="16.0" fill="#000000" transform="matrix(1.00, 0.00, -0.00, -1.00, 850.1, 693.0)">h</text><text xml:space="preserve" font-family="Helvetica-Light" font-size="16.0" fill="#000000" transform="matrix(1.00, 0.00, -0.00, -1.00, 859.0, 693.0)">a</text><text xml:space="preserve" font-family="Helvetica-Light" font-size="16.0" fill="#000000" transform="matrix(1.00, 0.00, -0.00, -1.00, 867.9, 693.0)">n</text><text xml:space="preserve" font-family="Helvetica-Light" font-size="16.0" fill="#000000" transform="matrix(1.00, 0.00, -0.00, -1.00, 876.8, 693.0)">i</text><text xml:space="preserve" font-family="Helvetica-Light" font-size="16.0" fill="#000000" transform="matrix(1.00, 0.00, -0.00, -1.00, 880.4, 693.0)">s</text><text xml:space="preserve" font-family="Helvetica-Light" font-size="16.0" fill="#000000" transform="matrix(1.00, 0.00, -0.00, -1.00, 888.4, 693.0)">m</text></g></g><g><clipPath id="clip-11295"><path d="M 341.0 496.7 L 683.0 496.7 L 683.0 600.7 L 341.0 600.7 Z M 341.0 496.7 "></path></clipPath><g clip-path="url(#clip-11295)"><path d="M 343.0 513.7 L 343.0 583.7 C 343.0 592.0 349.7 598.7 358.0 598.7 L 666.0 598.7 C 674.3 598.7 681.0 592.0 681.0 583.7 L 681.0 513.7 C 681.0 505.5 674.3 498.7 666.0 498.7 L 358.0 498.7 C 349.7 498.7 343.0 505.5 343.0 513.7 Z M 343.0 513.7 " fill="#A4DAAD"></path><path d="M 0.0 85.0 L 0.0 15.0 C 0.0 6.7 6.7 0.0 15.0 0.0 L 323.0 0.0 C 331.3 0.0 338.0 6.7 338.0 15.0 L 338.0 85.0 C 338.0 93.3 331.3 100.0 323.0 100.0 L 15.0 100.0 C 6.7 100.0 0.0 93.3 0.0 85.0 Z M 0.0 85.0 " fill="none" stroke="#85878C" stroke-width="2.00" transform="matrix(1.00, 0.00, 0.00, -1.00, 343.0, 598.7)"></path></g></g><g><clipPath id="clip-11296"><path d="M 390.4 531.6 L 633.6 531.6 L 633.6 565.9 L 390.4 565.9 Z M 390.4 531.6 "></path></clipPath><g clip-path="url(#clip-11296)"><path d="M 392.4 563.9 L 631.6 563.9 L 631.6 533.6 L 392.4 533.6 Z M 392.4 563.9 " fill="#FEFFFF"></path><path d="M 0.0 0.0 L 239.2 0.0 L 239.2 30.3 L 0.0 30.3 Z M 0.0 0.0 " fill="none" stroke="#85878C" stroke-width="2.00" transform="matrix(1.00, 0.00, 0.00, -1.00, 392.4, 563.9)"></path></g></g><g><clipPath id="clip-11297"><path d="M 390.5 531.7 L 633.5 531.7 L 633.5 565.7 L 390.5 565.7 Z M 390.5 531.7 "></path></clipPath><g clip-path="url(#clip-11297)"><text xml:space="preserve" font-family="Helvetica-Light" font-size="20.0" fill="#000000" transform="matrix(1.00, 0.00, -0.00, -1.00, 396.0, 541.0)">O</text><text xml:space="preserve" font-family="Helvetica-Light" font-size="20.0" fill="#000000" transform="matrix(1.00, 0.00, -0.00, -1.00, 411.6, 541.0)">n</text><text xml:space="preserve" font-family="Helvetica-Light" font-size="20.0" fill="#000000" transform="matrix(1.00, 0.00, -0.00, -1.00, 422.7, 541.0)">l</text><text xml:space="preserve" font-family="Helvetica-Light" font-size="20.0" fill="#000000" transform="matrix(1.00, 0.00, -0.00, -1.00, 427.1, 541.0)">i</text><text xml:space="preserve" font-family="Helvetica-Light" font-size="20.0" fill="#000000" transform="matrix(1.00, 0.00, -0.00, -1.00, 431.6, 541.0)">n</text><text xml:space="preserve" font-family="Helvetica-Light" font-size="20.0" fill="#000000" transform="matrix(1.00, 0.00, -0.00, -1.00, 442.7, 541.0)">e</text><text xml:space="preserve" font-family="Helvetica-Light" font-size="20.0" fill="#000000" transform="matrix(1.00, 0.00, -0.00, -1.00, 453.8, 541.0)"> </text><text xml:space="preserve" font-family="Helvetica-Light" font-size="20.0" fill="#000000" transform="matrix(1.00, 0.00, -0.00, -1.00, 459.4, 541.0)">S</text><text xml:space="preserve" font-family="Helvetica-Light" font-size="20.0" fill="#000000" transform="matrix(1.00, 0.00, -0.00, -1.00, 471.6, 541.0)">y</text><text xml:space="preserve" font-family="Helvetica-Light" font-size="20.0" fill="#000000" transform="matrix(1.00, 0.00, -0.00, -1.00, 481.6, 541.0)">s</text><text xml:space="preserve" font-family="Helvetica-Light" font-size="20.0" fill="#000000" transform="matrix(1.00, 0.00, -0.00, -1.00, 491.6, 541.0)">t</text><text xml:space="preserve" font-family="Helvetica-Light" font-size="20.0" fill="#000000" transform="matrix(1.00, 0.00, -0.00, -1.00, 497.1, 541.0)">e</text><text xml:space="preserve" font-family="Helvetica-Light" font-size="20.0" fill="#000000" transform="matrix(1.00, 0.00, -0.00, -1.00, 508.3, 541.0)">m</text><text xml:space="preserve" font-family="Helvetica-Light" font-size="20.0" fill="#000000" transform="matrix(1.00, 0.00, -0.00, -1.00, 524.9, 541.0)"> </text><text xml:space="preserve" font-family="Helvetica-Light" font-size="20.0" fill="#000000" transform="matrix(1.00, 0.00, -0.00, -1.00, 530.5, 541.0)">F</text><text xml:space="preserve" font-family="Helvetica-Light" font-size="20.0" fill="#000000" transform="matrix(1.00, 0.00, -0.00, -1.00, 541.6, 541.0)">r</text><text xml:space="preserve" font-family="Helvetica-Light" font-size="20.0" fill="#000000" transform="matrix(1.00, 0.00, -0.00, -1.00, 547.9, 541.0)">o</text><text xml:space="preserve" font-family="Helvetica-Light" font-size="20.0" fill="#000000" transform="matrix(1.00, 0.00, -0.00, -1.00, 559.0, 541.0)">n</text><text xml:space="preserve" font-family="Helvetica-Light" font-size="20.0" fill="#000000" transform="matrix(1.00, 0.00, -0.00, -1.00, 570.1, 541.0)">t</text><text xml:space="preserve" font-family="Helvetica-Light" font-size="20.0" fill="#000000" transform="matrix(1.00, 0.00, -0.00, -1.00, 575.7, 541.0)"> </text><text xml:space="preserve" font-family="Helvetica-Light" font-size="20.0" fill="#000000" transform="matrix(1.00, 0.00, -0.00, -1.00, 581.3, 541.0)">P</text><text xml:space="preserve" font-family="Helvetica-Light" font-size="20.0" fill="#000000" transform="matrix(1.00, 0.00, -0.00, -1.00, 593.5, 541.0)">a</text><text xml:space="preserve" font-family="Helvetica-Light" font-size="20.0" fill="#000000" transform="matrix(1.00, 0.00, -0.00, -1.00, 604.6, 541.0)">g</text><text xml:space="preserve" font-family="Helvetica-Light" font-size="20.0" fill="#000000" transform="matrix(1.00, 0.00, -0.00, -1.00, 616.8, 541.0)">e</text></g></g><g><clipPath id="clip-11298"><path d="M 724.0 540.2 L 996.8 540.2 L 996.8 620.3 L 724.0 620.3 Z M 724.0 540.2 "></path></clipPath><g clip-path="url(#clip-11298)"><path d="M 726.0 554.2 L 726.0 606.3 C 726.0 612.9 731.3 618.3 737.9 618.3 L 982.8 618.3 C 989.4 618.3 994.8 612.9 994.8 606.3 L 994.8 554.2 C 994.8 547.6 989.4 542.2 982.8 542.2 L 737.9 542.2 C 731.3 542.2 726.0 547.6 726.0 554.2 Z M 726.0 554.2 " fill="#A4DAAD"></path><path d="M 0.0 64.1 L 0.0 11.9 C 0.0 5.3 5.3 0.0 11.9 0.0 L 256.8 0.0 C 263.4 0.0 268.8 5.3 268.8 11.9 L 268.8 64.1 C 268.8 70.7 263.4 76.0 256.8 76.0 L 11.9 76.0 C 5.3 76.0 0.0 70.7 0.0 64.1 Z M 0.0 64.1 " fill="none" stroke="#85878C" stroke-width="2.00" transform="matrix(1.00, 0.00, 0.00, -1.00, 726.0, 618.3)"></path></g></g><g><clipPath id="clip-11299"><path d="M 748.8 555.0 L 971.9 555.0 L 971.9 605.5 L 748.8 605.5 Z M 748.8 555.0 "></path></clipPath><g clip-path="url(#clip-11299)"><path d="M 750.8 603.5 L 969.9 603.5 L 969.9 557.0 L 750.8 557.0 Z M 750.8 603.5 " fill="#FEFFFF"></path><path d="M 0.0 0.0 L 219.1 0.0 L 219.1 46.4 L 0.0 46.4 Z M 0.0 0.0 " fill="none" stroke="#85878C" stroke-width="2.00" transform="matrix(1.00, 0.00, 0.00, -1.00, 750.8, 603.5)"></path></g></g><g><clipPath id="clip-11300"><path d="M 749.0 558.0 L 971.8 558.0 L 971.8 602.5 L 749.0 602.5 Z M 749.0 558.0 "></path></clipPath><g clip-path="url(#clip-11300)"><text xml:space="preserve" font-family="Helvetica-Light" font-size="20.0" fill="#000000" transform="matrix(1.00, 0.00, -0.00, -1.00, 808.0, 573.0)">D</text><text xml:space="preserve" font-family="Helvetica-Light" font-size="20.0" fill="#000000" transform="matrix(1.00, 0.00, -0.00, -1.00, 822.4, 573.0)">a</text><text xml:space="preserve" font-family="Helvetica-Light" font-size="20.0" fill="#000000" transform="matrix(1.00, 0.00, -0.00, -1.00, 833.6, 573.0)">t</text><text xml:space="preserve" font-family="Helvetica-Light" font-size="20.0" fill="#000000" transform="matrix(1.00, 0.00, -0.00, -1.00, 839.1, 573.0)">a</text><text xml:space="preserve" font-family="Helvetica-Light" font-size="20.0" fill="#000000" transform="matrix(1.00, 0.00, -0.00, -1.00, 850.2, 573.0)"> </text><text xml:space="preserve" font-family="Helvetica-Light" font-size="20.0" fill="#000000" transform="matrix(1.00, 0.00, -0.00, -1.00, 855.8, 573.0)">T</text><text xml:space="preserve" font-family="Helvetica-Light" font-size="20.0" fill="#000000" transform="matrix(1.00, 0.00, -0.00, -1.00, 864.7, 573.0)">a</text><text xml:space="preserve" font-family="Helvetica-Light" font-size="20.0" fill="#000000" transform="matrix(1.00, 0.00, -0.00, -1.00, 875.8, 573.0)">b</text><text xml:space="preserve" font-family="Helvetica-Light" font-size="20.0" fill="#000000" transform="matrix(1.00, 0.00, -0.00, -1.00, 888.0, 573.0)">l</text><text xml:space="preserve" font-family="Helvetica-Light" font-size="20.0" fill="#000000" transform="matrix(1.00, 0.00, -0.00, -1.00, 892.5, 573.0)">e</text><text xml:space="preserve" font-family="Helvetica-Light" font-size="20.0" fill="#000000" transform="matrix(1.00, 0.00, -0.00, -1.00, 903.6, 573.0)">s</text></g></g><g><clipPath id="clip-11301"><path d="M 724.0 298.0 L 996.8 298.0 L 996.8 378.0 L 724.0 378.0 Z M 724.0 298.0 "></path></clipPath><g clip-path="url(#clip-11301)"><path d="M 726.0 311.9 L 726.0 364.1 C 726.0 370.7 731.3 376.0 737.9 376.0 L 982.8 376.0 C 989.4 376.0 994.8 370.7 994.8 364.1 L 994.8 311.9 C 994.8 305.3 989.4 300.0 982.8 300.0 L 737.9 300.0 C 731.3 300.0 726.0 305.3 726.0 311.9 Z M 726.0 311.9 " fill="#A4DAAD"></path><path d="M 0.0 64.1 L 0.0 11.9 C 0.0 5.3 5.3 0.0 11.9 0.0 L 256.8 0.0 C 263.4 0.0 268.8 5.3 268.8 11.9 L 268.8 64.1 C 268.8 70.7 263.4 76.0 256.8 76.0 L 11.9 76.0 C 5.3 76.0 0.0 70.7 0.0 64.1 Z M 0.0 64.1 " fill="none" stroke="#85878C" stroke-width="2.00" transform="matrix(1.00, 0.00, 0.00, -1.00, 726.0, 376.0)"></path></g></g><g><clipPath id="clip-11302"><path d="M 748.8 312.8 L 971.9 312.8 L 971.9 363.2 L 748.8 363.2 Z M 748.8 312.8 "></path></clipPath><g clip-path="url(#clip-11302)"><path d="M 750.8 361.2 L 969.9 361.2 L 969.9 314.8 L 750.8 314.8 Z M 750.8 361.2 " fill="#FEFFFF"></path><path d="M 0.0 0.0 L 219.1 0.0 L 219.1 46.4 L 0.0 46.4 Z M 0.0 0.0 " fill="none" stroke="#85878C" stroke-width="2.00" transform="matrix(1.00, 0.00, 0.00, -1.00, 750.8, 361.2)"></path></g></g><g><clipPath id="clip-11303"><path d="M 749.0 315.8 L 971.8 315.8 L 971.8 360.2 L 749.0 360.2 Z M 749.0 315.8 "></path></clipPath><g clip-path="url(#clip-11303)"><text xml:space="preserve" font-family="Helvetica-Light" font-size="20.0" fill="#000000" transform="matrix(1.00, 0.00, -0.00, -1.00, 843.0, 331.0)">.</text><text xml:space="preserve" font-family="Helvetica-Light" font-size="20.0" fill="#000000" transform="matrix(1.00, 0.00, -0.00, -1.00, 848.6, 331.0)">p</text><text xml:space="preserve" font-family="Helvetica-Light" font-size="20.0" fill="#000000" transform="matrix(1.00, 0.00, -0.00, -1.00, 860.8, 331.0)">d</text><text xml:space="preserve" font-family="Helvetica-Light" font-size="20.0" fill="#000000" transform="matrix(1.00, 0.00, -0.00, -1.00, 873.0, 331.0)">f</text></g></g><g><clipPath id="clip-11304"><path d="M 724.0 419.1 L 996.8 419.1 L 996.8 499.1 L 724.0 499.1 Z M 724.0 419.1 "></path></clipPath><g clip-path="url(#clip-11304)"><path d="M 726.0 433.0 L 726.0 485.2 C 726.0 491.8 731.3 497.1 737.9 497.1 L 982.8 497.1 C 989.4 497.1 994.8 491.8 994.8 485.2 L 994.8 433.0 C 994.8 426.5 989.4 421.1 982.8 421.1 L 737.9 421.1 C 731.3 421.1 726.0 426.5 726.0 433.0 Z M 726.0 433.0 " fill="#A4DAAD"></path><path d="M 0.0 64.1 L 0.0 11.9 C 0.0 5.3 5.3 0.0 11.9 0.0 L 256.8 0.0 C 263.4 0.0 268.8 5.3 268.8 11.9 L 268.8 64.1 C 268.8 70.7 263.4 76.0 256.8 76.0 L 11.9 76.0 C 5.3 76.0 0.0 70.7 0.0 64.1 Z M 0.0 64.1 " fill="none" stroke="#85878C" stroke-width="2.00" transform="matrix(1.00, 0.00, 0.00, -1.00, 726.0, 497.1)"></path></g></g><g><clipPath id="clip-11305"><path d="M 748.8 433.9 L 971.9 433.9 L 971.9 484.3 L 748.8 484.3 Z M 748.8 433.9 "></path></clipPath><g clip-path="url(#clip-11305)"><path d="M 750.8 482.3 L 969.9 482.3 L 969.9 435.9 L 750.8 435.9 Z M 750.8 482.3 " fill="#FEFFFF"></path><path d="M 0.0 0.0 L 219.1 0.0 L 219.1 46.4 L 0.0 46.4 Z M 0.0 0.0 " fill="none" stroke="#85878C" stroke-width="2.00" transform="matrix(1.00, 0.00, 0.00, -1.00, 750.8, 482.3)"></path></g></g><g><clipPath id="clip-11306"><path d="M 749.0 436.9 L 971.8 436.9 L 971.8 481.3 L 749.0 481.3 Z M 749.0 436.9 "></path></clipPath><g clip-path="url(#clip-11306)"><text xml:space="preserve" font-family="Helvetica-Light" font-size="20.0" fill="#000000" transform="matrix(1.00, 0.00, -0.00, -1.00, 824.0, 452.0)">t</text><text xml:space="preserve" font-family="Helvetica-Light" font-size="20.0" fill="#000000" transform="matrix(1.00, 0.00, -0.00, -1.00, 829.6, 452.0)">e</text><text xml:space="preserve" font-family="Helvetica-Light" font-size="20.0" fill="#000000" transform="matrix(1.00, 0.00, -0.00, -1.00, 840.7, 452.0)">x</text><text xml:space="preserve" font-family="Helvetica-Light" font-size="20.0" fill="#000000" transform="matrix(1.00, 0.00, -0.00, -1.00, 850.7, 452.0)">t</text><text xml:space="preserve" font-family="Helvetica-Light" font-size="20.0" fill="#000000" transform="matrix(1.00, 0.00, -0.00, -1.00, 856.2, 452.0)"> </text><text xml:space="preserve" font-family="Helvetica-Light" font-size="20.0" fill="#000000" transform="matrix(1.00, 0.00, -0.00, -1.00, 861.8, 452.0)">ï¬</text><text xml:space="preserve" font-family="Helvetica-Light" font-size="20.0" fill="#000000" transform="matrix(1.00, 0.00, -0.00, -1.00, 871.8, 452.0)">l</text><text xml:space="preserve" font-family="Helvetica-Light" font-size="20.0" fill="#000000" transform="matrix(1.00, 0.00, -0.00, -1.00, 876.2, 452.0)">e</text><text xml:space="preserve" font-family="Helvetica-Light" font-size="20.0" fill="#000000" transform="matrix(1.00, 0.00, -0.00, -1.00, 887.4, 452.0)">s</text></g></g><path d="M 0.0 0.0 L 122.9 0.0 L 123.9 0.0 " fill="none" stroke="#000000" stroke-width="2.00" transform="matrix(0.71, 0.71, 0.71, -0.71, 633.2, 452.2)"></path><path d="M 723.5 535.8 L 726.9 546.0 L 716.7 542.6 Z M 723.5 535.8 " fill="#000000"></path><path d="M 0.0 0.0 L 38.9 0.0 L 39.9 0.0 " fill="none" stroke="#000000" stroke-width="2.00" transform="matrix(0.00, -1.00, -1.00, 0.00, 860.4, 299.2)"></path><path d="M 855.6 260.4 L 860.4 250.8 L 865.2 260.4 Z M 855.6 260.4 " fill="#000000"></path><g><clipPath id="clip-11307"><path d="M 724.0 46.0 L 996.8 46.0 L 996.8 126.0 L 724.0 126.0 Z M 724.0 46.0 "></path></clipPath><g clip-path="url(#clip-11307)"><path d="M 726.0 59.9 L 726.0 112.1 C 726.0 118.7 731.3 124.0 737.9 124.0 L 982.8 124.0 C 989.4 124.0 994.8 118.7 994.8 112.1 L 994.8 59.9 C 994.8 53.3 989.4 48.0 982.8 48.0 L 737.9 48.0 C 731.3 48.0 726.0 53.3 726.0 59.9 Z M 726.0 59.9 " fill="#A4DAAD"></path><path d="M 0.0 64.1 L 0.0 11.9 C 0.0 5.3 5.3 0.0 11.9 0.0 L 256.8 0.0 C 263.4 0.0 268.8 5.3 268.8 11.9 L 268.8 64.1 C 268.8 70.7 263.4 76.0 256.8 76.0 L 11.9 76.0 C 5.3 76.0 0.0 70.7 0.0 64.1 Z M 0.0 64.1 " fill="none" stroke="#85878C" stroke-width="2.00" transform="matrix(1.00, 0.00, 0.00, -1.00, 726.0, 124.0)"></path></g></g><g><clipPath id="clip-11308"><path d="M 748.8 60.8 L 971.9 60.8 L 971.9 111.2 L 748.8 111.2 Z M 748.8 60.8 "></path></clipPath><g clip-path="url(#clip-11308)"><path d="M 750.8 109.2 L 969.9 109.2 L 969.9 62.8 L 750.8 62.8 Z M 750.8 109.2 " fill="#FEFFFF"></path><path d="M 0.0 0.0 L 219.1 0.0 L 219.1 46.4 L 0.0 46.4 Z M 0.0 0.0 " fill="none" stroke="#85878C" stroke-width="2.00" transform="matrix(1.00, 0.00, 0.00, -1.00, 750.8, 109.2)"></path></g></g><g><clipPath id="clip-11309"><path d="M 749.0 63.8 L 971.8 63.8 L 971.8 108.2 L 749.0 108.2 Z M 749.0 63.8 "></path></clipPath><g clip-path="url(#clip-11309)"><text xml:space="preserve" font-family="Helvetica-Light" font-size="20.0" fill="#000000" transform="matrix(1.00, 0.00, -0.00, -1.00, 787.0, 79.0)">P</text><text xml:space="preserve" font-family="Helvetica-Light" font-size="20.0" fill="#000000" transform="matrix(1.00, 0.00, -0.00, -1.00, 799.2, 79.0)">h</text><text xml:space="preserve" font-family="Helvetica-Light" font-size="20.0" fill="#000000" transform="matrix(1.00, 0.00, -0.00, -1.00, 810.3, 79.0)">y</text><text xml:space="preserve" font-family="Helvetica-Light" font-size="20.0" fill="#000000" transform="matrix(1.00, 0.00, -0.00, -1.00, 820.3, 79.0)">s</text><text xml:space="preserve" font-family="Helvetica-Light" font-size="20.0" fill="#000000" transform="matrix(1.00, 0.00, -0.00, -1.00, 830.3, 79.0)">i</text><text xml:space="preserve" font-family="Helvetica-Light" font-size="20.0" fill="#000000" transform="matrix(1.00, 0.00, -0.00, -1.00, 834.8, 79.0)">c</text><text xml:space="preserve" font-family="Helvetica-Light" font-size="20.0" fill="#000000" transform="matrix(1.00, 0.00, -0.00, -1.00, 845.9, 79.0)">a</text><text xml:space="preserve" font-family="Helvetica-Light" font-size="20.0" fill="#000000" transform="matrix(1.00, 0.00, -0.00, -1.00, 857.0, 79.0)">l</text><text xml:space="preserve" font-family="Helvetica-Light" font-size="20.0" fill="#000000" transform="matrix(1.00, 0.00, -0.00, -1.00, 861.5, 79.0)"> </text><text xml:space="preserve" font-family="Helvetica-Light" font-size="20.0" fill="#000000" transform="matrix(1.00, 0.00, -0.00, -1.00, 867.0, 79.0)">A</text><text xml:space="preserve" font-family="Helvetica-Light" font-size="20.0" fill="#000000" transform="matrix(1.00, 0.00, -0.00, -1.00, 880.4, 79.0)">r</text><text xml:space="preserve" font-family="Helvetica-Light" font-size="20.0" fill="#000000" transform="matrix(1.00, 0.00, -0.00, -1.00, 886.7, 79.0)">c</text><text xml:space="preserve" font-family="Helvetica-Light" font-size="20.0" fill="#000000" transform="matrix(1.00, 0.00, -0.00, -1.00, 897.8, 79.0)">h</text><text xml:space="preserve" font-family="Helvetica-Light" font-size="20.0" fill="#000000" transform="matrix(1.00, 0.00, -0.00, -1.00, 908.9, 79.0)">i</text><text xml:space="preserve" font-family="Helvetica-Light" font-size="20.0" fill="#000000" transform="matrix(1.00, 0.00, -0.00, -1.00, 913.3, 79.0)">v</text><text xml:space="preserve" font-family="Helvetica-Light" font-size="20.0" fill="#000000" transform="matrix(1.00, 0.00, -0.00, -1.00, 923.3, 79.0)">e</text></g></g><path d="M 0.0 0.0 L 84.9 0.0 L 85.9 0.0 " fill="none" stroke="#000000" stroke-width="2.00" transform="matrix(0.00, 1.00, 1.00, 0.00, 162.0, 364.3)"></path><path d="M 166.8 449.1 L 162.0 458.7 L 157.2 449.1 Z M 166.8 449.1 " fill="#000000"></path><path d="M 0.0 0.0 L 468.1 0.0 L 469.1 0.0 " fill="none" stroke="#000000" stroke-width="2.00" transform="matrix(0.00, -1.00, -1.00, 0.00, 9.0, 693.0)"></path><path d="M 4.2 224.9 L 9.0 215.3 L 13.8 224.9 Z M 4.2 224.9 " fill="#000000"></path><g><clipPath id="clip-11310"><path d="M 341.0 656.0 L 683.0 656.0 L 683.0 760.0 L 341.0 760.0 Z M 341.0 656.0 "></path></clipPath><g clip-path="url(#clip-11310)"><path d="M 343.0 673.0 L 343.0 743.0 C 343.0 751.3 349.7 758.0 358.0 758.0 L 666.0 758.0 C 674.3 758.0 681.0 751.3 681.0 743.0 L 681.0 673.0 C 681.0 664.7 674.3 658.0 666.0 658.0 L 358.0 658.0 C 349.7 658.0 343.0 664.7 343.0 673.0 Z M 343.0 673.0 " fill="#47977B"></path><path d="M 0.0 85.0 L 0.0 15.0 C 0.0 6.7 6.7 0.0 15.0 0.0 L 323.0 0.0 C 331.3 0.0 338.0 6.7 338.0 15.0 L 338.0 85.0 C 338.0 93.3 331.3 100.0 323.0 100.0 L 15.0 100.0 C 6.7 100.0 0.0 93.3 0.0 85.0 Z M 0.0 85.0 " fill="none" stroke="#85878C" stroke-width="2.00" transform="matrix(1.00, 0.00, 0.00, -1.00, 343.0, 758.0)"></path></g></g><g><clipPath id="clip-11311"><path d="M 431.5 690.9 L 592.5 690.9 L 592.5 725.1 L 431.5 725.1 Z M 431.5 690.9 "></path></clipPath><g clip-path="url(#clip-11311)"><path d="M 433.5 723.1 L 590.5 723.1 L 590.5 692.9 L 433.5 692.9 Z M 433.5 723.1 " fill="#FEFFFF"></path><path d="M 0.0 0.0 L 157.0 0.0 L 157.0 30.3 L 0.0 30.3 Z M 0.0 0.0 " fill="none" stroke="#85878C" stroke-width="2.00" transform="matrix(1.00, 0.00, 0.00, -1.00, 433.5, 723.1)"></path></g></g><g><clipPath id="clip-11312"><path d="M 431.7 691.0 L 592.4 691.0 L 592.4 725.0 L 431.7 725.0 Z M 431.7 691.0 "></path></clipPath><g clip-path="url(#clip-11312)"><text xml:space="preserve" font-family="Helvetica-Light" font-size="20.0" fill="#000000" transform="matrix(1.00, 0.00, -0.00, -1.00, 437.0, 701.0)">O</text><text xml:space="preserve" font-family="Helvetica-Light" font-size="20.0" fill="#000000" transform="matrix(1.00, 0.00, -0.00, -1.00, 452.6, 701.0)">u</text><text xml:space="preserve" font-family="Helvetica-Light" font-size="20.0" fill="#000000" transform="matrix(1.00, 0.00, -0.00, -1.00, 463.7, 701.0)">t</text><text xml:space="preserve" font-family="Helvetica-Light" font-size="20.0" fill="#000000" transform="matrix(1.00, 0.00, -0.00, -1.00, 469.2, 701.0)">l</text><text xml:space="preserve" font-family="Helvetica-Light" font-size="20.0" fill="#000000" transform="matrix(1.00, 0.00, -0.00, -1.00, 473.7, 701.0)">i</text><text xml:space="preserve" font-family="Helvetica-Light" font-size="20.0" fill="#000000" transform="matrix(1.00, 0.00, -0.00, -1.00, 478.1, 701.0)">n</text><text xml:space="preserve" font-family="Helvetica-Light" font-size="20.0" fill="#000000" transform="matrix(1.00, 0.00, -0.00, -1.00, 489.2, 701.0)">e</text><text xml:space="preserve" font-family="Helvetica-Light" font-size="20.0" fill="#000000" transform="matrix(1.00, 0.00, -0.00, -1.00, 500.4, 701.0)"> </text><text xml:space="preserve" font-family="Helvetica-Light" font-size="20.0" fill="#000000" transform="matrix(1.00, 0.00, -0.00, -1.00, 505.9, 701.0)">S</text><text xml:space="preserve" font-family="Helvetica-Light" font-size="20.0" fill="#000000" transform="matrix(1.00, 0.00, -0.00, -1.00, 518.1, 701.0)">t</text><text xml:space="preserve" font-family="Helvetica-Light" font-size="20.0" fill="#000000" transform="matrix(1.00, 0.00, -0.00, -1.00, 523.7, 701.0)">r</text><text xml:space="preserve" font-family="Helvetica-Light" font-size="20.0" fill="#000000" transform="matrix(1.00, 0.00, -0.00, -1.00, 530.4, 701.0)">u</text><text xml:space="preserve" font-family="Helvetica-Light" font-size="20.0" fill="#000000" transform="matrix(1.00, 0.00, -0.00, -1.00, 541.5, 701.0)">c</text><text xml:space="preserve" font-family="Helvetica-Light" font-size="20.0" fill="#000000" transform="matrix(1.00, 0.00, -0.00, -1.00, 552.6, 701.0)">t</text><text xml:space="preserve" font-family="Helvetica-Light" font-size="20.0" fill="#000000" transform="matrix(1.00, 0.00, -0.00, -1.00, 558.2, 701.0)">u</text><text xml:space="preserve" font-family="Helvetica-Light" font-size="20.0" fill="#000000" transform="matrix(1.00, 0.00, -0.00, -1.00, 569.3, 701.0)">r</text><text xml:space="preserve" font-family="Helvetica-Light" font-size="20.0" fill="#000000" transform="matrix(1.00, 0.00, -0.00, -1.00, 575.6, 701.0)">e</text></g></g><path d="M 0.0 0.0 L 47.9 0.0 L 48.9 0.0 " fill="none" stroke="#000000" stroke-width="2.00" transform="matrix(0.00, -1.00, -1.00, 0.00, 512.0, 660.0)"></path><path d="M 507.2 612.1 L 512.0 602.5 L 516.8 612.1 Z M 507.2 612.1 " fill="#000000"></path><g><clipPath id="clip-11313"><path d="M 374.2 380.3 L 647.0 380.3 L 647.0 460.4 L 374.2 460.4 Z M 374.2 380.3 "></path></clipPath><g clip-path="url(#clip-11313)"><path d="M 376.2 394.3 L 376.2 446.4 C 376.2 453.0 381.6 458.4 388.1 458.4 L 633.1 458.4 C 639.6 458.4 645.0 453.0 645.0 446.4 L 645.0 394.3 C 645.0 387.7 639.6 382.3 633.1 382.3 L 388.1 382.3 C 381.6 382.3 376.2 387.7 376.2 394.3 Z M 376.2 394.3 " fill="#A4DAAD"></path><path d="M 0.0 64.1 L 0.0 11.9 C 0.0 5.3 5.3 0.0 11.9 0.0 L 256.8 0.0 C 263.4 0.0 268.8 5.3 268.8 11.9 L 268.8 64.1 C 268.8 70.7 263.4 76.0 256.8 76.0 L 11.9 76.0 C 5.3 76.0 0.0 70.7 0.0 64.1 Z M 0.0 64.1 " fill="none" stroke="#85878C" stroke-width="2.00" transform="matrix(1.00, 0.00, 0.00, -1.00, 376.2, 458.4)"></path></g></g><g><clipPath id="clip-11314"><path d="M 399.1 395.1 L 622.1 395.1 L 622.1 445.6 L 399.1 445.6 Z M 399.1 395.1 "></path></clipPath><g clip-path="url(#clip-11314)"><path d="M 401.1 443.6 L 620.1 443.6 L 620.1 397.1 L 401.1 397.1 Z M 401.1 443.6 " fill="#FEFFFF"></path><path d="M 0.0 0.0 L 219.1 0.0 L 219.1 46.4 L 0.0 46.4 Z M 0.0 0.0 " fill="none" stroke="#85878C" stroke-width="2.00" transform="matrix(1.00, 0.00, 0.00, -1.00, 401.1, 443.6)"></path></g></g><g><clipPath id="clip-11315"><path d="M 399.2 398.1 L 622.0 398.1 L 622.0 442.6 L 399.2 442.6 Z M 399.2 398.1 "></path></clipPath><g clip-path="url(#clip-11315)"><text xml:space="preserve" font-family="Helvetica-Light" font-size="20.0" fill="#000000" transform="matrix(1.00, 0.00, -0.00, -1.00, 440.0, 413.0)">S</text><text xml:space="preserve" font-family="Helvetica-Light" font-size="20.0" fill="#000000" transform="matrix(1.00, 0.00, -0.00, -1.00, 452.2, 413.0)">e</text><text xml:space="preserve" font-family="Helvetica-Light" font-size="20.0" fill="#000000" transform="matrix(1.00, 0.00, -0.00, -1.00, 463.3, 413.0)">r</text><text xml:space="preserve" font-family="Helvetica-Light" font-size="20.0" fill="#000000" transform="matrix(1.00, 0.00, -0.00, -1.00, 470.0, 413.0)">v</text><text xml:space="preserve" font-family="Helvetica-Light" font-size="20.0" fill="#000000" transform="matrix(1.00, 0.00, -0.00, -1.00, 480.0, 413.0)">e</text><text xml:space="preserve" font-family="Helvetica-Light" font-size="20.0" fill="#000000" transform="matrix(1.00, 0.00, -0.00, -1.00, 491.1, 413.0)">r</text><text xml:space="preserve" font-family="Helvetica-Light" font-size="20.0" fill="#000000" transform="matrix(1.00, 0.00, -0.00, -1.00, 497.8, 413.0)"> </text><text xml:space="preserve" font-family="Helvetica-Light" font-size="20.0" fill="#000000" transform="matrix(1.00, 0.00, -0.00, -1.00, 503.3, 413.0)">S</text><text xml:space="preserve" font-family="Helvetica-Light" font-size="20.0" fill="#000000" transform="matrix(1.00, 0.00, -0.00, -1.00, 515.6, 413.0)">o</text><text xml:space="preserve" font-family="Helvetica-Light" font-size="20.0" fill="#000000" transform="matrix(1.00, 0.00, -0.00, -1.00, 526.7, 413.0)">f</text><text xml:space="preserve" font-family="Helvetica-Light" font-size="20.0" fill="#000000" transform="matrix(1.00, 0.00, -0.00, -1.00, 532.2, 413.0)">t</text><text xml:space="preserve" font-family="Helvetica-Light" font-size="20.0" fill="#000000" transform="matrix(1.00, 0.00, -0.00, -1.00, 537.8, 413.0)">w</text><text xml:space="preserve" font-family="Helvetica-Light" font-size="20.0" fill="#000000" transform="matrix(1.00, 0.00, -0.00, -1.00, 552.2, 413.0)">a</text><text xml:space="preserve" font-family="Helvetica-Light" font-size="20.0" fill="#000000" transform="matrix(1.00, 0.00, -0.00, -1.00, 563.4, 413.0)">r</text><text xml:space="preserve" font-family="Helvetica-Light" font-size="20.0" fill="#000000" transform="matrix(1.00, 0.00, -0.00, -1.00, 569.7, 413.0)">e</text></g></g><g><clipPath id="clip-11316"><path d="M 25.7 172.0 L 298.4 172.0 L 298.4 252.0 L 25.7 252.0 Z M 25.7 172.0 "></path></clipPath><g clip-path="url(#clip-11316)"><path d="M 27.7 185.9 L 27.7 238.1 C 27.7 244.7 33.0 250.0 39.6 250.0 L 284.5 250.0 C 291.1 250.0 296.4 244.7 296.4 238.1 L 296.4 185.9 C 296.4 179.3 291.1 174.0 284.5 174.0 L 39.6 174.0 C 33.0 174.0 27.7 179.3 27.7 185.9 Z M 27.7 185.9 " fill="#D4E9B6"></path><path d="M 0.0 64.1 L 0.0 11.9 C 0.0 5.3 5.3 0.0 11.9 0.0 L 256.8 0.0 C 263.4 0.0 268.8 5.3 268.8 11.9 L 268.8 64.1 C 268.8 70.7 263.4 76.0 256.8 76.0 L 11.9 76.0 C 5.3 76.0 0.0 70.7 0.0 64.1 Z M 0.0 64.1 " fill="none" stroke="#85878C" stroke-width="2.00" transform="matrix(1.00, 0.00, 0.00, -1.00, 27.7, 250.0)"></path></g></g><g><clipPath id="clip-11317"><path d="M 50.5 186.8 L 273.6 186.8 L 273.6 237.2 L 50.5 237.2 Z M 50.5 186.8 "></path></clipPath><g clip-path="url(#clip-11317)"><path d="M 52.5 235.2 L 271.6 235.2 L 271.6 188.8 L 52.5 188.8 Z M 52.5 235.2 " fill="#FEFFFF"></path><path d="M 0.0 0.0 L 219.1 0.0 L 219.1 46.4 L 0.0 46.4 Z M 0.0 0.0 " fill="none" stroke="#85878C" stroke-width="2.00" transform="matrix(1.00, 0.00, 0.00, -1.00, 52.5, 235.2)"></path></g></g><g><clipPath id="clip-11318"><path d="M 50.6 189.8 L 273.4 189.8 L 273.4 234.2 L 50.6 234.2 Z M 50.6 189.8 "></path></clipPath><g clip-path="url(#clip-11318)"><text xml:space="preserve" font-family="Helvetica-Light" font-size="20.0" fill="#000000" transform="matrix(1.00, 0.00, -0.00, -1.00, 80.0, 205.0)">A</text><text xml:space="preserve" font-family="Helvetica-Light" font-size="20.0" fill="#000000" transform="matrix(1.00, 0.00, -0.00, -1.00, 93.3, 205.0)">n</text><text xml:space="preserve" font-family="Helvetica-Light" font-size="20.0" fill="#000000" transform="matrix(1.00, 0.00, -0.00, -1.00, 104.5, 205.0)">a</text><text xml:space="preserve" font-family="Helvetica-Light" font-size="20.0" fill="#000000" transform="matrix(1.00, 0.00, -0.00, -1.00, 115.6, 205.0)">l</text><text xml:space="preserve" font-family="Helvetica-Light" font-size="20.0" fill="#000000" transform="matrix(1.00, 0.00, -0.00, -1.00, 120.0, 205.0)">y</text><text xml:space="preserve" font-family="Helvetica-Light" font-size="20.0" fill="#000000" transform="matrix(1.00, 0.00, -0.00, -1.00, 130.0, 205.0)">t</text><text xml:space="preserve" font-family="Helvetica-Light" font-size="20.0" fill="#000000" transform="matrix(1.00, 0.00, -0.00, -1.00, 135.6, 205.0)">i</text><text xml:space="preserve" font-family="Helvetica-Light" font-size="20.0" fill="#000000" transform="matrix(1.00, 0.00, -0.00, -1.00, 140.0, 205.0)">c</text><text xml:space="preserve" font-family="Helvetica-Light" font-size="20.0" fill="#000000" transform="matrix(1.00, 0.00, -0.00, -1.00, 151.1, 205.0)">s</text><text xml:space="preserve" font-family="Helvetica-Light" font-size="20.0" fill="#000000" transform="matrix(1.00, 0.00, -0.00, -1.00, 161.1, 205.0)"> </text><text xml:space="preserve" font-family="Helvetica-Light" font-size="20.0" fill="#000000" transform="matrix(1.00, 0.00, -0.00, -1.00, 166.7, 205.0)">S</text><text xml:space="preserve" font-family="Helvetica-Light" font-size="20.0" fill="#000000" transform="matrix(1.00, 0.00, -0.00, -1.00, 178.9, 205.0)">o</text><text xml:space="preserve" font-family="Helvetica-Light" font-size="20.0" fill="#000000" transform="matrix(1.00, 0.00, -0.00, -1.00, 190.0, 205.0)">f</text><text xml:space="preserve" font-family="Helvetica-Light" font-size="20.0" fill="#000000" transform="matrix(1.00, 0.00, -0.00, -1.00, 195.6, 205.0)">t</text><text xml:space="preserve" font-family="Helvetica-Light" font-size="20.0" fill="#000000" transform="matrix(1.00, 0.00, -0.00, -1.00, 201.2, 205.0)">w</text><text xml:space="preserve" font-family="Helvetica-Light" font-size="20.0" fill="#000000" transform="matrix(1.00, 0.00, -0.00, -1.00, 215.6, 205.0)">a</text><text xml:space="preserve" font-family="Helvetica-Light" font-size="20.0" fill="#000000" transform="matrix(1.00, 0.00, -0.00, -1.00, 226.7, 205.0)">r</text><text xml:space="preserve" font-family="Helvetica-Light" font-size="20.0" fill="#000000" transform="matrix(1.00, 0.00, -0.00, -1.00, 233.0, 205.0)">e</text></g></g><g><clipPath id="clip-11319"><path d="M 725.6 172.0 L 998.3 172.0 L 998.3 252.0 L 725.6 252.0 Z M 725.6 172.0 "></path></clipPath><g clip-path="url(#clip-11319)"><path d="M 727.6 185.9 L 727.6 238.1 C 727.6 244.7 732.9 250.0 739.5 250.0 L 984.4 250.0 C 991.0 250.0 996.3 244.7 996.3 238.1 L 996.3 185.9 C 996.3 179.3 991.0 174.0 984.4 174.0 L 739.5 174.0 C 732.9 174.0 727.6 179.3 727.6 185.9 Z M 727.6 185.9 " fill="#A4DAAD"></path><path d="M 0.0 64.1 L 0.0 11.9 C 0.0 5.3 5.3 0.0 11.9 0.0 L 256.8 0.0 C 263.4 0.0 268.8 5.3 268.8 11.9 L 268.8 64.1 C 268.8 70.7 263.4 76.0 256.8 76.0 L 11.9 76.0 C 5.3 76.0 0.0 70.7 0.0 64.1 Z M 0.0 64.1 " fill="none" stroke="#85878C" stroke-width="2.00" transform="matrix(1.00, 0.00, 0.00, -1.00, 727.6, 250.0)"></path></g></g><g><clipPath id="clip-11320"><path d="M 750.4 186.8 L 973.5 186.8 L 973.5 237.2 L 750.4 237.2 Z M 750.4 186.8 "></path></clipPath><g clip-path="url(#clip-11320)"><path d="M 752.4 235.2 L 971.5 235.2 L 971.5 188.8 L 752.4 188.8 Z M 752.4 235.2 " fill="#FEFFFF"></path><path d="M 0.0 0.0 L 219.1 0.0 L 219.1 46.4 L 0.0 46.4 Z M 0.0 0.0 " fill="none" stroke="#85878C" stroke-width="2.00" transform="matrix(1.00, 0.00, 0.00, -1.00, 752.4, 235.2)"></path></g></g><g><clipPath id="clip-11321"><path d="M 750.6 189.8 L 973.4 189.8 L 973.4 234.2 L 750.6 234.2 Z M 750.6 189.8 "></path></clipPath><g clip-path="url(#clip-11321)"><text xml:space="preserve" font-family="Helvetica-Light" font-size="20.0" fill="#000000" transform="matrix(1.00, 0.00, -0.00, -1.00, 774.0, 205.0)">m</text><text xml:space="preserve" font-family="Helvetica-Light" font-size="20.0" fill="#000000" transform="matrix(1.00, 0.00, -0.00, -1.00, 790.7, 205.0)">o</text><text xml:space="preserve" font-family="Helvetica-Light" font-size="20.0" fill="#000000" transform="matrix(1.00, 0.00, -0.00, -1.00, 801.8, 205.0)">b</text><text xml:space="preserve" font-family="Helvetica-Light" font-size="20.0" fill="#000000" transform="matrix(1.00, 0.00, -0.00, -1.00, 814.0, 205.0)">i</text><text xml:space="preserve" font-family="Helvetica-Light" font-size="20.0" fill="#000000" transform="matrix(1.00, 0.00, -0.00, -1.00, 818.4, 205.0)">l</text><text xml:space="preserve" font-family="Helvetica-Light" font-size="20.0" fill="#000000" transform="matrix(1.00, 0.00, -0.00, -1.00, 822.9, 205.0)">e</text><text xml:space="preserve" font-family="Helvetica-Light" font-size="20.0" fill="#000000" transform="matrix(1.00, 0.00, -0.00, -1.00, 834.0, 205.0)"> </text><text xml:space="preserve" font-family="Helvetica-Light" font-size="20.0" fill="#000000" transform="matrix(1.00, 0.00, -0.00, -1.00, 839.6, 205.0)">d</text><text xml:space="preserve" font-family="Helvetica-Light" font-size="20.0" fill="#000000" transform="matrix(1.00, 0.00, -0.00, -1.00, 851.8, 205.0)">a</text><text xml:space="preserve" font-family="Helvetica-Light" font-size="20.0" fill="#000000" transform="matrix(1.00, 0.00, -0.00, -1.00, 862.9, 205.0)">t</text><text xml:space="preserve" font-family="Helvetica-Light" font-size="20.0" fill="#000000" transform="matrix(1.00, 0.00, -0.00, -1.00, 868.5, 205.0)">a</text><text xml:space="preserve" font-family="Helvetica-Light" font-size="20.0" fill="#000000" transform="matrix(1.00, 0.00, -0.00, -1.00, 879.6, 205.0)"> </text><text xml:space="preserve" font-family="Helvetica-Light" font-size="20.0" fill="#000000" transform="matrix(1.00, 0.00, -0.00, -1.00, 885.1, 205.0)">a</text><text xml:space="preserve" font-family="Helvetica-Light" font-size="20.0" fill="#000000" transform="matrix(1.00, 0.00, -0.00, -1.00, 896.3, 205.0)">c</text><text xml:space="preserve" font-family="Helvetica-Light" font-size="20.0" fill="#000000" transform="matrix(1.00, 0.00, -0.00, -1.00, 907.4, 205.0)">c</text><text xml:space="preserve" font-family="Helvetica-Light" font-size="20.0" fill="#000000" transform="matrix(1.00, 0.00, -0.00, -1.00, 918.5, 205.0)">e</text><text xml:space="preserve" font-family="Helvetica-Light" font-size="20.0" fill="#000000" transform="matrix(1.00, 0.00, -0.00, -1.00, 929.6, 205.0)">s</text><text xml:space="preserve" font-family="Helvetica-Light" font-size="20.0" fill="#000000" transform="matrix(1.00, 0.00, -0.00, -1.00, 939.6, 205.0)">s</text></g></g><g><clipPath id="clip-11322"><path d="M 375.6 46.0 L 648.4 46.0 L 648.4 126.0 L 375.6 126.0 Z M 375.6 46.0 "></path></clipPath><g clip-path="url(#clip-11322)"><path d="M 377.6 59.9 L 377.6 112.1 C 377.6 118.7 383.0 124.0 389.5 124.0 L 634.5 124.0 C 641.0 124.0 646.4 118.7 646.4 112.1 L 646.4 59.9 C 646.4 53.3 641.0 48.0 634.5 48.0 L 389.5 48.0 C 383.0 48.0 377.6 53.3 377.6 59.9 Z M 377.6 59.9 " fill="#A4DAAD"></path><path d="M 0.0 64.1 L 0.0 11.9 C 0.0 5.3 5.3 0.0 11.9 0.0 L 256.8 0.0 C 263.4 0.0 268.8 5.3 268.8 11.9 L 268.8 64.1 C 268.8 70.7 263.4 76.0 256.8 76.0 L 11.9 76.0 C 5.3 76.0 0.0 70.7 0.0 64.1 Z M 0.0 64.1 " fill="none" stroke="#85878C" stroke-width="2.00" transform="matrix(1.00, 0.00, 0.00, -1.00, 377.6, 124.0)"></path></g></g><g><clipPath id="clip-11323"><path d="M 400.5 60.8 L 623.5 60.8 L 623.5 111.2 L 400.5 111.2 Z M 400.5 60.8 "></path></clipPath><g clip-path="url(#clip-11323)"><path d="M 402.5 109.2 L 621.5 109.2 L 621.5 62.8 L 402.5 62.8 Z M 402.5 109.2 " fill="#FEFFFF"></path><path d="M 0.0 0.0 L 219.1 0.0 L 219.1 46.4 L 0.0 46.4 Z M 0.0 0.0 " fill="none" stroke="#85878C" stroke-width="2.00" transform="matrix(1.00, 0.00, 0.00, -1.00, 402.5, 109.2)"></path></g></g><g><clipPath id="clip-11324"><path d="M 400.6 63.8 L 623.4 63.8 L 623.4 108.2 L 400.6 108.2 Z M 400.6 63.8 "></path></clipPath><g clip-path="url(#clip-11324)"><text xml:space="preserve" font-family="Helvetica-Light" font-size="20.0" fill="#000000" transform="matrix(1.00, 0.00, -0.00, -1.00, 468.0, 79.0)">H</text><text xml:space="preserve" font-family="Helvetica-Light" font-size="20.0" fill="#000000" transform="matrix(1.00, 0.00, -0.00, -1.00, 482.4, 79.0)">a</text><text xml:space="preserve" font-family="Helvetica-Light" font-size="20.0" fill="#000000" transform="matrix(1.00, 0.00, -0.00, -1.00, 493.6, 79.0)">r</text><text xml:space="preserve" font-family="Helvetica-Light" font-size="20.0" fill="#000000" transform="matrix(1.00, 0.00, -0.00, -1.00, 499.9, 79.0)">d</text><text xml:space="preserve" font-family="Helvetica-Light" font-size="20.0" fill="#000000" transform="matrix(1.00, 0.00, -0.00, -1.00, 512.1, 79.0)">w</text><text xml:space="preserve" font-family="Helvetica-Light" font-size="20.0" fill="#000000" transform="matrix(1.00, 0.00, -0.00, -1.00, 526.5, 79.0)">a</text><text xml:space="preserve" font-family="Helvetica-Light" font-size="20.0" fill="#000000" transform="matrix(1.00, 0.00, -0.00, -1.00, 537.6, 79.0)">r</text><text xml:space="preserve" font-family="Helvetica-Light" font-size="20.0" fill="#000000" transform="matrix(1.00, 0.00, -0.00, -1.00, 543.9, 79.0)">e</text></g></g><path d="M 0.0 0.0 L 34.0 0.0 L 35.0 0.0 " fill="none" stroke="#000000" stroke-width="2.00" transform="matrix(0.00, -1.00, -1.00, 0.00, 862.0, 420.4)"></path><path d="M 857.2 386.4 L 862.0 376.8 L 866.8 386.4 Z M 857.2 386.4 " fill="#000000"></path><path d="M 0.0 0.0 L 35.4 0.0 L 36.4 0.0 " fill="none" stroke="#000000" stroke-width="2.00" transform="matrix(0.00, -1.00, -1.00, 0.00, 860.4, 541.5)"></path><path d="M 855.6 506.1 L 860.4 496.5 L 865.2 506.1 Z M 855.6 506.1 " fill="#000000"></path><path d="M 0.0 0.0 L 27.9 0.0 L 28.9 0.0 " fill="none" stroke="#000000" stroke-width="2.00" transform="matrix(0.00, -1.00, -1.00, 0.00, 511.2, 496.2)"></path><path d="M 506.4 468.3 L 511.2 458.7 L 516.0 468.3 Z M 506.4 468.3 " fill="#000000"></path><path d="M 0.0 0.0 L 38.9 0.0 L 39.9 0.0 " fill="none" stroke="#000000" stroke-width="2.00" transform="matrix(0.00, -1.00, -1.00, 0.00, 511.2, 297.0)"></path><path d="M 506.4 258.1 L 511.2 248.5 L 516.0 258.1 Z M 506.4 258.1 " fill="#000000"></path><path d="M 8.6 0.0 L 9.6 0.0 L 38.9 0.0 L 39.9 0.0 " fill="none" stroke="#000000" stroke-width="2.00" transform="matrix(0.00, -1.00, -1.00, 0.00, 511.2, 171.0)"></path><path d="M 506.4 132.1 L 511.2 122.5 L 516.0 132.1 Z M 506.4 132.1 " fill="#000000"></path><path d="M 516.0 161.4 L 511.2 171.0 L 506.4 161.4 Z M 516.0 161.4 " fill="#000000"></path><g><clipPath id="clip-11325"><path d="M 25.7 298.0 L 298.4 298.0 L 298.4 378.0 L 25.7 378.0 Z M 25.7 298.0 "></path></clipPath><g clip-path="url(#clip-11325)"><path d="M 27.7 311.9 L 27.7 364.1 C 27.7 370.7 33.0 376.0 39.6 376.0 L 284.5 376.0 C 291.1 376.0 296.4 370.7 296.4 364.1 L 296.4 311.9 C 296.4 305.3 291.1 300.0 284.5 300.0 L 39.6 300.0 C 33.0 300.0 27.7 305.3 27.7 311.9 Z M 27.7 311.9 " fill="#DE4400"></path><path d="M 0.0 64.1 L 0.0 11.9 C 0.0 5.3 5.3 0.0 11.9 0.0 L 256.8 0.0 C 263.4 0.0 268.8 5.3 268.8 11.9 L 268.8 64.1 C 268.8 70.7 263.4 76.0 256.8 76.0 L 11.9 76.0 C 5.3 76.0 0.0 70.7 0.0 64.1 Z M 0.0 64.1 " fill="none" stroke="#85878C" stroke-width="2.00" transform="matrix(1.00, 0.00, 0.00, -1.00, 27.7, 376.0)"></path></g></g><g><clipPath id="clip-11326"><path d="M 50.5 312.8 L 273.6 312.8 L 273.6 363.2 L 50.5 363.2 Z M 50.5 312.8 "></path></clipPath><g clip-path="url(#clip-11326)"><path d="M 52.5 361.2 L 271.6 361.2 L 271.6 314.8 L 52.5 314.8 Z M 52.5 361.2 " fill="#FEFFFF"></path><path d="M 0.0 0.0 L 219.1 0.0 L 219.1 46.4 L 0.0 46.4 Z M 0.0 0.0 " fill="none" stroke="#85878C" stroke-width="2.00" transform="matrix(1.00, 0.00, 0.00, -1.00, 52.5, 361.2)"></path></g></g><g><clipPath id="clip-11327"><path d="M 50.6 315.8 L 273.4 315.8 L 273.4 360.2 L 50.6 360.2 Z M 50.6 315.8 "></path></clipPath><g clip-path="url(#clip-11327)"><text xml:space="preserve" font-family="Helvetica-Light" font-size="20.0" fill="#000000" transform="matrix(1.00, 0.00, -0.00, -1.00, 77.0, 331.0)">M</text><text xml:space="preserve" font-family="Helvetica-Light" font-size="20.0" fill="#000000" transform="matrix(1.00, 0.00, -0.00, -1.00, 93.7, 331.0)">o</text><text xml:space="preserve" font-family="Helvetica-Light" font-size="20.0" fill="#000000" transform="matrix(1.00, 0.00, -0.00, -1.00, 104.8, 331.0)">n</text><text xml:space="preserve" font-family="Helvetica-Light" font-size="20.0" fill="#000000" transform="matrix(1.00, 0.00, -0.00, -1.00, 115.9, 331.0)">i</text><text xml:space="preserve" font-family="Helvetica-Light" font-size="20.0" fill="#000000" transform="matrix(1.00, 0.00, -0.00, -1.00, 120.3, 331.0)">t</text><text xml:space="preserve" font-family="Helvetica-Light" font-size="20.0" fill="#000000" transform="matrix(1.00, 0.00, -0.00, -1.00, 125.9, 331.0)">o</text><text xml:space="preserve" font-family="Helvetica-Light" font-size="20.0" fill="#000000" transform="matrix(1.00, 0.00, -0.00, -1.00, 137.0, 331.0)">r</text><text xml:space="preserve" font-family="Helvetica-Light" font-size="20.0" fill="#000000" transform="matrix(1.00, 0.00, -0.00, -1.00, 143.7, 331.0)">i</text><text xml:space="preserve" font-family="Helvetica-Light" font-size="20.0" fill="#000000" transform="matrix(1.00, 0.00, -0.00, -1.00, 148.1, 331.0)">n</text><text xml:space="preserve" font-family="Helvetica-Light" font-size="20.0" fill="#000000" transform="matrix(1.00, 0.00, -0.00, -1.00, 159.2, 331.0)">g</text><text xml:space="preserve" font-family="Helvetica-Light" font-size="20.0" fill="#000000" transform="matrix(1.00, 0.00, -0.00, -1.00, 171.5, 331.0)"> </text><text xml:space="preserve" font-family="Helvetica-Light" font-size="20.0" fill="#000000" transform="matrix(1.00, 0.00, -0.00, -1.00, 177.0, 331.0)">Q</text><text xml:space="preserve" font-family="Helvetica-Light" font-size="20.0" fill="#000000" transform="matrix(1.00, 0.00, -0.00, -1.00, 192.6, 331.0)">u</text><text xml:space="preserve" font-family="Helvetica-Light" font-size="20.0" fill="#000000" transform="matrix(1.00, 0.00, -0.00, -1.00, 203.7, 331.0)">e</text><text xml:space="preserve" font-family="Helvetica-Light" font-size="20.0" fill="#000000" transform="matrix(1.00, 0.00, -0.00, -1.00, 214.8, 331.0)">r</text><text xml:space="preserve" font-family="Helvetica-Light" font-size="20.0" fill="#000000" transform="matrix(1.00, 0.00, -0.00, -1.00, 221.5, 331.0)">i</text><text xml:space="preserve" font-family="Helvetica-Light" font-size="20.0" fill="#000000" transform="matrix(1.00, 0.00, -0.00, -1.00, 225.9, 331.0)">e</text><text xml:space="preserve" font-family="Helvetica-Light" font-size="20.0" fill="#000000" transform="matrix(1.00, 0.00, -0.00, -1.00, 237.0, 331.0)">s</text></g></g><path d="M 0.0 0.0 L 93.2 0.0 L 94.2 0.0 " fill="none" stroke="#000000" stroke-width="2.00" transform="matrix(0.79, 0.61, 0.61, -0.79, 294.9, 212.0)"></path><path d="M 371.6 265.3 L 376.2 275.0 L 365.7 272.9 Z M 371.6 265.3 " fill="#000000"></path><path d="M 0.0 0.0 L 91.3 0.0 L 92.3 0.0 " fill="none" stroke="#000000" stroke-width="2.00" transform="matrix(0.83, -0.56, -0.56, -0.83, 643.7, 178.7)"></path><path d="M 716.9 123.9 L 727.6 122.5 L 722.3 131.9 Z M 716.9 123.9 " fill="#000000"></path><g><clipPath id="clip-11328"><path d="M 25.7 46.0 L 298.4 46.0 L 298.4 126.0 L 25.7 126.0 Z M 25.7 46.0 "></path></clipPath><g clip-path="url(#clip-11328)"><path d="M 27.7 59.9 L 27.7 112.1 C 27.7 118.7 33.0 124.0 39.6 124.0 L 284.5 124.0 C 291.1 124.0 296.4 118.7 296.4 112.1 L 296.4 59.9 C 296.4 53.3 291.1 48.0 284.5 48.0 L 39.6 48.0 C 33.0 48.0 27.7 53.3 27.7 59.9 Z M 27.7 59.9 " fill="#58AFDC"></path><path d="M 0.0 64.1 L 0.0 11.9 C 0.0 5.3 5.3 0.0 11.9 0.0 L 256.8 0.0 C 263.4 0.0 268.8 5.3 268.8 11.9 L 268.8 64.1 C 268.8 70.7 263.4 76.0 256.8 76.0 L 11.9 76.0 C 5.3 76.0 0.0 70.7 0.0 64.1 Z M 0.0 64.1 " fill="none" stroke="#85878C" stroke-width="2.00" transform="matrix(1.00, 0.00, 0.00, -1.00, 27.7, 124.0)"></path></g></g><g><clipPath id="clip-11329"><path d="M 50.5 60.8 L 273.6 60.8 L 273.6 111.2 L 50.5 111.2 Z M 50.5 60.8 "></path></clipPath><g clip-path="url(#clip-11329)"><path d="M 52.5 109.2 L 271.6 109.2 L 271.6 62.8 L 52.5 62.8 Z M 52.5 109.2 " fill="#FEFFFF"></path><path d="M 0.0 0.0 L 219.1 0.0 L 219.1 46.4 L 0.0 46.4 Z M 0.0 0.0 " fill="none" stroke="#85878C" stroke-width="2.00" transform="matrix(1.00, 0.00, 0.00, -1.00, 52.5, 109.2)"></path></g></g><g><clipPath id="clip-11330"><path d="M 50.6 63.8 L 273.4 63.8 L 273.4 108.2 L 50.6 108.2 Z M 50.6 63.8 "></path></clipPath><g clip-path="url(#clip-11330)"><text xml:space="preserve" font-family="Helvetica-Light" font-size="20.0" fill="#000000" transform="matrix(1.00, 0.00, -0.00, -1.00, 93.0, 79.0)">S</text><text xml:space="preserve" font-family="Helvetica-Light" font-size="20.0" fill="#000000" transform="matrix(1.00, 0.00, -0.00, -1.00, 105.2, 79.0)">e</text><text xml:space="preserve" font-family="Helvetica-Light" font-size="20.0" fill="#000000" transform="matrix(1.00, 0.00, -0.00, -1.00, 116.3, 79.0)">c</text><text xml:space="preserve" font-family="Helvetica-Light" font-size="20.0" fill="#000000" transform="matrix(1.00, 0.00, -0.00, -1.00, 127.5, 79.0)">u</text><text xml:space="preserve" font-family="Helvetica-Light" font-size="20.0" fill="#000000" transform="matrix(1.00, 0.00, -0.00, -1.00, 138.6, 79.0)">r</text><text xml:space="preserve" font-family="Helvetica-Light" font-size="20.0" fill="#000000" transform="matrix(1.00, 0.00, -0.00, -1.00, 144.9, 79.0)">e</text><text xml:space="preserve" font-family="Helvetica-Light" font-size="20.0" fill="#000000" transform="matrix(1.00, 0.00, -0.00, -1.00, 156.0, 79.0)"> </text><text xml:space="preserve" font-family="Helvetica-Light" font-size="20.0" fill="#000000" transform="matrix(1.00, 0.00, -0.00, -1.00, 161.6, 79.0)">B</text><text xml:space="preserve" font-family="Helvetica-Light" font-size="20.0" fill="#000000" transform="matrix(1.00, 0.00, -0.00, -1.00, 174.9, 79.0)">a</text><text xml:space="preserve" font-family="Helvetica-Light" font-size="20.0" fill="#000000" transform="matrix(1.00, 0.00, -0.00, -1.00, 186.0, 79.0)">c</text><text xml:space="preserve" font-family="Helvetica-Light" font-size="20.0" fill="#000000" transform="matrix(1.00, 0.00, -0.00, -1.00, 197.1, 79.0)">k</text><text xml:space="preserve" font-family="Helvetica-Light" font-size="20.0" fill="#000000" transform="matrix(1.00, 0.00, -0.00, -1.00, 207.1, 79.0)">u</text><text xml:space="preserve" font-family="Helvetica-Light" font-size="20.0" fill="#000000" transform="matrix(1.00, 0.00, -0.00, -1.00, 218.3, 79.0)">p</text></g></g><path d="M 0.0 0.0 L 104.0 0.0 L 105.0 0.0 " fill="none" stroke="#000000" stroke-width="2.00" transform="matrix(-0.82, -0.57, -0.57, 0.82, 389.1, 182.9)"></path><path d="M 300.9 127.7 L 295.7 118.2 L 306.3 119.8 Z M 300.9 127.7 " fill="#000000"></path><g><clipPath id="clip-11331"><path d="M 375.6 170.0 L 648.4 170.0 L 648.4 250.0 L 375.6 250.0 Z M 375.6 170.0 "></path></clipPath><g clip-path="url(#clip-11331)"><path d="M 377.6 183.9 L 377.6 236.1 C 377.6 242.7 383.0 248.0 389.5 248.0 L 634.5 248.0 C 641.0 248.0 646.4 242.7 646.4 236.1 L 646.4 183.9 C 646.4 177.3 641.0 172.0 634.5 172.0 L 389.5 172.0 C 383.0 172.0 377.6 177.3 377.6 183.9 Z M 377.6 183.9 " fill="#58AFDC"></path><path d="M 0.0 64.1 L 0.0 11.9 C 0.0 5.3 5.3 0.0 11.9 0.0 L 256.8 0.0 C 263.4 0.0 268.8 5.3 268.8 11.9 L 268.8 64.1 C 268.8 70.7 263.4 76.0 256.8 76.0 L 11.9 76.0 C 5.3 76.0 0.0 70.7 0.0 64.1 Z M 0.0 64.1 " fill="none" stroke="#85878C" stroke-width="2.00" transform="matrix(1.00, 0.00, 0.00, -1.00, 377.6, 248.0)"></path></g></g><g><clipPath id="clip-11332"><path d="M 400.5 184.8 L 623.5 184.8 L 623.5 235.2 L 400.5 235.2 Z M 400.5 184.8 "></path></clipPath><g clip-path="url(#clip-11332)"><path d="M 402.5 233.2 L 621.5 233.2 L 621.5 186.8 L 402.5 186.8 Z M 402.5 233.2 " fill="#FEFFFF"></path><path d="M 0.0 0.0 L 219.1 0.0 L 219.1 46.4 L 0.0 46.4 Z M 0.0 0.0 " fill="none" stroke="#85878C" stroke-width="2.00" transform="matrix(1.00, 0.00, 0.00, -1.00, 402.5, 233.2)"></path></g></g><g><clipPath id="clip-11333"><path d="M 400.6 187.8 L 623.4 187.8 L 623.4 232.2 L 400.6 232.2 Z M 400.6 187.8 "></path></clipPath><g clip-path="url(#clip-11333)"><text xml:space="preserve" font-family="Helvetica-Light" font-size="20.0" fill="#000000" transform="matrix(1.00, 0.00, -0.00, -1.00, 454.0, 203.0)">D</text><text xml:space="preserve" font-family="Helvetica-Light" font-size="20.0" fill="#000000" transform="matrix(1.00, 0.00, -0.00, -1.00, 468.4, 203.0)">a</text><text xml:space="preserve" font-family="Helvetica-Light" font-size="20.0" fill="#000000" transform="matrix(1.00, 0.00, -0.00, -1.00, 479.6, 203.0)">t</text><text xml:space="preserve" font-family="Helvetica-Light" font-size="20.0" fill="#000000" transform="matrix(1.00, 0.00, -0.00, -1.00, 485.1, 203.0)">a</text><text xml:space="preserve" font-family="Helvetica-Light" font-size="20.0" fill="#000000" transform="matrix(1.00, 0.00, -0.00, -1.00, 496.2, 203.0)"> </text><text xml:space="preserve" font-family="Helvetica-Light" font-size="20.0" fill="#000000" transform="matrix(1.00, 0.00, -0.00, -1.00, 501.8, 203.0)">A</text><text xml:space="preserve" font-family="Helvetica-Light" font-size="20.0" fill="#000000" transform="matrix(1.00, 0.00, -0.00, -1.00, 515.1, 203.0)">r</text><text xml:space="preserve" font-family="Helvetica-Light" font-size="20.0" fill="#000000" transform="matrix(1.00, 0.00, -0.00, -1.00, 521.4, 203.0)">c</text><text xml:space="preserve" font-family="Helvetica-Light" font-size="20.0" fill="#000000" transform="matrix(1.00, 0.00, -0.00, -1.00, 532.6, 203.0)">h</text><text xml:space="preserve" font-family="Helvetica-Light" font-size="20.0" fill="#000000" transform="matrix(1.00, 0.00, -0.00, -1.00, 543.7, 203.0)">i</text><text xml:space="preserve" font-family="Helvetica-Light" font-size="20.0" fill="#000000" transform="matrix(1.00, 0.00, -0.00, -1.00, 548.1, 203.0)">v</text><text xml:space="preserve" font-family="Helvetica-Light" font-size="20.0" fill="#000000" transform="matrix(1.00, 0.00, -0.00, -1.00, 558.1, 203.0)">e</text></g></g><path d="M 0.0 0.0 L 23.3 0.0 L 24.3 0.0 " fill="none" stroke="#000000" stroke-width="2.00" transform="matrix(0.00, 1.00, 1.00, 0.00, 162.0, 532.3)"></path><path d="M 166.8 555.6 L 162.0 565.2 L 157.2 555.6 Z M 166.8 555.6 " fill="#000000"></path><path d="M 0.0 0.0 L 23.3 0.0 L 24.3 0.0 " fill="none" stroke="#000000" stroke-width="2.00" transform="matrix(0.00, 1.00, 1.00, 0.00, 162.0, 638.8)"></path><path d="M 166.8 662.1 L 162.0 671.7 L 157.2 662.1 Z M 166.8 662.1 " fill="#000000"></path><g><clipPath id="clip-11334"><path d="M 25.7 668.0 L 298.4 668.0 L 298.4 748.0 L 25.7 748.0 Z M 25.7 668.0 "></path></clipPath><g clip-path="url(#clip-11334)"><path d="M 27.7 681.9 L 27.7 734.1 C 27.7 740.7 33.0 746.0 39.6 746.0 L 284.5 746.0 C 291.1 746.0 296.4 740.7 296.4 734.1 L 296.4 681.9 C 296.4 675.3 291.1 670.0 284.5 670.0 L 39.6 670.0 C 33.0 670.0 27.7 675.3 27.7 681.9 Z M 27.7 681.9 " fill="#A4DAAD"></path><path d="M 0.0 64.1 L 0.0 11.9 C 0.0 5.3 5.3 0.0 11.9 0.0 L 256.8 0.0 C 263.4 0.0 268.8 5.3 268.8 11.9 L 268.8 64.1 C 268.8 70.7 263.4 76.0 256.8 76.0 L 11.9 76.0 C 5.3 76.0 0.0 70.7 0.0 64.1 Z M 0.0 64.1 " fill="none" stroke="#85878C" stroke-width="2.00" transform="matrix(1.00, 0.00, 0.00, -1.00, 27.7, 746.0)"></path></g></g><g><clipPath id="clip-11335"><path d="M 50.5 682.8 L 273.6 682.8 L 273.6 733.2 L 50.5 733.2 Z M 50.5 682.8 "></path></clipPath><g clip-path="url(#clip-11335)"><path d="M 52.5 731.2 L 271.6 731.2 L 271.6 684.8 L 52.5 684.8 Z M 52.5 731.2 " fill="#FEFFFF"></path><path d="M 0.0 0.0 L 219.1 0.0 L 219.1 46.4 L 0.0 46.4 Z M 0.0 0.0 " fill="none" stroke="#85878C" stroke-width="2.00" transform="matrix(1.00, 0.00, 0.00, -1.00, 52.5, 731.2)"></path></g></g><g><clipPath id="clip-11336"><path d="M 50.6 685.8 L 273.4 685.8 L 273.4 730.2 L 50.6 730.2 Z M 50.6 685.8 "></path></clipPath><g clip-path="url(#clip-11336)"><text xml:space="preserve" font-family="Helvetica-Light" font-size="20.0" fill="#000000" transform="matrix(1.00, 0.00, -0.00, -1.00, 83.0, 701.0)">P</text><text xml:space="preserve" font-family="Helvetica-Light" font-size="20.0" fill="#000000" transform="matrix(1.00, 0.00, -0.00, -1.00, 95.2, 701.0)">a</text><text xml:space="preserve" font-family="Helvetica-Light" font-size="20.0" fill="#000000" transform="matrix(1.00, 0.00, -0.00, -1.00, 106.3, 701.0)">t</text><text xml:space="preserve" font-family="Helvetica-Light" font-size="20.0" fill="#000000" transform="matrix(1.00, 0.00, -0.00, -1.00, 111.9, 701.0)">e</text><text xml:space="preserve" font-family="Helvetica-Light" font-size="20.0" fill="#000000" transform="matrix(1.00, 0.00, -0.00, -1.00, 123.0, 701.0)">n</text><text xml:space="preserve" font-family="Helvetica-Light" font-size="20.0" fill="#000000" transform="matrix(1.00, 0.00, -0.00, -1.00, 134.1, 701.0)">t</text><text xml:space="preserve" font-family="Helvetica-Light" font-size="20.0" fill="#000000" transform="matrix(1.00, 0.00, -0.00, -1.00, 139.7, 701.0)"> </text><text xml:space="preserve" font-family="Helvetica-Light" font-size="20.0" fill="#000000" transform="matrix(1.00, 0.00, -0.00, -1.00, 145.3, 701.0)">D</text><text xml:space="preserve" font-family="Helvetica-Light" font-size="20.0" fill="#000000" transform="matrix(1.00, 0.00, -0.00, -1.00, 159.7, 701.0)">a</text><text xml:space="preserve" font-family="Helvetica-Light" font-size="20.0" fill="#000000" transform="matrix(1.00, 0.00, -0.00, -1.00, 170.8, 701.0)">t</text><text xml:space="preserve" font-family="Helvetica-Light" font-size="20.0" fill="#000000" transform="matrix(1.00, 0.00, -0.00, -1.00, 176.4, 701.0)">a</text><text xml:space="preserve" font-family="Helvetica-Light" font-size="20.0" fill="#000000" transform="matrix(1.00, 0.00, -0.00, -1.00, 187.5, 701.0)">b</text><text xml:space="preserve" font-family="Helvetica-Light" font-size="20.0" fill="#000000" transform="matrix(1.00, 0.00, -0.00, -1.00, 199.7, 701.0)">a</text><text xml:space="preserve" font-family="Helvetica-Light" font-size="20.0" fill="#000000" transform="matrix(1.00, 0.00, -0.00, -1.00, 210.8, 701.0)">s</text><text xml:space="preserve" font-family="Helvetica-Light" font-size="20.0" fill="#000000" transform="matrix(1.00, 0.00, -0.00, -1.00, 220.8, 701.0)">e</text><text xml:space="preserve" font-family="Helvetica-Light" font-size="20.0" fill="#000000" transform="matrix(1.00, 0.00, -0.00, -1.00, 232.0, 701.0)">s</text></g></g><g><clipPath id="clip-11337"><path d="M 25.7 562.5 L 298.4 562.5 L 298.4 642.5 L 25.7 642.5 Z M 25.7 562.5 "></path></clipPath><g clip-path="url(#clip-11337)"><path d="M 27.7 576.4 L 27.7 628.6 C 27.7 635.2 33.0 640.5 39.6 640.5 L 284.5 640.5 C 291.1 640.5 296.4 635.2 296.4 628.6 L 296.4 576.4 C 296.4 569.8 291.1 564.5 284.5 564.5 L 39.6 564.5 C 33.0 564.5 27.7 569.8 27.7 576.4 Z M 27.7 576.4 " fill="#A4DAAD"></path><path d="M 0.0 64.1 L 0.0 11.9 C 0.0 5.3 5.3 0.0 11.9 0.0 L 256.8 0.0 C 263.4 0.0 268.8 5.3 268.8 11.9 L 268.8 64.1 C 268.8 70.7 263.4 76.0 256.8 76.0 L 11.9 76.0 C 5.3 76.0 0.0 70.7 0.0 64.1 Z M 0.0 64.1 " fill="none" stroke="#85878C" stroke-width="2.00" transform="matrix(1.00, 0.00, 0.00, -1.00, 27.7, 640.5)"></path></g></g><g><clipPath id="clip-11338"><path d="M 50.5 577.3 L 273.6 577.3 L 273.6 627.7 L 50.5 627.7 Z M 50.5 577.3 "></path></clipPath><g clip-path="url(#clip-11338)"><path d="M 52.5 625.7 L 271.6 625.7 L 271.6 579.3 L 52.5 579.3 Z M 52.5 625.7 " fill="#FEFFFF"></path><path d="M 0.0 0.0 L 219.1 0.0 L 219.1 46.4 L 0.0 46.4 Z M 0.0 0.0 " fill="none" stroke="#85878C" stroke-width="2.00" transform="matrix(1.00, 0.00, 0.00, -1.00, 52.5, 625.7)"></path></g></g><g><clipPath id="clip-11339"><path d="M 50.6 580.3 L 273.4 580.3 L 273.4 624.7 L 50.6 624.7 Z M 50.6 580.3 "></path></clipPath><g clip-path="url(#clip-11339)"><text xml:space="preserve" font-family="Helvetica-Light" font-size="20.0" fill="#000000" transform="matrix(1.00, 0.00, -0.00, -1.00, 69.0, 595.0)">L</text><text xml:space="preserve" font-family="Helvetica-Light" font-size="20.0" fill="#000000" transform="matrix(1.00, 0.00, -0.00, -1.00, 80.1, 595.0)">i</text><text xml:space="preserve" font-family="Helvetica-Light" font-size="20.0" fill="#000000" transform="matrix(1.00, 0.00, -0.00, -1.00, 84.6, 595.0)">t</text><text xml:space="preserve" font-family="Helvetica-Light" font-size="20.0" fill="#000000" transform="matrix(1.00, 0.00, -0.00, -1.00, 90.1, 595.0)">e</text><text xml:space="preserve" font-family="Helvetica-Light" font-size="20.0" fill="#000000" transform="matrix(1.00, 0.00, -0.00, -1.00, 101.2, 595.0)">r</text><text xml:space="preserve" font-family="Helvetica-Light" font-size="20.0" fill="#000000" transform="matrix(1.00, 0.00, -0.00, -1.00, 107.9, 595.0)">a</text><text xml:space="preserve" font-family="Helvetica-Light" font-size="20.0" fill="#000000" transform="matrix(1.00, 0.00, -0.00, -1.00, 119.0, 595.0)">t</text><text xml:space="preserve" font-family="Helvetica-Light" font-size="20.0" fill="#000000" transform="matrix(1.00, 0.00, -0.00, -1.00, 124.6, 595.0)">u</text><text xml:space="preserve" font-family="Helvetica-Light" font-size="20.0" fill="#000000" transform="matrix(1.00, 0.00, -0.00, -1.00, 135.7, 595.0)">r</text><text xml:space="preserve" font-family="Helvetica-Light" font-size="20.0" fill="#000000" transform="matrix(1.00, 0.00, -0.00, -1.00, 142.0, 595.0)">e</text><text xml:space="preserve" font-family="Helvetica-Light" font-size="20.0" fill="#000000" transform="matrix(1.00, 0.00, -0.00, -1.00, 153.1, 595.0)"> </text><text xml:space="preserve" font-family="Helvetica-Light" font-size="20.0" fill="#000000" transform="matrix(1.00, 0.00, -0.00, -1.00, 158.7, 595.0)">D</text><text xml:space="preserve" font-family="Helvetica-Light" font-size="20.0" fill="#000000" transform="matrix(1.00, 0.00, -0.00, -1.00, 173.1, 595.0)">a</text><text xml:space="preserve" font-family="Helvetica-Light" font-size="20.0" fill="#000000" transform="matrix(1.00, 0.00, -0.00, -1.00, 184.2, 595.0)">t</text><text xml:space="preserve" font-family="Helvetica-Light" font-size="20.0" fill="#000000" transform="matrix(1.00, 0.00, -0.00, -1.00, 189.8, 595.0)">a</text><text xml:space="preserve" font-family="Helvetica-Light" font-size="20.0" fill="#000000" transform="matrix(1.00, 0.00, -0.00, -1.00, 200.9, 595.0)">b</text><text xml:space="preserve" font-family="Helvetica-Light" font-size="20.0" fill="#000000" transform="matrix(1.00, 0.00, -0.00, -1.00, 213.1, 595.0)">a</text><text xml:space="preserve" font-family="Helvetica-Light" font-size="20.0" fill="#000000" transform="matrix(1.00, 0.00, -0.00, -1.00, 224.3, 595.0)">s</text><text xml:space="preserve" font-family="Helvetica-Light" font-size="20.0" fill="#000000" transform="matrix(1.00, 0.00, -0.00, -1.00, 234.3, 595.0)">e</text><text xml:space="preserve" font-family="Helvetica-Light" font-size="20.0" fill="#000000" transform="matrix(1.00, 0.00, -0.00, -1.00, 245.4, 595.0)">s</text></g></g><g><clipPath id="clip-11340"><path d="M 25.7 456.7 L 298.4 456.7 L 298.4 536.8 L 25.7 536.8 Z M 25.7 456.7 "></path></clipPath><g clip-path="url(#clip-11340)"><path d="M 27.7 470.7 L 27.7 522.8 C 27.7 529.4 33.0 534.8 39.6 534.8 L 284.5 534.8 C 291.1 534.8 296.4 529.4 296.4 522.8 L 296.4 470.7 C 296.4 464.1 291.1 458.7 284.5 458.7 L 39.6 458.7 C 33.0 458.7 27.7 464.1 27.7 470.7 Z M 27.7 470.7 " fill="#A4DAAD"></path><path d="M 0.0 64.1 L 0.0 11.9 C 0.0 5.3 5.3 0.0 11.9 0.0 L 256.8 0.0 C 263.4 0.0 268.8 5.3 268.8 11.9 L 268.8 64.1 C 268.8 70.7 263.4 76.0 256.8 76.0 L 11.9 76.0 C 5.3 76.0 0.0 70.7 0.0 64.1 Z M 0.0 64.1 " fill="none" stroke="#85878C" stroke-width="2.00" transform="matrix(1.00, 0.00, 0.00, -1.00, 27.7, 534.8)"></path></g></g><g><clipPath id="clip-11341"><path d="M 50.5 471.5 L 273.6 471.5 L 273.6 522.0 L 50.5 522.0 Z M 50.5 471.5 "></path></clipPath><g clip-path="url(#clip-11341)"><path d="M 52.5 520.0 L 271.6 520.0 L 271.6 473.5 L 52.5 473.5 Z M 52.5 520.0 " fill="#FEFFFF"></path><path d="M 0.0 0.0 L 219.1 0.0 L 219.1 46.4 L 0.0 46.4 Z M 0.0 0.0 " fill="none" stroke="#85878C" stroke-width="2.00" transform="matrix(1.00, 0.00, 0.00, -1.00, 52.5, 520.0)"></path></g></g><g><clipPath id="clip-11342"><path d="M 50.6 474.5 L 273.4 474.5 L 273.4 519.0 L 50.6 519.0 Z M 50.6 474.5 "></path></clipPath><g clip-path="url(#clip-11342)"><text xml:space="preserve" font-family="Helvetica-Light" font-size="20.0" fill="#000000" transform="matrix(1.00, 0.00, -0.00, -1.00, 74.0, 489.0)">O</text><text xml:space="preserve" font-family="Helvetica-Light" font-size="20.0" fill="#000000" transform="matrix(1.00, 0.00, -0.00, -1.00, 89.6, 489.0)">t</text><text xml:space="preserve" font-family="Helvetica-Light" font-size="20.0" fill="#000000" transform="matrix(1.00, 0.00, -0.00, -1.00, 95.1, 489.0)">h</text><text xml:space="preserve" font-family="Helvetica-Light" font-size="20.0" fill="#000000" transform="matrix(1.00, 0.00, -0.00, -1.00, 106.2, 489.0)">e</text><text xml:space="preserve" font-family="Helvetica-Light" font-size="20.0" fill="#000000" transform="matrix(1.00, 0.00, -0.00, -1.00, 117.4, 489.0)">r</text><text xml:space="preserve" font-family="Helvetica-Light" font-size="20.0" fill="#000000" transform="matrix(1.00, 0.00, -0.00, -1.00, 124.0, 489.0)"> </text><text xml:space="preserve" font-family="Helvetica-Light" font-size="20.0" fill="#000000" transform="matrix(1.00, 0.00, -0.00, -1.00, 129.6, 489.0)">D</text><text xml:space="preserve" font-family="Helvetica-Light" font-size="20.0" fill="#000000" transform="matrix(1.00, 0.00, -0.00, -1.00, 144.0, 489.0)">a</text><text xml:space="preserve" font-family="Helvetica-Light" font-size="20.0" fill="#000000" transform="matrix(1.00, 0.00, -0.00, -1.00, 155.1, 489.0)">t</text><text xml:space="preserve" font-family="Helvetica-Light" font-size="20.0" fill="#000000" transform="matrix(1.00, 0.00, -0.00, -1.00, 160.7, 489.0)">a</text><text xml:space="preserve" font-family="Helvetica-Light" font-size="20.0" fill="#000000" transform="matrix(1.00, 0.00, -0.00, -1.00, 171.8, 489.0)"> </text><text xml:space="preserve" font-family="Helvetica-Light" font-size="20.0" fill="#000000" transform="matrix(1.00, 0.00, -0.00, -1.00, 177.4, 489.0)">S</text><text xml:space="preserve" font-family="Helvetica-Light" font-size="20.0" fill="#000000" transform="matrix(1.00, 0.00, -0.00, -1.00, 189.6, 489.0)">o</text><text xml:space="preserve" font-family="Helvetica-Light" font-size="20.0" fill="#000000" transform="matrix(1.00, 0.00, -0.00, -1.00, 200.7, 489.0)">u</text><text xml:space="preserve" font-family="Helvetica-Light" font-size="20.0" fill="#000000" transform="matrix(1.00, 0.00, -0.00, -1.00, 211.8, 489.0)">r</text><text xml:space="preserve" font-family="Helvetica-Light" font-size="20.0" fill="#000000" transform="matrix(1.00, 0.00, -0.00, -1.00, 218.1, 489.0)">c</text><text xml:space="preserve" font-family="Helvetica-Light" font-size="20.0" fill="#000000" transform="matrix(1.00, 0.00, -0.00, -1.00, 229.3, 489.0)">e</text><text xml:space="preserve" font-family="Helvetica-Light" font-size="20.0" fill="#000000" transform="matrix(1.00, 0.00, -0.00, -1.00, 240.4, 489.0)">s</text></g></g><g><clipPath id="clip-11343"><path d="M 374.2 270.7 L 647.0 270.7 L 647.0 350.8 L 374.2 350.8 Z M 374.2 270.7 "></path></clipPath><g clip-path="url(#clip-11343)"><path d="M 376.2 284.7 L 376.2 336.8 C 376.2 343.4 381.6 348.8 388.1 348.8 L 633.1 348.8 C 639.6 348.8 645.0 343.4 645.0 336.8 L 645.0 284.7 C 645.0 278.1 639.6 272.7 633.1 272.7 L 388.1 272.7 C 381.6 272.7 376.2 278.1 376.2 284.7 Z M 376.2 284.7 " fill="#A4DAAD"></path><path d="M 0.0 64.1 L 0.0 11.9 C 0.0 5.3 5.3 0.0 11.9 0.0 L 256.8 0.0 C 263.4 0.0 268.8 5.3 268.8 11.9 L 268.8 64.1 C 268.8 70.7 263.4 76.0 256.8 76.0 L 11.9 76.0 C 5.3 76.0 0.0 70.7 0.0 64.1 Z M 0.0 64.1 " fill="none" stroke="#85878C" stroke-width="2.00" transform="matrix(1.00, 0.00, 0.00, -1.00, 376.2, 348.8)"></path></g></g><g><clipPath id="clip-11344"><path d="M 399.1 285.5 L 622.1 285.5 L 622.1 336.0 L 399.1 336.0 Z M 399.1 285.5 "></path></clipPath><g clip-path="url(#clip-11344)"><path d="M 401.1 334.0 L 620.1 334.0 L 620.1 287.5 L 401.1 287.5 Z M 401.1 334.0 " fill="#FEFFFF"></path><path d="M 0.0 0.0 L 219.1 0.0 L 219.1 46.4 L 0.0 46.4 Z M 0.0 0.0 " fill="none" stroke="#85878C" stroke-width="2.00" transform="matrix(1.00, 0.00, 0.00, -1.00, 401.1, 334.0)"></path></g></g><g><clipPath id="clip-11345"><path d="M 399.2 288.5 L 622.0 288.5 L 622.0 333.0 L 399.2 333.0 Z M 399.2 288.5 "></path></clipPath><g clip-path="url(#clip-11345)"><text xml:space="preserve" font-family="Helvetica-Light" font-size="20.0" fill="#000000" transform="matrix(1.00, 0.00, -0.00, -1.00, 426.0, 303.0)">D</text><text xml:space="preserve" font-family="Helvetica-Light" font-size="20.0" fill="#000000" transform="matrix(1.00, 0.00, -0.00, -1.00, 440.4, 303.0)">a</text><text xml:space="preserve" font-family="Helvetica-Light" font-size="20.0" fill="#000000" transform="matrix(1.00, 0.00, -0.00, -1.00, 451.6, 303.0)">t</text><text xml:space="preserve" font-family="Helvetica-Light" font-size="20.0" fill="#000000" transform="matrix(1.00, 0.00, -0.00, -1.00, 457.1, 303.0)">a</text><text xml:space="preserve" font-family="Helvetica-Light" font-size="20.0" fill="#000000" transform="matrix(1.00, 0.00, -0.00, -1.00, 468.2, 303.0)">b</text><text xml:space="preserve" font-family="Helvetica-Light" font-size="20.0" fill="#000000" transform="matrix(1.00, 0.00, -0.00, -1.00, 480.5, 303.0)">a</text><text xml:space="preserve" font-family="Helvetica-Light" font-size="20.0" fill="#000000" transform="matrix(1.00, 0.00, -0.00, -1.00, 491.6, 303.0)">s</text><text xml:space="preserve" font-family="Helvetica-Light" font-size="20.0" fill="#000000" transform="matrix(1.00, 0.00, -0.00, -1.00, 501.6, 303.0)">e</text><text xml:space="preserve" font-family="Helvetica-Light" font-size="20.0" fill="#000000" transform="matrix(1.00, 0.00, -0.00, -1.00, 512.7, 303.0)"> </text><text xml:space="preserve" font-family="Helvetica-Light" font-size="20.0" fill="#000000" transform="matrix(1.00, 0.00, -0.00, -1.00, 518.3, 303.0)">S</text><text xml:space="preserve" font-family="Helvetica-Light" font-size="20.0" fill="#000000" transform="matrix(1.00, 0.00, -0.00, -1.00, 530.5, 303.0)">o</text><text xml:space="preserve" font-family="Helvetica-Light" font-size="20.0" fill="#000000" transform="matrix(1.00, 0.00, -0.00, -1.00, 541.6, 303.0)">f</text><text xml:space="preserve" font-family="Helvetica-Light" font-size="20.0" fill="#000000" transform="matrix(1.00, 0.00, -0.00, -1.00, 547.2, 303.0)">t</text><text xml:space="preserve" font-family="Helvetica-Light" font-size="20.0" fill="#000000" transform="matrix(1.00, 0.00, -0.00, -1.00, 552.7, 303.0)">w</text><text xml:space="preserve" font-family="Helvetica-Light" font-size="20.0" fill="#000000" transform="matrix(1.00, 0.00, -0.00, -1.00, 567.2, 303.0)">a</text><text xml:space="preserve" font-family="Helvetica-Light" font-size="20.0" fill="#000000" transform="matrix(1.00, 0.00, -0.00, -1.00, 578.3, 303.0)">r</text><text xml:space="preserve" font-family="Helvetica-Light" font-size="20.0" fill="#000000" transform="matrix(1.00, 0.00, -0.00, -1.00, 584.6, 303.0)">e</text></g></g><path d="M 8.6 0.0 L 9.6 0.0 L 23.3 0.0 L 24.3 0.0 " fill="none" stroke="#000000" stroke-width="2.00" transform="matrix(0.00, -1.00, -1.00, 0.00, 512.0, 381.1)"></path><path d="M 507.2 357.8 L 512.0 348.2 L 516.8 357.8 Z M 507.2 357.8 " fill="#000000"></path><path d="M 516.8 371.5 L 512.0 381.1 L 507.2 371.5 Z M 516.8 371.5 " fill="#000000"></path></g></svg>