<?xml version="1.0" encoding="UTF-8" standalone="no"?><svg xmlns="http://www.w3.org/2000/svg" xmlns:xlink="http://www.w3.org/1999/xlink" clip-rule="evenodd" stroke-miterlimit="4.00" viewBox="0 0 1024 768"><desc>SVG generated by Keynote</desc><defs></defs><g transform="matrix(1.00, 0.00, -0.00, -1.00, 0.0, 768.0)"><path d="M 0.0 768.0 L 1024.0 768.0 L 1024.0 0.0 L 0.0 0.0 Z M 0.0 768.0 " fill="#FEFFFF"></path><g><clipPath id="clip-10184"><path d="M 324.0 638.2 L 666.0 638.2 L 666.0 742.2 L 324.0 742.2 Z M 324.0 638.2 "></path></clipPath><g clip-path="url(#clip-10184)"><path d="M 326.0 655.2 L 326.0 725.2 C 326.0 733.5 332.7 740.2 341.0 740.2 L 649.0 740.2 C 657.3 740.2 664.0 733.5 664.0 725.2 L 664.0 655.2 C 664.0 646.9 657.3 640.2 649.0 640.2 L 341.0 640.2 C 332.7 640.2 326.0 646.9 326.0 655.2 Z M 326.0 655.2 " fill="#A4DAAD"></path><path d="M 0.0 85.0 L 0.0 15.0 C 0.0 6.7 6.7 0.0 15.0 0.0 L 323.0 0.0 C 331.3 0.0 338.0 6.7 338.0 15.0 L 338.0 85.0 C 338.0 93.3 331.3 100.0 323.0 100.0 L 15.0 100.0 C 6.7 100.0 0.0 93.3 0.0 85.0 Z M 0.0 85.0 " fill="none" stroke="#85878C" stroke-width="2.00" transform="matrix(1.00, 0.00, 0.00, -1.00, 326.0, 740.2)"></path></g></g><g><clipPath id="clip-10185"><path d="M 406.9 673.0 L 583.1 673.0 L 583.1 707.3 L 406.9 707.3 Z M 406.9 673.0 "></path></clipPath><g clip-path="url(#clip-10185)"><path d="M 408.9 705.3 L 581.1 705.3 L 581.1 675.0 L 408.9 675.0 Z M 408.9 705.3 " fill="#FEFFFF"></path><path d="M 0.0 0.0 L 172.1 0.0 L 172.1 30.3 L 0.0 30.3 Z M 0.0 0.0 " fill="none" stroke="#85878C" stroke-width="2.00" transform="matrix(1.00, 0.00, 0.00, -1.00, 408.9, 705.3)"></path></g></g><g><clipPath id="clip-10186"><path d="M 407.1 673.2 L 582.9 673.2 L 582.9 707.2 L 407.1 707.2 Z M 407.1 673.2 "></path></clipPath><g clip-path="url(#clip-10186)"><text xml:space="preserve" font-family="Helvetica-Light" font-size="20.0" fill="#000000" transform="matrix(1.00, 0.00, -0.00, -1.00, 413.0, 683.0)">2</text><text xml:space="preserve" font-family="Helvetica-Light" font-size="20.0" fill="#000000" transform="matrix(1.00, 0.00, -0.00, -1.00, 424.1, 683.0)">.</text><text xml:space="preserve" font-family="Helvetica-Light" font-size="20.0" fill="#000000" transform="matrix(1.00, 0.00, -0.00, -1.00, 429.7, 683.0)"> </text><text xml:space="preserve" font-family="Helvetica-Light" font-size="20.0" fill="#000000" transform="matrix(1.00, 0.00, -0.00, -1.00, 435.2, 683.0)">A</text><text xml:space="preserve" font-family="Helvetica-Light" font-size="20.0" fill="#000000" transform="matrix(1.00, 0.00, -0.00, -1.00, 448.6, 683.0)">p</text><text xml:space="preserve" font-family="Helvetica-Light" font-size="20.0" fill="#000000" transform="matrix(1.00, 0.00, -0.00, -1.00, 460.8, 683.0)">p</text><text xml:space="preserve" font-family="Helvetica-Light" font-size="20.0" fill="#000000" transform="matrix(1.00, 0.00, -0.00, -1.00, 473.0, 683.0)">l</text><text xml:space="preserve" font-family="Helvetica-Light" font-size="20.0" fill="#000000" transform="matrix(1.00, 0.00, -0.00, -1.00, 477.5, 683.0)">i</text><text xml:space="preserve" font-family="Helvetica-Light" font-size="20.0" fill="#000000" transform="matrix(1.00, 0.00, -0.00, -1.00, 481.9, 683.0)">c</text><text xml:space="preserve" font-family="Helvetica-Light" font-size="20.0" fill="#000000" transform="matrix(1.00, 0.00, -0.00, -1.00, 493.0, 683.0)">a</text><text xml:space="preserve" font-family="Helvetica-Light" font-size="20.0" fill="#000000" transform="matrix(1.00, 0.00, -0.00, -1.00, 504.1, 683.0)">n</text><text xml:space="preserve" font-family="Helvetica-Light" font-size="20.0" fill="#000000" transform="matrix(1.00, 0.00, -0.00, -1.00, 515.3, 683.0)">t</text><text xml:space="preserve" font-family="Helvetica-Light" font-size="20.0" fill="#000000" transform="matrix(1.00, 0.00, -0.00, -1.00, 520.8, 683.0)"> </text><text xml:space="preserve" font-family="Helvetica-Light" font-size="20.0" fill="#000000" transform="matrix(1.00, 0.00, -0.00, -1.00, 526.4, 683.0)">P</text><text xml:space="preserve" font-family="Helvetica-Light" font-size="20.0" fill="#000000" transform="matrix(1.00, 0.00, -0.00, -1.00, 538.6, 683.0)">o</text><text xml:space="preserve" font-family="Helvetica-Light" font-size="20.0" fill="#000000" transform="matrix(1.00, 0.00, -0.00, -1.00, 549.7, 683.0)">r</text><text xml:space="preserve" font-family="Helvetica-Light" font-size="20.0" fill="#000000" transform="matrix(1.00, 0.00, -0.00, -1.00, 556.7, 683.0)">t</text><text xml:space="preserve" font-family="Helvetica-Light" font-size="20.0" fill="#000000" transform="matrix(1.00, 0.00, -0.00, -1.00, 562.3, 683.0)">a</text><text xml:space="preserve" font-family="Helvetica-Light" font-size="20.0" fill="#000000" transform="matrix(1.00, 0.00, -0.00, -1.00, 573.4, 683.0)">l</text></g></g><g><clipPath id="clip-10187"><path d="M 358.6 234.2 L 631.4 234.2 L 631.4 314.2 L 358.6 314.2 Z M 358.6 234.2 "></path></clipPath><g clip-path="url(#clip-10187)"><path d="M 360.6 248.1 L 360.6 300.3 C 360.6 306.9 366.0 312.2 372.5 312.2 L 617.5 312.2 C 624.0 312.2 629.4 306.9 629.4 300.3 L 629.4 248.1 C 629.4 241.6 624.0 236.2 617.5 236.2 L 372.5 236.2 C 366.0 236.2 360.6 241.6 360.6 248.1 Z M 360.6 248.1 " fill="#A4DAAD"></path><path d="M 0.0 64.1 L 0.0 11.9 C 0.0 5.3 5.3 0.0 11.9 0.0 L 256.8 0.0 C 263.4 0.0 268.8 5.3 268.8 11.9 L 268.8 64.1 C 268.8 70.7 263.4 76.0 256.8 76.0 L 11.9 76.0 C 5.3 76.0 0.0 70.7 0.0 64.1 Z M 0.0 64.1 " fill="none" stroke="#85878C" stroke-width="2.00" transform="matrix(1.00, 0.00, 0.00, -1.00, 360.6, 312.2)"></path></g></g><g><clipPath id="clip-10188"><path d="M 383.5 249.0 L 606.5 249.0 L 606.5 299.4 L 383.5 299.4 Z M 383.5 249.0 "></path></clipPath><g clip-path="url(#clip-10188)"><path d="M 385.5 297.4 L 604.5 297.4 L 604.5 251.0 L 385.5 251.0 Z M 385.5 297.4 " fill="#FEFFFF"></path><path d="M 0.0 0.0 L 219.1 0.0 L 219.1 46.4 L 0.0 46.4 Z M 0.0 0.0 " fill="none" stroke="#85878C" stroke-width="2.00" transform="matrix(1.00, 0.00, 0.00, -1.00, 385.5, 297.4)"></path></g></g><g><clipPath id="clip-10189"><path d="M 383.6 252.0 L 606.4 252.0 L 606.4 296.4 L 383.6 296.4 Z M 383.6 252.0 "></path></clipPath><g clip-path="url(#clip-10189)"><text xml:space="preserve" font-family="Helvetica-Light" font-size="20.0" fill="#000000" transform="matrix(1.00, 0.00, -0.00, -1.00, 430.0, 267.0)">2</text><text xml:space="preserve" font-family="Helvetica-Light" font-size="20.0" fill="#000000" transform="matrix(1.00, 0.00, -0.00, -1.00, 441.1, 267.0)">.</text><text xml:space="preserve" font-family="Helvetica-Light" font-size="20.0" fill="#000000" transform="matrix(1.00, 0.00, -0.00, -1.00, 446.7, 267.0)">4</text><text xml:space="preserve" font-family="Helvetica-Light" font-size="20.0" fill="#000000" transform="matrix(1.00, 0.00, -0.00, -1.00, 457.8, 267.0)">.</text><text xml:space="preserve" font-family="Helvetica-Light" font-size="20.0" fill="#000000" transform="matrix(1.00, 0.00, -0.00, -1.00, 463.4, 267.0)"> </text><text xml:space="preserve" font-family="Helvetica-Light" font-size="20.0" fill="#000000" transform="matrix(1.00, 0.00, -0.00, -1.00, 468.9, 267.0)">A</text><text xml:space="preserve" font-family="Helvetica-Light" font-size="20.0" fill="#000000" transform="matrix(1.00, 0.00, -0.00, -1.00, 482.3, 267.0)">p</text><text xml:space="preserve" font-family="Helvetica-Light" font-size="20.0" fill="#000000" transform="matrix(1.00, 0.00, -0.00, -1.00, 494.5, 267.0)">p</text><text xml:space="preserve" font-family="Helvetica-Light" font-size="20.0" fill="#000000" transform="matrix(1.00, 0.00, -0.00, -1.00, 506.7, 267.0)">r</text><text xml:space="preserve" font-family="Helvetica-Light" font-size="20.0" fill="#000000" transform="matrix(1.00, 0.00, -0.00, -1.00, 513.0, 267.0)">o</text><text xml:space="preserve" font-family="Helvetica-Light" font-size="20.0" fill="#000000" transform="matrix(1.00, 0.00, -0.00, -1.00, 524.1, 267.0)">v</text><text xml:space="preserve" font-family="Helvetica-Light" font-size="20.0" fill="#000000" transform="matrix(1.00, 0.00, -0.00, -1.00, 534.1, 267.0)">a</text><text xml:space="preserve" font-family="Helvetica-Light" font-size="20.0" fill="#000000" transform="matrix(1.00, 0.00, -0.00, -1.00, 545.2, 267.0)">l</text><text xml:space="preserve" font-family="Helvetica-Light" font-size="20.0" fill="#000000" transform="matrix(1.00, 0.00, -0.00, -1.00, 549.7, 267.0)">s</text></g></g><g><clipPath id="clip-10190"><path d="M 358.6 432.5 L 631.4 432.5 L 631.4 512.6 L 358.6 512.6 Z M 358.6 432.5 "></path></clipPath><g clip-path="url(#clip-10190)"><path d="M 360.6 446.5 L 360.6 498.6 C 360.6 505.2 366.0 510.6 372.5 510.6 L 617.5 510.6 C 624.0 510.6 629.4 505.2 629.4 498.6 L 629.4 446.5 C 629.4 439.9 624.0 434.5 617.5 434.5 L 372.5 434.5 C 366.0 434.5 360.6 439.9 360.6 446.5 Z M 360.6 446.5 " fill="#A4DAAD"></path><path d="M 0.0 64.1 L 0.0 11.9 C 0.0 5.3 5.3 0.0 11.9 0.0 L 256.8 0.0 C 263.4 0.0 268.8 5.3 268.8 11.9 L 268.8 64.1 C 268.8 70.7 263.4 76.0 256.8 76.0 L 11.9 76.0 C 5.3 76.0 0.0 70.7 0.0 64.1 Z M 0.0 64.1 " fill="none" stroke="#85878C" stroke-width="2.00" transform="matrix(1.00, 0.00, 0.00, -1.00, 360.6, 510.6)"></path></g></g><g><clipPath id="clip-10191"><path d="M 383.5 447.3 L 606.5 447.3 L 606.5 497.8 L 383.5 497.8 Z M 383.5 447.3 "></path></clipPath><g clip-path="url(#clip-10191)"><path d="M 385.5 495.8 L 604.5 495.8 L 604.5 449.3 L 385.5 449.3 Z M 385.5 495.8 " fill="#FEFFFF"></path><path d="M 0.0 0.0 L 219.1 0.0 L 219.1 46.4 L 0.0 46.4 Z M 0.0 0.0 " fill="none" stroke="#85878C" stroke-width="2.00" transform="matrix(1.00, 0.00, 0.00, -1.00, 385.5, 495.8)"></path></g></g><g><clipPath id="clip-10192"><path d="M 383.6 450.3 L 606.4 450.3 L 606.4 494.8 L 383.6 494.8 Z M 383.6 450.3 "></path></clipPath><g clip-path="url(#clip-10192)"><text xml:space="preserve" font-family="Helvetica-Light" font-size="20.0" fill="#000000" transform="matrix(1.00, 0.00, -0.00, -1.00, 420.0, 465.0)">2</text><text xml:space="preserve" font-family="Helvetica-Light" font-size="20.0" fill="#000000" transform="matrix(1.00, 0.00, -0.00, -1.00, 431.1, 465.0)">.</text><text xml:space="preserve" font-family="Helvetica-Light" font-size="20.0" fill="#000000" transform="matrix(1.00, 0.00, -0.00, -1.00, 436.7, 465.0)">2</text><text xml:space="preserve" font-family="Helvetica-Light" font-size="20.0" fill="#000000" transform="matrix(1.00, 0.00, -0.00, -1.00, 447.8, 465.0)">.</text><text xml:space="preserve" font-family="Helvetica-Light" font-size="20.0" fill="#000000" transform="matrix(1.00, 0.00, -0.00, -1.00, 453.4, 465.0)"> </text><text xml:space="preserve" font-family="Helvetica-Light" font-size="20.0" fill="#000000" transform="matrix(1.00, 0.00, -0.00, -1.00, 458.9, 465.0)">A</text><text xml:space="preserve" font-family="Helvetica-Light" font-size="20.0" fill="#000000" transform="matrix(1.00, 0.00, -0.00, -1.00, 472.3, 465.0)">p</text><text xml:space="preserve" font-family="Helvetica-Light" font-size="20.0" fill="#000000" transform="matrix(1.00, 0.00, -0.00, -1.00, 484.5, 465.0)">p</text><text xml:space="preserve" font-family="Helvetica-Light" font-size="20.0" fill="#000000" transform="matrix(1.00, 0.00, -0.00, -1.00, 496.7, 465.0)">l</text><text xml:space="preserve" font-family="Helvetica-Light" font-size="20.0" fill="#000000" transform="matrix(1.00, 0.00, -0.00, -1.00, 501.1, 465.0)">i</text><text xml:space="preserve" font-family="Helvetica-Light" font-size="20.0" fill="#000000" transform="matrix(1.00, 0.00, -0.00, -1.00, 505.6, 465.0)">c</text><text xml:space="preserve" font-family="Helvetica-Light" font-size="20.0" fill="#000000" transform="matrix(1.00, 0.00, -0.00, -1.00, 516.7, 465.0)">a</text><text xml:space="preserve" font-family="Helvetica-Light" font-size="20.0" fill="#000000" transform="matrix(1.00, 0.00, -0.00, -1.00, 527.8, 465.0)">t</text><text xml:space="preserve" font-family="Helvetica-Light" font-size="20.0" fill="#000000" transform="matrix(1.00, 0.00, -0.00, -1.00, 533.4, 465.0)">i</text><text xml:space="preserve" font-family="Helvetica-Light" font-size="20.0" fill="#000000" transform="matrix(1.00, 0.00, -0.00, -1.00, 537.8, 465.0)">o</text><text xml:space="preserve" font-family="Helvetica-Light" font-size="20.0" fill="#000000" transform="matrix(1.00, 0.00, -0.00, -1.00, 548.9, 465.0)">n</text><text xml:space="preserve" font-family="Helvetica-Light" font-size="20.0" fill="#000000" transform="matrix(1.00, 0.00, -0.00, -1.00, 560.1, 465.0)">s</text></g></g><g><clipPath id="clip-10193"><path d="M 358.6 332.6 L 631.4 332.6 L 631.4 412.6 L 358.6 412.6 Z M 358.6 332.6 "></path></clipPath><g clip-path="url(#clip-10193)"><path d="M 360.6 346.5 L 360.6 398.7 C 360.6 405.3 366.0 410.6 372.5 410.6 L 617.5 410.6 C 624.0 410.6 629.4 405.3 629.4 398.7 L 629.4 346.5 C 629.4 339.9 624.0 334.6 617.5 334.6 L 372.5 334.6 C 366.0 334.6 360.6 339.9 360.6 346.5 Z M 360.6 346.5 " fill="#A4DAAD"></path><path d="M 0.0 64.1 L 0.0 11.9 C 0.0 5.3 5.3 0.0 11.9 0.0 L 256.8 0.0 C 263.4 0.0 268.8 5.3 268.8 11.9 L 268.8 64.1 C 268.8 70.7 263.4 76.0 256.8 76.0 L 11.9 76.0 C 5.3 76.0 0.0 70.7 0.0 64.1 Z M 0.0 64.1 " fill="none" stroke="#85878C" stroke-width="2.00" transform="matrix(1.00, 0.00, 0.00, -1.00, 360.6, 410.6)"></path></g></g><g><clipPath id="clip-10194"><path d="M 383.5 347.4 L 606.5 347.4 L 606.5 397.8 L 383.5 397.8 Z M 383.5 347.4 "></path></clipPath><g clip-path="url(#clip-10194)"><path d="M 385.5 395.8 L 604.5 395.8 L 604.5 349.4 L 385.5 349.4 Z M 385.5 395.8 " fill="#FEFFFF"></path><path d="M 0.0 0.0 L 219.1 0.0 L 219.1 46.4 L 0.0 46.4 Z M 0.0 0.0 " fill="none" stroke="#85878C" stroke-width="2.00" transform="matrix(1.00, 0.00, 0.00, -1.00, 385.5, 395.8)"></path></g></g><g><clipPath id="clip-10195"><path d="M 383.6 350.4 L 606.4 350.4 L 606.4 394.8 L 383.6 394.8 Z M 383.6 350.4 "></path></clipPath><g clip-path="url(#clip-10195)"><text xml:space="preserve" font-family="Helvetica-Light" font-size="20.0" fill="#000000" transform="matrix(1.00, 0.00, -0.00, -1.00, 421.0, 365.0)">2</text><text xml:space="preserve" font-family="Helvetica-Light" font-size="20.0" fill="#000000" transform="matrix(1.00, 0.00, -0.00, -1.00, 432.1, 365.0)">.</text><text xml:space="preserve" font-family="Helvetica-Light" font-size="20.0" fill="#000000" transform="matrix(1.00, 0.00, -0.00, -1.00, 437.7, 365.0)">3</text><text xml:space="preserve" font-family="Helvetica-Light" font-size="20.0" fill="#000000" transform="matrix(1.00, 0.00, -0.00, -1.00, 448.8, 365.0)">.</text><text xml:space="preserve" font-family="Helvetica-Light" font-size="20.0" fill="#000000" transform="matrix(1.00, 0.00, -0.00, -1.00, 454.4, 365.0)"> </text><text xml:space="preserve" font-family="Helvetica-Light" font-size="20.0" fill="#000000" transform="matrix(1.00, 0.00, -0.00, -1.00, 459.9, 365.0)">N</text><text xml:space="preserve" font-family="Helvetica-Light" font-size="20.0" fill="#000000" transform="matrix(1.00, 0.00, -0.00, -1.00, 474.4, 365.0)">o</text><text xml:space="preserve" font-family="Helvetica-Light" font-size="20.0" fill="#000000" transform="matrix(1.00, 0.00, -0.00, -1.00, 485.5, 365.0)">t</text><text xml:space="preserve" font-family="Helvetica-Light" font-size="20.0" fill="#000000" transform="matrix(1.00, 0.00, -0.00, -1.00, 491.0, 365.0)">i</text><text xml:space="preserve" font-family="Helvetica-Light" font-size="20.0" fill="#000000" transform="matrix(1.00, 0.00, -0.00, -1.00, 495.5, 365.0)">ﬁ</text><text xml:space="preserve" font-family="Helvetica-Light" font-size="20.0" fill="#000000" transform="matrix(1.00, 0.00, -0.00, -1.00, 505.5, 365.0)">c</text><text xml:space="preserve" font-family="Helvetica-Light" font-size="20.0" fill="#000000" transform="matrix(1.00, 0.00, -0.00, -1.00, 516.6, 365.0)">a</text><text xml:space="preserve" font-family="Helvetica-Light" font-size="20.0" fill="#000000" transform="matrix(1.00, 0.00, -0.00, -1.00, 527.7, 365.0)">t</text><text xml:space="preserve" font-family="Helvetica-Light" font-size="20.0" fill="#000000" transform="matrix(1.00, 0.00, -0.00, -1.00, 533.3, 365.0)">i</text><text xml:space="preserve" font-family="Helvetica-Light" font-size="20.0" fill="#000000" transform="matrix(1.00, 0.00, -0.00, -1.00, 537.7, 365.0)">o</text><text xml:space="preserve" font-family="Helvetica-Light" font-size="20.0" fill="#000000" transform="matrix(1.00, 0.00, -0.00, -1.00, 548.8, 365.0)">n</text><text xml:space="preserve" font-family="Helvetica-Light" font-size="20.0" fill="#000000" transform="matrix(1.00, 0.00, -0.00, -1.00, 560.0, 365.0)">s</text></g></g><g><clipPath id="clip-10196"><path d="M 358.6 535.6 L 631.4 535.6 L 631.4 615.6 L 358.6 615.6 Z M 358.6 535.6 "></path></clipPath><g clip-path="url(#clip-10196)"><path d="M 360.6 549.5 L 360.6 601.7 C 360.6 608.3 366.0 613.6 372.5 613.6 L 617.5 613.6 C 624.0 613.6 629.4 608.3 629.4 601.7 L 629.4 549.5 C 629.4 542.9 624.0 537.6 617.5 537.6 L 372.5 537.6 C 366.0 537.6 360.6 542.9 360.6 549.5 Z M 360.6 549.5 " fill="#A4DAAD"></path><path d="M 0.0 64.1 L 0.0 11.9 C 0.0 5.3 5.3 0.0 11.9 0.0 L 256.8 0.0 C 263.4 0.0 268.8 5.3 268.8 11.9 L 268.8 64.1 C 268.8 70.7 263.4 76.0 256.8 76.0 L 11.9 76.0 C 5.3 76.0 0.0 70.7 0.0 64.1 Z M 0.0 64.1 " fill="none" stroke="#85878C" stroke-width="2.00" transform="matrix(1.00, 0.00, 0.00, -1.00, 360.6, 613.6)"></path></g></g><g><clipPath id="clip-10197"><path d="M 383.5 550.4 L 606.5 550.4 L 606.5 600.8 L 383.5 600.8 Z M 383.5 550.4 "></path></clipPath><g clip-path="url(#clip-10197)"><path d="M 385.5 598.8 L 604.5 598.8 L 604.5 552.4 L 385.5 552.4 Z M 385.5 598.8 " fill="#FEFFFF"></path><path d="M 0.0 0.0 L 219.1 0.0 L 219.1 46.4 L 0.0 46.4 Z M 0.0 0.0 " fill="none" stroke="#85878C" stroke-width="2.00" transform="matrix(1.00, 0.00, 0.00, -1.00, 385.5, 598.8)"></path></g></g><g><clipPath id="clip-10198"><path d="M 383.6 553.4 L 606.4 553.4 L 606.4 597.8 L 383.6 597.8 Z M 383.6 553.4 "></path></clipPath><g clip-path="url(#clip-10198)"><text xml:space="preserve" font-family="Helvetica-Light" font-size="20.0" fill="#000000" transform="matrix(1.00, 0.00, -0.00, -1.00, 425.0, 568.0)">2</text><text xml:space="preserve" font-family="Helvetica-Light" font-size="20.0" fill="#000000" transform="matrix(1.00, 0.00, -0.00, -1.00, 436.1, 568.0)">.</text><text xml:space="preserve" font-family="Helvetica-Light" font-size="20.0" fill="#000000" transform="matrix(1.00, 0.00, -0.00, -1.00, 441.7, 568.0)">1</text><text xml:space="preserve" font-family="Helvetica-Light" font-size="20.0" fill="#000000" transform="matrix(1.00, 0.00, -0.00, -1.00, 452.8, 568.0)">.</text><text xml:space="preserve" font-family="Helvetica-Light" font-size="20.0" fill="#000000" transform="matrix(1.00, 0.00, -0.00, -1.00, 458.4, 568.0)"> </text><text xml:space="preserve" font-family="Helvetica-Light" font-size="20.0" fill="#000000" transform="matrix(1.00, 0.00, -0.00, -1.00, 463.9, 568.0)">I</text><text xml:space="preserve" font-family="Helvetica-Light" font-size="20.0" fill="#000000" transform="matrix(1.00, 0.00, -0.00, -1.00, 469.5, 568.0)">n</text><text xml:space="preserve" font-family="Helvetica-Light" font-size="20.0" fill="#000000" transform="matrix(1.00, 0.00, -0.00, -1.00, 480.6, 568.0)">f</text><text xml:space="preserve" font-family="Helvetica-Light" font-size="20.0" fill="#000000" transform="matrix(1.00, 0.00, -0.00, -1.00, 486.2, 568.0)">o</text><text xml:space="preserve" font-family="Helvetica-Light" font-size="20.0" fill="#000000" transform="matrix(1.00, 0.00, -0.00, -1.00, 497.3, 568.0)">r</text><text xml:space="preserve" font-family="Helvetica-Light" font-size="20.0" fill="#000000" transform="matrix(1.00, 0.00, -0.00, -1.00, 504.3, 568.0)">m</text><text xml:space="preserve" font-family="Helvetica-Light" font-size="20.0" fill="#000000" transform="matrix(1.00, 0.00, -0.00, -1.00, 521.0, 568.0)">a</text><text xml:space="preserve" font-family="Helvetica-Light" font-size="20.0" fill="#000000" transform="matrix(1.00, 0.00, -0.00, -1.00, 532.1, 568.0)">t</text><text xml:space="preserve" font-family="Helvetica-Light" font-size="20.0" fill="#000000" transform="matrix(1.00, 0.00, -0.00, -1.00, 537.6, 568.0)">i</text><text xml:space="preserve" font-family="Helvetica-Light" font-size="20.0" fill="#000000" transform="matrix(1.00, 0.00, -0.00, -1.00, 542.1, 568.0)">o</text><text xml:space="preserve" font-family="Helvetica-Light" font-size="20.0" fill="#000000" transform="matrix(1.00, 0.00, -0.00, -1.00, 553.2, 568.0)">n</text></g></g><g><clipPath id="clip-10199"><path d="M 358.6 135.8 L 631.4 135.8 L 631.4 215.8 L 358.6 215.8 Z M 358.6 135.8 "></path></clipPath><g clip-path="url(#clip-10199)"><path d="M 360.6 149.8 L 360.6 201.9 C 360.6 208.5 366.0 213.8 372.5 213.8 L 617.5 213.8 C 624.0 213.8 629.4 208.5 629.4 201.9 L 629.4 149.8 C 629.4 143.2 624.0 137.8 617.5 137.8 L 372.5 137.8 C 366.0 137.8 360.6 143.2 360.6 149.8 Z M 360.6 149.8 " fill="#A4DAAD"></path><path d="M 0.0 64.1 L 0.0 11.9 C 0.0 5.3 5.3 0.0 11.9 0.0 L 256.8 0.0 C 263.4 0.0 268.8 5.3 268.8 11.9 L 268.8 64.1 C 268.8 70.7 263.4 76.0 256.8 76.0 L 11.9 76.0 C 5.3 76.0 0.0 70.7 0.0 64.1 Z M 0.0 64.1 " fill="none" stroke="#85878C" stroke-width="2.00" transform="matrix(1.00, 0.00, 0.00, -1.00, 360.6, 213.8)"></path></g></g><g><clipPath id="clip-10200"><path d="M 383.5 150.6 L 606.5 150.6 L 606.5 201.1 L 383.5 201.1 Z M 383.5 150.6 "></path></clipPath><g clip-path="url(#clip-10200)"><path d="M 385.5 199.1 L 604.5 199.1 L 604.5 152.6 L 385.5 152.6 Z M 385.5 199.1 " fill="#FEFFFF"></path><path d="M 0.0 0.0 L 219.1 0.0 L 219.1 46.4 L 0.0 46.4 Z M 0.0 0.0 " fill="none" stroke="#85878C" stroke-width="2.00" transform="matrix(1.00, 0.00, 0.00, -1.00, 385.5, 199.1)"></path></g></g><g><clipPath id="clip-10201"><path d="M 383.6 153.6 L 606.4 153.6 L 606.4 198.1 L 383.6 198.1 Z M 383.6 153.6 "></path></clipPath><g clip-path="url(#clip-10201)"><text xml:space="preserve" font-family="Helvetica-Light" font-size="20.0" fill="#000000" transform="matrix(1.00, 0.00, -0.00, -1.00, 431.0, 169.0)">2</text><text xml:space="preserve" font-family="Helvetica-Light" font-size="20.0" fill="#000000" transform="matrix(1.00, 0.00, -0.00, -1.00, 442.1, 169.0)">.</text><text xml:space="preserve" font-family="Helvetica-Light" font-size="20.0" fill="#000000" transform="matrix(1.00, 0.00, -0.00, -1.00, 447.7, 169.0)">5</text><text xml:space="preserve" font-family="Helvetica-Light" font-size="20.0" fill="#000000" transform="matrix(1.00, 0.00, -0.00, -1.00, 458.8, 169.0)">.</text><text xml:space="preserve" font-family="Helvetica-Light" font-size="20.0" fill="#000000" transform="matrix(1.00, 0.00, -0.00, -1.00, 464.4, 169.0)"> </text><text xml:space="preserve" font-family="Helvetica-Light" font-size="20.0" fill="#000000" transform="matrix(1.00, 0.00, -0.00, -1.00, 469.9, 169.0)">R</text><text xml:space="preserve" font-family="Helvetica-Light" font-size="20.0" fill="#000000" transform="matrix(1.00, 0.00, -0.00, -1.00, 483.3, 169.0)">e</text><text xml:space="preserve" font-family="Helvetica-Light" font-size="20.0" fill="#000000" transform="matrix(1.00, 0.00, -0.00, -1.00, 494.4, 169.0)">p</text><text xml:space="preserve" font-family="Helvetica-Light" font-size="20.0" fill="#000000" transform="matrix(1.00, 0.00, -0.00, -1.00, 506.6, 169.0)">o</text><text xml:space="preserve" font-family="Helvetica-Light" font-size="20.0" fill="#000000" transform="matrix(1.00, 0.00, -0.00, -1.00, 517.7, 169.0)">r</text><text xml:space="preserve" font-family="Helvetica-Light" font-size="20.0" fill="#000000" transform="matrix(1.00, 0.00, -0.00, -1.00, 524.7, 169.0)">t</text><text xml:space="preserve" font-family="Helvetica-Light" font-size="20.0" fill="#000000" transform="matrix(1.00, 0.00, -0.00, -1.00, 530.3, 169.0)">i</text><text xml:space="preserve" font-family="Helvetica-Light" font-size="20.0" fill="#000000" transform="matrix(1.00, 0.00, -0.00, -1.00, 534.7, 169.0)">n</text><text xml:space="preserve" font-family="Helvetica-Light" font-size="20.0" fill="#000000" transform="matrix(1.00, 0.00, -0.00, -1.00, 545.9, 169.0)">g</text></g></g><g><clipPath id="clip-10202"><path d="M 704.6 382.3 L 977.4 382.3 L 977.4 462.3 L 704.6 462.3 Z M 704.6 382.3 "></path></clipPath><g clip-path="url(#clip-10202)"><path d="M 706.6 396.2 L 706.6 448.4 C 706.6 455.0 712.0 460.3 718.5 460.3 L 963.5 460.3 C 970.0 460.3 975.4 455.0 975.4 448.4 L 975.4 396.2 C 975.4 389.6 970.0 384.3 963.5 384.3 L 718.5 384.3 C 712.0 384.3 706.6 389.6 706.6 396.2 Z M 706.6 396.2 " fill="#7BC8C5"></path><path d="M 0.0 64.1 L 0.0 11.9 C 0.0 5.3 5.3 0.0 11.9 0.0 L 256.8 0.0 C 263.4 0.0 268.8 5.3 268.8 11.9 L 268.8 64.1 C 268.8 70.7 263.4 76.0 256.8 76.0 L 11.9 76.0 C 5.3 76.0 0.0 70.7 0.0 64.1 Z M 0.0 64.1 " fill="none" stroke="#85878C" stroke-width="2.00" transform="matrix(1.00, 0.00, 0.00, -1.00, 706.6, 460.3)"></path></g></g><g><clipPath id="clip-10203"><path d="M 729.5 397.1 L 952.5 397.1 L 952.5 447.5 L 729.5 447.5 Z M 729.5 397.1 "></path></clipPath><g clip-path="url(#clip-10203)"><path d="M 731.5 445.5 L 950.5 445.5 L 950.5 399.1 L 731.5 399.1 Z M 731.5 445.5 " fill="#FEFFFF"></path><path d="M 0.0 0.0 L 219.1 0.0 L 219.1 46.4 L 0.0 46.4 Z M 0.0 0.0 " fill="none" stroke="#85878C" stroke-width="2.00" transform="matrix(1.00, 0.00, 0.00, -1.00, 731.5, 445.5)"></path></g></g><g><clipPath id="clip-10204"><path d="M 730.1 400.1 L 951.9 400.1 L 951.9 444.5 L 730.1 444.5 Z M 730.1 400.1 "></path></clipPath><g clip-path="url(#clip-10204)"><text xml:space="preserve" font-family="Helvetica-Light" font-size="18.0" fill="#000000" transform="matrix(1.00, 0.00, -0.00, -1.00, 756.0, 416.0)">R</text><text xml:space="preserve" font-family="Helvetica-Light" font-size="18.0" fill="#000000" transform="matrix(1.00, 0.00, -0.00, -1.00, 768.0, 416.0)">e</text><text xml:space="preserve" font-family="Helvetica-Light" font-size="18.0" fill="#000000" transform="matrix(1.00, 0.00, -0.00, -1.00, 778.0, 416.0)">c</text><text xml:space="preserve" font-family="Helvetica-Light" font-size="18.0" fill="#000000" transform="matrix(1.00, 0.00, -0.00, -1.00, 788.0, 416.0)">e</text><text xml:space="preserve" font-family="Helvetica-Light" font-size="18.0" fill="#000000" transform="matrix(1.00, 0.00, -0.00, -1.00, 798.0, 416.0)">i</text><text xml:space="preserve" font-family="Helvetica-Light" font-size="18.0" fill="#000000" transform="matrix(1.00, 0.00, -0.00, -1.00, 802.0, 416.0)">v</text><text xml:space="preserve" font-family="Helvetica-Light" font-size="18.0" fill="#000000" transform="matrix(1.00, 0.00, -0.00, -1.00, 811.0, 416.0)">e</text><text xml:space="preserve" font-family="Helvetica-Light" font-size="18.0" fill="#000000" transform="matrix(1.00, 0.00, -0.00, -1.00, 821.0, 416.0)"> </text><text xml:space="preserve" font-family="Helvetica-Light" font-size="18.0" fill="#000000" transform="matrix(1.00, 0.00, -0.00, -1.00, 826.0, 416.0)">N</text><text xml:space="preserve" font-family="Helvetica-Light" font-size="18.0" fill="#000000" transform="matrix(1.00, 0.00, -0.00, -1.00, 839.0, 416.0)">o</text><text xml:space="preserve" font-family="Helvetica-Light" font-size="18.0" fill="#000000" transform="matrix(1.00, 0.00, -0.00, -1.00, 849.0, 416.0)">t</text><text xml:space="preserve" font-family="Helvetica-Light" font-size="18.0" fill="#000000" transform="matrix(1.00, 0.00, -0.00, -1.00, 854.0, 416.0)">i</text><text xml:space="preserve" font-family="Helvetica-Light" font-size="18.0" fill="#000000" transform="matrix(1.00, 0.00, -0.00, -1.00, 858.0, 416.0)">ﬁ</text><text xml:space="preserve" font-family="Helvetica-Light" font-size="18.0" fill="#000000" transform="matrix(1.00, 0.00, -0.00, -1.00, 867.0, 416.0)">c</text><text xml:space="preserve" font-family="Helvetica-Light" font-size="18.0" fill="#000000" transform="matrix(1.00, 0.00, -0.00, -1.00, 877.0, 416.0)">a</text><text xml:space="preserve" font-family="Helvetica-Light" font-size="18.0" fill="#000000" transform="matrix(1.00, 0.00, -0.00, -1.00, 887.1, 416.0)">t</text><text xml:space="preserve" font-family="Helvetica-Light" font-size="18.0" fill="#000000" transform="matrix(1.00, 0.00, -0.00, -1.00, 892.1, 416.0)">i</text><text xml:space="preserve" font-family="Helvetica-Light" font-size="18.0" fill="#000000" transform="matrix(1.00, 0.00, -0.00, -1.00, 896.1, 416.0)">o</text><text xml:space="preserve" font-family="Helvetica-Light" font-size="18.0" fill="#000000" transform="matrix(1.00, 0.00, -0.00, -1.00, 906.1, 416.0)">n</text><text xml:space="preserve" font-family="Helvetica-Light" font-size="18.0" fill="#000000" transform="matrix(1.00, 0.00, -0.00, -1.00, 916.1, 416.0)">s</text></g></g><g><clipPath id="clip-10205"><path d="M 704.6 284.5 L 977.4 284.5 L 977.4 364.5 L 704.6 364.5 Z M 704.6 284.5 "></path></clipPath><g clip-path="url(#clip-10205)"><path d="M 706.6 298.4 L 706.6 350.6 C 706.6 357.1 712.0 362.5 718.5 362.5 L 963.5 362.5 C 970.0 362.5 975.4 357.1 975.4 350.6 L 975.4 298.4 C 975.4 291.8 970.0 286.5 963.5 286.5 L 718.5 286.5 C 712.0 286.5 706.6 291.8 706.6 298.4 Z M 706.6 298.4 " fill="#7BC8C5"></path><path d="M 0.0 64.1 L 0.0 11.9 C 0.0 5.3 5.3 0.0 11.9 0.0 L 256.8 0.0 C 263.4 0.0 268.8 5.3 268.8 11.9 L 268.8 64.1 C 268.8 70.7 263.4 76.0 256.8 76.0 L 11.9 76.0 C 5.3 76.0 0.0 70.7 0.0 64.1 Z M 0.0 64.1 " fill="none" stroke="#85878C" stroke-width="2.00" transform="matrix(1.00, 0.00, 0.00, -1.00, 706.6, 362.5)"></path></g></g><g><clipPath id="clip-10206"><path d="M 729.5 299.3 L 952.5 299.3 L 952.5 349.7 L 729.5 349.7 Z M 729.5 299.3 "></path></clipPath><g clip-path="url(#clip-10206)"><path d="M 731.5 347.7 L 950.5 347.7 L 950.5 301.3 L 731.5 301.3 Z M 731.5 347.7 " fill="#FEFFFF"></path><path d="M 0.0 0.0 L 219.1 0.0 L 219.1 46.4 L 0.0 46.4 Z M 0.0 0.0 " fill="none" stroke="#85878C" stroke-width="2.00" transform="matrix(1.00, 0.00, 0.00, -1.00, 731.5, 347.7)"></path></g></g><g><clipPath id="clip-10207"><path d="M 730.1 302.3 L 951.9 302.3 L 951.9 346.7 L 730.1 346.7 Z M 730.1 302.3 "></path></clipPath><g clip-path="url(#clip-10207)"><text xml:space="preserve" font-family="Helvetica-Light" font-size="18.0" fill="#000000" transform="matrix(1.00, 0.00, -0.00, -1.00, 752.0, 318.0)">R</text><text xml:space="preserve" font-family="Helvetica-Light" font-size="18.0" fill="#000000" transform="matrix(1.00, 0.00, -0.00, -1.00, 764.0, 318.0)">e</text><text xml:space="preserve" font-family="Helvetica-Light" font-size="18.0" fill="#000000" transform="matrix(1.00, 0.00, -0.00, -1.00, 774.0, 318.0)">s</text><text xml:space="preserve" font-family="Helvetica-Light" font-size="18.0" fill="#000000" transform="matrix(1.00, 0.00, -0.00, -1.00, 783.0, 318.0)">p</text><text xml:space="preserve" font-family="Helvetica-Light" font-size="18.0" fill="#000000" transform="matrix(1.00, 0.00, -0.00, -1.00, 794.0, 318.0)">o</text><text xml:space="preserve" font-family="Helvetica-Light" font-size="18.0" fill="#000000" transform="matrix(1.00, 0.00, -0.00, -1.00, 804.0, 318.0)">n</text><text xml:space="preserve" font-family="Helvetica-Light" font-size="18.0" fill="#000000" transform="matrix(1.00, 0.00, -0.00, -1.00, 814.0, 318.0)">d</text><text xml:space="preserve" font-family="Helvetica-Light" font-size="18.0" fill="#000000" transform="matrix(1.00, 0.00, -0.00, -1.00, 825.0, 318.0)"> </text><text xml:space="preserve" font-family="Helvetica-Light" font-size="18.0" fill="#000000" transform="matrix(1.00, 0.00, -0.00, -1.00, 830.0, 318.0)">N</text><text xml:space="preserve" font-family="Helvetica-Light" font-size="18.0" fill="#000000" transform="matrix(1.00, 0.00, -0.00, -1.00, 843.0, 318.0)">o</text><text xml:space="preserve" font-family="Helvetica-Light" font-size="18.0" fill="#000000" transform="matrix(1.00, 0.00, -0.00, -1.00, 853.0, 318.0)">t</text><text xml:space="preserve" font-family="Helvetica-Light" font-size="18.0" fill="#000000" transform="matrix(1.00, 0.00, -0.00, -1.00, 858.0, 318.0)">i</text><text xml:space="preserve" font-family="Helvetica-Light" font-size="18.0" fill="#000000" transform="matrix(1.00, 0.00, -0.00, -1.00, 862.0, 318.0)">ﬁ</text><text xml:space="preserve" font-family="Helvetica-Light" font-size="18.0" fill="#000000" transform="matrix(1.00, 0.00, -0.00, -1.00, 871.0, 318.0)">c</text><text xml:space="preserve" font-family="Helvetica-Light" font-size="18.0" fill="#000000" transform="matrix(1.00, 0.00, -0.00, -1.00, 881.0, 318.0)">a</text><text xml:space="preserve" font-family="Helvetica-Light" font-size="18.0" fill="#000000" transform="matrix(1.00, 0.00, -0.00, -1.00, 891.0, 318.0)">t</text><text xml:space="preserve" font-family="Helvetica-Light" font-size="18.0" fill="#000000" transform="matrix(1.00, 0.00, -0.00, -1.00, 896.1, 318.0)">i</text><text xml:space="preserve" font-family="Helvetica-Light" font-size="18.0" fill="#000000" transform="matrix(1.00, 0.00, -0.00, -1.00, 900.0, 318.0)">o</text><text xml:space="preserve" font-family="Helvetica-Light" font-size="18.0" fill="#000000" transform="matrix(1.00, 0.00, -0.00, -1.00, 910.1, 318.0)">n</text><text xml:space="preserve" font-family="Helvetica-Light" font-size="18.0" fill="#000000" transform="matrix(1.00, 0.00, -0.00, -1.00, 920.1, 318.0)">s</text></g></g><g><clipPath id="clip-10208"><path d="M 358.6 35.9 L 631.4 35.9 L 631.4 115.9 L 358.6 115.9 Z M 358.6 35.9 "></path></clipPath><g clip-path="url(#clip-10208)"><path d="M 360.6 49.8 L 360.6 102.0 C 360.6 108.6 366.0 113.9 372.5 113.9 L 617.5 113.9 C 624.0 113.9 629.4 108.6 629.4 102.0 L 629.4 49.8 C 629.4 43.2 624.0 37.9 617.5 37.9 L 372.5 37.9 C 366.0 37.9 360.6 43.2 360.6 49.8 Z M 360.6 49.8 " fill="#A4DAAD"></path><path d="M 0.0 64.1 L 0.0 11.9 C 0.0 5.3 5.3 0.0 11.9 0.0 L 256.8 0.0 C 263.4 0.0 268.8 5.3 268.8 11.9 L 268.8 64.1 C 268.8 70.7 263.4 76.0 256.8 76.0 L 11.9 76.0 C 5.3 76.0 0.0 70.7 0.0 64.1 Z M 0.0 64.1 " fill="none" stroke="#85878C" stroke-width="2.00" transform="matrix(1.00, 0.00, 0.00, -1.00, 360.6, 113.9)"></path></g></g><g><clipPath id="clip-10209"><path d="M 383.5 50.7 L 606.5 50.7 L 606.5 101.1 L 383.5 101.1 Z M 383.5 50.7 "></path></clipPath><g clip-path="url(#clip-10209)"><path d="M 385.5 99.1 L 604.5 99.1 L 604.5 52.7 L 385.5 52.7 Z M 385.5 99.1 " fill="#FEFFFF"></path><path d="M 0.0 0.0 L 219.1 0.0 L 219.1 46.4 L 0.0 46.4 Z M 0.0 0.0 " fill="none" stroke="#85878C" stroke-width="2.00" transform="matrix(1.00, 0.00, 0.00, -1.00, 385.5, 99.1)"></path></g></g><g><clipPath id="clip-10210"><path d="M 383.6 53.7 L 606.4 53.7 L 606.4 98.1 L 383.6 98.1 Z M 383.6 53.7 "></path></clipPath><g clip-path="url(#clip-10210)"><text xml:space="preserve" font-family="Helvetica-Light" font-size="20.0" fill="#000000" transform="matrix(1.00, 0.00, -0.00, -1.00, 438.0, 69.0)">2</text><text xml:space="preserve" font-family="Helvetica-Light" font-size="20.0" fill="#000000" transform="matrix(1.00, 0.00, -0.00, -1.00, 449.1, 69.0)">.</text><text xml:space="preserve" font-family="Helvetica-Light" font-size="20.0" fill="#000000" transform="matrix(1.00, 0.00, -0.00, -1.00, 454.7, 69.0)">6</text><text xml:space="preserve" font-family="Helvetica-Light" font-size="20.0" fill="#000000" transform="matrix(1.00, 0.00, -0.00, -1.00, 465.8, 69.0)">.</text><text xml:space="preserve" font-family="Helvetica-Light" font-size="20.0" fill="#000000" transform="matrix(1.00, 0.00, -0.00, -1.00, 471.4, 69.0)"> </text><text xml:space="preserve" font-family="Helvetica-Light" font-size="20.0" fill="#000000" transform="matrix(1.00, 0.00, -0.00, -1.00, 476.9, 69.0)">A</text><text xml:space="preserve" font-family="Helvetica-Light" font-size="20.0" fill="#000000" transform="matrix(1.00, 0.00, -0.00, -1.00, 490.3, 69.0)">p</text><text xml:space="preserve" font-family="Helvetica-Light" font-size="20.0" fill="#000000" transform="matrix(1.00, 0.00, -0.00, -1.00, 502.5, 69.0)">p</text><text xml:space="preserve" font-family="Helvetica-Light" font-size="20.0" fill="#000000" transform="matrix(1.00, 0.00, -0.00, -1.00, 514.7, 69.0)">e</text><text xml:space="preserve" font-family="Helvetica-Light" font-size="20.0" fill="#000000" transform="matrix(1.00, 0.00, -0.00, -1.00, 525.8, 69.0)">a</text><text xml:space="preserve" font-family="Helvetica-Light" font-size="20.0" fill="#000000" transform="matrix(1.00, 0.00, -0.00, -1.00, 536.9, 69.0)">l</text><text xml:space="preserve" font-family="Helvetica-Light" font-size="20.0" fill="#000000" transform="matrix(1.00, 0.00, -0.00, -1.00, 541.4, 69.0)">s</text></g></g><g><clipPath id="clip-10211"><path d="M 629.6 375.7 L 704.4 418.3 L 706.4 414.8 L 631.6 372.2 Z M 629.6 375.7 "></path></clipPath><g clip-path="url(#clip-10211)"><path d="M 0.0 0.0 L 84.0 0.0 " fill="none" stroke="#000000" stroke-width="2.00" transform="matrix(0.87, 0.50, 0.50, -0.87, 631.5, 374.4)"></path></g></g><g><clipPath id="clip-10212"><path d="M 631.7 376.7 L 706.4 331.9 L 704.3 328.5 L 629.6 373.2 Z M 631.7 376.7 "></path></clipPath><g clip-path="url(#clip-10212)"><path d="M 0.0 0.0 L 85.1 0.0 " fill="none" stroke="#000000" stroke-width="2.00" transform="matrix(0.86, -0.51, -0.51, -0.86, 631.5, 374.4)"></path></g></g></g></svg>