<?xml version="1.0" encoding="UTF-8" standalone="no"?><svg xmlns="http://www.w3.org/2000/svg" xmlns:xlink="http://www.w3.org/1999/xlink" clip-rule="evenodd" stroke-miterlimit="4.00" viewBox="0 0 1024 768"><desc>SVG generated by Keynote</desc><defs></defs><g transform="matrix(1.00, 0.00, -0.00, -1.00, 0.0, 768.0)"><path d="M 0.0 768.0 L 1024.0 768.0 L 1024.0 0.0 L 0.0 0.0 Z M 0.0 768.0 " fill="#FEFFFF"></path><path d="M 51.2 716.6 L 902.3 716.6 L 902.3 51.6 L 51.2 51.6 Z M 51.2 716.6 " fill="#58AFDC"></path><path d="M 920.5 532.5 L 972.4 532.5 L 972.4 51.6 L 920.5 51.6 Z M 920.5 532.5 " fill="#58AFDC"></path><path d="M 920.5 716.7 L 972.4 716.7 L 972.4 550.5 L 920.5 550.5 Z M 920.5 716.7 " fill="#94DBFE"></path><text xml:space="preserve" font-family="HelveticaNeue-Light" font-size="49.0" fill="#94DBFE" transform="matrix(1.00, 0.00, -0.00, -1.00, 104.0, 605.0)">C</text><text xml:space="preserve" font-family="HelveticaNeue-Light" font-size="49.0" fill="#94DBFE" transform="matrix(1.00, 0.00, -0.00, -1.00, 138.5, 605.0)">o</text><text xml:space="preserve" font-family="HelveticaNeue-Light" font-size="49.0" fill="#94DBFE" transform="matrix(1.00, 0.00, -0.00, -1.00, 165.7, 605.0)">n</text><text xml:space="preserve" font-family="HelveticaNeue-Light" font-size="49.0" fill="#94DBFE" transform="matrix(1.00, 0.00, -0.00, -1.00, 192.0, 605.0)">c</text><text xml:space="preserve" font-family="HelveticaNeue-Light" font-size="49.0" fill="#94DBFE" transform="matrix(1.00, 0.00, -0.00, -1.00, 217.4, 605.0)">e</text><text xml:space="preserve" font-family="HelveticaNeue-Light" font-size="49.0" fill="#94DBFE" transform="matrix(1.00, 0.00, -0.00, -1.00, 242.8, 605.0)">p</text><text xml:space="preserve" font-family="HelveticaNeue-Light" font-size="49.0" fill="#94DBFE" transform="matrix(1.00, 0.00, -0.00, -1.00, 270.9, 605.0)">t</text><text xml:space="preserve" font-family="HelveticaNeue-Light" font-size="49.0" fill="#94DBFE" transform="matrix(1.00, 0.00, -0.00, -1.00, 285.4, 605.0)"> </text><text xml:space="preserve" font-family="HelveticaNeue-Light" font-size="46.5" fill="#FFFFFF" transform="matrix(1.00, 0.00, -0.00, -1.00, 104.0, 502.0)">A</text><text xml:space="preserve" font-family="HelveticaNeue-Light" font-size="46.5" fill="#FFFFFF" transform="matrix(1.00, 0.00, -0.00, -1.00, 133.3, 502.0)"> </text><text xml:space="preserve" font-family="HelveticaNeue-Light" font-size="46.5" fill="#FFFFFF" transform="matrix(1.00, 0.00, -0.00, -1.00, 146.2, 502.0)">c</text><text xml:space="preserve" font-family="HelveticaNeue-Light" font-size="46.5" fill="#FFFFFF" transform="matrix(1.00, 0.00, -0.00, -1.00, 170.3, 502.0)">o</text><text xml:space="preserve" font-family="HelveticaNeue-Light" font-size="46.5" fill="#FFFFFF" transform="matrix(1.00, 0.00, -0.00, -1.00, 196.2, 502.0)">s</text><text xml:space="preserve" font-family="HelveticaNeue-Light" font-size="46.5" fill="#FFFFFF" transform="matrix(1.00, 0.00, -0.00, -1.00, 218.5, 502.0)">t</text><text xml:space="preserve" font-family="HelveticaNeue-Light" font-size="46.5" fill="#FFFFFF" transform="matrix(1.00, 0.00, -0.00, -1.00, 232.3, 502.0)"> </text><text xml:space="preserve" font-family="HelveticaNeue-Light" font-size="46.5" fill="#FFFFFF" transform="matrix(1.00, 0.00, -0.00, -1.00, 245.2, 502.0)">e</text><text xml:space="preserve" font-family="HelveticaNeue-Light" font-size="46.5" fill="#FFFFFF" transform="matrix(1.00, 0.00, -0.00, -1.00, 269.3, 502.0)">f</text><text xml:space="preserve" font-family="HelveticaNeue-Light" font-size="46.5" fill="#FFFFFF" transform="matrix(1.00, 0.00, -0.00, -1.00, 280.5, 502.0)">f</text><text xml:space="preserve" font-family="HelveticaNeue-Light" font-size="46.5" fill="#FFFFFF" transform="matrix(1.00, 0.00, -0.00, -1.00, 292.6, 502.0)">e</text><text xml:space="preserve" font-family="HelveticaNeue-Light" font-size="46.5" fill="#FFFFFF" transform="matrix(1.00, 0.00, -0.00, -1.00, 316.7, 502.0)">c</text><text xml:space="preserve" font-family="HelveticaNeue-Light" font-size="46.5" fill="#FFFFFF" transform="matrix(1.00, 0.00, -0.00, -1.00, 340.8, 502.0)">t</text><text xml:space="preserve" font-family="HelveticaNeue-Light" font-size="46.5" fill="#FFFFFF" transform="matrix(1.00, 0.00, -0.00, -1.00, 354.6, 502.0)">i</text><text xml:space="preserve" font-family="HelveticaNeue-Light" font-size="46.5" fill="#FFFFFF" transform="matrix(1.00, 0.00, -0.00, -1.00, 363.2, 502.0)">v</text><text xml:space="preserve" font-family="HelveticaNeue-Light" font-size="46.5" fill="#FFFFFF" transform="matrix(1.00, 0.00, -0.00, -1.00, 384.7, 502.0)">e</text><text xml:space="preserve" font-family="HelveticaNeue-Light" font-size="46.5" fill="#FFFFFF" transform="matrix(1.00, 0.00, -0.00, -1.00, 408.8, 502.0)"> </text><text xml:space="preserve" font-family="HelveticaNeue-Light" font-size="46.5" fill="#FFFFFF" transform="matrix(1.00, 0.00, -0.00, -1.00, 421.7, 502.0)">m</text><text xml:space="preserve" font-family="HelveticaNeue-Light" font-size="46.5" fill="#FFFFFF" transform="matrix(1.00, 0.00, -0.00, -1.00, 460.5, 502.0)">o</text><text xml:space="preserve" font-family="HelveticaNeue-Light" font-size="46.5" fill="#FFFFFF" transform="matrix(1.00, 0.00, -0.00, -1.00, 486.3, 502.0)">n</text><text xml:space="preserve" font-family="HelveticaNeue-Light" font-size="46.5" fill="#FFFFFF" transform="matrix(1.00, 0.00, -0.00, -1.00, 511.3, 502.0)">i</text><text xml:space="preserve" font-family="HelveticaNeue-Light" font-size="46.5" fill="#FFFFFF" transform="matrix(1.00, 0.00, -0.00, -1.00, 519.9, 502.0)">t</text><text xml:space="preserve" font-family="HelveticaNeue-Light" font-size="46.5" fill="#FFFFFF" transform="matrix(1.00, 0.00, -0.00, -1.00, 533.6, 502.0)">o</text><text xml:space="preserve" font-family="HelveticaNeue-Light" font-size="46.5" fill="#FFFFFF" transform="matrix(1.00, 0.00, -0.00, -1.00, 559.5, 502.0)">r</text><text xml:space="preserve" font-family="HelveticaNeue-Light" font-size="46.5" fill="#FFFFFF" transform="matrix(1.00, 0.00, -0.00, -1.00, 574.1, 502.0)">i</text><text xml:space="preserve" font-family="HelveticaNeue-Light" font-size="46.5" fill="#FFFFFF" transform="matrix(1.00, 0.00, -0.00, -1.00, 582.7, 502.0)">n</text><text xml:space="preserve" font-family="HelveticaNeue-Light" font-size="46.5" fill="#FFFFFF" transform="matrix(1.00, 0.00, -0.00, -1.00, 607.7, 502.0)">g</text><text xml:space="preserve" font-family="HelveticaNeue-Light" font-size="46.5" fill="#FFFFFF" transform="matrix(1.00, 0.00, -0.00, -1.00, 633.5, 502.0)"> </text><text xml:space="preserve" font-family="HelveticaNeue-Light" font-size="46.5" fill="#FFFFFF" transform="matrix(1.00, 0.00, -0.00, -1.00, 104.0, 451.0)">s</text><text xml:space="preserve" font-family="HelveticaNeue-Light" font-size="46.5" fill="#FFFFFF" transform="matrix(1.00, 0.00, -0.00, -1.00, 126.4, 451.0)">y</text><text xml:space="preserve" font-family="HelveticaNeue-Light" font-size="46.5" fill="#FFFFFF" transform="matrix(1.00, 0.00, -0.00, -1.00, 147.9, 451.0)">s</text><text xml:space="preserve" font-family="HelveticaNeue-Light" font-size="46.5" fill="#FFFFFF" transform="matrix(1.00, 0.00, -0.00, -1.00, 170.2, 451.0)">t</text><text xml:space="preserve" font-family="HelveticaNeue-Light" font-size="46.5" fill="#FFFFFF" transform="matrix(1.00, 0.00, -0.00, -1.00, 184.0, 451.0)">e</text><text xml:space="preserve" font-family="HelveticaNeue-Light" font-size="46.5" fill="#FFFFFF" transform="matrix(1.00, 0.00, -0.00, -1.00, 208.1, 451.0)">m</text><text xml:space="preserve" font-family="HelveticaNeue-Light" font-size="46.5" fill="#FFFFFF" transform="matrix(1.00, 0.00, -0.00, -1.00, 246.8, 451.0)"> </text><text xml:space="preserve" font-family="HelveticaNeue-Light" font-size="46.5" fill="#FFFFFF" transform="matrix(1.00, 0.00, -0.00, -1.00, 259.8, 451.0)">f</text><text xml:space="preserve" font-family="HelveticaNeue-Light" font-size="46.5" fill="#FFFFFF" transform="matrix(1.00, 0.00, -0.00, -1.00, 271.8, 451.0)">o</text><text xml:space="preserve" font-family="HelveticaNeue-Light" font-size="46.5" fill="#FFFFFF" transform="matrix(1.00, 0.00, -0.00, -1.00, 297.6, 451.0)">r</text><text xml:space="preserve" font-family="HelveticaNeue-Light" font-size="46.5" fill="#FFFFFF" transform="matrix(1.00, 0.00, -0.00, -1.00, 312.3, 451.0)"> </text><text xml:space="preserve" font-family="HelveticaNeue-Light" font-size="46.5" fill="#FFFFFF" transform="matrix(1.00, 0.00, -0.00, -1.00, 325.2, 451.0)">s</text><text xml:space="preserve" font-family="HelveticaNeue-Light" font-size="46.5" fill="#FFFFFF" transform="matrix(1.00, 0.00, -0.00, -1.00, 347.6, 451.0)">c</text><text xml:space="preserve" font-family="HelveticaNeue-Light" font-size="46.5" fill="#FFFFFF" transform="matrix(1.00, 0.00, -0.00, -1.00, 371.7, 451.0)">i</text><text xml:space="preserve" font-family="HelveticaNeue-Light" font-size="46.5" fill="#FFFFFF" transform="matrix(1.00, 0.00, -0.00, -1.00, 380.3, 451.0)">e</text><text xml:space="preserve" font-family="HelveticaNeue-Light" font-size="46.5" fill="#FFFFFF" transform="matrix(1.00, 0.00, -0.00, -1.00, 404.4, 451.0)">n</text><text xml:space="preserve" font-family="HelveticaNeue-Light" font-size="46.5" fill="#FFFFFF" transform="matrix(1.00, 0.00, -0.00, -1.00, 429.4, 451.0)">t</text><text xml:space="preserve" font-family="HelveticaNeue-Light" font-size="46.5" fill="#FFFFFF" transform="matrix(1.00, 0.00, -0.00, -1.00, 443.1, 451.0)">i</text><text xml:space="preserve" font-family="HelveticaNeue-Light" font-size="46.5" fill="#FFFFFF" transform="matrix(1.00, 0.00, -0.00, -1.00, 451.7, 451.0)">ï¬</text><text xml:space="preserve" font-family="HelveticaNeue-Light" font-size="46.5" fill="#FFFFFF" transform="matrix(1.00, 0.00, -0.00, -1.00, 472.4, 451.0)">c</text><text xml:space="preserve" font-family="HelveticaNeue-Light" font-size="46.5" fill="#FFFFFF" transform="matrix(1.00, 0.00, -0.00, -1.00, 496.5, 451.0)"> </text><text xml:space="preserve" font-family="HelveticaNeue-Light" font-size="46.5" fill="#FFFFFF" transform="matrix(1.00, 0.00, -0.00, -1.00, 509.4, 451.0)">p</text><text xml:space="preserve" font-family="HelveticaNeue-Light" font-size="46.5" fill="#FFFFFF" transform="matrix(1.00, 0.00, -0.00, -1.00, 536.1, 451.0)">u</text><text xml:space="preserve" font-family="HelveticaNeue-Light" font-size="46.5" fill="#FFFFFF" transform="matrix(1.00, 0.00, -0.00, -1.00, 561.0, 451.0)">b</text><text xml:space="preserve" font-family="HelveticaNeue-Light" font-size="46.5" fill="#FFFFFF" transform="matrix(1.00, 0.00, -0.00, -1.00, 587.7, 451.0)">l</text><text xml:space="preserve" font-family="HelveticaNeue-Light" font-size="46.5" fill="#FFFFFF" transform="matrix(1.00, 0.00, -0.00, -1.00, 596.3, 451.0)">i</text><text xml:space="preserve" font-family="HelveticaNeue-Light" font-size="46.5" fill="#FFFFFF" transform="matrix(1.00, 0.00, -0.00, -1.00, 604.9, 451.0)">c</text><text xml:space="preserve" font-family="HelveticaNeue-Light" font-size="46.5" fill="#FFFFFF" transform="matrix(1.00, 0.00, -0.00, -1.00, 629.0, 451.0)">a</text><text xml:space="preserve" font-family="HelveticaNeue-Light" font-size="46.5" fill="#FFFFFF" transform="matrix(1.00, 0.00, -0.00, -1.00, 653.2, 451.0)">t</text><text xml:space="preserve" font-family="HelveticaNeue-Light" font-size="46.5" fill="#FFFFFF" transform="matrix(1.00, 0.00, -0.00, -1.00, 666.9, 451.0)">i</text><text xml:space="preserve" font-family="HelveticaNeue-Light" font-size="46.5" fill="#FFFFFF" transform="matrix(1.00, 0.00, -0.00, -1.00, 675.5, 451.0)">o</text><text xml:space="preserve" font-family="HelveticaNeue-Light" font-size="46.5" fill="#FFFFFF" transform="matrix(1.00, 0.00, -0.00, -1.00, 701.4, 451.0)">n</text><text xml:space="preserve" font-family="HelveticaNeue-Light" font-size="46.5" fill="#FFFFFF" transform="matrix(1.00, 0.00, -0.00, -1.00, 726.3, 451.0)">s</text><text xml:space="preserve" font-family="HelveticaNeue-Light" font-size="46.5" fill="#FFFFFF" transform="matrix(1.00, 0.00, -0.00, -1.00, 748.7, 451.0)">,</text><text xml:space="preserve" font-family="HelveticaNeue-Light" font-size="46.5" fill="#FFFFFF" transform="matrix(1.00, 0.00, -0.00, -1.00, 761.6, 451.0)"> </text><text xml:space="preserve" font-family="HelveticaNeue-Light" font-size="46.5" fill="#FFFFFF" transform="matrix(1.00, 0.00, -0.00, -1.00, 104.0, 401.0)">p</text><text xml:space="preserve" font-family="HelveticaNeue-Light" font-size="46.5" fill="#FFFFFF" transform="matrix(1.00, 0.00, -0.00, -1.00, 130.7, 401.0)">a</text><text xml:space="preserve" font-family="HelveticaNeue-Light" font-size="46.5" fill="#FFFFFF" transform="matrix(1.00, 0.00, -0.00, -1.00, 154.8, 401.0)">t</text><text xml:space="preserve" font-family="HelveticaNeue-Light" font-size="46.5" fill="#FFFFFF" transform="matrix(1.00, 0.00, -0.00, -1.00, 168.6, 401.0)">e</text><text xml:space="preserve" font-family="HelveticaNeue-Light" font-size="46.5" fill="#FFFFFF" transform="matrix(1.00, 0.00, -0.00, -1.00, 192.7, 401.0)">n</text><text xml:space="preserve" font-family="HelveticaNeue-Light" font-size="46.5" fill="#FFFFFF" transform="matrix(1.00, 0.00, -0.00, -1.00, 217.6, 401.0)">t</text><text xml:space="preserve" font-family="HelveticaNeue-Light" font-size="46.5" fill="#FFFFFF" transform="matrix(1.00, 0.00, -0.00, -1.00, 231.4, 401.0)">s</text><text xml:space="preserve" font-family="HelveticaNeue-Light" font-size="46.5" fill="#FFFFFF" transform="matrix(1.00, 0.00, -0.00, -1.00, 253.8, 401.0)"> </text><text xml:space="preserve" font-family="HelveticaNeue-Light" font-size="46.5" fill="#FFFFFF" transform="matrix(1.00, 0.00, -0.00, -1.00, 266.7, 401.0)">a</text><text xml:space="preserve" font-family="HelveticaNeue-Light" font-size="46.5" fill="#FFFFFF" transform="matrix(1.00, 0.00, -0.00, -1.00, 290.8, 401.0)">n</text><text xml:space="preserve" font-family="HelveticaNeue-Light" font-size="46.5" fill="#FFFFFF" transform="matrix(1.00, 0.00, -0.00, -1.00, 315.8, 401.0)">d</text><text xml:space="preserve" font-family="HelveticaNeue-Light" font-size="46.5" fill="#FFFFFF" transform="matrix(1.00, 0.00, -0.00, -1.00, 342.4, 401.0)"> </text><text xml:space="preserve" font-family="HelveticaNeue-Light" font-size="46.5" fill="#FFFFFF" transform="matrix(1.00, 0.00, -0.00, -1.00, 355.4, 401.0)">p</text><text xml:space="preserve" font-family="HelveticaNeue-Light" font-size="46.5" fill="#FFFFFF" transform="matrix(1.00, 0.00, -0.00, -1.00, 382.0, 401.0)">r</text><text xml:space="preserve" font-family="HelveticaNeue-Light" font-size="46.5" fill="#FFFFFF" transform="matrix(1.00, 0.00, -0.00, -1.00, 395.8, 401.0)">o</text><text xml:space="preserve" font-family="HelveticaNeue-Light" font-size="46.5" fill="#FFFFFF" transform="matrix(1.00, 0.00, -0.00, -1.00, 421.7, 401.0)">d</text><text xml:space="preserve" font-family="HelveticaNeue-Light" font-size="46.5" fill="#FFFFFF" transform="matrix(1.00, 0.00, -0.00, -1.00, 448.4, 401.0)">u</text><text xml:space="preserve" font-family="HelveticaNeue-Light" font-size="46.5" fill="#FFFFFF" transform="matrix(1.00, 0.00, -0.00, -1.00, 473.3, 401.0)">c</text><text xml:space="preserve" font-family="HelveticaNeue-Light" font-size="46.5" fill="#FFFFFF" transform="matrix(1.00, 0.00, -0.00, -1.00, 497.5, 401.0)">t</text><text xml:space="preserve" font-family="HelveticaNeue-Light" font-size="46.5" fill="#FFFFFF" transform="matrix(1.00, 0.00, -0.00, -1.00, 511.2, 401.0)">s</text><text xml:space="preserve" font-family="HelveticaNeue-Light" font-size="46.5" fill="#FFFFFF" transform="matrix(1.00, 0.00, -0.00, -1.00, 533.6, 401.0)"> </text><text xml:space="preserve" font-family="HelveticaNeue-Light" font-size="46.5" fill="#FFFFFF" transform="matrix(1.00, 0.00, -0.00, -1.00, 546.5, 401.0)">a</text><text xml:space="preserve" font-family="HelveticaNeue-Light" font-size="46.5" fill="#FFFFFF" transform="matrix(1.00, 0.00, -0.00, -1.00, 570.6, 401.0)">r</text><text xml:space="preserve" font-family="HelveticaNeue-Light" font-size="46.5" fill="#FFFFFF" transform="matrix(1.00, 0.00, -0.00, -1.00, 585.3, 401.0)">i</text><text xml:space="preserve" font-family="HelveticaNeue-Light" font-size="46.5" fill="#FFFFFF" transform="matrix(1.00, 0.00, -0.00, -1.00, 593.9, 401.0)">s</text><text xml:space="preserve" font-family="HelveticaNeue-Light" font-size="46.5" fill="#FFFFFF" transform="matrix(1.00, 0.00, -0.00, -1.00, 616.2, 401.0)">i</text><text xml:space="preserve" font-family="HelveticaNeue-Light" font-size="46.5" fill="#FFFFFF" transform="matrix(1.00, 0.00, -0.00, -1.00, 624.8, 401.0)">n</text><text xml:space="preserve" font-family="HelveticaNeue-Light" font-size="46.5" fill="#FFFFFF" transform="matrix(1.00, 0.00, -0.00, -1.00, 649.8, 401.0)">g</text><text xml:space="preserve" font-family="HelveticaNeue-Light" font-size="46.5" fill="#FFFFFF" transform="matrix(1.00, 0.00, -0.00, -1.00, 675.6, 401.0)"> </text><text xml:space="preserve" font-family="HelveticaNeue-Light" font-size="46.5" fill="#FFFFFF" transform="matrix(1.00, 0.00, -0.00, -1.00, 688.5, 401.0)">f</text><text xml:space="preserve" font-family="HelveticaNeue-Light" font-size="46.5" fill="#FFFFFF" transform="matrix(1.00, 0.00, -0.00, -1.00, 700.6, 401.0)">r</text><text xml:space="preserve" font-family="HelveticaNeue-Light" font-size="46.5" fill="#FFFFFF" transform="matrix(1.00, 0.00, -0.00, -1.00, 714.4, 401.0)">o</text><text xml:space="preserve" font-family="HelveticaNeue-Light" font-size="46.5" fill="#FFFFFF" transform="matrix(1.00, 0.00, -0.00, -1.00, 740.2, 401.0)">m</text><text xml:space="preserve" font-family="HelveticaNeue-Light" font-size="46.5" fill="#FFFFFF" transform="matrix(1.00, 0.00, -0.00, -1.00, 778.9, 401.0)"> </text><text xml:space="preserve" font-family="HelveticaNeue-Light" font-size="46.5" fill="#FFFFFF" transform="matrix(1.00, 0.00, -0.00, -1.00, 104.0, 350.0)">r</text><text xml:space="preserve" font-family="HelveticaNeue-Light" font-size="46.5" fill="#FFFFFF" transform="matrix(1.00, 0.00, -0.00, -1.00, 117.8, 350.0)">e</text><text xml:space="preserve" font-family="HelveticaNeue-Light" font-size="46.5" fill="#FFFFFF" transform="matrix(1.00, 0.00, -0.00, -1.00, 141.9, 350.0)">s</text><text xml:space="preserve" font-family="HelveticaNeue-Light" font-size="46.5" fill="#FFFFFF" transform="matrix(1.00, 0.00, -0.00, -1.00, 164.3, 350.0)">e</text><text xml:space="preserve" font-family="HelveticaNeue-Light" font-size="46.5" fill="#FFFFFF" transform="matrix(1.00, 0.00, -0.00, -1.00, 188.4, 350.0)">a</text><text xml:space="preserve" font-family="HelveticaNeue-Light" font-size="46.5" fill="#FFFFFF" transform="matrix(1.00, 0.00, -0.00, -1.00, 212.5, 350.0)">r</text><text xml:space="preserve" font-family="HelveticaNeue-Light" font-size="46.5" fill="#FFFFFF" transform="matrix(1.00, 0.00, -0.00, -1.00, 226.3, 350.0)">c</text><text xml:space="preserve" font-family="HelveticaNeue-Light" font-size="46.5" fill="#FFFFFF" transform="matrix(1.00, 0.00, -0.00, -1.00, 250.5, 350.0)">h</text><text xml:space="preserve" font-family="HelveticaNeue-Light" font-size="46.5" fill="#FFFFFF" transform="matrix(1.00, 0.00, -0.00, -1.00, 275.4, 350.0)"> </text><text xml:space="preserve" font-family="HelveticaNeue-Light" font-size="46.5" fill="#FFFFFF" transform="matrix(1.00, 0.00, -0.00, -1.00, 288.3, 350.0)">a</text><text xml:space="preserve" font-family="HelveticaNeue-Light" font-size="46.5" fill="#FFFFFF" transform="matrix(1.00, 0.00, -0.00, -1.00, 312.5, 350.0)">n</text><text xml:space="preserve" font-family="HelveticaNeue-Light" font-size="46.5" fill="#FFFFFF" transform="matrix(1.00, 0.00, -0.00, -1.00, 337.4, 350.0)">d</text><text xml:space="preserve" font-family="HelveticaNeue-Light" font-size="46.5" fill="#FFFFFF" transform="matrix(1.00, 0.00, -0.00, -1.00, 364.1, 350.0)"> </text><text xml:space="preserve" font-family="HelveticaNeue-Light" font-size="46.5" fill="#FFFFFF" transform="matrix(1.00, 0.00, -0.00, -1.00, 377.0, 350.0)">d</text><text xml:space="preserve" font-family="HelveticaNeue-Light" font-size="46.5" fill="#FFFFFF" transform="matrix(1.00, 0.00, -0.00, -1.00, 403.7, 350.0)">e</text><text xml:space="preserve" font-family="HelveticaNeue-Light" font-size="46.5" fill="#FFFFFF" transform="matrix(1.00, 0.00, -0.00, -1.00, 427.8, 350.0)">v</text><text xml:space="preserve" font-family="HelveticaNeue-Light" font-size="46.5" fill="#FFFFFF" transform="matrix(1.00, 0.00, -0.00, -1.00, 449.3, 350.0)">e</text><text xml:space="preserve" font-family="HelveticaNeue-Light" font-size="46.5" fill="#FFFFFF" transform="matrix(1.00, 0.00, -0.00, -1.00, 473.5, 350.0)">l</text><text xml:space="preserve" font-family="HelveticaNeue-Light" font-size="46.5" fill="#FFFFFF" transform="matrix(1.00, 0.00, -0.00, -1.00, 482.1, 350.0)">o</text><text xml:space="preserve" font-family="HelveticaNeue-Light" font-size="46.5" fill="#FFFFFF" transform="matrix(1.00, 0.00, -0.00, -1.00, 507.9, 350.0)">p</text><text xml:space="preserve" font-family="HelveticaNeue-Light" font-size="46.5" fill="#FFFFFF" transform="matrix(1.00, 0.00, -0.00, -1.00, 534.6, 350.0)">m</text><text xml:space="preserve" font-family="HelveticaNeue-Light" font-size="46.5" fill="#FFFFFF" transform="matrix(1.00, 0.00, -0.00, -1.00, 573.3, 350.0)">e</text><text xml:space="preserve" font-family="HelveticaNeue-Light" font-size="46.5" fill="#FFFFFF" transform="matrix(1.00, 0.00, -0.00, -1.00, 597.4, 350.0)">n</text><text xml:space="preserve" font-family="HelveticaNeue-Light" font-size="46.5" fill="#FFFFFF" transform="matrix(1.00, 0.00, -0.00, -1.00, 622.4, 350.0)">t</text><text xml:space="preserve" font-family="HelveticaNeue-Light" font-size="46.5" fill="#FFFFFF" transform="matrix(1.00, 0.00, -0.00, -1.00, 636.1, 350.0)"> </text><text xml:space="preserve" font-family="HelveticaNeue-Light" font-size="46.5" fill="#FFFFFF" transform="matrix(1.00, 0.00, -0.00, -1.00, 104.0, 300.0)">i</text><text xml:space="preserve" font-family="HelveticaNeue-Light" font-size="46.5" fill="#FFFFFF" transform="matrix(1.00, 0.00, -0.00, -1.00, 112.6, 300.0)">n</text><text xml:space="preserve" font-family="HelveticaNeue-Light" font-size="46.5" fill="#FFFFFF" transform="matrix(1.00, 0.00, -0.00, -1.00, 137.6, 300.0)">v</text><text xml:space="preserve" font-family="HelveticaNeue-Light" font-size="46.5" fill="#FFFFFF" transform="matrix(1.00, 0.00, -0.00, -1.00, 159.1, 300.0)">o</text><text xml:space="preserve" font-family="HelveticaNeue-Light" font-size="46.5" fill="#FFFFFF" transform="matrix(1.00, 0.00, -0.00, -1.00, 184.9, 300.0)">l</text><text xml:space="preserve" font-family="HelveticaNeue-Light" font-size="46.5" fill="#FFFFFF" transform="matrix(1.00, 0.00, -0.00, -1.00, 193.5, 300.0)">v</text><text xml:space="preserve" font-family="HelveticaNeue-Light" font-size="46.5" fill="#FFFFFF" transform="matrix(1.00, 0.00, -0.00, -1.00, 215.0, 300.0)">i</text><text xml:space="preserve" font-family="HelveticaNeue-Light" font-size="46.5" fill="#FFFFFF" transform="matrix(1.00, 0.00, -0.00, -1.00, 223.6, 300.0)">n</text><text xml:space="preserve" font-family="HelveticaNeue-Light" font-size="46.5" fill="#FFFFFF" transform="matrix(1.00, 0.00, -0.00, -1.00, 248.6, 300.0)">g</text><text xml:space="preserve" font-family="HelveticaNeue-Light" font-size="46.5" fill="#FFFFFF" transform="matrix(1.00, 0.00, -0.00, -1.00, 274.4, 300.0)"> </text><text xml:space="preserve" font-family="HelveticaNeue-Light" font-size="46.5" fill="#FFFFFF" transform="matrix(1.00, 0.00, -0.00, -1.00, 287.4, 300.0)">g</text><text xml:space="preserve" font-family="HelveticaNeue-Light" font-size="46.5" fill="#FFFFFF" transform="matrix(1.00, 0.00, -0.00, -1.00, 313.2, 300.0)">e</text><text xml:space="preserve" font-family="HelveticaNeue-Light" font-size="46.5" fill="#FFFFFF" transform="matrix(1.00, 0.00, -0.00, -1.00, 337.3, 300.0)">n</text><text xml:space="preserve" font-family="HelveticaNeue-Light" font-size="46.5" fill="#FFFFFF" transform="matrix(1.00, 0.00, -0.00, -1.00, 362.3, 300.0)">e</text><text xml:space="preserve" font-family="HelveticaNeue-Light" font-size="46.5" fill="#FFFFFF" transform="matrix(1.00, 0.00, -0.00, -1.00, 386.4, 300.0)">t</text><text xml:space="preserve" font-family="HelveticaNeue-Light" font-size="46.5" fill="#FFFFFF" transform="matrix(1.00, 0.00, -0.00, -1.00, 400.2, 300.0)">i</text><text xml:space="preserve" font-family="HelveticaNeue-Light" font-size="46.5" fill="#FFFFFF" transform="matrix(1.00, 0.00, -0.00, -1.00, 408.8, 300.0)">c</text><text xml:space="preserve" font-family="HelveticaNeue-Light" font-size="46.5" fill="#FFFFFF" transform="matrix(1.00, 0.00, -0.00, -1.00, 432.9, 300.0)"> </text><text xml:space="preserve" font-family="HelveticaNeue-Light" font-size="46.5" fill="#FFFFFF" transform="matrix(1.00, 0.00, -0.00, -1.00, 445.8, 300.0)">r</text><text xml:space="preserve" font-family="HelveticaNeue-Light" font-size="46.5" fill="#FFFFFF" transform="matrix(1.00, 0.00, -0.00, -1.00, 459.6, 300.0)">e</text><text xml:space="preserve" font-family="HelveticaNeue-Light" font-size="46.5" fill="#FFFFFF" transform="matrix(1.00, 0.00, -0.00, -1.00, 483.7, 300.0)">s</text><text xml:space="preserve" font-family="HelveticaNeue-Light" font-size="46.5" fill="#FFFFFF" transform="matrix(1.00, 0.00, -0.00, -1.00, 506.1, 300.0)">o</text><text xml:space="preserve" font-family="HelveticaNeue-Light" font-size="46.5" fill="#FFFFFF" transform="matrix(1.00, 0.00, -0.00, -1.00, 531.9, 300.0)">u</text><text xml:space="preserve" font-family="HelveticaNeue-Light" font-size="46.5" fill="#FFFFFF" transform="matrix(1.00, 0.00, -0.00, -1.00, 556.9, 300.0)">r</text><text xml:space="preserve" font-family="HelveticaNeue-Light" font-size="46.5" fill="#FFFFFF" transform="matrix(1.00, 0.00, -0.00, -1.00, 570.7, 300.0)">c</text><text xml:space="preserve" font-family="HelveticaNeue-Light" font-size="46.5" fill="#FFFFFF" transform="matrix(1.00, 0.00, -0.00, -1.00, 594.8, 300.0)">e</text><text xml:space="preserve" font-family="HelveticaNeue-Light" font-size="46.5" fill="#FFFFFF" transform="matrix(1.00, 0.00, -0.00, -1.00, 619.0, 300.0)">s</text><text xml:space="preserve" font-family="HelveticaNeue-Light" font-size="46.5" fill="#FFFFFF" transform="matrix(1.00, 0.00, -0.00, -1.00, 641.3, 300.0)"> </text><text xml:space="preserve" font-family="HelveticaNeue-Light" font-size="46.5" fill="#FFFFFF" transform="matrix(1.00, 0.00, -0.00, -1.00, 654.2, 300.0)">a</text><text xml:space="preserve" font-family="HelveticaNeue-Light" font-size="46.5" fill="#FFFFFF" transform="matrix(1.00, 0.00, -0.00, -1.00, 678.4, 300.0)">n</text><text xml:space="preserve" font-family="HelveticaNeue-Light" font-size="46.5" fill="#FFFFFF" transform="matrix(1.00, 0.00, -0.00, -1.00, 703.3, 300.0)">d</text><text xml:space="preserve" font-family="HelveticaNeue-Light" font-size="46.5" fill="#FFFFFF" transform="matrix(1.00, 0.00, -0.00, -1.00, 730.0, 300.0)">/</text><text xml:space="preserve" font-family="HelveticaNeue-Light" font-size="46.5" fill="#FFFFFF" transform="matrix(1.00, 0.00, -0.00, -1.00, 745.5, 300.0)">o</text><text xml:space="preserve" font-family="HelveticaNeue-Light" font-size="46.5" fill="#FFFFFF" transform="matrix(1.00, 0.00, -0.00, -1.00, 771.3, 300.0)">r</text><text xml:space="preserve" font-family="HelveticaNeue-Light" font-size="46.5" fill="#FFFFFF" transform="matrix(1.00, 0.00, -0.00, -1.00, 786.0, 300.0)"> </text><text xml:space="preserve" font-family="HelveticaNeue-Light" font-size="46.5" fill="#FFFFFF" transform="matrix(1.00, 0.00, -0.00, -1.00, 104.0, 249.0)">t</text><text xml:space="preserve" font-family="HelveticaNeue-Light" font-size="46.5" fill="#FFFFFF" transform="matrix(1.00, 0.00, -0.00, -1.00, 117.8, 249.0)">r</text><text xml:space="preserve" font-family="HelveticaNeue-Light" font-size="46.5" fill="#FFFFFF" transform="matrix(1.00, 0.00, -0.00, -1.00, 132.4, 249.0)">a</text><text xml:space="preserve" font-family="HelveticaNeue-Light" font-size="46.5" fill="#FFFFFF" transform="matrix(1.00, 0.00, -0.00, -1.00, 156.5, 249.0)">d</text><text xml:space="preserve" font-family="HelveticaNeue-Light" font-size="46.5" fill="#FFFFFF" transform="matrix(1.00, 0.00, -0.00, -1.00, 183.2, 249.0)">i</text><text xml:space="preserve" font-family="HelveticaNeue-Light" font-size="46.5" fill="#FFFFFF" transform="matrix(1.00, 0.00, -0.00, -1.00, 191.8, 249.0)">t</text><text xml:space="preserve" font-family="HelveticaNeue-Light" font-size="46.5" fill="#FFFFFF" transform="matrix(1.00, 0.00, -0.00, -1.00, 205.6, 249.0)">i</text><text xml:space="preserve" font-family="HelveticaNeue-Light" font-size="46.5" fill="#FFFFFF" transform="matrix(1.00, 0.00, -0.00, -1.00, 214.2, 249.0)">o</text><text xml:space="preserve" font-family="HelveticaNeue-Light" font-size="46.5" fill="#FFFFFF" transform="matrix(1.00, 0.00, -0.00, -1.00, 240.0, 249.0)">n</text><text xml:space="preserve" font-family="HelveticaNeue-Light" font-size="46.5" fill="#FFFFFF" transform="matrix(1.00, 0.00, -0.00, -1.00, 265.0, 249.0)">a</text><text xml:space="preserve" font-family="HelveticaNeue-Light" font-size="46.5" fill="#FFFFFF" transform="matrix(1.00, 0.00, -0.00, -1.00, 289.1, 249.0)">l</text><text xml:space="preserve" font-family="HelveticaNeue-Light" font-size="46.5" fill="#FFFFFF" transform="matrix(1.00, 0.00, -0.00, -1.00, 297.7, 249.0)"> </text><text xml:space="preserve" font-family="HelveticaNeue-Light" font-size="46.5" fill="#FFFFFF" transform="matrix(1.00, 0.00, -0.00, -1.00, 310.6, 249.0)">k</text><text xml:space="preserve" font-family="HelveticaNeue-Light" font-size="46.5" fill="#FFFFFF" transform="matrix(1.00, 0.00, -0.00, -1.00, 333.8, 249.0)">n</text><text xml:space="preserve" font-family="HelveticaNeue-Light" font-size="46.5" fill="#FFFFFF" transform="matrix(1.00, 0.00, -0.00, -1.00, 358.8, 249.0)">o</text><text xml:space="preserve" font-family="HelveticaNeue-Light" font-size="46.5" fill="#FFFFFF" transform="matrix(1.00, 0.00, -0.00, -1.00, 384.6, 249.0)">w</text><text xml:space="preserve" font-family="HelveticaNeue-Light" font-size="46.5" fill="#FFFFFF" transform="matrix(1.00, 0.00, -0.00, -1.00, 419.1, 249.0)">l</text><text xml:space="preserve" font-family="HelveticaNeue-Light" font-size="46.5" fill="#FFFFFF" transform="matrix(1.00, 0.00, -0.00, -1.00, 427.7, 249.0)">e</text><text xml:space="preserve" font-family="HelveticaNeue-Light" font-size="46.5" fill="#FFFFFF" transform="matrix(1.00, 0.00, -0.00, -1.00, 451.8, 249.0)">d</text><text xml:space="preserve" font-family="HelveticaNeue-Light" font-size="46.5" fill="#FFFFFF" transform="matrix(1.00, 0.00, -0.00, -1.00, 478.5, 249.0)">g</text><text xml:space="preserve" font-family="HelveticaNeue-Light" font-size="46.5" fill="#FFFFFF" transform="matrix(1.00, 0.00, -0.00, -1.00, 504.3, 249.0)">e</text><text xml:space="preserve" font-family="HelveticaNeue-Light" font-size="46.5" fill="#FFFFFF" transform="matrix(1.00, 0.00, -0.00, -1.00, 528.5, 249.0)"> </text><text xml:space="preserve" font-family="HelveticaNeue-Light" font-size="46.5" fill="#FFFFFF" transform="matrix(1.00, 0.00, -0.00, -1.00, 541.4, 249.0)">i</text><text xml:space="preserve" font-family="HelveticaNeue-Light" font-size="46.5" fill="#FFFFFF" transform="matrix(1.00, 0.00, -0.00, -1.00, 550.0, 249.0)">n</text><text xml:space="preserve" font-family="HelveticaNeue-Light" font-size="46.5" fill="#FFFFFF" transform="matrix(1.00, 0.00, -0.00, -1.00, 574.9, 249.0)"> </text><text xml:space="preserve" font-family="HelveticaNeue-Light" font-size="46.5" fill="#FFFFFF" transform="matrix(1.00, 0.00, -0.00, -1.00, 587.9, 249.0)">s</text><text xml:space="preserve" font-family="HelveticaNeue-Light" font-size="46.5" fill="#FFFFFF" transform="matrix(1.00, 0.00, -0.00, -1.00, 610.2, 249.0)">u</text><text xml:space="preserve" font-family="HelveticaNeue-Light" font-size="46.5" fill="#FFFFFF" transform="matrix(1.00, 0.00, -0.00, -1.00, 635.2, 249.0)">p</text><text xml:space="preserve" font-family="HelveticaNeue-Light" font-size="46.5" fill="#FFFFFF" transform="matrix(1.00, 0.00, -0.00, -1.00, 661.9, 249.0)">p</text><text xml:space="preserve" font-family="HelveticaNeue-Light" font-size="46.5" fill="#FFFFFF" transform="matrix(1.00, 0.00, -0.00, -1.00, 688.5, 249.0)">o</text><text xml:space="preserve" font-family="HelveticaNeue-Light" font-size="46.5" fill="#FFFFFF" transform="matrix(1.00, 0.00, -0.00, -1.00, 714.4, 249.0)">r</text><text xml:space="preserve" font-family="HelveticaNeue-Light" font-size="46.5" fill="#FFFFFF" transform="matrix(1.00, 0.00, -0.00, -1.00, 729.0, 249.0)">t</text><text xml:space="preserve" font-family="HelveticaNeue-Light" font-size="46.5" fill="#FFFFFF" transform="matrix(1.00, 0.00, -0.00, -1.00, 742.8, 249.0)"> </text><text xml:space="preserve" font-family="HelveticaNeue-Light" font-size="46.5" fill="#FFFFFF" transform="matrix(1.00, 0.00, -0.00, -1.00, 104.0, 198.0)">o</text><text xml:space="preserve" font-family="HelveticaNeue-Light" font-size="46.5" fill="#FFFFFF" transform="matrix(1.00, 0.00, -0.00, -1.00, 129.8, 198.0)">f</text><text xml:space="preserve" font-family="HelveticaNeue-Light" font-size="46.5" fill="#FFFFFF" transform="matrix(1.00, 0.00, -0.00, -1.00, 141.9, 198.0)"> </text><text xml:space="preserve" font-family="HelveticaNeue-Light" font-size="46.5" fill="#FFFFFF" transform="matrix(1.00, 0.00, -0.00, -1.00, 154.8, 198.0)">i</text><text xml:space="preserve" font-family="HelveticaNeue-Light" font-size="46.5" fill="#FFFFFF" transform="matrix(1.00, 0.00, -0.00, -1.00, 163.4, 198.0)">m</text><text xml:space="preserve" font-family="HelveticaNeue-Light" font-size="46.5" fill="#FFFFFF" transform="matrix(1.00, 0.00, -0.00, -1.00, 202.1, 198.0)">p</text><text xml:space="preserve" font-family="HelveticaNeue-Light" font-size="46.5" fill="#FFFFFF" transform="matrix(1.00, 0.00, -0.00, -1.00, 228.8, 198.0)">l</text><text xml:space="preserve" font-family="HelveticaNeue-Light" font-size="46.5" fill="#FFFFFF" transform="matrix(1.00, 0.00, -0.00, -1.00, 237.4, 198.0)">e</text><text xml:space="preserve" font-family="HelveticaNeue-Light" font-size="46.5" fill="#FFFFFF" transform="matrix(1.00, 0.00, -0.00, -1.00, 261.5, 198.0)">m</text><text xml:space="preserve" font-family="HelveticaNeue-Light" font-size="46.5" fill="#FFFFFF" transform="matrix(1.00, 0.00, -0.00, -1.00, 300.2, 198.0)">e</text><text xml:space="preserve" font-family="HelveticaNeue-Light" font-size="46.5" fill="#FFFFFF" transform="matrix(1.00, 0.00, -0.00, -1.00, 324.4, 198.0)">n</text><text xml:space="preserve" font-family="HelveticaNeue-Light" font-size="46.5" fill="#FFFFFF" transform="matrix(1.00, 0.00, -0.00, -1.00, 349.3, 198.0)">t</text><text xml:space="preserve" font-family="HelveticaNeue-Light" font-size="46.5" fill="#FFFFFF" transform="matrix(1.00, 0.00, -0.00, -1.00, 363.1, 198.0)">a</text><text xml:space="preserve" font-family="HelveticaNeue-Light" font-size="46.5" fill="#FFFFFF" transform="matrix(1.00, 0.00, -0.00, -1.00, 387.2, 198.0)">t</text><text xml:space="preserve" font-family="HelveticaNeue-Light" font-size="46.5" fill="#FFFFFF" transform="matrix(1.00, 0.00, -0.00, -1.00, 401.0, 198.0)">i</text><text xml:space="preserve" font-family="HelveticaNeue-Light" font-size="46.5" fill="#FFFFFF" transform="matrix(1.00, 0.00, -0.00, -1.00, 409.6, 198.0)">o</text><text xml:space="preserve" font-family="HelveticaNeue-Light" font-size="46.5" fill="#FFFFFF" transform="matrix(1.00, 0.00, -0.00, -1.00, 435.4, 198.0)">n</text><text xml:space="preserve" font-family="HelveticaNeue-Light" font-size="46.5" fill="#FFFFFF" transform="matrix(1.00, 0.00, -0.00, -1.00, 460.4, 198.0)"> </text><text xml:space="preserve" font-family="HelveticaNeue-Light" font-size="46.5" fill="#FFFFFF" transform="matrix(1.00, 0.00, -0.00, -1.00, 473.3, 198.0)">o</text><text xml:space="preserve" font-family="HelveticaNeue-Light" font-size="46.5" fill="#FFFFFF" transform="matrix(1.00, 0.00, -0.00, -1.00, 499.1, 198.0)">f</text><text xml:space="preserve" font-family="HelveticaNeue-Light" font-size="46.5" fill="#FFFFFF" transform="matrix(1.00, 0.00, -0.00, -1.00, 511.2, 198.0)"> </text><text xml:space="preserve" font-family="HelveticaNeue-Light" font-size="46.5" fill="#FFFFFF" transform="matrix(1.00, 0.00, -0.00, -1.00, 524.1, 198.0)">A</text><text xml:space="preserve" font-family="HelveticaNeue-Light" font-size="46.5" fill="#FFFFFF" transform="matrix(1.00, 0.00, -0.00, -1.00, 553.4, 198.0)">r</text><text xml:space="preserve" font-family="HelveticaNeue-Light" font-size="46.5" fill="#FFFFFF" transform="matrix(1.00, 0.00, -0.00, -1.00, 568.0, 198.0)">t</text><text xml:space="preserve" font-family="HelveticaNeue-Light" font-size="46.5" fill="#FFFFFF" transform="matrix(1.00, 0.00, -0.00, -1.00, 581.8, 198.0)">i</text><text xml:space="preserve" font-family="HelveticaNeue-Light" font-size="46.5" fill="#FFFFFF" transform="matrix(1.00, 0.00, -0.00, -1.00, 590.4, 198.0)">c</text><text xml:space="preserve" font-family="HelveticaNeue-Light" font-size="46.5" fill="#FFFFFF" transform="matrix(1.00, 0.00, -0.00, -1.00, 614.5, 198.0)">l</text><text xml:space="preserve" font-family="HelveticaNeue-Light" font-size="46.5" fill="#FFFFFF" transform="matrix(1.00, 0.00, -0.00, -1.00, 623.1, 198.0)">e</text><text xml:space="preserve" font-family="HelveticaNeue-Light" font-size="46.5" fill="#FFFFFF" transform="matrix(1.00, 0.00, -0.00, -1.00, 647.2, 198.0)"> </text><text xml:space="preserve" font-family="HelveticaNeue-Light" font-size="46.5" fill="#FFFFFF" transform="matrix(1.00, 0.00, -0.00, -1.00, 660.1, 198.0)">1</text><text xml:space="preserve" font-family="HelveticaNeue-Light" font-size="46.5" fill="#FFFFFF" transform="matrix(1.00, 0.00, -0.00, -1.00, 686.0, 198.0)">7</text><text xml:space="preserve" font-family="HelveticaNeue-Light" font-size="46.5" fill="#FFFFFF" transform="matrix(1.00, 0.00, -0.00, -1.00, 711.8, 198.0)"> </text><text xml:space="preserve" font-family="HelveticaNeue-Light" font-size="46.5" fill="#FFFFFF" transform="matrix(1.00, 0.00, -0.00, -1.00, 724.7, 198.0)">o</text><text xml:space="preserve" font-family="HelveticaNeue-Light" font-size="46.5" fill="#FFFFFF" transform="matrix(1.00, 0.00, -0.00, -1.00, 750.6, 198.0)">f</text><text xml:space="preserve" font-family="HelveticaNeue-Light" font-size="46.5" fill="#FFFFFF" transform="matrix(1.00, 0.00, -0.00, -1.00, 762.6, 198.0)"> </text><text xml:space="preserve" font-family="HelveticaNeue-Light" font-size="46.5" fill="#FFFFFF" transform="matrix(1.00, 0.00, -0.00, -1.00, 104.0, 148.0)">t</text><text xml:space="preserve" font-family="HelveticaNeue-Light" font-size="46.5" fill="#FFFFFF" transform="matrix(1.00, 0.00, -0.00, -1.00, 117.8, 148.0)">h</text><text xml:space="preserve" font-family="HelveticaNeue-Light" font-size="46.5" fill="#FFFFFF" transform="matrix(1.00, 0.00, -0.00, -1.00, 142.7, 148.0)">e</text><text xml:space="preserve" font-family="HelveticaNeue-Light" font-size="46.5" fill="#FFFFFF" transform="matrix(1.00, 0.00, -0.00, -1.00, 166.8, 148.0)"> </text><text xml:space="preserve" font-family="HelveticaNeue-Light" font-size="46.5" fill="#FFFFFF" transform="matrix(1.00, 0.00, -0.00, -1.00, 179.8, 148.0)">N</text><text xml:space="preserve" font-family="HelveticaNeue-Light" font-size="46.5" fill="#FFFFFF" transform="matrix(1.00, 0.00, -0.00, -1.00, 212.5, 148.0)">a</text><text xml:space="preserve" font-family="HelveticaNeue-Light" font-size="46.5" fill="#FFFFFF" transform="matrix(1.00, 0.00, -0.00, -1.00, 236.6, 148.0)">g</text><text xml:space="preserve" font-family="HelveticaNeue-Light" font-size="46.5" fill="#FFFFFF" transform="matrix(1.00, 0.00, -0.00, -1.00, 262.5, 148.0)">o</text><text xml:space="preserve" font-family="HelveticaNeue-Light" font-size="46.5" fill="#FFFFFF" transform="matrix(1.00, 0.00, -0.00, -1.00, 288.3, 148.0)">y</text><text xml:space="preserve" font-family="HelveticaNeue-Light" font-size="46.5" fill="#FFFFFF" transform="matrix(1.00, 0.00, -0.00, -1.00, 309.8, 148.0)">a</text><text xml:space="preserve" font-family="HelveticaNeue-Light" font-size="46.5" fill="#FFFFFF" transform="matrix(1.00, 0.00, -0.00, -1.00, 333.9, 148.0)"> </text><text xml:space="preserve" font-family="HelveticaNeue-Light" font-size="46.5" fill="#FFFFFF" transform="matrix(1.00, 0.00, -0.00, -1.00, 346.9, 148.0)">P</text><text xml:space="preserve" font-family="HelveticaNeue-Light" font-size="46.5" fill="#FFFFFF" transform="matrix(1.00, 0.00, -0.00, -1.00, 376.1, 148.0)">r</text><text xml:space="preserve" font-family="HelveticaNeue-Light" font-size="46.5" fill="#FFFFFF" transform="matrix(1.00, 0.00, -0.00, -1.00, 389.9, 148.0)">o</text><text xml:space="preserve" font-family="HelveticaNeue-Light" font-size="46.5" fill="#FFFFFF" transform="matrix(1.00, 0.00, -0.00, -1.00, 415.8, 148.0)">t</text><text xml:space="preserve" font-family="HelveticaNeue-Light" font-size="46.5" fill="#FFFFFF" transform="matrix(1.00, 0.00, -0.00, -1.00, 429.5, 148.0)">o</text><text xml:space="preserve" font-family="HelveticaNeue-Light" font-size="46.5" fill="#FFFFFF" transform="matrix(1.00, 0.00, -0.00, -1.00, 455.4, 148.0)">c</text><text xml:space="preserve" font-family="HelveticaNeue-Light" font-size="46.5" fill="#FFFFFF" transform="matrix(1.00, 0.00, -0.00, -1.00, 479.5, 148.0)">o</text><text xml:space="preserve" font-family="HelveticaNeue-Light" font-size="46.5" fill="#FFFFFF" transform="matrix(1.00, 0.00, -0.00, -1.00, 505.4, 148.0)">l</text><text xml:space="preserve" font-family="HelveticaNeue-Light" font-size="46.5" fill="#FFFFFF" transform="matrix(1.00, 0.00, -0.00, -1.00, 514.0, 148.0)"> </text><text xml:space="preserve" font-family="HelveticaNeue-Light" font-size="46.5" fill="#FFFFFF" transform="matrix(1.00, 0.00, -0.00, -1.00, 526.9, 148.0)">a</text><text xml:space="preserve" font-family="HelveticaNeue-Light" font-size="46.5" fill="#FFFFFF" transform="matrix(1.00, 0.00, -0.00, -1.00, 551.0, 148.0)">n</text><text xml:space="preserve" font-family="HelveticaNeue-Light" font-size="46.5" fill="#FFFFFF" transform="matrix(1.00, 0.00, -0.00, -1.00, 576.0, 148.0)">d</text><text xml:space="preserve" font-family="HelveticaNeue-Light" font-size="46.5" fill="#FFFFFF" transform="matrix(1.00, 0.00, -0.00, -1.00, 602.6, 148.0)"> </text><text xml:space="preserve" font-family="HelveticaNeue-Light" font-size="46.5" fill="#FFFFFF" transform="matrix(1.00, 0.00, -0.00, -1.00, 615.6, 148.0)">n</text><text xml:space="preserve" font-family="HelveticaNeue-Light" font-size="46.5" fill="#FFFFFF" transform="matrix(1.00, 0.00, -0.00, -1.00, 640.5, 148.0)">a</text><text xml:space="preserve" font-family="HelveticaNeue-Light" font-size="46.5" fill="#FFFFFF" transform="matrix(1.00, 0.00, -0.00, -1.00, 664.6, 148.0)">t</text><text xml:space="preserve" font-family="HelveticaNeue-Light" font-size="46.5" fill="#FFFFFF" transform="matrix(1.00, 0.00, -0.00, -1.00, 678.4, 148.0)">i</text><text xml:space="preserve" font-family="HelveticaNeue-Light" font-size="46.5" fill="#FFFFFF" transform="matrix(1.00, 0.00, -0.00, -1.00, 687.0, 148.0)">o</text><text xml:space="preserve" font-family="HelveticaNeue-Light" font-size="46.5" fill="#FFFFFF" transform="matrix(1.00, 0.00, -0.00, -1.00, 712.8, 148.0)">n</text><text xml:space="preserve" font-family="HelveticaNeue-Light" font-size="46.5" fill="#FFFFFF" transform="matrix(1.00, 0.00, -0.00, -1.00, 737.8, 148.0)">a</text><text xml:space="preserve" font-family="HelveticaNeue-Light" font-size="46.5" fill="#FFFFFF" transform="matrix(1.00, 0.00, -0.00, -1.00, 761.9, 148.0)">l</text><text xml:space="preserve" font-family="HelveticaNeue-Light" font-size="46.5" fill="#FFFFFF" transform="matrix(1.00, 0.00, -0.00, -1.00, 770.5, 148.0)"> </text><text xml:space="preserve" font-family="HelveticaNeue-Light" font-size="46.5" fill="#FFFFFF" transform="matrix(1.00, 0.00, -0.00, -1.00, 104.0, 97.0)">r</text><text xml:space="preserve" font-family="HelveticaNeue-Light" font-size="46.5" fill="#FFFFFF" transform="matrix(1.00, 0.00, -0.00, -1.00, 117.8, 97.0)">e</text><text xml:space="preserve" font-family="HelveticaNeue-Light" font-size="46.5" fill="#FFFFFF" transform="matrix(1.00, 0.00, -0.00, -1.00, 141.9, 97.0)">p</text><text xml:space="preserve" font-family="HelveticaNeue-Light" font-size="46.5" fill="#FFFFFF" transform="matrix(1.00, 0.00, -0.00, -1.00, 168.6, 97.0)">o</text><text xml:space="preserve" font-family="HelveticaNeue-Light" font-size="46.5" fill="#FFFFFF" transform="matrix(1.00, 0.00, -0.00, -1.00, 194.5, 97.0)">r</text><text xml:space="preserve" font-family="HelveticaNeue-Light" font-size="46.5" fill="#FFFFFF" transform="matrix(1.00, 0.00, -0.00, -1.00, 209.1, 97.0)">t</text><text xml:space="preserve" font-family="HelveticaNeue-Light" font-size="46.5" fill="#FFFFFF" transform="matrix(1.00, 0.00, -0.00, -1.00, 222.8, 97.0)">i</text><text xml:space="preserve" font-family="HelveticaNeue-Light" font-size="46.5" fill="#FFFFFF" transform="matrix(1.00, 0.00, -0.00, -1.00, 231.4, 97.0)">n</text><text xml:space="preserve" font-family="HelveticaNeue-Light" font-size="46.5" fill="#FFFFFF" transform="matrix(1.00, 0.00, -0.00, -1.00, 256.4, 97.0)">g</text><text xml:space="preserve" font-family="HelveticaNeue-Light" font-size="46.5" fill="#FFFFFF" transform="matrix(1.00, 0.00, -0.00, -1.00, 282.3, 97.0)"> </text><text xml:space="preserve" font-family="HelveticaNeue-Light" font-size="46.5" fill="#FFFFFF" transform="matrix(1.00, 0.00, -0.00, -1.00, 295.2, 97.0)">u</text><text xml:space="preserve" font-family="HelveticaNeue-Light" font-size="46.5" fill="#FFFFFF" transform="matrix(1.00, 0.00, -0.00, -1.00, 320.1, 97.0)">n</text><text xml:space="preserve" font-family="HelveticaNeue-Light" font-size="46.5" fill="#FFFFFF" transform="matrix(1.00, 0.00, -0.00, -1.00, 345.1, 97.0)">d</text><text xml:space="preserve" font-family="HelveticaNeue-Light" font-size="46.5" fill="#FFFFFF" transform="matrix(1.00, 0.00, -0.00, -1.00, 371.8, 97.0)">e</text><text xml:space="preserve" font-family="HelveticaNeue-Light" font-size="46.5" fill="#FFFFFF" transform="matrix(1.00, 0.00, -0.00, -1.00, 395.9, 97.0)">r</text><text xml:space="preserve" font-family="HelveticaNeue-Light" font-size="46.5" fill="#FFFFFF" transform="matrix(1.00, 0.00, -0.00, -1.00, 410.5, 97.0)"> </text><text xml:space="preserve" font-family="HelveticaNeue-Light" font-size="46.5" fill="#FFFFFF" transform="matrix(1.00, 0.00, -0.00, -1.00, 423.5, 97.0)">A</text><text xml:space="preserve" font-family="HelveticaNeue-Light" font-size="46.5" fill="#FFFFFF" transform="matrix(1.00, 0.00, -0.00, -1.00, 452.7, 97.0)">r</text><text xml:space="preserve" font-family="HelveticaNeue-Light" font-size="46.5" fill="#FFFFFF" transform="matrix(1.00, 0.00, -0.00, -1.00, 467.4, 97.0)">t</text><text xml:space="preserve" font-family="HelveticaNeue-Light" font-size="46.5" fill="#FFFFFF" transform="matrix(1.00, 0.00, -0.00, -1.00, 481.1, 97.0)">i</text><text xml:space="preserve" font-family="HelveticaNeue-Light" font-size="46.5" fill="#FFFFFF" transform="matrix(1.00, 0.00, -0.00, -1.00, 489.7, 97.0)">c</text><text xml:space="preserve" font-family="HelveticaNeue-Light" font-size="46.5" fill="#FFFFFF" transform="matrix(1.00, 0.00, -0.00, -1.00, 513.9, 97.0)">l</text><text xml:space="preserve" font-family="HelveticaNeue-Light" font-size="46.5" fill="#FFFFFF" transform="matrix(1.00, 0.00, -0.00, -1.00, 522.5, 97.0)">e</text><text xml:space="preserve" font-family="HelveticaNeue-Light" font-size="46.5" fill="#FFFFFF" transform="matrix(1.00, 0.00, -0.00, -1.00, 546.6, 97.0)"> </text><text xml:space="preserve" font-family="HelveticaNeue-Light" font-size="46.5" fill="#FFFFFF" transform="matrix(1.00, 0.00, -0.00, -1.00, 559.5, 97.0)">2</text><text xml:space="preserve" font-family="HelveticaNeue-Light" font-size="46.5" fill="#FFFFFF" transform="matrix(1.00, 0.00, -0.00, -1.00, 585.3, 97.0)">9</text><text xml:space="preserve" font-family="HelveticaNeue-Light" font-size="46.5" fill="#FFFFFF" transform="matrix(1.00, 0.00, -0.00, -1.00, 611.2, 97.0)">.</text><text xml:space="preserve" font-family="HelveticaNeue-Light" font-size="46.5" fill="#FFFFFF" transform="matrix(1.00, 0.00, -0.00, -1.00, 624.1, 97.0)"> </text></g></svg>