<?xml version="1.0" encoding="UTF-8" standalone="no"?><svg xmlns="http://www.w3.org/2000/svg" xmlns:xlink="http://www.w3.org/1999/xlink" clip-rule="evenodd" stroke-miterlimit="4.00" viewBox="0 0 1024 768"><desc>SVG generated by Keynote</desc><defs></defs><g transform="matrix(1.00, 0.00, -0.00, -1.00, 0.0, 768.0)"><path d="M 0.0 768.0 L 1024.0 768.0 L 1024.0 0.0 L 0.0 0.0 Z M 0.0 768.0 " fill="#FEFFFF"></path><g><clipPath id="clip-6058"><path d="M 371.5 673.1 L 652.5 673.1 L 652.5 759.0 L 371.5 759.0 Z M 371.5 673.1 "></path></clipPath><g clip-path="url(#clip-6058)"><path d="M 373.5 687.4 L 373.5 744.7 C 373.5 751.5 379.0 757.0 385.8 757.0 L 638.2 757.0 C 645.0 757.0 650.5 751.5 650.5 744.7 L 650.5 687.4 C 650.5 680.6 645.0 675.1 638.2 675.1 L 385.8 675.1 C 379.0 675.1 373.5 680.6 373.5 687.4 Z M 373.5 687.4 " fill="#94DBFE"></path><path d="M 0.0 69.6 L 0.0 12.3 C 0.0 5.5 5.5 0.0 12.3 0.0 L 264.7 0.0 C 271.4 0.0 276.9 5.5 276.9 12.3 L 276.9 69.6 C 276.9 76.4 271.4 81.9 264.7 81.9 L 12.3 81.9 C 5.5 81.9 0.0 76.4 0.0 69.6 Z M 0.0 69.6 " fill="none" stroke="#85878C" stroke-width="2.00" transform="matrix(1.00, 0.00, 0.00, -1.00, 373.5, 757.0)"></path></g></g><g><clipPath id="clip-6059"><path d="M 414.4 684.6 L 609.6 684.6 L 609.6 747.5 L 414.4 747.5 Z M 414.4 684.6 "></path></clipPath><g clip-path="url(#clip-6059)"><path d="M 416.4 745.5 L 607.6 745.5 L 607.6 686.6 L 416.4 686.6 Z M 416.4 745.5 " fill="#FEFFFF"></path><path d="M 0.0 0.0 L 191.3 0.0 L 191.3 58.9 L 0.0 58.9 Z M 0.0 0.0 " fill="none" stroke="#85878C" stroke-width="2.00" transform="matrix(1.00, 0.00, 0.00, -1.00, 416.4, 745.5)"></path></g></g><g><clipPath id="clip-6060"><path d="M 414.5 687.6 L 609.5 687.6 L 609.5 744.5 L 414.5 744.5 Z M 414.5 687.6 "></path></clipPath><g clip-path="url(#clip-6060)"><text xml:space="preserve" font-family="Helvetica-Light" font-size="20.0" fill="#000000" transform="matrix(1.00, 0.00, -0.00, -1.00, 425.0, 709.0)">1</text><text xml:space="preserve" font-family="Helvetica-Light" font-size="20.0" fill="#000000" transform="matrix(1.00, 0.00, -0.00, -1.00, 436.1, 709.0)">.</text><text xml:space="preserve" font-family="Helvetica-Light" font-size="20.0" fill="#000000" transform="matrix(1.00, 0.00, -0.00, -1.00, 441.7, 709.0)"> </text><text xml:space="preserve" font-family="Helvetica-Light" font-size="20.0" fill="#000000" transform="matrix(1.00, 0.00, -0.00, -1.00, 447.2, 709.0)">A</text><text xml:space="preserve" font-family="Helvetica-Light" font-size="20.0" fill="#000000" transform="matrix(1.00, 0.00, -0.00, -1.00, 460.6, 709.0)">u</text><text xml:space="preserve" font-family="Helvetica-Light" font-size="20.0" fill="#000000" transform="matrix(1.00, 0.00, -0.00, -1.00, 471.7, 709.0)">t</text><text xml:space="preserve" font-family="Helvetica-Light" font-size="20.0" fill="#000000" transform="matrix(1.00, 0.00, -0.00, -1.00, 477.3, 709.0)">h</text><text xml:space="preserve" font-family="Helvetica-Light" font-size="20.0" fill="#000000" transform="matrix(1.00, 0.00, -0.00, -1.00, 488.4, 709.0)">o</text><text xml:space="preserve" font-family="Helvetica-Light" font-size="20.0" fill="#000000" transform="matrix(1.00, 0.00, -0.00, -1.00, 499.5, 709.0)">r</text><text xml:space="preserve" font-family="Helvetica-Light" font-size="20.0" fill="#000000" transform="matrix(1.00, 0.00, -0.00, -1.00, 506.2, 709.0)">i</text><text xml:space="preserve" font-family="Helvetica-Light" font-size="20.0" fill="#000000" transform="matrix(1.00, 0.00, -0.00, -1.00, 510.6, 709.0)">t</text><text xml:space="preserve" font-family="Helvetica-Light" font-size="20.0" fill="#000000" transform="matrix(1.00, 0.00, -0.00, -1.00, 516.2, 709.0)">i</text><text xml:space="preserve" font-family="Helvetica-Light" font-size="20.0" fill="#000000" transform="matrix(1.00, 0.00, -0.00, -1.00, 520.6, 709.0)">e</text><text xml:space="preserve" font-family="Helvetica-Light" font-size="20.0" fill="#000000" transform="matrix(1.00, 0.00, -0.00, -1.00, 531.7, 709.0)">s</text><text xml:space="preserve" font-family="Helvetica-Light" font-size="20.0" fill="#000000" transform="matrix(1.00, 0.00, -0.00, -1.00, 541.7, 709.0)"> </text><text xml:space="preserve" font-family="Helvetica-Light" font-size="20.0" fill="#000000" transform="matrix(1.00, 0.00, -0.00, -1.00, 547.3, 709.0)">P</text><text xml:space="preserve" font-family="Helvetica-Light" font-size="20.0" fill="#000000" transform="matrix(1.00, 0.00, -0.00, -1.00, 559.5, 709.0)">o</text><text xml:space="preserve" font-family="Helvetica-Light" font-size="20.0" fill="#000000" transform="matrix(1.00, 0.00, -0.00, -1.00, 570.6, 709.0)">r</text><text xml:space="preserve" font-family="Helvetica-Light" font-size="20.0" fill="#000000" transform="matrix(1.00, 0.00, -0.00, -1.00, 577.6, 709.0)">t</text><text xml:space="preserve" font-family="Helvetica-Light" font-size="20.0" fill="#000000" transform="matrix(1.00, 0.00, -0.00, -1.00, 583.2, 709.0)">a</text><text xml:space="preserve" font-family="Helvetica-Light" font-size="20.0" fill="#000000" transform="matrix(1.00, 0.00, -0.00, -1.00, 594.3, 709.0)">l</text></g></g><g><clipPath id="clip-6061"><path d="M 375.6 294.2 L 648.4 294.2 L 648.4 374.3 L 375.6 374.3 Z M 375.6 294.2 "></path></clipPath><g clip-path="url(#clip-6061)"><path d="M 377.6 308.2 L 377.6 360.3 C 377.6 366.9 383.0 372.3 389.5 372.3 L 634.5 372.3 C 641.0 372.3 646.4 366.9 646.4 360.3 L 646.4 308.2 C 646.4 301.6 641.0 296.2 634.5 296.2 L 389.5 296.2 C 383.0 296.2 377.6 301.6 377.6 308.2 Z M 377.6 308.2 " fill="#94DBFE"></path><path d="M 0.0 64.1 L 0.0 11.9 C 0.0 5.3 5.3 0.0 11.9 0.0 L 256.8 0.0 C 263.4 0.0 268.8 5.3 268.8 11.9 L 268.8 64.1 C 268.8 70.7 263.4 76.0 256.8 76.0 L 11.9 76.0 C 5.3 76.0 0.0 70.7 0.0 64.1 Z M 0.0 64.1 " fill="none" stroke="#85878C" stroke-width="2.00" transform="matrix(1.00, 0.00, 0.00, -1.00, 377.6, 372.3)"></path></g></g><g><clipPath id="clip-6062"><path d="M 400.5 309.0 L 623.5 309.0 L 623.5 359.5 L 400.5 359.5 Z M 400.5 309.0 "></path></clipPath><g clip-path="url(#clip-6062)"><path d="M 402.5 357.5 L 621.5 357.5 L 621.5 311.0 L 402.5 311.0 Z M 402.5 357.5 " fill="#FEFFFF"></path><path d="M 0.0 0.0 L 219.1 0.0 L 219.1 46.4 L 0.0 46.4 Z M 0.0 0.0 " fill="none" stroke="#85878C" stroke-width="2.00" transform="matrix(1.00, 0.00, 0.00, -1.00, 402.5, 357.5)"></path></g></g><g><clipPath id="clip-6063"><path d="M 400.6 312.0 L 623.4 312.0 L 623.4 356.5 L 400.6 356.5 Z M 400.6 312.0 "></path></clipPath><g clip-path="url(#clip-6063)"><text xml:space="preserve" font-family="Helvetica-Light" font-size="20.0" fill="#000000" transform="matrix(1.00, 0.00, -0.00, -1.00, 423.0, 327.0)">1</text><text xml:space="preserve" font-family="Helvetica-Light" font-size="20.0" fill="#000000" transform="matrix(1.00, 0.00, -0.00, -1.00, 434.1, 327.0)">.</text><text xml:space="preserve" font-family="Helvetica-Light" font-size="20.0" fill="#000000" transform="matrix(1.00, 0.00, -0.00, -1.00, 439.7, 327.0)">4</text><text xml:space="preserve" font-family="Helvetica-Light" font-size="20.0" fill="#000000" transform="matrix(1.00, 0.00, -0.00, -1.00, 450.8, 327.0)">.</text><text xml:space="preserve" font-family="Helvetica-Light" font-size="20.0" fill="#000000" transform="matrix(1.00, 0.00, -0.00, -1.00, 456.4, 327.0)"> </text><text xml:space="preserve" font-family="Helvetica-Light" font-size="20.0" fill="#000000" transform="matrix(1.00, 0.00, -0.00, -1.00, 461.9, 327.0)">A</text><text xml:space="preserve" font-family="Helvetica-Light" font-size="20.0" fill="#000000" transform="matrix(1.00, 0.00, -0.00, -1.00, 475.3, 327.0)">p</text><text xml:space="preserve" font-family="Helvetica-Light" font-size="20.0" fill="#000000" transform="matrix(1.00, 0.00, -0.00, -1.00, 487.5, 327.0)">p</text><text xml:space="preserve" font-family="Helvetica-Light" font-size="20.0" fill="#000000" transform="matrix(1.00, 0.00, -0.00, -1.00, 499.7, 327.0)">r</text><text xml:space="preserve" font-family="Helvetica-Light" font-size="20.0" fill="#000000" transform="matrix(1.00, 0.00, -0.00, -1.00, 506.0, 327.0)">o</text><text xml:space="preserve" font-family="Helvetica-Light" font-size="20.0" fill="#000000" transform="matrix(1.00, 0.00, -0.00, -1.00, 517.1, 327.0)">v</text><text xml:space="preserve" font-family="Helvetica-Light" font-size="20.0" fill="#000000" transform="matrix(1.00, 0.00, -0.00, -1.00, 527.1, 327.0)">e</text><text xml:space="preserve" font-family="Helvetica-Light" font-size="20.0" fill="#000000" transform="matrix(1.00, 0.00, -0.00, -1.00, 538.2, 327.0)">/</text><text xml:space="preserve" font-family="Helvetica-Light" font-size="20.0" fill="#000000" transform="matrix(1.00, 0.00, -0.00, -1.00, 543.8, 327.0)">R</text><text xml:space="preserve" font-family="Helvetica-Light" font-size="20.0" fill="#000000" transform="matrix(1.00, 0.00, -0.00, -1.00, 557.1, 327.0)">e</text><text xml:space="preserve" font-family="Helvetica-Light" font-size="20.0" fill="#000000" transform="matrix(1.00, 0.00, -0.00, -1.00, 568.3, 327.0)">j</text><text xml:space="preserve" font-family="Helvetica-Light" font-size="20.0" fill="#000000" transform="matrix(1.00, 0.00, -0.00, -1.00, 572.7, 327.0)">e</text><text xml:space="preserve" font-family="Helvetica-Light" font-size="20.0" fill="#000000" transform="matrix(1.00, 0.00, -0.00, -1.00, 583.8, 327.0)">c</text><text xml:space="preserve" font-family="Helvetica-Light" font-size="20.0" fill="#000000" transform="matrix(1.00, 0.00, -0.00, -1.00, 594.9, 327.0)">t</text></g></g><g><clipPath id="clip-6064"><path d="M 375.6 483.7 L 648.4 483.7 L 648.4 563.7 L 375.6 563.7 Z M 375.6 483.7 "></path></clipPath><g clip-path="url(#clip-6064)"><path d="M 377.6 497.6 L 377.6 549.7 C 377.6 556.3 383.0 561.7 389.5 561.7 L 634.5 561.7 C 641.0 561.7 646.4 556.3 646.4 549.7 L 646.4 497.6 C 646.4 491.0 641.0 485.7 634.5 485.7 L 389.5 485.7 C 383.0 485.7 377.6 491.0 377.6 497.6 Z M 377.6 497.6 " fill="#94DBFE"></path><path d="M 0.0 64.1 L 0.0 11.9 C 0.0 5.3 5.3 0.0 11.9 0.0 L 256.8 0.0 C 263.4 0.0 268.8 5.3 268.8 11.9 L 268.8 64.1 C 268.8 70.7 263.4 76.0 256.8 76.0 L 11.9 76.0 C 5.3 76.0 0.0 70.7 0.0 64.1 Z M 0.0 64.1 " fill="none" stroke="#85878C" stroke-width="2.00" transform="matrix(1.00, 0.00, 0.00, -1.00, 377.6, 561.7)"></path></g></g><g><clipPath id="clip-6065"><path d="M 400.5 498.4 L 623.5 498.4 L 623.5 548.9 L 400.5 548.9 Z M 400.5 498.4 "></path></clipPath><g clip-path="url(#clip-6065)"><path d="M 402.5 546.9 L 621.5 546.9 L 621.5 500.4 L 402.5 500.4 Z M 402.5 546.9 " fill="#FEFFFF"></path><path d="M 0.0 0.0 L 219.1 0.0 L 219.1 46.4 L 0.0 46.4 Z M 0.0 0.0 " fill="none" stroke="#85878C" stroke-width="2.00" transform="matrix(1.00, 0.00, 0.00, -1.00, 402.5, 546.9)"></path></g></g><g><clipPath id="clip-6066"><path d="M 400.6 501.4 L 623.4 501.4 L 623.4 545.9 L 400.6 545.9 Z M 400.6 501.4 "></path></clipPath><g clip-path="url(#clip-6066)"><text xml:space="preserve" font-family="Helvetica-Light" font-size="20.0" fill="#000000" transform="matrix(1.00, 0.00, -0.00, -1.00, 460.0, 516.0)">1</text><text xml:space="preserve" font-family="Helvetica-Light" font-size="20.0" fill="#000000" transform="matrix(1.00, 0.00, -0.00, -1.00, 471.1, 516.0)">.</text><text xml:space="preserve" font-family="Helvetica-Light" font-size="20.0" fill="#000000" transform="matrix(1.00, 0.00, -0.00, -1.00, 476.7, 516.0)">2</text><text xml:space="preserve" font-family="Helvetica-Light" font-size="20.0" fill="#000000" transform="matrix(1.00, 0.00, -0.00, -1.00, 487.8, 516.0)">.</text><text xml:space="preserve" font-family="Helvetica-Light" font-size="20.0" fill="#000000" transform="matrix(1.00, 0.00, -0.00, -1.00, 493.4, 516.0)"> </text><text xml:space="preserve" font-family="Helvetica-Light" font-size="20.0" fill="#000000" transform="matrix(1.00, 0.00, -0.00, -1.00, 498.9, 516.0)">R</text><text xml:space="preserve" font-family="Helvetica-Light" font-size="20.0" fill="#000000" transform="matrix(1.00, 0.00, -0.00, -1.00, 512.3, 516.0)">e</text><text xml:space="preserve" font-family="Helvetica-Light" font-size="20.0" fill="#000000" transform="matrix(1.00, 0.00, -0.00, -1.00, 523.4, 516.0)">v</text><text xml:space="preserve" font-family="Helvetica-Light" font-size="20.0" fill="#000000" transform="matrix(1.00, 0.00, -0.00, -1.00, 533.4, 516.0)">i</text><text xml:space="preserve" font-family="Helvetica-Light" font-size="20.0" fill="#000000" transform="matrix(1.00, 0.00, -0.00, -1.00, 537.8, 516.0)">e</text><text xml:space="preserve" font-family="Helvetica-Light" font-size="20.0" fill="#000000" transform="matrix(1.00, 0.00, -0.00, -1.00, 548.9, 516.0)">w</text></g></g><g><clipPath id="clip-6067"><path d="M 375.6 388.9 L 648.4 388.9 L 648.4 469.0 L 375.6 469.0 Z M 375.6 388.9 "></path></clipPath><g clip-path="url(#clip-6067)"><path d="M 377.6 402.9 L 377.6 455.0 C 377.6 461.6 383.0 467.0 389.5 467.0 L 634.5 467.0 C 641.0 467.0 646.4 461.6 646.4 455.0 L 646.4 402.9 C 646.4 396.3 641.0 390.9 634.5 390.9 L 389.5 390.9 C 383.0 390.9 377.6 396.3 377.6 402.9 Z M 377.6 402.9 " fill="#94DBFE"></path><path d="M 0.0 64.1 L 0.0 11.9 C 0.0 5.3 5.3 0.0 11.9 0.0 L 256.8 0.0 C 263.4 0.0 268.8 5.3 268.8 11.9 L 268.8 64.1 C 268.8 70.7 263.4 76.0 256.8 76.0 L 11.9 76.0 C 5.3 76.0 0.0 70.7 0.0 64.1 Z M 0.0 64.1 " fill="none" stroke="#85878C" stroke-width="2.00" transform="matrix(1.00, 0.00, 0.00, -1.00, 377.6, 467.0)"></path></g></g><g><clipPath id="clip-6068"><path d="M 400.5 403.7 L 623.5 403.7 L 623.5 454.2 L 400.5 454.2 Z M 400.5 403.7 "></path></clipPath><g clip-path="url(#clip-6068)"><path d="M 402.5 452.2 L 621.5 452.2 L 621.5 405.7 L 402.5 405.7 Z M 402.5 452.2 " fill="#FEFFFF"></path><path d="M 0.0 0.0 L 219.1 0.0 L 219.1 46.4 L 0.0 46.4 Z M 0.0 0.0 " fill="none" stroke="#85878C" stroke-width="2.00" transform="matrix(1.00, 0.00, 0.00, -1.00, 402.5, 452.2)"></path></g></g><g><clipPath id="clip-6069"><path d="M 400.6 406.7 L 623.4 406.7 L 623.4 451.2 L 400.6 451.2 Z M 400.6 406.7 "></path></clipPath><g clip-path="url(#clip-6069)"><text xml:space="preserve" font-family="Helvetica-Light" font-size="20.0" fill="#000000" transform="matrix(1.00, 0.00, -0.00, -1.00, 449.0, 422.0)">1</text><text xml:space="preserve" font-family="Helvetica-Light" font-size="20.0" fill="#000000" transform="matrix(1.00, 0.00, -0.00, -1.00, 460.1, 422.0)">.</text><text xml:space="preserve" font-family="Helvetica-Light" font-size="20.0" fill="#000000" transform="matrix(1.00, 0.00, -0.00, -1.00, 465.7, 422.0)">3</text><text xml:space="preserve" font-family="Helvetica-Light" font-size="20.0" fill="#000000" transform="matrix(1.00, 0.00, -0.00, -1.00, 476.8, 422.0)">.</text><text xml:space="preserve" font-family="Helvetica-Light" font-size="20.0" fill="#000000" transform="matrix(1.00, 0.00, -0.00, -1.00, 482.4, 422.0)"> </text><text xml:space="preserve" font-family="Helvetica-Light" font-size="20.0" fill="#000000" transform="matrix(1.00, 0.00, -0.00, -1.00, 487.9, 422.0)">N</text><text xml:space="preserve" font-family="Helvetica-Light" font-size="20.0" fill="#000000" transform="matrix(1.00, 0.00, -0.00, -1.00, 502.4, 422.0)">e</text><text xml:space="preserve" font-family="Helvetica-Light" font-size="20.0" fill="#000000" transform="matrix(1.00, 0.00, -0.00, -1.00, 513.5, 422.0)">g</text><text xml:space="preserve" font-family="Helvetica-Light" font-size="20.0" fill="#000000" transform="matrix(1.00, 0.00, -0.00, -1.00, 525.7, 422.0)">o</text><text xml:space="preserve" font-family="Helvetica-Light" font-size="20.0" fill="#000000" transform="matrix(1.00, 0.00, -0.00, -1.00, 536.8, 422.0)">t</text><text xml:space="preserve" font-family="Helvetica-Light" font-size="20.0" fill="#000000" transform="matrix(1.00, 0.00, -0.00, -1.00, 542.4, 422.0)">i</text><text xml:space="preserve" font-family="Helvetica-Light" font-size="20.0" fill="#000000" transform="matrix(1.00, 0.00, -0.00, -1.00, 546.8, 422.0)">a</text><text xml:space="preserve" font-family="Helvetica-Light" font-size="20.0" fill="#000000" transform="matrix(1.00, 0.00, -0.00, -1.00, 557.9, 422.0)">t</text><text xml:space="preserve" font-family="Helvetica-Light" font-size="20.0" fill="#000000" transform="matrix(1.00, 0.00, -0.00, -1.00, 563.5, 422.0)">e</text></g></g><g><clipPath id="clip-6070"><path d="M 375.6 578.4 L 648.4 578.4 L 648.4 658.4 L 375.6 658.4 Z M 375.6 578.4 "></path></clipPath><g clip-path="url(#clip-6070)"><path d="M 377.6 592.3 L 377.6 644.4 C 377.6 651.0 383.0 656.4 389.5 656.4 L 634.5 656.4 C 641.0 656.4 646.4 651.0 646.4 644.4 L 646.4 592.3 C 646.4 585.7 641.0 580.4 634.5 580.4 L 389.5 580.4 C 383.0 580.4 377.6 585.7 377.6 592.3 Z M 377.6 592.3 " fill="#94DBFE"></path><path d="M 0.0 64.1 L 0.0 11.9 C 0.0 5.3 5.3 0.0 11.9 0.0 L 256.8 0.0 C 263.4 0.0 268.8 5.3 268.8 11.9 L 268.8 64.1 C 268.8 70.7 263.4 76.0 256.8 76.0 L 11.9 76.0 C 5.3 76.0 0.0 70.7 0.0 64.1 Z M 0.0 64.1 " fill="none" stroke="#85878C" stroke-width="2.00" transform="matrix(1.00, 0.00, 0.00, -1.00, 377.6, 656.4)"></path></g></g><g><clipPath id="clip-6071"><path d="M 400.5 593.1 L 623.5 593.1 L 623.5 643.6 L 400.5 643.6 Z M 400.5 593.1 "></path></clipPath><g clip-path="url(#clip-6071)"><path d="M 402.5 641.6 L 621.5 641.6 L 621.5 595.1 L 402.5 595.1 Z M 402.5 641.6 " fill="#FEFFFF"></path><path d="M 0.0 0.0 L 219.1 0.0 L 219.1 46.4 L 0.0 46.4 Z M 0.0 0.0 " fill="none" stroke="#85878C" stroke-width="2.00" transform="matrix(1.00, 0.00, 0.00, -1.00, 402.5, 641.6)"></path></g></g><g><clipPath id="clip-6072"><path d="M 400.6 596.1 L 623.4 596.1 L 623.4 640.6 L 400.6 640.6 Z M 400.6 596.1 "></path></clipPath><g clip-path="url(#clip-6072)"><text xml:space="preserve" font-family="Helvetica-Light" font-size="20.0" fill="#000000" transform="matrix(1.00, 0.00, -0.00, -1.00, 451.0, 611.0)">1</text><text xml:space="preserve" font-family="Helvetica-Light" font-size="20.0" fill="#000000" transform="matrix(1.00, 0.00, -0.00, -1.00, 462.1, 611.0)">.</text><text xml:space="preserve" font-family="Helvetica-Light" font-size="20.0" fill="#000000" transform="matrix(1.00, 0.00, -0.00, -1.00, 467.7, 611.0)">1</text><text xml:space="preserve" font-family="Helvetica-Light" font-size="20.0" fill="#000000" transform="matrix(1.00, 0.00, -0.00, -1.00, 478.8, 611.0)">.</text><text xml:space="preserve" font-family="Helvetica-Light" font-size="20.0" fill="#000000" transform="matrix(1.00, 0.00, -0.00, -1.00, 484.4, 611.0)"> </text><text xml:space="preserve" font-family="Helvetica-Light" font-size="20.0" fill="#000000" transform="matrix(1.00, 0.00, -0.00, -1.00, 489.9, 611.0)">E</text><text xml:space="preserve" font-family="Helvetica-Light" font-size="20.0" fill="#000000" transform="matrix(1.00, 0.00, -0.00, -1.00, 502.1, 611.0)">n</text><text xml:space="preserve" font-family="Helvetica-Light" font-size="20.0" fill="#000000" transform="matrix(1.00, 0.00, -0.00, -1.00, 513.3, 611.0)">q</text><text xml:space="preserve" font-family="Helvetica-Light" font-size="20.0" fill="#000000" transform="matrix(1.00, 0.00, -0.00, -1.00, 525.5, 611.0)">u</text><text xml:space="preserve" font-family="Helvetica-Light" font-size="20.0" fill="#000000" transform="matrix(1.00, 0.00, -0.00, -1.00, 536.6, 611.0)">i</text><text xml:space="preserve" font-family="Helvetica-Light" font-size="20.0" fill="#000000" transform="matrix(1.00, 0.00, -0.00, -1.00, 541.0, 611.0)">r</text><text xml:space="preserve" font-family="Helvetica-Light" font-size="20.0" fill="#000000" transform="matrix(1.00, 0.00, -0.00, -1.00, 547.7, 611.0)">i</text><text xml:space="preserve" font-family="Helvetica-Light" font-size="20.0" fill="#000000" transform="matrix(1.00, 0.00, -0.00, -1.00, 552.1, 611.0)">e</text><text xml:space="preserve" font-family="Helvetica-Light" font-size="20.0" fill="#000000" transform="matrix(1.00, 0.00, -0.00, -1.00, 563.3, 611.0)">s</text></g></g><g><clipPath id="clip-6073"><path d="M 375.6 199.5 L 648.4 199.5 L 648.4 279.5 L 375.6 279.5 Z M 375.6 199.5 "></path></clipPath><g clip-path="url(#clip-6073)"><path d="M 377.6 213.5 L 377.6 265.6 C 377.6 272.2 383.0 277.5 389.5 277.5 L 634.5 277.5 C 641.0 277.5 646.4 272.2 646.4 265.6 L 646.4 213.5 C 646.4 206.9 641.0 201.5 634.5 201.5 L 389.5 201.5 C 383.0 201.5 377.6 206.9 377.6 213.5 Z M 377.6 213.5 " fill="#94DBFE"></path><path d="M 0.0 64.1 L 0.0 11.9 C 0.0 5.3 5.3 0.0 11.9 0.0 L 256.8 0.0 C 263.4 0.0 268.8 5.3 268.8 11.9 L 268.8 64.1 C 268.8 70.7 263.4 76.0 256.8 76.0 L 11.9 76.0 C 5.3 76.0 0.0 70.7 0.0 64.1 Z M 0.0 64.1 " fill="none" stroke="#85878C" stroke-width="2.00" transform="matrix(1.00, 0.00, 0.00, -1.00, 377.6, 277.5)"></path></g></g><g><clipPath id="clip-6074"><path d="M 400.5 214.3 L 623.5 214.3 L 623.5 264.8 L 400.5 264.8 Z M 400.5 214.3 "></path></clipPath><g clip-path="url(#clip-6074)"><path d="M 402.5 262.8 L 621.5 262.8 L 621.5 216.3 L 402.5 216.3 Z M 402.5 262.8 " fill="#FEFFFF"></path><path d="M 0.0 0.0 L 219.1 0.0 L 219.1 46.4 L 0.0 46.4 Z M 0.0 0.0 " fill="none" stroke="#85878C" stroke-width="2.00" transform="matrix(1.00, 0.00, 0.00, -1.00, 402.5, 262.8)"></path></g></g><g><clipPath id="clip-6075"><path d="M 400.6 217.3 L 623.4 217.3 L 623.4 261.8 L 400.6 261.8 Z M 400.6 217.3 "></path></clipPath><g clip-path="url(#clip-6075)"><text xml:space="preserve" font-family="Helvetica-Light" font-size="20.0" fill="#000000" transform="matrix(1.00, 0.00, -0.00, -1.00, 455.0, 232.0)">1</text><text xml:space="preserve" font-family="Helvetica-Light" font-size="20.0" fill="#000000" transform="matrix(1.00, 0.00, -0.00, -1.00, 466.1, 232.0)">.</text><text xml:space="preserve" font-family="Helvetica-Light" font-size="20.0" fill="#000000" transform="matrix(1.00, 0.00, -0.00, -1.00, 471.7, 232.0)">5</text><text xml:space="preserve" font-family="Helvetica-Light" font-size="20.0" fill="#000000" transform="matrix(1.00, 0.00, -0.00, -1.00, 482.8, 232.0)">.</text><text xml:space="preserve" font-family="Helvetica-Light" font-size="20.0" fill="#000000" transform="matrix(1.00, 0.00, -0.00, -1.00, 488.4, 232.0)"> </text><text xml:space="preserve" font-family="Helvetica-Light" font-size="20.0" fill="#000000" transform="matrix(1.00, 0.00, -0.00, -1.00, 493.9, 232.0)">A</text><text xml:space="preserve" font-family="Helvetica-Light" font-size="20.0" fill="#000000" transform="matrix(1.00, 0.00, -0.00, -1.00, 507.3, 232.0)">p</text><text xml:space="preserve" font-family="Helvetica-Light" font-size="20.0" fill="#000000" transform="matrix(1.00, 0.00, -0.00, -1.00, 519.5, 232.0)">p</text><text xml:space="preserve" font-family="Helvetica-Light" font-size="20.0" fill="#000000" transform="matrix(1.00, 0.00, -0.00, -1.00, 531.7, 232.0)">e</text><text xml:space="preserve" font-family="Helvetica-Light" font-size="20.0" fill="#000000" transform="matrix(1.00, 0.00, -0.00, -1.00, 542.8, 232.0)">a</text><text xml:space="preserve" font-family="Helvetica-Light" font-size="20.0" fill="#000000" transform="matrix(1.00, 0.00, -0.00, -1.00, 553.9, 232.0)">l</text><text xml:space="preserve" font-family="Helvetica-Light" font-size="20.0" fill="#000000" transform="matrix(1.00, 0.00, -0.00, -1.00, 558.4, 232.0)">s</text></g></g><g><clipPath id="clip-6076"><path d="M 718.6 392.3 L 991.4 392.3 L 991.4 472.4 L 718.6 472.4 Z M 718.6 392.3 "></path></clipPath><g clip-path="url(#clip-6076)"><path d="M 720.6 406.3 L 720.6 458.4 C 720.6 465.0 726.0 470.4 732.5 470.4 L 977.5 470.4 C 984.0 470.4 989.4 465.0 989.4 458.4 L 989.4 406.3 C 989.4 399.7 984.0 394.3 977.5 394.3 L 732.5 394.3 C 726.0 394.3 720.6 399.7 720.6 406.3 Z M 720.6 406.3 " fill="#7BC8C5"></path><path d="M 0.0 64.1 L 0.0 11.9 C 0.0 5.3 5.3 0.0 11.9 0.0 L 256.8 0.0 C 263.4 0.0 268.8 5.3 268.8 11.9 L 268.8 64.1 C 268.8 70.7 263.4 76.0 256.8 76.0 L 11.9 76.0 C 5.3 76.0 0.0 70.7 0.0 64.1 Z M 0.0 64.1 " fill="none" stroke="#85878C" stroke-width="2.00" transform="matrix(1.00, 0.00, 0.00, -1.00, 720.6, 470.4)"></path></g></g><g><clipPath id="clip-6077"><path d="M 743.5 407.1 L 966.5 407.1 L 966.5 457.6 L 743.5 457.6 Z M 743.5 407.1 "></path></clipPath><g clip-path="url(#clip-6077)"><path d="M 745.5 455.6 L 964.5 455.6 L 964.5 409.1 L 745.5 409.1 Z M 745.5 455.6 " fill="#FEFFFF"></path><path d="M 0.0 0.0 L 219.1 0.0 L 219.1 46.4 L 0.0 46.4 Z M 0.0 0.0 " fill="none" stroke="#85878C" stroke-width="2.00" transform="matrix(1.00, 0.00, 0.00, -1.00, 745.5, 455.6)"></path></g></g><g><clipPath id="clip-6078"><path d="M 743.6 410.1 L 966.4 410.1 L 966.4 454.6 L 743.6 454.6 Z M 743.6 410.1 "></path></clipPath><g clip-path="url(#clip-6078)"><text xml:space="preserve" font-family="Helvetica-Light" font-size="20.0" fill="#000000" transform="matrix(1.00, 0.00, -0.00, -1.00, 802.0, 425.0)">P</text><text xml:space="preserve" font-family="Helvetica-Light" font-size="20.0" fill="#000000" transform="matrix(1.00, 0.00, -0.00, -1.00, 814.2, 425.0)">e</text><text xml:space="preserve" font-family="Helvetica-Light" font-size="20.0" fill="#000000" transform="matrix(1.00, 0.00, -0.00, -1.00, 825.3, 425.0)">r</text><text xml:space="preserve" font-family="Helvetica-Light" font-size="20.0" fill="#000000" transform="matrix(1.00, 0.00, -0.00, -1.00, 832.4, 425.0)">m</text><text xml:space="preserve" font-family="Helvetica-Light" font-size="20.0" fill="#000000" transform="matrix(1.00, 0.00, -0.00, -1.00, 849.0, 425.0)">i</text><text xml:space="preserve" font-family="Helvetica-Light" font-size="20.0" fill="#000000" transform="matrix(1.00, 0.00, -0.00, -1.00, 853.5, 425.0)">t</text><text xml:space="preserve" font-family="Helvetica-Light" font-size="20.0" fill="#000000" transform="matrix(1.00, 0.00, -0.00, -1.00, 859.0, 425.0)"> </text><text xml:space="preserve" font-family="Helvetica-Light" font-size="20.0" fill="#000000" transform="matrix(1.00, 0.00, -0.00, -1.00, 864.6, 425.0)">p</text><text xml:space="preserve" font-family="Helvetica-Light" font-size="20.0" fill="#000000" transform="matrix(1.00, 0.00, -0.00, -1.00, 876.8, 425.0)">a</text><text xml:space="preserve" font-family="Helvetica-Light" font-size="20.0" fill="#000000" transform="matrix(1.00, 0.00, -0.00, -1.00, 887.9, 425.0)">s</text><text xml:space="preserve" font-family="Helvetica-Light" font-size="20.0" fill="#000000" transform="matrix(1.00, 0.00, -0.00, -1.00, 897.9, 425.0)">s</text></g></g><g><clipPath id="clip-6079"><path d="M 718.6 294.5 L 991.4 294.5 L 991.4 374.5 L 718.6 374.5 Z M 718.6 294.5 "></path></clipPath><g clip-path="url(#clip-6079)"><path d="M 720.6 308.5 L 720.6 360.6 C 720.6 367.2 726.0 372.5 732.5 372.5 L 977.5 372.5 C 984.0 372.5 989.4 367.2 989.4 360.6 L 989.4 308.5 C 989.4 301.9 984.0 296.5 977.5 296.5 L 732.5 296.5 C 726.0 296.5 720.6 301.9 720.6 308.5 Z M 720.6 308.5 " fill="#7BC8C5"></path><path d="M 0.0 64.1 L 0.0 11.9 C 0.0 5.3 5.3 0.0 11.9 0.0 L 256.8 0.0 C 263.4 0.0 268.8 5.3 268.8 11.9 L 268.8 64.1 C 268.8 70.7 263.4 76.0 256.8 76.0 L 11.9 76.0 C 5.3 76.0 0.0 70.7 0.0 64.1 Z M 0.0 64.1 " fill="none" stroke="#85878C" stroke-width="2.00" transform="matrix(1.00, 0.00, 0.00, -1.00, 720.6, 372.5)"></path></g></g><g><clipPath id="clip-6080"><path d="M 743.5 309.3 L 966.5 309.3 L 966.5 359.8 L 743.5 359.8 Z M 743.5 309.3 "></path></clipPath><g clip-path="url(#clip-6080)"><path d="M 745.5 357.8 L 964.5 357.8 L 964.5 311.3 L 745.5 311.3 Z M 745.5 357.8 " fill="#FEFFFF"></path><path d="M 0.0 0.0 L 219.1 0.0 L 219.1 46.4 L 0.0 46.4 Z M 0.0 0.0 " fill="none" stroke="#85878C" stroke-width="2.00" transform="matrix(1.00, 0.00, 0.00, -1.00, 745.5, 357.8)"></path></g></g><g><clipPath id="clip-6081"><path d="M 743.6 312.3 L 966.4 312.3 L 966.4 356.8 L 743.6 356.8 Z M 743.6 312.3 "></path></clipPath><g clip-path="url(#clip-6081)"><text xml:space="preserve" font-family="Helvetica-Light" font-size="20.0" fill="#000000" transform="matrix(1.00, 0.00, -0.00, -1.00, 825.0, 327.0)">L</text><text xml:space="preserve" font-family="Helvetica-Light" font-size="20.0" fill="#000000" transform="matrix(1.00, 0.00, -0.00, -1.00, 836.1, 327.0)">a</text><text xml:space="preserve" font-family="Helvetica-Light" font-size="20.0" fill="#000000" transform="matrix(1.00, 0.00, -0.00, -1.00, 847.2, 327.0)">b</text><text xml:space="preserve" font-family="Helvetica-Light" font-size="20.0" fill="#000000" transform="matrix(1.00, 0.00, -0.00, -1.00, 859.5, 327.0)">e</text><text xml:space="preserve" font-family="Helvetica-Light" font-size="20.0" fill="#000000" transform="matrix(1.00, 0.00, -0.00, -1.00, 870.6, 327.0)">l</text><text xml:space="preserve" font-family="Helvetica-Light" font-size="20.0" fill="#000000" transform="matrix(1.00, 0.00, -0.00, -1.00, 875.0, 327.0)">s</text></g></g><g><clipPath id="clip-6082"><path d="M 718.6 196.1 L 991.4 196.1 L 991.4 276.2 L 718.6 276.2 Z M 718.6 196.1 "></path></clipPath><g clip-path="url(#clip-6082)"><path d="M 720.6 210.1 L 720.6 262.2 C 720.6 268.8 726.0 274.2 732.5 274.2 L 977.5 274.2 C 984.0 274.2 989.4 268.8 989.4 262.2 L 989.4 210.1 C 989.4 203.5 984.0 198.1 977.5 198.1 L 732.5 198.1 C 726.0 198.1 720.6 203.5 720.6 210.1 Z M 720.6 210.1 " fill="#7BC8C5"></path><path d="M 0.0 64.1 L 0.0 11.9 C 0.0 5.3 5.3 0.0 11.9 0.0 L 256.8 0.0 C 263.4 0.0 268.8 5.3 268.8 11.9 L 268.8 64.1 C 268.8 70.7 263.4 76.0 256.8 76.0 L 11.9 76.0 C 5.3 76.0 0.0 70.7 0.0 64.1 Z M 0.0 64.1 " fill="none" stroke="#85878C" stroke-width="2.00" transform="matrix(1.00, 0.00, 0.00, -1.00, 720.6, 274.2)"></path></g></g><g><clipPath id="clip-6083"><path d="M 743.5 210.9 L 966.5 210.9 L 966.5 261.4 L 743.5 261.4 Z M 743.5 210.9 "></path></clipPath><g clip-path="url(#clip-6083)"><path d="M 745.5 259.4 L 964.5 259.4 L 964.5 212.9 L 745.5 212.9 Z M 745.5 259.4 " fill="#FEFFFF"></path><path d="M 0.0 0.0 L 219.1 0.0 L 219.1 46.4 L 0.0 46.4 Z M 0.0 0.0 " fill="none" stroke="#85878C" stroke-width="2.00" transform="matrix(1.00, 0.00, 0.00, -1.00, 745.5, 259.4)"></path></g></g><g><clipPath id="clip-6084"><path d="M 743.6 213.9 L 966.4 213.9 L 966.4 258.4 L 743.6 258.4 Z M 743.6 213.9 "></path></clipPath><g clip-path="url(#clip-6084)"><text xml:space="preserve" font-family="Helvetica-Light" font-size="20.0" fill="#000000" transform="matrix(1.00, 0.00, -0.00, -1.00, 768.0, 229.0)">H</text><text xml:space="preserve" font-family="Helvetica-Light" font-size="20.0" fill="#000000" transform="matrix(1.00, 0.00, -0.00, -1.00, 782.4, 229.0)">T</text><text xml:space="preserve" font-family="Helvetica-Light" font-size="20.0" fill="#000000" transform="matrix(1.00, 0.00, -0.00, -1.00, 793.6, 229.0)">M</text><text xml:space="preserve" font-family="Helvetica-Light" font-size="20.0" fill="#000000" transform="matrix(1.00, 0.00, -0.00, -1.00, 810.2, 229.0)">L</text><text xml:space="preserve" font-family="Helvetica-Light" font-size="20.0" fill="#000000" transform="matrix(1.00, 0.00, -0.00, -1.00, 821.3, 229.0)"> </text><text xml:space="preserve" font-family="Helvetica-Light" font-size="20.0" fill="#000000" transform="matrix(1.00, 0.00, -0.00, -1.00, 826.9, 229.0)">e</text><text xml:space="preserve" font-family="Helvetica-Light" font-size="20.0" fill="#000000" transform="matrix(1.00, 0.00, -0.00, -1.00, 838.0, 229.0)">m</text><text xml:space="preserve" font-family="Helvetica-Light" font-size="20.0" fill="#000000" transform="matrix(1.00, 0.00, -0.00, -1.00, 854.7, 229.0)">b</text><text xml:space="preserve" font-family="Helvetica-Light" font-size="20.0" fill="#000000" transform="matrix(1.00, 0.00, -0.00, -1.00, 866.9, 229.0)">e</text><text xml:space="preserve" font-family="Helvetica-Light" font-size="20.0" fill="#000000" transform="matrix(1.00, 0.00, -0.00, -1.00, 878.0, 229.0)">d</text><text xml:space="preserve" font-family="Helvetica-Light" font-size="20.0" fill="#000000" transform="matrix(1.00, 0.00, -0.00, -1.00, 890.2, 229.0)"> </text><text xml:space="preserve" font-family="Helvetica-Light" font-size="20.0" fill="#000000" transform="matrix(1.00, 0.00, -0.00, -1.00, 895.8, 229.0)">c</text><text xml:space="preserve" font-family="Helvetica-Light" font-size="20.0" fill="#000000" transform="matrix(1.00, 0.00, -0.00, -1.00, 906.9, 229.0)">o</text><text xml:space="preserve" font-family="Helvetica-Light" font-size="20.0" fill="#000000" transform="matrix(1.00, 0.00, -0.00, -1.00, 918.0, 229.0)">d</text><text xml:space="preserve" font-family="Helvetica-Light" font-size="20.0" fill="#000000" transform="matrix(1.00, 0.00, -0.00, -1.00, 930.3, 229.0)">e</text></g></g><g><clipPath id="clip-6085"><path d="M 646.0 334.9 L 720.2 435.4 L 723.4 433.0 L 649.2 332.5 Z M 646.0 334.9 "></path></clipPath><g clip-path="url(#clip-6085)"><path d="M 0.0 0.0 L 122.9 0.0 " fill="none" stroke="#000000" stroke-width="2.00" transform="matrix(0.59, 0.80, 0.80, -0.59, 648.2, 334.5)"></path></g></g><g><clipPath id="clip-6086"><path d="M 647.2 332.5 L 722.2 332.5 L 722.2 336.5 L 647.2 336.5 Z M 647.2 332.5 "></path></clipPath><g clip-path="url(#clip-6086)"><path d="M 0.0 0.0 L 73.0 0.0 " fill="none" stroke="#000000" stroke-width="2.00" transform="matrix(1.00, 0.00, 0.00, -1.00, 648.2, 334.5)"></path></g></g><g><clipPath id="clip-6087"><path d="M 650.0 335.9 L 722.6 235.5 L 719.3 233.1 L 646.8 333.6 Z M 650.0 335.9 "></path></clipPath><g clip-path="url(#clip-6087)"><path d="M 0.0 0.0 L 121.9 0.0 " fill="none" stroke="#000000" stroke-width="2.00" transform="matrix(0.59, -0.81, -0.81, -0.59, 649.0, 333.9)"></path></g></g><g><clipPath id="clip-6088"><path d="M 718.6 490.2 L 991.4 490.2 L 991.4 570.2 L 718.6 570.2 Z M 718.6 490.2 "></path></clipPath><g clip-path="url(#clip-6088)"><path d="M 720.6 504.1 L 720.6 556.2 C 720.6 562.8 726.0 568.2 732.5 568.2 L 977.5 568.2 C 984.0 568.2 989.4 562.8 989.4 556.2 L 989.4 504.1 C 989.4 497.5 984.0 492.2 977.5 492.2 L 732.5 492.2 C 726.0 492.2 720.6 497.5 720.6 504.1 Z M 720.6 504.1 " fill="#7BC8C5"></path><path d="M 0.0 64.1 L 0.0 11.9 C 0.0 5.3 5.3 0.0 11.9 0.0 L 256.8 0.0 C 263.4 0.0 268.8 5.3 268.8 11.9 L 268.8 64.1 C 268.8 70.7 263.4 76.0 256.8 76.0 L 11.9 76.0 C 5.3 76.0 0.0 70.7 0.0 64.1 Z M 0.0 64.1 " fill="none" stroke="#85878C" stroke-width="2.00" transform="matrix(1.00, 0.00, 0.00, -1.00, 720.6, 568.2)"></path></g></g><g><clipPath id="clip-6089"><path d="M 743.5 504.9 L 966.5 504.9 L 966.5 555.4 L 743.5 555.4 Z M 743.5 504.9 "></path></clipPath><g clip-path="url(#clip-6089)"><path d="M 745.5 553.4 L 964.5 553.4 L 964.5 506.9 L 745.5 506.9 Z M 745.5 553.4 " fill="#FEFFFF"></path><path d="M 0.0 0.0 L 219.1 0.0 L 219.1 46.4 L 0.0 46.4 Z M 0.0 0.0 " fill="none" stroke="#85878C" stroke-width="2.00" transform="matrix(1.00, 0.00, 0.00, -1.00, 745.5, 553.4)"></path></g></g><g><clipPath id="clip-6090"><path d="M 743.6 507.9 L 966.4 507.9 L 966.4 552.4 L 743.6 552.4 Z M 743.6 507.9 "></path></clipPath><g clip-path="url(#clip-6090)"><text xml:space="preserve" font-family="Helvetica-Light" font-size="20.0" fill="#000000" transform="matrix(1.00, 0.00, -0.00, -1.00, 806.0, 523.0)">.</text><text xml:space="preserve" font-family="Helvetica-Light" font-size="20.0" fill="#000000" transform="matrix(1.00, 0.00, -0.00, -1.00, 811.6, 523.0)">p</text><text xml:space="preserve" font-family="Helvetica-Light" font-size="20.0" fill="#000000" transform="matrix(1.00, 0.00, -0.00, -1.00, 823.8, 523.0)">d</text><text xml:space="preserve" font-family="Helvetica-Light" font-size="20.0" fill="#000000" transform="matrix(1.00, 0.00, -0.00, -1.00, 836.0, 523.0)">f</text><text xml:space="preserve" font-family="Helvetica-Light" font-size="20.0" fill="#000000" transform="matrix(1.00, 0.00, -0.00, -1.00, 841.6, 523.0)"> </text><text xml:space="preserve" font-family="Helvetica-Light" font-size="20.0" fill="#000000" transform="matrix(1.00, 0.00, -0.00, -1.00, 847.1, 523.0)">p</text><text xml:space="preserve" font-family="Helvetica-Light" font-size="20.0" fill="#000000" transform="matrix(1.00, 0.00, -0.00, -1.00, 859.3, 523.0)">e</text><text xml:space="preserve" font-family="Helvetica-Light" font-size="20.0" fill="#000000" transform="matrix(1.00, 0.00, -0.00, -1.00, 870.5, 523.0)">r</text><text xml:space="preserve" font-family="Helvetica-Light" font-size="20.0" fill="#000000" transform="matrix(1.00, 0.00, -0.00, -1.00, 877.5, 523.0)">m</text><text xml:space="preserve" font-family="Helvetica-Light" font-size="20.0" fill="#000000" transform="matrix(1.00, 0.00, -0.00, -1.00, 894.1, 523.0)">i</text><text xml:space="preserve" font-family="Helvetica-Light" font-size="20.0" fill="#000000" transform="matrix(1.00, 0.00, -0.00, -1.00, 898.6, 523.0)">t</text></g></g><g><clipPath id="clip-6091"><path d="M 718.6 98.3 L 991.4 98.3 L 991.4 178.3 L 718.6 178.3 Z M 718.6 98.3 "></path></clipPath><g clip-path="url(#clip-6091)"><path d="M 720.6 112.2 L 720.6 164.4 C 720.6 171.0 726.0 176.3 732.5 176.3 L 977.5 176.3 C 984.0 176.3 989.4 171.0 989.4 164.4 L 989.4 112.2 C 989.4 105.7 984.0 100.3 977.5 100.3 L 732.5 100.3 C 726.0 100.3 720.6 105.7 720.6 112.2 Z M 720.6 112.2 " fill="#7BC8C5"></path><path d="M 0.0 64.1 L 0.0 11.9 C 0.0 5.3 5.3 0.0 11.9 0.0 L 256.8 0.0 C 263.4 0.0 268.8 5.3 268.8 11.9 L 268.8 64.1 C 268.8 70.7 263.4 76.0 256.8 76.0 L 11.9 76.0 C 5.3 76.0 0.0 70.7 0.0 64.1 Z M 0.0 64.1 " fill="none" stroke="#85878C" stroke-width="2.00" transform="matrix(1.00, 0.00, 0.00, -1.00, 720.6, 176.3)"></path></g></g><g><clipPath id="clip-6092"><path d="M 743.5 113.1 L 966.5 113.1 L 966.5 163.5 L 743.5 163.5 Z M 743.5 113.1 "></path></clipPath><g clip-path="url(#clip-6092)"><path d="M 745.5 161.5 L 964.5 161.5 L 964.5 115.1 L 745.5 115.1 Z M 745.5 161.5 " fill="#FEFFFF"></path><path d="M 0.0 0.0 L 219.1 0.0 L 219.1 46.4 L 0.0 46.4 Z M 0.0 0.0 " fill="none" stroke="#85878C" stroke-width="2.00" transform="matrix(1.00, 0.00, 0.00, -1.00, 745.5, 161.5)"></path></g></g><g><clipPath id="clip-6093"><path d="M 743.6 116.1 L 966.4 116.1 L 966.4 160.5 L 743.6 160.5 Z M 743.6 116.1 "></path></clipPath><g clip-path="url(#clip-6093)"><text xml:space="preserve" font-family="Helvetica-Light" font-size="19.0" fill="#000000" transform="matrix(1.00, 0.00, -0.00, -1.00, 769.0, 131.0)">R</text><text xml:space="preserve" font-family="Helvetica-Light" font-size="19.0" fill="#000000" transform="matrix(1.00, 0.00, -0.00, -1.00, 781.7, 131.0)">e</text><text xml:space="preserve" font-family="Helvetica-Light" font-size="19.0" fill="#000000" transform="matrix(1.00, 0.00, -0.00, -1.00, 792.2, 131.0)">j</text><text xml:space="preserve" font-family="Helvetica-Light" font-size="19.0" fill="#000000" transform="matrix(1.00, 0.00, -0.00, -1.00, 796.5, 131.0)">e</text><text xml:space="preserve" font-family="Helvetica-Light" font-size="19.0" fill="#000000" transform="matrix(1.00, 0.00, -0.00, -1.00, 807.0, 131.0)">c</text><text xml:space="preserve" font-family="Helvetica-Light" font-size="19.0" fill="#000000" transform="matrix(1.00, 0.00, -0.00, -1.00, 817.6, 131.0)">t</text><text xml:space="preserve" font-family="Helvetica-Light" font-size="19.0" fill="#000000" transform="matrix(1.00, 0.00, -0.00, -1.00, 822.9, 131.0)"> </text><text xml:space="preserve" font-family="Helvetica-Light" font-size="19.0" fill="#000000" transform="matrix(1.00, 0.00, -0.00, -1.00, 828.1, 131.0)">=</text><text xml:space="preserve" font-family="Helvetica-Light" font-size="19.0" fill="#000000" transform="matrix(1.00, 0.00, -0.00, -1.00, 840.7, 131.0)"> </text><text xml:space="preserve" font-family="Helvetica-Light" font-size="19.0" fill="#000000" transform="matrix(1.00, 0.00, -0.00, -1.00, 846.0, 131.0)">T</text><text xml:space="preserve" font-family="Helvetica-Light" font-size="19.0" fill="#000000" transform="matrix(1.00, 0.00, -0.00, -1.00, 854.4, 131.0)">o</text><text xml:space="preserve" font-family="Helvetica-Light" font-size="20.0" fill="#000000" transform="matrix(1.00, 0.00, -0.00, -1.00, 865.0, 131.0)"> </text><text xml:space="preserve" font-family="Helvetica-Light" font-size="19.0" fill="#000000" transform="matrix(1.00, 0.00, -0.00, -1.00, 870.5, 131.0)">A</text><text xml:space="preserve" font-family="Helvetica-Light" font-size="19.0" fill="#000000" transform="matrix(1.00, 0.00, -0.00, -1.00, 883.2, 131.0)">p</text><text xml:space="preserve" font-family="Helvetica-Light" font-size="19.0" fill="#000000" transform="matrix(1.00, 0.00, -0.00, -1.00, 894.8, 131.0)">p</text><text xml:space="preserve" font-family="Helvetica-Light" font-size="19.0" fill="#000000" transform="matrix(1.00, 0.00, -0.00, -1.00, 906.4, 131.0)">e</text><text xml:space="preserve" font-family="Helvetica-Light" font-size="19.0" fill="#000000" transform="matrix(1.00, 0.00, -0.00, -1.00, 917.0, 131.0)">a</text><text xml:space="preserve" font-family="Helvetica-Light" font-size="19.0" fill="#000000" transform="matrix(1.00, 0.00, -0.00, -1.00, 927.6, 131.0)">l</text><text xml:space="preserve" font-family="Helvetica-Light" font-size="19.0" fill="#000000" transform="matrix(1.00, 0.00, -0.00, -1.00, 931.8, 131.0)">s</text></g></g><path d="M 0.0 0.0 L 210.0 0.0 " fill="none" stroke="#000000" stroke-width="2.00" transform="matrix(-0.34, 0.94, 0.94, 0.34, 720.4, 136.0)"></path><path d="M 0.0 0.0 L 209.0 0.0 " fill="none" stroke="#000000" stroke-width="2.00" transform="matrix(0.34, 0.94, 0.94, -0.34, 648.2, 334.0)"></path><g><clipPath id="clip-6094"><path d="M 375.6 104.8 L 648.4 104.8 L 648.4 184.8 L 375.6 184.8 Z M 375.6 104.8 "></path></clipPath><g clip-path="url(#clip-6094)"><path d="M 377.6 118.8 L 377.6 170.9 C 377.6 177.5 383.0 182.8 389.5 182.8 L 634.5 182.8 C 641.0 182.8 646.4 177.5 646.4 170.9 L 646.4 118.8 C 646.4 112.2 641.0 106.8 634.5 106.8 L 389.5 106.8 C 383.0 106.8 377.6 112.2 377.6 118.8 Z M 377.6 118.8 " fill="#DE4400"></path><path d="M 0.0 64.1 L 0.0 11.9 C 0.0 5.3 5.3 0.0 11.9 0.0 L 256.8 0.0 C 263.4 0.0 268.8 5.3 268.8 11.9 L 268.8 64.1 C 268.8 70.7 263.4 76.0 256.8 76.0 L 11.9 76.0 C 5.3 76.0 0.0 70.7 0.0 64.1 Z M 0.0 64.1 " fill="none" stroke="#85878C" stroke-width="2.00" transform="matrix(1.00, 0.00, 0.00, -1.00, 377.6, 182.8)"></path></g></g><g><clipPath id="clip-6095"><path d="M 400.5 119.6 L 623.5 119.6 L 623.5 170.1 L 400.5 170.1 Z M 400.5 119.6 "></path></clipPath><g clip-path="url(#clip-6095)"><path d="M 402.5 168.1 L 621.5 168.1 L 621.5 121.6 L 402.5 121.6 Z M 402.5 168.1 " fill="#FEFFFF"></path><path d="M 0.0 0.0 L 219.1 0.0 L 219.1 46.4 L 0.0 46.4 Z M 0.0 0.0 " fill="none" stroke="#85878C" stroke-width="2.00" transform="matrix(1.00, 0.00, 0.00, -1.00, 402.5, 168.1)"></path></g></g><g><clipPath id="clip-6096"><path d="M 400.6 122.6 L 623.4 122.6 L 623.4 167.1 L 400.6 167.1 Z M 400.6 122.6 "></path></clipPath><g clip-path="url(#clip-6096)"><text xml:space="preserve" font-family="Helvetica-Light" font-size="20.0" fill="#000000" transform="matrix(1.00, 0.00, -0.00, -1.00, 454.0, 138.0)">4</text><text xml:space="preserve" font-family="Helvetica-Light" font-size="20.0" fill="#000000" transform="matrix(1.00, 0.00, -0.00, -1.00, 465.1, 138.0)">.</text><text xml:space="preserve" font-family="Helvetica-Light" font-size="20.0" fill="#000000" transform="matrix(1.00, 0.00, -0.00, -1.00, 470.7, 138.0)"> </text><text xml:space="preserve" font-family="Helvetica-Light" font-size="20.0" fill="#000000" transform="matrix(1.00, 0.00, -0.00, -1.00, 476.2, 138.0)">M</text><text xml:space="preserve" font-family="Helvetica-Light" font-size="20.0" fill="#000000" transform="matrix(1.00, 0.00, -0.00, -1.00, 492.9, 138.0)">o</text><text xml:space="preserve" font-family="Helvetica-Light" font-size="20.0" fill="#000000" transform="matrix(1.00, 0.00, -0.00, -1.00, 504.0, 138.0)">n</text><text xml:space="preserve" font-family="Helvetica-Light" font-size="20.0" fill="#000000" transform="matrix(1.00, 0.00, -0.00, -1.00, 515.1, 138.0)">i</text><text xml:space="preserve" font-family="Helvetica-Light" font-size="20.0" fill="#000000" transform="matrix(1.00, 0.00, -0.00, -1.00, 519.6, 138.0)">t</text><text xml:space="preserve" font-family="Helvetica-Light" font-size="20.0" fill="#000000" transform="matrix(1.00, 0.00, -0.00, -1.00, 525.1, 138.0)">o</text><text xml:space="preserve" font-family="Helvetica-Light" font-size="20.0" fill="#000000" transform="matrix(1.00, 0.00, -0.00, -1.00, 536.3, 138.0)">r</text><text xml:space="preserve" font-family="Helvetica-Light" font-size="20.0" fill="#000000" transform="matrix(1.00, 0.00, -0.00, -1.00, 542.9, 138.0)">i</text><text xml:space="preserve" font-family="Helvetica-Light" font-size="20.0" fill="#000000" transform="matrix(1.00, 0.00, -0.00, -1.00, 547.4, 138.0)">n</text><text xml:space="preserve" font-family="Helvetica-Light" font-size="20.0" fill="#000000" transform="matrix(1.00, 0.00, -0.00, -1.00, 558.5, 138.0)">g</text></g></g><g><clipPath id="clip-6097"><path d="M 375.6 10.1 L 648.4 10.1 L 648.4 90.1 L 375.6 90.1 Z M 375.6 10.1 "></path></clipPath><g clip-path="url(#clip-6097)"><path d="M 377.6 24.0 L 377.6 76.2 C 377.6 82.8 383.0 88.1 389.5 88.1 L 634.5 88.1 C 641.0 88.1 646.4 82.8 646.4 76.2 L 646.4 24.0 C 646.4 17.5 641.0 12.1 634.5 12.1 L 389.5 12.1 C 383.0 12.1 377.6 17.5 377.6 24.0 Z M 377.6 24.0 " fill="#C7EAEE"></path><path d="M 0.0 64.1 L 0.0 11.9 C 0.0 5.3 5.3 0.0 11.9 0.0 L 256.8 0.0 C 263.4 0.0 268.8 5.3 268.8 11.9 L 268.8 64.1 C 268.8 70.7 263.4 76.0 256.8 76.0 L 11.9 76.0 C 5.3 76.0 0.0 70.7 0.0 64.1 Z M 0.0 64.1 " fill="none" stroke="#85878C" stroke-width="2.00" transform="matrix(1.00, 0.00, 0.00, -1.00, 377.6, 88.1)"></path></g></g><g><clipPath id="clip-6098"><path d="M 400.5 24.9 L 623.5 24.9 L 623.5 75.3 L 400.5 75.3 Z M 400.5 24.9 "></path></clipPath><g clip-path="url(#clip-6098)"><path d="M 402.5 73.3 L 621.5 73.3 L 621.5 26.9 L 402.5 26.9 Z M 402.5 73.3 " fill="#FEFFFF"></path><path d="M 0.0 0.0 L 219.1 0.0 L 219.1 46.4 L 0.0 46.4 Z M 0.0 0.0 " fill="none" stroke="#85878C" stroke-width="2.00" transform="matrix(1.00, 0.00, 0.00, -1.00, 402.5, 73.3)"></path></g></g><g><clipPath id="clip-6099"><path d="M 400.6 27.9 L 623.4 27.9 L 623.4 72.3 L 400.6 72.3 Z M 400.6 27.9 "></path></clipPath><g clip-path="url(#clip-6099)"><text xml:space="preserve" font-family="Helvetica-Light" font-size="20.0" fill="#000000" transform="matrix(1.00, 0.00, -0.00, -1.00, 457.0, 43.0)">5</text><text xml:space="preserve" font-family="Helvetica-Light" font-size="20.0" fill="#000000" transform="matrix(1.00, 0.00, -0.00, -1.00, 468.1, 43.0)">.</text><text xml:space="preserve" font-family="Helvetica-Light" font-size="20.0" fill="#000000" transform="matrix(1.00, 0.00, -0.00, -1.00, 473.7, 43.0)"> </text><text xml:space="preserve" font-family="Helvetica-Light" font-size="20.0" fill="#000000" transform="matrix(1.00, 0.00, -0.00, -1.00, 479.2, 43.0)">R</text><text xml:space="preserve" font-family="Helvetica-Light" font-size="20.0" fill="#000000" transform="matrix(1.00, 0.00, -0.00, -1.00, 492.6, 43.0)">e</text><text xml:space="preserve" font-family="Helvetica-Light" font-size="20.0" fill="#000000" transform="matrix(1.00, 0.00, -0.00, -1.00, 503.7, 43.0)">p</text><text xml:space="preserve" font-family="Helvetica-Light" font-size="20.0" fill="#000000" transform="matrix(1.00, 0.00, -0.00, -1.00, 515.9, 43.0)">o</text><text xml:space="preserve" font-family="Helvetica-Light" font-size="20.0" fill="#000000" transform="matrix(1.00, 0.00, -0.00, -1.00, 527.0, 43.0)">r</text><text xml:space="preserve" font-family="Helvetica-Light" font-size="20.0" fill="#000000" transform="matrix(1.00, 0.00, -0.00, -1.00, 534.1, 43.0)">t</text><text xml:space="preserve" font-family="Helvetica-Light" font-size="20.0" fill="#000000" transform="matrix(1.00, 0.00, -0.00, -1.00, 539.6, 43.0)">i</text><text xml:space="preserve" font-family="Helvetica-Light" font-size="20.0" fill="#000000" transform="matrix(1.00, 0.00, -0.00, -1.00, 544.1, 43.0)">n</text><text xml:space="preserve" font-family="Helvetica-Light" font-size="20.0" fill="#000000" transform="matrix(1.00, 0.00, -0.00, -1.00, 555.2, 43.0)">g</text></g></g><g><clipPath id="clip-6100"><path d="M 371.5 673.1 L 652.5 673.1 L 652.5 759.0 L 371.5 759.0 Z M 371.5 673.1 "></path></clipPath><g clip-path="url(#clip-6100)"><path d="M 373.5 687.4 L 373.5 744.7 C 373.5 751.5 379.0 757.0 385.8 757.0 L 638.2 757.0 C 645.0 757.0 650.5 751.5 650.5 744.7 L 650.5 687.4 C 650.5 680.6 645.0 675.1 638.2 675.1 L 385.8 675.1 C 379.0 675.1 373.5 680.6 373.5 687.4 Z M 373.5 687.4 " fill="#94DBFE"></path><path d="M 0.0 69.6 L 0.0 12.3 C 0.0 5.5 5.5 0.0 12.3 0.0 L 264.7 0.0 C 271.4 0.0 276.9 5.5 276.9 12.3 L 276.9 69.6 C 276.9 76.4 271.4 81.9 264.7 81.9 L 12.3 81.9 C 5.5 81.9 0.0 76.4 0.0 69.6 Z M 0.0 69.6 " fill="none" stroke="#85878C" stroke-width="2.00" transform="matrix(1.00, 0.00, 0.00, -1.00, 373.5, 757.0)"></path></g></g><g><clipPath id="clip-6101"><path d="M 419.1 684.6 L 604.9 684.6 L 604.9 747.5 L 419.1 747.5 Z M 419.1 684.6 "></path></clipPath><g clip-path="url(#clip-6101)"><path d="M 421.1 745.5 L 602.9 745.5 L 602.9 686.6 L 421.1 686.6 Z M 421.1 745.5 " fill="#FEFFFF"></path><path d="M 0.0 0.0 L 181.7 0.0 L 181.7 58.9 L 0.0 58.9 Z M 0.0 0.0 " fill="none" stroke="#85878C" stroke-width="2.00" transform="matrix(1.00, 0.00, 0.00, -1.00, 421.1, 745.5)"></path></g></g><g><clipPath id="clip-6102"><path d="M 419.3 687.6 L 604.7 687.6 L 604.7 744.5 L 419.3 744.5 Z M 419.3 687.6 "></path></clipPath><g clip-path="url(#clip-6102)"><text xml:space="preserve" font-family="Helvetica-Light" font-size="20.0" fill="#000000" transform="matrix(1.00, 0.00, -0.00, -1.00, 425.0, 709.0)">1</text><text xml:space="preserve" font-family="Helvetica-Light" font-size="20.0" fill="#000000" transform="matrix(1.00, 0.00, -0.00, -1.00, 436.1, 709.0)">.</text><text xml:space="preserve" font-family="Helvetica-Light" font-size="20.0" fill="#000000" transform="matrix(1.00, 0.00, -0.00, -1.00, 441.7, 709.0)"> </text><text xml:space="preserve" font-family="Helvetica-Light" font-size="20.0" fill="#000000" transform="matrix(1.00, 0.00, -0.00, -1.00, 447.2, 709.0)">A</text><text xml:space="preserve" font-family="Helvetica-Light" font-size="20.0" fill="#000000" transform="matrix(1.00, 0.00, -0.00, -1.00, 460.6, 709.0)">u</text><text xml:space="preserve" font-family="Helvetica-Light" font-size="20.0" fill="#000000" transform="matrix(1.00, 0.00, -0.00, -1.00, 471.7, 709.0)">t</text><text xml:space="preserve" font-family="Helvetica-Light" font-size="20.0" fill="#000000" transform="matrix(1.00, 0.00, -0.00, -1.00, 477.3, 709.0)">h</text><text xml:space="preserve" font-family="Helvetica-Light" font-size="20.0" fill="#000000" transform="matrix(1.00, 0.00, -0.00, -1.00, 488.4, 709.0)">o</text><text xml:space="preserve" font-family="Helvetica-Light" font-size="20.0" fill="#000000" transform="matrix(1.00, 0.00, -0.00, -1.00, 499.5, 709.0)">r</text><text xml:space="preserve" font-family="Helvetica-Light" font-size="20.0" fill="#000000" transform="matrix(1.00, 0.00, -0.00, -1.00, 506.2, 709.0)">i</text><text xml:space="preserve" font-family="Helvetica-Light" font-size="20.0" fill="#000000" transform="matrix(1.00, 0.00, -0.00, -1.00, 510.6, 709.0)">t</text><text xml:space="preserve" font-family="Helvetica-Light" font-size="20.0" fill="#000000" transform="matrix(1.00, 0.00, -0.00, -1.00, 516.2, 709.0)">i</text><text xml:space="preserve" font-family="Helvetica-Light" font-size="20.0" fill="#000000" transform="matrix(1.00, 0.00, -0.00, -1.00, 520.6, 709.0)">e</text><text xml:space="preserve" font-family="Helvetica-Light" font-size="20.0" fill="#000000" transform="matrix(1.00, 0.00, -0.00, -1.00, 531.7, 709.0)">s</text><text xml:space="preserve" font-family="Helvetica-Light" font-size="20.0" fill="#000000" transform="matrix(1.00, 0.00, -0.00, -1.00, 541.7, 709.0)"> </text><text xml:space="preserve" font-family="Helvetica-Light" font-size="20.0" fill="#000000" transform="matrix(1.00, 0.00, -0.00, -1.00, 547.3, 709.0)">P</text><text xml:space="preserve" font-family="Helvetica-Light" font-size="20.0" fill="#000000" transform="matrix(1.00, 0.00, -0.00, -1.00, 559.5, 709.0)">o</text><text xml:space="preserve" font-family="Helvetica-Light" font-size="20.0" fill="#000000" transform="matrix(1.00, 0.00, -0.00, -1.00, 570.6, 709.0)">r</text><text xml:space="preserve" font-family="Helvetica-Light" font-size="20.0" fill="#000000" transform="matrix(1.00, 0.00, -0.00, -1.00, 577.6, 709.0)">t</text><text xml:space="preserve" font-family="Helvetica-Light" font-size="20.0" fill="#000000" transform="matrix(1.00, 0.00, -0.00, -1.00, 583.2, 709.0)">a</text><text xml:space="preserve" font-family="Helvetica-Light" font-size="20.0" fill="#000000" transform="matrix(1.00, 0.00, -0.00, -1.00, 594.3, 709.0)">l</text></g></g></g></svg>