<?xml version="1.0" encoding="UTF-8" standalone="no"?><svg xmlns="http://www.w3.org/2000/svg" xmlns:xlink="http://www.w3.org/1999/xlink" clip-rule="evenodd" stroke-miterlimit="4.00" viewBox="0 0 1024 768"><desc>SVG generated by Keynote</desc><defs></defs><g transform="matrix(1.00, 0.00, -0.00, -1.00, 0.0, 768.0)"><path d="M 0.0 768.0 L 1024.0 768.0 L 1024.0 0.0 L 0.0 0.0 Z M 0.0 768.0 " fill="#FEFFFF"></path><g><clipPath id="clip-6588"><path d="M 324.0 638.2 L 666.0 638.2 L 666.0 742.2 L 324.0 742.2 Z M 324.0 638.2 "></path></clipPath><g clip-path="url(#clip-6588)"><path d="M 326.0 655.2 L 326.0 725.2 C 326.0 733.5 332.7 740.2 341.0 740.2 L 649.0 740.2 C 657.3 740.2 664.0 733.5 664.0 725.2 L 664.0 655.2 C 664.0 646.9 657.3 640.2 649.0 640.2 L 341.0 640.2 C 332.7 640.2 326.0 646.9 326.0 655.2 Z M 326.0 655.2 " fill="#A4DAAD"></path><path d="M 0.0 85.0 L 0.0 15.0 C 0.0 6.7 6.7 0.0 15.0 0.0 L 323.0 0.0 C 331.3 0.0 338.0 6.7 338.0 15.0 L 338.0 85.0 C 338.0 93.3 331.3 100.0 323.0 100.0 L 15.0 100.0 C 6.7 100.0 0.0 93.3 0.0 85.0 Z M 0.0 85.0 " fill="none" stroke="#85878C" stroke-width="2.00" transform="matrix(1.00, 0.00, 0.00, -1.00, 326.0, 740.2)"></path></g></g><g><clipPath id="clip-6589"><path d="M 406.9 673.0 L 583.1 673.0 L 583.1 707.3 L 406.9 707.3 Z M 406.9 673.0 "></path></clipPath><g clip-path="url(#clip-6589)"><path d="M 408.9 705.3 L 581.1 705.3 L 581.1 675.0 L 408.9 675.0 Z M 408.9 705.3 " fill="#FEFFFF"></path><path d="M 0.0 0.0 L 172.1 0.0 L 172.1 30.3 L 0.0 30.3 Z M 0.0 0.0 " fill="none" stroke="#85878C" stroke-width="2.00" transform="matrix(1.00, 0.00, 0.00, -1.00, 408.9, 705.3)"></path></g></g><g><clipPath id="clip-6590"><path d="M 407.1 673.2 L 582.9 673.2 L 582.9 707.2 L 407.1 707.2 Z M 407.1 673.2 "></path></clipPath><g clip-path="url(#clip-6590)"><text xml:space="preserve" font-family="Helvetica-Light" font-size="20.0" fill="#000000" transform="matrix(1.00, 0.00, -0.00, -1.00, 413.0, 683.0)">2</text><text xml:space="preserve" font-family="Helvetica-Light" font-size="20.0" fill="#000000" transform="matrix(1.00, 0.00, -0.00, -1.00, 424.1, 683.0)">.</text><text xml:space="preserve" font-family="Helvetica-Light" font-size="20.0" fill="#000000" transform="matrix(1.00, 0.00, -0.00, -1.00, 429.7, 683.0)"> </text><text xml:space="preserve" font-family="Helvetica-Light" font-size="20.0" fill="#000000" transform="matrix(1.00, 0.00, -0.00, -1.00, 435.2, 683.0)">A</text><text xml:space="preserve" font-family="Helvetica-Light" font-size="20.0" fill="#000000" transform="matrix(1.00, 0.00, -0.00, -1.00, 448.6, 683.0)">p</text><text xml:space="preserve" font-family="Helvetica-Light" font-size="20.0" fill="#000000" transform="matrix(1.00, 0.00, -0.00, -1.00, 460.8, 683.0)">p</text><text xml:space="preserve" font-family="Helvetica-Light" font-size="20.0" fill="#000000" transform="matrix(1.00, 0.00, -0.00, -1.00, 473.0, 683.0)">l</text><text xml:space="preserve" font-family="Helvetica-Light" font-size="20.0" fill="#000000" transform="matrix(1.00, 0.00, -0.00, -1.00, 477.5, 683.0)">i</text><text xml:space="preserve" font-family="Helvetica-Light" font-size="20.0" fill="#000000" transform="matrix(1.00, 0.00, -0.00, -1.00, 481.9, 683.0)">c</text><text xml:space="preserve" font-family="Helvetica-Light" font-size="20.0" fill="#000000" transform="matrix(1.00, 0.00, -0.00, -1.00, 493.0, 683.0)">a</text><text xml:space="preserve" font-family="Helvetica-Light" font-size="20.0" fill="#000000" transform="matrix(1.00, 0.00, -0.00, -1.00, 504.1, 683.0)">n</text><text xml:space="preserve" font-family="Helvetica-Light" font-size="20.0" fill="#000000" transform="matrix(1.00, 0.00, -0.00, -1.00, 515.3, 683.0)">t</text><text xml:space="preserve" font-family="Helvetica-Light" font-size="20.0" fill="#000000" transform="matrix(1.00, 0.00, -0.00, -1.00, 520.8, 683.0)"> </text><text xml:space="preserve" font-family="Helvetica-Light" font-size="20.0" fill="#000000" transform="matrix(1.00, 0.00, -0.00, -1.00, 526.4, 683.0)">P</text><text xml:space="preserve" font-family="Helvetica-Light" font-size="20.0" fill="#000000" transform="matrix(1.00, 0.00, -0.00, -1.00, 538.6, 683.0)">o</text><text xml:space="preserve" font-family="Helvetica-Light" font-size="20.0" fill="#000000" transform="matrix(1.00, 0.00, -0.00, -1.00, 549.7, 683.0)">r</text><text xml:space="preserve" font-family="Helvetica-Light" font-size="20.0" fill="#000000" transform="matrix(1.00, 0.00, -0.00, -1.00, 556.7, 683.0)">t</text><text xml:space="preserve" font-family="Helvetica-Light" font-size="20.0" fill="#000000" transform="matrix(1.00, 0.00, -0.00, -1.00, 562.3, 683.0)">a</text><text xml:space="preserve" font-family="Helvetica-Light" font-size="20.0" fill="#000000" transform="matrix(1.00, 0.00, -0.00, -1.00, 573.4, 683.0)">l</text></g></g><g><clipPath id="clip-6591"><path d="M 358.6 234.2 L 631.4 234.2 L 631.4 314.2 L 358.6 314.2 Z M 358.6 234.2 "></path></clipPath><g clip-path="url(#clip-6591)"><path d="M 360.6 248.1 L 360.6 300.3 C 360.6 306.9 366.0 312.2 372.5 312.2 L 617.5 312.2 C 624.0 312.2 629.4 306.9 629.4 300.3 L 629.4 248.1 C 629.4 241.6 624.0 236.2 617.5 236.2 L 372.5 236.2 C 366.0 236.2 360.6 241.6 360.6 248.1 Z M 360.6 248.1 " fill="#A4DAAD"></path><path d="M 0.0 64.1 L 0.0 11.9 C 0.0 5.3 5.3 0.0 11.9 0.0 L 256.8 0.0 C 263.4 0.0 268.8 5.3 268.8 11.9 L 268.8 64.1 C 268.8 70.7 263.4 76.0 256.8 76.0 L 11.9 76.0 C 5.3 76.0 0.0 70.7 0.0 64.1 Z M 0.0 64.1 " fill="none" stroke="#85878C" stroke-width="2.00" transform="matrix(1.00, 0.00, 0.00, -1.00, 360.6, 312.2)"></path></g></g><g><clipPath id="clip-6592"><path d="M 383.5 249.0 L 606.5 249.0 L 606.5 299.4 L 383.5 299.4 Z M 383.5 249.0 "></path></clipPath><g clip-path="url(#clip-6592)"><path d="M 385.5 297.4 L 604.5 297.4 L 604.5 251.0 L 385.5 251.0 Z M 385.5 297.4 " fill="#FEFFFF"></path><path d="M 0.0 0.0 L 219.1 0.0 L 219.1 46.4 L 0.0 46.4 Z M 0.0 0.0 " fill="none" stroke="#85878C" stroke-width="2.00" transform="matrix(1.00, 0.00, 0.00, -1.00, 385.5, 297.4)"></path></g></g><g><clipPath id="clip-6593"><path d="M 383.6 252.0 L 606.4 252.0 L 606.4 296.4 L 383.6 296.4 Z M 383.6 252.0 "></path></clipPath><g clip-path="url(#clip-6593)"><text xml:space="preserve" font-family="Helvetica-Light" font-size="20.0" fill="#000000" transform="matrix(1.00, 0.00, -0.00, -1.00, 430.0, 267.0)">2</text><text xml:space="preserve" font-family="Helvetica-Light" font-size="20.0" fill="#000000" transform="matrix(1.00, 0.00, -0.00, -1.00, 441.1, 267.0)">.</text><text xml:space="preserve" font-family="Helvetica-Light" font-size="20.0" fill="#000000" transform="matrix(1.00, 0.00, -0.00, -1.00, 446.7, 267.0)">4</text><text xml:space="preserve" font-family="Helvetica-Light" font-size="20.0" fill="#000000" transform="matrix(1.00, 0.00, -0.00, -1.00, 457.8, 267.0)">.</text><text xml:space="preserve" font-family="Helvetica-Light" font-size="20.0" fill="#000000" transform="matrix(1.00, 0.00, -0.00, -1.00, 463.4, 267.0)"> </text><text xml:space="preserve" font-family="Helvetica-Light" font-size="20.0" fill="#000000" transform="matrix(1.00, 0.00, -0.00, -1.00, 468.9, 267.0)">A</text><text xml:space="preserve" font-family="Helvetica-Light" font-size="20.0" fill="#000000" transform="matrix(1.00, 0.00, -0.00, -1.00, 482.3, 267.0)">p</text><text xml:space="preserve" font-family="Helvetica-Light" font-size="20.0" fill="#000000" transform="matrix(1.00, 0.00, -0.00, -1.00, 494.5, 267.0)">p</text><text xml:space="preserve" font-family="Helvetica-Light" font-size="20.0" fill="#000000" transform="matrix(1.00, 0.00, -0.00, -1.00, 506.7, 267.0)">r</text><text xml:space="preserve" font-family="Helvetica-Light" font-size="20.0" fill="#000000" transform="matrix(1.00, 0.00, -0.00, -1.00, 513.0, 267.0)">o</text><text xml:space="preserve" font-family="Helvetica-Light" font-size="20.0" fill="#000000" transform="matrix(1.00, 0.00, -0.00, -1.00, 524.1, 267.0)">v</text><text xml:space="preserve" font-family="Helvetica-Light" font-size="20.0" fill="#000000" transform="matrix(1.00, 0.00, -0.00, -1.00, 534.1, 267.0)">a</text><text xml:space="preserve" font-family="Helvetica-Light" font-size="20.0" fill="#000000" transform="matrix(1.00, 0.00, -0.00, -1.00, 545.2, 267.0)">l</text><text xml:space="preserve" font-family="Helvetica-Light" font-size="20.0" fill="#000000" transform="matrix(1.00, 0.00, -0.00, -1.00, 549.7, 267.0)">s</text></g></g><g><clipPath id="clip-6594"><path d="M 358.6 432.5 L 631.4 432.5 L 631.4 512.6 L 358.6 512.6 Z M 358.6 432.5 "></path></clipPath><g clip-path="url(#clip-6594)"><path d="M 360.6 446.5 L 360.6 498.6 C 360.6 505.2 366.0 510.6 372.5 510.6 L 617.5 510.6 C 624.0 510.6 629.4 505.2 629.4 498.6 L 629.4 446.5 C 629.4 439.9 624.0 434.5 617.5 434.5 L 372.5 434.5 C 366.0 434.5 360.6 439.9 360.6 446.5 Z M 360.6 446.5 " fill="#A4DAAD"></path><path d="M 0.0 64.1 L 0.0 11.9 C 0.0 5.3 5.3 0.0 11.9 0.0 L 256.8 0.0 C 263.4 0.0 268.8 5.3 268.8 11.9 L 268.8 64.1 C 268.8 70.7 263.4 76.0 256.8 76.0 L 11.9 76.0 C 5.3 76.0 0.0 70.7 0.0 64.1 Z M 0.0 64.1 " fill="none" stroke="#85878C" stroke-width="2.00" transform="matrix(1.00, 0.00, 0.00, -1.00, 360.6, 510.6)"></path></g></g><g><clipPath id="clip-6595"><path d="M 383.5 447.3 L 606.5 447.3 L 606.5 497.8 L 383.5 497.8 Z M 383.5 447.3 "></path></clipPath><g clip-path="url(#clip-6595)"><path d="M 385.5 495.8 L 604.5 495.8 L 604.5 449.3 L 385.5 449.3 Z M 385.5 495.8 " fill="#FEFFFF"></path><path d="M 0.0 0.0 L 219.1 0.0 L 219.1 46.4 L 0.0 46.4 Z M 0.0 0.0 " fill="none" stroke="#85878C" stroke-width="2.00" transform="matrix(1.00, 0.00, 0.00, -1.00, 385.5, 495.8)"></path></g></g><g><clipPath id="clip-6596"><path d="M 383.6 450.3 L 606.4 450.3 L 606.4 494.8 L 383.6 494.8 Z M 383.6 450.3 "></path></clipPath><g clip-path="url(#clip-6596)"><text xml:space="preserve" font-family="Helvetica-Light" font-size="20.0" fill="#000000" transform="matrix(1.00, 0.00, -0.00, -1.00, 420.0, 465.0)">2</text><text xml:space="preserve" font-family="Helvetica-Light" font-size="20.0" fill="#000000" transform="matrix(1.00, 0.00, -0.00, -1.00, 431.1, 465.0)">.</text><text xml:space="preserve" font-family="Helvetica-Light" font-size="20.0" fill="#000000" transform="matrix(1.00, 0.00, -0.00, -1.00, 436.7, 465.0)">2</text><text xml:space="preserve" font-family="Helvetica-Light" font-size="20.0" fill="#000000" transform="matrix(1.00, 0.00, -0.00, -1.00, 447.8, 465.0)">.</text><text xml:space="preserve" font-family="Helvetica-Light" font-size="20.0" fill="#000000" transform="matrix(1.00, 0.00, -0.00, -1.00, 453.4, 465.0)"> </text><text xml:space="preserve" font-family="Helvetica-Light" font-size="20.0" fill="#000000" transform="matrix(1.00, 0.00, -0.00, -1.00, 458.9, 465.0)">A</text><text xml:space="preserve" font-family="Helvetica-Light" font-size="20.0" fill="#000000" transform="matrix(1.00, 0.00, -0.00, -1.00, 472.3, 465.0)">p</text><text xml:space="preserve" font-family="Helvetica-Light" font-size="20.0" fill="#000000" transform="matrix(1.00, 0.00, -0.00, -1.00, 484.5, 465.0)">p</text><text xml:space="preserve" font-family="Helvetica-Light" font-size="20.0" fill="#000000" transform="matrix(1.00, 0.00, -0.00, -1.00, 496.7, 465.0)">l</text><text xml:space="preserve" font-family="Helvetica-Light" font-size="20.0" fill="#000000" transform="matrix(1.00, 0.00, -0.00, -1.00, 501.1, 465.0)">i</text><text xml:space="preserve" font-family="Helvetica-Light" font-size="20.0" fill="#000000" transform="matrix(1.00, 0.00, -0.00, -1.00, 505.6, 465.0)">c</text><text xml:space="preserve" font-family="Helvetica-Light" font-size="20.0" fill="#000000" transform="matrix(1.00, 0.00, -0.00, -1.00, 516.7, 465.0)">a</text><text xml:space="preserve" font-family="Helvetica-Light" font-size="20.0" fill="#000000" transform="matrix(1.00, 0.00, -0.00, -1.00, 527.8, 465.0)">t</text><text xml:space="preserve" font-family="Helvetica-Light" font-size="20.0" fill="#000000" transform="matrix(1.00, 0.00, -0.00, -1.00, 533.4, 465.0)">i</text><text xml:space="preserve" font-family="Helvetica-Light" font-size="20.0" fill="#000000" transform="matrix(1.00, 0.00, -0.00, -1.00, 537.8, 465.0)">o</text><text xml:space="preserve" font-family="Helvetica-Light" font-size="20.0" fill="#000000" transform="matrix(1.00, 0.00, -0.00, -1.00, 548.9, 465.0)">n</text><text xml:space="preserve" font-family="Helvetica-Light" font-size="20.0" fill="#000000" transform="matrix(1.00, 0.00, -0.00, -1.00, 560.1, 465.0)">s</text></g></g><g><clipPath id="clip-6597"><path d="M 358.6 332.6 L 631.4 332.6 L 631.4 412.6 L 358.6 412.6 Z M 358.6 332.6 "></path></clipPath><g clip-path="url(#clip-6597)"><path d="M 360.6 346.5 L 360.6 398.7 C 360.6 405.3 366.0 410.6 372.5 410.6 L 617.5 410.6 C 624.0 410.6 629.4 405.3 629.4 398.7 L 629.4 346.5 C 629.4 339.9 624.0 334.6 617.5 334.6 L 372.5 334.6 C 366.0 334.6 360.6 339.9 360.6 346.5 Z M 360.6 346.5 " fill="#A4DAAD"></path><path d="M 0.0 64.1 L 0.0 11.9 C 0.0 5.3 5.3 0.0 11.9 0.0 L 256.8 0.0 C 263.4 0.0 268.8 5.3 268.8 11.9 L 268.8 64.1 C 268.8 70.7 263.4 76.0 256.8 76.0 L 11.9 76.0 C 5.3 76.0 0.0 70.7 0.0 64.1 Z M 0.0 64.1 " fill="none" stroke="#85878C" stroke-width="2.00" transform="matrix(1.00, 0.00, 0.00, -1.00, 360.6, 410.6)"></path></g></g><g><clipPath id="clip-6598"><path d="M 383.5 347.4 L 606.5 347.4 L 606.5 397.8 L 383.5 397.8 Z M 383.5 347.4 "></path></clipPath><g clip-path="url(#clip-6598)"><path d="M 385.5 395.8 L 604.5 395.8 L 604.5 349.4 L 385.5 349.4 Z M 385.5 395.8 " fill="#FEFFFF"></path><path d="M 0.0 0.0 L 219.1 0.0 L 219.1 46.4 L 0.0 46.4 Z M 0.0 0.0 " fill="none" stroke="#85878C" stroke-width="2.00" transform="matrix(1.00, 0.00, 0.00, -1.00, 385.5, 395.8)"></path></g></g><g><clipPath id="clip-6599"><path d="M 383.6 350.4 L 606.4 350.4 L 606.4 394.8 L 383.6 394.8 Z M 383.6 350.4 "></path></clipPath><g clip-path="url(#clip-6599)"><text xml:space="preserve" font-family="Helvetica-Light" font-size="20.0" fill="#000000" transform="matrix(1.00, 0.00, -0.00, -1.00, 421.0, 365.0)">2</text><text xml:space="preserve" font-family="Helvetica-Light" font-size="20.0" fill="#000000" transform="matrix(1.00, 0.00, -0.00, -1.00, 432.1, 365.0)">.</text><text xml:space="preserve" font-family="Helvetica-Light" font-size="20.0" fill="#000000" transform="matrix(1.00, 0.00, -0.00, -1.00, 437.7, 365.0)">3</text><text xml:space="preserve" font-family="Helvetica-Light" font-size="20.0" fill="#000000" transform="matrix(1.00, 0.00, -0.00, -1.00, 448.8, 365.0)">.</text><text xml:space="preserve" font-family="Helvetica-Light" font-size="20.0" fill="#000000" transform="matrix(1.00, 0.00, -0.00, -1.00, 454.4, 365.0)"> </text><text xml:space="preserve" font-family="Helvetica-Light" font-size="20.0" fill="#000000" transform="matrix(1.00, 0.00, -0.00, -1.00, 459.9, 365.0)">N</text><text xml:space="preserve" font-family="Helvetica-Light" font-size="20.0" fill="#000000" transform="matrix(1.00, 0.00, -0.00, -1.00, 474.4, 365.0)">o</text><text xml:space="preserve" font-family="Helvetica-Light" font-size="20.0" fill="#000000" transform="matrix(1.00, 0.00, -0.00, -1.00, 485.5, 365.0)">t</text><text xml:space="preserve" font-family="Helvetica-Light" font-size="20.0" fill="#000000" transform="matrix(1.00, 0.00, -0.00, -1.00, 491.0, 365.0)">i</text><text xml:space="preserve" font-family="Helvetica-Light" font-size="20.0" fill="#000000" transform="matrix(1.00, 0.00, -0.00, -1.00, 495.5, 365.0)">ﬁ</text><text xml:space="preserve" font-family="Helvetica-Light" font-size="20.0" fill="#000000" transform="matrix(1.00, 0.00, -0.00, -1.00, 505.5, 365.0)">c</text><text xml:space="preserve" font-family="Helvetica-Light" font-size="20.0" fill="#000000" transform="matrix(1.00, 0.00, -0.00, -1.00, 516.6, 365.0)">a</text><text xml:space="preserve" font-family="Helvetica-Light" font-size="20.0" fill="#000000" transform="matrix(1.00, 0.00, -0.00, -1.00, 527.7, 365.0)">t</text><text xml:space="preserve" font-family="Helvetica-Light" font-size="20.0" fill="#000000" transform="matrix(1.00, 0.00, -0.00, -1.00, 533.3, 365.0)">i</text><text xml:space="preserve" font-family="Helvetica-Light" font-size="20.0" fill="#000000" transform="matrix(1.00, 0.00, -0.00, -1.00, 537.7, 365.0)">o</text><text xml:space="preserve" font-family="Helvetica-Light" font-size="20.0" fill="#000000" transform="matrix(1.00, 0.00, -0.00, -1.00, 548.8, 365.0)">n</text><text xml:space="preserve" font-family="Helvetica-Light" font-size="20.0" fill="#000000" transform="matrix(1.00, 0.00, -0.00, -1.00, 560.0, 365.0)">s</text></g></g><g><clipPath id="clip-6600"><path d="M 358.6 535.6 L 631.4 535.6 L 631.4 615.6 L 358.6 615.6 Z M 358.6 535.6 "></path></clipPath><g clip-path="url(#clip-6600)"><path d="M 360.6 549.5 L 360.6 601.7 C 360.6 608.3 366.0 613.6 372.5 613.6 L 617.5 613.6 C 624.0 613.6 629.4 608.3 629.4 601.7 L 629.4 549.5 C 629.4 542.9 624.0 537.6 617.5 537.6 L 372.5 537.6 C 366.0 537.6 360.6 542.9 360.6 549.5 Z M 360.6 549.5 " fill="#A4DAAD"></path><path d="M 0.0 64.1 L 0.0 11.9 C 0.0 5.3 5.3 0.0 11.9 0.0 L 256.8 0.0 C 263.4 0.0 268.8 5.3 268.8 11.9 L 268.8 64.1 C 268.8 70.7 263.4 76.0 256.8 76.0 L 11.9 76.0 C 5.3 76.0 0.0 70.7 0.0 64.1 Z M 0.0 64.1 " fill="none" stroke="#85878C" stroke-width="2.00" transform="matrix(1.00, 0.00, 0.00, -1.00, 360.6, 613.6)"></path></g></g><g><clipPath id="clip-6601"><path d="M 383.5 550.4 L 606.5 550.4 L 606.5 600.8 L 383.5 600.8 Z M 383.5 550.4 "></path></clipPath><g clip-path="url(#clip-6601)"><path d="M 385.5 598.8 L 604.5 598.8 L 604.5 552.4 L 385.5 552.4 Z M 385.5 598.8 " fill="#FEFFFF"></path><path d="M 0.0 0.0 L 219.1 0.0 L 219.1 46.4 L 0.0 46.4 Z M 0.0 0.0 " fill="none" stroke="#85878C" stroke-width="2.00" transform="matrix(1.00, 0.00, 0.00, -1.00, 385.5, 598.8)"></path></g></g><g><clipPath id="clip-6602"><path d="M 383.6 553.4 L 606.4 553.4 L 606.4 597.8 L 383.6 597.8 Z M 383.6 553.4 "></path></clipPath><g clip-path="url(#clip-6602)"><text xml:space="preserve" font-family="Helvetica-Light" font-size="20.0" fill="#000000" transform="matrix(1.00, 0.00, -0.00, -1.00, 425.0, 568.0)">2</text><text xml:space="preserve" font-family="Helvetica-Light" font-size="20.0" fill="#000000" transform="matrix(1.00, 0.00, -0.00, -1.00, 436.1, 568.0)">.</text><text xml:space="preserve" font-family="Helvetica-Light" font-size="20.0" fill="#000000" transform="matrix(1.00, 0.00, -0.00, -1.00, 441.7, 568.0)">1</text><text xml:space="preserve" font-family="Helvetica-Light" font-size="20.0" fill="#000000" transform="matrix(1.00, 0.00, -0.00, -1.00, 452.8, 568.0)">.</text><text xml:space="preserve" font-family="Helvetica-Light" font-size="20.0" fill="#000000" transform="matrix(1.00, 0.00, -0.00, -1.00, 458.4, 568.0)"> </text><text xml:space="preserve" font-family="Helvetica-Light" font-size="20.0" fill="#000000" transform="matrix(1.00, 0.00, -0.00, -1.00, 463.9, 568.0)">I</text><text xml:space="preserve" font-family="Helvetica-Light" font-size="20.0" fill="#000000" transform="matrix(1.00, 0.00, -0.00, -1.00, 469.5, 568.0)">n</text><text xml:space="preserve" font-family="Helvetica-Light" font-size="20.0" fill="#000000" transform="matrix(1.00, 0.00, -0.00, -1.00, 480.6, 568.0)">f</text><text xml:space="preserve" font-family="Helvetica-Light" font-size="20.0" fill="#000000" transform="matrix(1.00, 0.00, -0.00, -1.00, 486.2, 568.0)">o</text><text xml:space="preserve" font-family="Helvetica-Light" font-size="20.0" fill="#000000" transform="matrix(1.00, 0.00, -0.00, -1.00, 497.3, 568.0)">r</text><text xml:space="preserve" font-family="Helvetica-Light" font-size="20.0" fill="#000000" transform="matrix(1.00, 0.00, -0.00, -1.00, 504.3, 568.0)">m</text><text xml:space="preserve" font-family="Helvetica-Light" font-size="20.0" fill="#000000" transform="matrix(1.00, 0.00, -0.00, -1.00, 521.0, 568.0)">a</text><text xml:space="preserve" font-family="Helvetica-Light" font-size="20.0" fill="#000000" transform="matrix(1.00, 0.00, -0.00, -1.00, 532.1, 568.0)">t</text><text xml:space="preserve" font-family="Helvetica-Light" font-size="20.0" fill="#000000" transform="matrix(1.00, 0.00, -0.00, -1.00, 537.6, 568.0)">i</text><text xml:space="preserve" font-family="Helvetica-Light" font-size="20.0" fill="#000000" transform="matrix(1.00, 0.00, -0.00, -1.00, 542.1, 568.0)">o</text><text xml:space="preserve" font-family="Helvetica-Light" font-size="20.0" fill="#000000" transform="matrix(1.00, 0.00, -0.00, -1.00, 553.2, 568.0)">n</text></g></g><g><clipPath id="clip-6603"><path d="M 358.6 135.8 L 631.4 135.8 L 631.4 215.8 L 358.6 215.8 Z M 358.6 135.8 "></path></clipPath><g clip-path="url(#clip-6603)"><path d="M 360.6 149.8 L 360.6 201.9 C 360.6 208.5 366.0 213.8 372.5 213.8 L 617.5 213.8 C 624.0 213.8 629.4 208.5 629.4 201.9 L 629.4 149.8 C 629.4 143.2 624.0 137.8 617.5 137.8 L 372.5 137.8 C 366.0 137.8 360.6 143.2 360.6 149.8 Z M 360.6 149.8 " fill="#A4DAAD"></path><path d="M 0.0 64.1 L 0.0 11.9 C 0.0 5.3 5.3 0.0 11.9 0.0 L 256.8 0.0 C 263.4 0.0 268.8 5.3 268.8 11.9 L 268.8 64.1 C 268.8 70.7 263.4 76.0 256.8 76.0 L 11.9 76.0 C 5.3 76.0 0.0 70.7 0.0 64.1 Z M 0.0 64.1 " fill="none" stroke="#85878C" stroke-width="2.00" transform="matrix(1.00, 0.00, 0.00, -1.00, 360.6, 213.8)"></path></g></g><g><clipPath id="clip-6604"><path d="M 383.5 150.6 L 606.5 150.6 L 606.5 201.1 L 383.5 201.1 Z M 383.5 150.6 "></path></clipPath><g clip-path="url(#clip-6604)"><path d="M 385.5 199.1 L 604.5 199.1 L 604.5 152.6 L 385.5 152.6 Z M 385.5 199.1 " fill="#FEFFFF"></path><path d="M 0.0 0.0 L 219.1 0.0 L 219.1 46.4 L 0.0 46.4 Z M 0.0 0.0 " fill="none" stroke="#85878C" stroke-width="2.00" transform="matrix(1.00, 0.00, 0.00, -1.00, 385.5, 199.1)"></path></g></g><g><clipPath id="clip-6605"><path d="M 383.6 153.6 L 606.4 153.6 L 606.4 198.1 L 383.6 198.1 Z M 383.6 153.6 "></path></clipPath><g clip-path="url(#clip-6605)"><text xml:space="preserve" font-family="Helvetica-Light" font-size="20.0" fill="#000000" transform="matrix(1.00, 0.00, -0.00, -1.00, 431.0, 169.0)">2</text><text xml:space="preserve" font-family="Helvetica-Light" font-size="20.0" fill="#000000" transform="matrix(1.00, 0.00, -0.00, -1.00, 442.1, 169.0)">.</text><text xml:space="preserve" font-family="Helvetica-Light" font-size="20.0" fill="#000000" transform="matrix(1.00, 0.00, -0.00, -1.00, 447.7, 169.0)">5</text><text xml:space="preserve" font-family="Helvetica-Light" font-size="20.0" fill="#000000" transform="matrix(1.00, 0.00, -0.00, -1.00, 458.8, 169.0)">.</text><text xml:space="preserve" font-family="Helvetica-Light" font-size="20.0" fill="#000000" transform="matrix(1.00, 0.00, -0.00, -1.00, 464.4, 169.0)"> </text><text xml:space="preserve" font-family="Helvetica-Light" font-size="20.0" fill="#000000" transform="matrix(1.00, 0.00, -0.00, -1.00, 469.9, 169.0)">R</text><text xml:space="preserve" font-family="Helvetica-Light" font-size="20.0" fill="#000000" transform="matrix(1.00, 0.00, -0.00, -1.00, 483.3, 169.0)">e</text><text xml:space="preserve" font-family="Helvetica-Light" font-size="20.0" fill="#000000" transform="matrix(1.00, 0.00, -0.00, -1.00, 494.4, 169.0)">p</text><text xml:space="preserve" font-family="Helvetica-Light" font-size="20.0" fill="#000000" transform="matrix(1.00, 0.00, -0.00, -1.00, 506.6, 169.0)">o</text><text xml:space="preserve" font-family="Helvetica-Light" font-size="20.0" fill="#000000" transform="matrix(1.00, 0.00, -0.00, -1.00, 517.7, 169.0)">r</text><text xml:space="preserve" font-family="Helvetica-Light" font-size="20.0" fill="#000000" transform="matrix(1.00, 0.00, -0.00, -1.00, 524.7, 169.0)">t</text><text xml:space="preserve" font-family="Helvetica-Light" font-size="20.0" fill="#000000" transform="matrix(1.00, 0.00, -0.00, -1.00, 530.3, 169.0)">i</text><text xml:space="preserve" font-family="Helvetica-Light" font-size="20.0" fill="#000000" transform="matrix(1.00, 0.00, -0.00, -1.00, 534.7, 169.0)">n</text><text xml:space="preserve" font-family="Helvetica-Light" font-size="20.0" fill="#000000" transform="matrix(1.00, 0.00, -0.00, -1.00, 545.9, 169.0)">g</text></g></g><g><clipPath id="clip-6606"><path d="M 358.6 35.9 L 631.4 35.9 L 631.4 115.9 L 358.6 115.9 Z M 358.6 35.9 "></path></clipPath><g clip-path="url(#clip-6606)"><path d="M 360.6 49.8 L 360.6 102.0 C 360.6 108.6 366.0 113.9 372.5 113.9 L 617.5 113.9 C 624.0 113.9 629.4 108.6 629.4 102.0 L 629.4 49.8 C 629.4 43.2 624.0 37.9 617.5 37.9 L 372.5 37.9 C 366.0 37.9 360.6 43.2 360.6 49.8 Z M 360.6 49.8 " fill="#A4DAAD"></path><path d="M 0.0 64.1 L 0.0 11.9 C 0.0 5.3 5.3 0.0 11.9 0.0 L 256.8 0.0 C 263.4 0.0 268.8 5.3 268.8 11.9 L 268.8 64.1 C 268.8 70.7 263.4 76.0 256.8 76.0 L 11.9 76.0 C 5.3 76.0 0.0 70.7 0.0 64.1 Z M 0.0 64.1 " fill="none" stroke="#85878C" stroke-width="2.00" transform="matrix(1.00, 0.00, 0.00, -1.00, 360.6, 113.9)"></path></g></g><g><clipPath id="clip-6607"><path d="M 383.5 50.7 L 606.5 50.7 L 606.5 101.1 L 383.5 101.1 Z M 383.5 50.7 "></path></clipPath><g clip-path="url(#clip-6607)"><path d="M 385.5 99.1 L 604.5 99.1 L 604.5 52.7 L 385.5 52.7 Z M 385.5 99.1 " fill="#FEFFFF"></path><path d="M 0.0 0.0 L 219.1 0.0 L 219.1 46.4 L 0.0 46.4 Z M 0.0 0.0 " fill="none" stroke="#85878C" stroke-width="2.00" transform="matrix(1.00, 0.00, 0.00, -1.00, 385.5, 99.1)"></path></g></g><g><clipPath id="clip-6608"><path d="M 383.6 53.7 L 606.4 53.7 L 606.4 98.1 L 383.6 98.1 Z M 383.6 53.7 "></path></clipPath><g clip-path="url(#clip-6608)"><text xml:space="preserve" font-family="Helvetica-Light" font-size="20.0" fill="#000000" transform="matrix(1.00, 0.00, -0.00, -1.00, 438.0, 69.0)">2</text><text xml:space="preserve" font-family="Helvetica-Light" font-size="20.0" fill="#000000" transform="matrix(1.00, 0.00, -0.00, -1.00, 449.1, 69.0)">.</text><text xml:space="preserve" font-family="Helvetica-Light" font-size="20.0" fill="#000000" transform="matrix(1.00, 0.00, -0.00, -1.00, 454.7, 69.0)">6</text><text xml:space="preserve" font-family="Helvetica-Light" font-size="20.0" fill="#000000" transform="matrix(1.00, 0.00, -0.00, -1.00, 465.8, 69.0)">.</text><text xml:space="preserve" font-family="Helvetica-Light" font-size="20.0" fill="#000000" transform="matrix(1.00, 0.00, -0.00, -1.00, 471.4, 69.0)"> </text><text xml:space="preserve" font-family="Helvetica-Light" font-size="20.0" fill="#000000" transform="matrix(1.00, 0.00, -0.00, -1.00, 476.9, 69.0)">A</text><text xml:space="preserve" font-family="Helvetica-Light" font-size="20.0" fill="#000000" transform="matrix(1.00, 0.00, -0.00, -1.00, 490.3, 69.0)">p</text><text xml:space="preserve" font-family="Helvetica-Light" font-size="20.0" fill="#000000" transform="matrix(1.00, 0.00, -0.00, -1.00, 502.5, 69.0)">p</text><text xml:space="preserve" font-family="Helvetica-Light" font-size="20.0" fill="#000000" transform="matrix(1.00, 0.00, -0.00, -1.00, 514.7, 69.0)">e</text><text xml:space="preserve" font-family="Helvetica-Light" font-size="20.0" fill="#000000" transform="matrix(1.00, 0.00, -0.00, -1.00, 525.8, 69.0)">a</text><text xml:space="preserve" font-family="Helvetica-Light" font-size="20.0" fill="#000000" transform="matrix(1.00, 0.00, -0.00, -1.00, 536.9, 69.0)">l</text><text xml:space="preserve" font-family="Helvetica-Light" font-size="20.0" fill="#000000" transform="matrix(1.00, 0.00, -0.00, -1.00, 541.4, 69.0)">s</text></g></g><g><clipPath id="clip-6609"><path d="M 704.1 231.5 L 976.9 231.5 L 976.9 311.5 L 704.1 311.5 Z M 704.1 231.5 "></path></clipPath><g clip-path="url(#clip-6609)"><path d="M 706.1 245.5 L 706.1 297.6 C 706.1 304.2 711.5 309.5 718.0 309.5 L 963.0 309.5 C 969.5 309.5 974.9 304.2 974.9 297.6 L 974.9 245.5 C 974.9 238.9 969.5 233.5 963.0 233.5 L 718.0 233.5 C 711.5 233.5 706.1 238.9 706.1 245.5 Z M 706.1 245.5 " fill="#7BC8C5"></path><path d="M 0.0 64.1 L 0.0 11.9 C 0.0 5.3 5.3 0.0 11.9 0.0 L 256.8 0.0 C 263.4 0.0 268.8 5.3 268.8 11.9 L 268.8 64.1 C 268.8 70.7 263.4 76.0 256.8 76.0 L 11.9 76.0 C 5.3 76.0 0.0 70.7 0.0 64.1 Z M 0.0 64.1 " fill="none" stroke="#85878C" stroke-width="2.00" transform="matrix(1.00, 0.00, 0.00, -1.00, 706.1, 309.5)"></path></g></g><g><clipPath id="clip-6610"><path d="M 729.0 246.3 L 952.0 246.3 L 952.0 296.8 L 729.0 296.8 Z M 729.0 246.3 "></path></clipPath><g clip-path="url(#clip-6610)"><path d="M 731.0 294.8 L 950.0 294.8 L 950.0 248.3 L 731.0 248.3 Z M 731.0 294.8 " fill="#FEFFFF"></path><path d="M 0.0 0.0 L 219.1 0.0 L 219.1 46.4 L 0.0 46.4 Z M 0.0 0.0 " fill="none" stroke="#85878C" stroke-width="2.00" transform="matrix(1.00, 0.00, 0.00, -1.00, 731.0, 294.8)"></path></g></g><g><clipPath id="clip-6611"><path d="M 729.1 249.3 L 951.9 249.3 L 951.9 293.8 L 729.1 293.8 Z M 729.1 249.3 "></path></clipPath><g clip-path="url(#clip-6611)"><text xml:space="preserve" font-family="Helvetica-Light" font-size="20.0" fill="#000000" transform="matrix(1.00, 0.00, -0.00, -1.00, 803.0, 264.0)">T</text><text xml:space="preserve" font-family="Helvetica-Light" font-size="20.0" fill="#000000" transform="matrix(1.00, 0.00, -0.00, -1.00, 814.1, 264.0)">i</text><text xml:space="preserve" font-family="Helvetica-Light" font-size="20.0" fill="#000000" transform="matrix(1.00, 0.00, -0.00, -1.00, 818.6, 264.0)">m</text><text xml:space="preserve" font-family="Helvetica-Light" font-size="20.0" fill="#000000" transform="matrix(1.00, 0.00, -0.00, -1.00, 835.2, 264.0)">e</text><text xml:space="preserve" font-family="Helvetica-Light" font-size="20.0" fill="#000000" transform="matrix(1.00, 0.00, -0.00, -1.00, 846.3, 264.0)">l</text><text xml:space="preserve" font-family="Helvetica-Light" font-size="20.0" fill="#000000" transform="matrix(1.00, 0.00, -0.00, -1.00, 850.8, 264.0)">i</text><text xml:space="preserve" font-family="Helvetica-Light" font-size="20.0" fill="#000000" transform="matrix(1.00, 0.00, -0.00, -1.00, 855.2, 264.0)">n</text><text xml:space="preserve" font-family="Helvetica-Light" font-size="20.0" fill="#000000" transform="matrix(1.00, 0.00, -0.00, -1.00, 866.3, 264.0)">e</text></g></g><g><clipPath id="clip-6612"><path d="M 704.1 133.7 L 976.9 133.7 L 976.9 213.7 L 704.1 213.7 Z M 704.1 133.7 "></path></clipPath><g clip-path="url(#clip-6612)"><path d="M 706.1 147.6 L 706.1 199.8 C 706.1 206.4 711.5 211.7 718.0 211.7 L 963.0 211.7 C 969.5 211.7 974.9 206.4 974.9 199.8 L 974.9 147.6 C 974.9 141.0 969.5 135.7 963.0 135.7 L 718.0 135.7 C 711.5 135.7 706.1 141.0 706.1 147.6 Z M 706.1 147.6 " fill="#7BC8C5"></path><path d="M 0.0 64.1 L 0.0 11.9 C 0.0 5.3 5.3 0.0 11.9 0.0 L 256.8 0.0 C 263.4 0.0 268.8 5.3 268.8 11.9 L 268.8 64.1 C 268.8 70.7 263.4 76.0 256.8 76.0 L 11.9 76.0 C 5.3 76.0 0.0 70.7 0.0 64.1 Z M 0.0 64.1 " fill="none" stroke="#85878C" stroke-width="2.00" transform="matrix(1.00, 0.00, 0.00, -1.00, 706.1, 211.7)"></path></g></g><g><clipPath id="clip-6613"><path d="M 729.0 148.5 L 952.0 148.5 L 952.0 198.9 L 729.0 198.9 Z M 729.0 148.5 "></path></clipPath><g clip-path="url(#clip-6613)"><path d="M 731.0 196.9 L 950.0 196.9 L 950.0 150.5 L 731.0 150.5 Z M 731.0 196.9 " fill="#FEFFFF"></path><path d="M 0.0 0.0 L 219.1 0.0 L 219.1 46.4 L 0.0 46.4 Z M 0.0 0.0 " fill="none" stroke="#85878C" stroke-width="2.00" transform="matrix(1.00, 0.00, 0.00, -1.00, 731.0, 196.9)"></path></g></g><g><clipPath id="clip-6614"><path d="M 729.1 151.5 L 951.9 151.5 L 951.9 195.9 L 729.1 195.9 Z M 729.1 151.5 "></path></clipPath><g clip-path="url(#clip-6614)"><text xml:space="preserve" font-family="Helvetica-Light" font-size="20.0" fill="#000000" transform="matrix(1.00, 0.00, -0.00, -1.00, 785.0, 166.0)">N</text><text xml:space="preserve" font-family="Helvetica-Light" font-size="20.0" fill="#000000" transform="matrix(1.00, 0.00, -0.00, -1.00, 799.4, 166.0)">o</text><text xml:space="preserve" font-family="Helvetica-Light" font-size="20.0" fill="#000000" transform="matrix(1.00, 0.00, -0.00, -1.00, 810.6, 166.0)">t</text><text xml:space="preserve" font-family="Helvetica-Light" font-size="20.0" fill="#000000" transform="matrix(1.00, 0.00, -0.00, -1.00, 816.1, 166.0)">i</text><text xml:space="preserve" font-family="Helvetica-Light" font-size="20.0" fill="#000000" transform="matrix(1.00, 0.00, -0.00, -1.00, 820.6, 166.0)">ﬁ</text><text xml:space="preserve" font-family="Helvetica-Light" font-size="20.0" fill="#000000" transform="matrix(1.00, 0.00, -0.00, -1.00, 830.6, 166.0)">c</text><text xml:space="preserve" font-family="Helvetica-Light" font-size="20.0" fill="#000000" transform="matrix(1.00, 0.00, -0.00, -1.00, 841.7, 166.0)">a</text><text xml:space="preserve" font-family="Helvetica-Light" font-size="20.0" fill="#000000" transform="matrix(1.00, 0.00, -0.00, -1.00, 852.8, 166.0)">t</text><text xml:space="preserve" font-family="Helvetica-Light" font-size="20.0" fill="#000000" transform="matrix(1.00, 0.00, -0.00, -1.00, 858.4, 166.0)">i</text><text xml:space="preserve" font-family="Helvetica-Light" font-size="20.0" fill="#000000" transform="matrix(1.00, 0.00, -0.00, -1.00, 862.8, 166.0)">o</text><text xml:space="preserve" font-family="Helvetica-Light" font-size="20.0" fill="#000000" transform="matrix(1.00, 0.00, -0.00, -1.00, 873.9, 166.0)">n</text><text xml:space="preserve" font-family="Helvetica-Light" font-size="20.0" fill="#000000" transform="matrix(1.00, 0.00, -0.00, -1.00, 885.0, 166.0)">s</text></g></g><g><clipPath id="clip-6615"><path d="M 704.1 35.3 L 976.9 35.3 L 976.9 115.3 L 704.1 115.3 Z M 704.1 35.3 "></path></clipPath><g clip-path="url(#clip-6615)"><path d="M 706.1 49.2 L 706.1 101.4 C 706.1 108.0 711.5 113.3 718.0 113.3 L 963.0 113.3 C 969.5 113.3 974.9 108.0 974.9 101.4 L 974.9 49.2 C 974.9 42.7 969.5 37.3 963.0 37.3 L 718.0 37.3 C 711.5 37.3 706.1 42.7 706.1 49.2 Z M 706.1 49.2 " fill="#7BC8C5"></path><path d="M 0.0 64.1 L 0.0 11.9 C 0.0 5.3 5.3 0.0 11.9 0.0 L 256.8 0.0 C 263.4 0.0 268.8 5.3 268.8 11.9 L 268.8 64.1 C 268.8 70.7 263.4 76.0 256.8 76.0 L 11.9 76.0 C 5.3 76.0 0.0 70.7 0.0 64.1 Z M 0.0 64.1 " fill="none" stroke="#85878C" stroke-width="2.00" transform="matrix(1.00, 0.00, 0.00, -1.00, 706.1, 113.3)"></path></g></g><g><clipPath id="clip-6616"><path d="M 729.0 50.1 L 952.0 50.1 L 952.0 100.5 L 729.0 100.5 Z M 729.0 50.1 "></path></clipPath><g clip-path="url(#clip-6616)"><path d="M 731.0 98.5 L 950.0 98.5 L 950.0 52.1 L 731.0 52.1 Z M 731.0 98.5 " fill="#FEFFFF"></path><path d="M 0.0 0.0 L 219.1 0.0 L 219.1 46.4 L 0.0 46.4 Z M 0.0 0.0 " fill="none" stroke="#85878C" stroke-width="2.00" transform="matrix(1.00, 0.00, 0.00, -1.00, 731.0, 98.5)"></path></g></g><g><clipPath id="clip-6617"><path d="M 729.1 53.1 L 951.9 53.1 L 951.9 97.5 L 729.1 97.5 Z M 729.1 53.1 "></path></clipPath><g clip-path="url(#clip-6617)"><text xml:space="preserve" font-family="Helvetica-Light" font-size="20.0" fill="#000000" transform="matrix(1.00, 0.00, -0.00, -1.00, 778.0, 68.0)">F</text><text xml:space="preserve" font-family="Helvetica-Light" font-size="20.0" fill="#000000" transform="matrix(1.00, 0.00, -0.00, -1.00, 789.1, 68.0)">i</text><text xml:space="preserve" font-family="Helvetica-Light" font-size="20.0" fill="#000000" transform="matrix(1.00, 0.00, -0.00, -1.00, 793.6, 68.0)">n</text><text xml:space="preserve" font-family="Helvetica-Light" font-size="20.0" fill="#000000" transform="matrix(1.00, 0.00, -0.00, -1.00, 804.7, 68.0)">a</text><text xml:space="preserve" font-family="Helvetica-Light" font-size="20.0" fill="#000000" transform="matrix(1.00, 0.00, -0.00, -1.00, 815.8, 68.0)">l</text><text xml:space="preserve" font-family="Helvetica-Light" font-size="20.0" fill="#000000" transform="matrix(1.00, 0.00, -0.00, -1.00, 820.2, 68.0)"> </text><text xml:space="preserve" font-family="Helvetica-Light" font-size="20.0" fill="#000000" transform="matrix(1.00, 0.00, -0.00, -1.00, 825.8, 68.0)">D</text><text xml:space="preserve" font-family="Helvetica-Light" font-size="20.0" fill="#000000" transform="matrix(1.00, 0.00, -0.00, -1.00, 840.2, 68.0)">e</text><text xml:space="preserve" font-family="Helvetica-Light" font-size="20.0" fill="#000000" transform="matrix(1.00, 0.00, -0.00, -1.00, 851.4, 68.0)">c</text><text xml:space="preserve" font-family="Helvetica-Light" font-size="20.0" fill="#000000" transform="matrix(1.00, 0.00, -0.00, -1.00, 862.5, 68.0)">i</text><text xml:space="preserve" font-family="Helvetica-Light" font-size="20.0" fill="#000000" transform="matrix(1.00, 0.00, -0.00, -1.00, 866.9, 68.0)">s</text><text xml:space="preserve" font-family="Helvetica-Light" font-size="20.0" fill="#000000" transform="matrix(1.00, 0.00, -0.00, -1.00, 876.9, 68.0)">i</text><text xml:space="preserve" font-family="Helvetica-Light" font-size="20.0" fill="#000000" transform="matrix(1.00, 0.00, -0.00, -1.00, 881.4, 68.0)">o</text><text xml:space="preserve" font-family="Helvetica-Light" font-size="20.0" fill="#000000" transform="matrix(1.00, 0.00, -0.00, -1.00, 892.5, 68.0)">n</text></g></g><g><clipPath id="clip-6618"><path d="M 628.8 74.9 L 703.5 176.1 L 706.7 173.7 L 632.0 72.5 Z M 628.8 74.9 "></path></clipPath><g clip-path="url(#clip-6618)"><path d="M 0.0 0.0 L 123.8 0.0 " fill="none" stroke="#000000" stroke-width="2.00" transform="matrix(0.59, 0.80, 0.80, -0.59, 631.0, 74.5)"></path></g></g><g><clipPath id="clip-6619"><path d="M 630.0 72.5 L 705.5 72.5 L 705.5 76.5 L 630.0 76.5 Z M 630.0 72.5 "></path></clipPath><g clip-path="url(#clip-6619)"><path d="M 0.0 0.0 L 73.5 0.0 " fill="none" stroke="#000000" stroke-width="2.00" transform="matrix(1.00, 0.00, 0.00, -1.00, 631.0, 74.5)"></path></g></g><g><clipPath id="clip-6620"><path d="M 629.6 73.5 L 701.9 373.2 L 705.8 372.3 L 633.5 72.6 Z M 629.6 73.5 "></path></clipPath><g clip-path="url(#clip-6620)"><path d="M 0.0 0.0 L 306.4 0.0 " fill="none" stroke="#000000" stroke-width="2.00" transform="matrix(0.23, 0.97, 0.97, -0.23, 631.8, 74.0)"></path></g></g><g><clipPath id="clip-6621"><path d="M 704.1 329.9 L 976.9 329.9 L 976.9 409.9 L 704.1 409.9 Z M 704.1 329.9 "></path></clipPath><g clip-path="url(#clip-6621)"><path d="M 706.1 343.8 L 706.1 396.0 C 706.1 402.6 711.5 407.9 718.0 407.9 L 963.0 407.9 C 969.5 407.9 974.9 402.6 974.9 396.0 L 974.9 343.8 C 974.9 337.3 969.5 331.9 963.0 331.9 L 718.0 331.9 C 711.5 331.9 706.1 337.3 706.1 343.8 Z M 706.1 343.8 " fill="#7BC8C5"></path><path d="M 0.0 64.1 L 0.0 11.9 C 0.0 5.3 5.3 0.0 11.9 0.0 L 256.8 0.0 C 263.4 0.0 268.8 5.3 268.8 11.9 L 268.8 64.1 C 268.8 70.7 263.4 76.0 256.8 76.0 L 11.9 76.0 C 5.3 76.0 0.0 70.7 0.0 64.1 Z M 0.0 64.1 " fill="none" stroke="#85878C" stroke-width="2.00" transform="matrix(1.00, 0.00, 0.00, -1.00, 706.1, 407.9)"></path></g></g><g><clipPath id="clip-6622"><path d="M 729.0 344.7 L 952.0 344.7 L 952.0 395.1 L 729.0 395.1 Z M 729.0 344.7 "></path></clipPath><g clip-path="url(#clip-6622)"><path d="M 731.0 393.1 L 950.0 393.1 L 950.0 346.7 L 731.0 346.7 Z M 731.0 393.1 " fill="#FEFFFF"></path><path d="M 0.0 0.0 L 219.1 0.0 L 219.1 46.4 L 0.0 46.4 Z M 0.0 0.0 " fill="none" stroke="#85878C" stroke-width="2.00" transform="matrix(1.00, 0.00, 0.00, -1.00, 731.0, 393.1)"></path></g></g><g><clipPath id="clip-6623"><path d="M 729.1 347.7 L 951.9 347.7 L 951.9 392.1 L 729.1 392.1 Z M 729.1 347.7 "></path></clipPath><g clip-path="url(#clip-6623)"><text xml:space="preserve" font-family="Helvetica-Light" font-size="20.0" fill="#000000" transform="matrix(1.00, 0.00, -0.00, -1.00, 797.0, 363.0)">G</text><text xml:space="preserve" font-family="Helvetica-Light" font-size="20.0" fill="#000000" transform="matrix(1.00, 0.00, -0.00, -1.00, 812.6, 363.0)">u</text><text xml:space="preserve" font-family="Helvetica-Light" font-size="20.0" fill="#000000" transform="matrix(1.00, 0.00, -0.00, -1.00, 823.7, 363.0)">i</text><text xml:space="preserve" font-family="Helvetica-Light" font-size="20.0" fill="#000000" transform="matrix(1.00, 0.00, -0.00, -1.00, 828.1, 363.0)">d</text><text xml:space="preserve" font-family="Helvetica-Light" font-size="20.0" fill="#000000" transform="matrix(1.00, 0.00, -0.00, -1.00, 840.3, 363.0)">a</text><text xml:space="preserve" font-family="Helvetica-Light" font-size="20.0" fill="#000000" transform="matrix(1.00, 0.00, -0.00, -1.00, 851.5, 363.0)">n</text><text xml:space="preserve" font-family="Helvetica-Light" font-size="20.0" fill="#000000" transform="matrix(1.00, 0.00, -0.00, -1.00, 862.6, 363.0)">c</text><text xml:space="preserve" font-family="Helvetica-Light" font-size="20.0" fill="#000000" transform="matrix(1.00, 0.00, -0.00, -1.00, 873.7, 363.0)">e</text></g></g><path d="M 0.0 0.0 L 210.4 0.0 " fill="none" stroke="#000000" stroke-width="2.00" transform="matrix(0.35, 0.94, 0.94, -0.35, 631.0, 74.8)"></path></g></svg>