<?xml version="1.0" encoding="UTF-8" standalone="no"?><svg xmlns="http://www.w3.org/2000/svg" xmlns:xlink="http://www.w3.org/1999/xlink" clip-rule="evenodd" stroke-miterlimit="4.00" viewBox="0 0 1024 768"><desc>SVG generated by Keynote</desc><defs></defs><g transform="matrix(1.00, 0.00, -0.00, -1.00, 0.0, 768.0)"><path d="M 0.0 768.0 L 1024.0 768.0 L 1024.0 0.0 L 0.0 0.0 Z M 0.0 768.0 " fill="#FEFFFF"></path><path d="M 51.2 716.6 L 902.3 716.6 L 902.3 51.6 L 51.2 51.6 Z M 51.2 716.6 " fill="#58AFDC"></path><path d="M 920.5 532.5 L 972.4 532.5 L 972.4 51.6 L 920.5 51.6 Z M 920.5 532.5 " fill="#58AFDC"></path><path d="M 920.5 716.7 L 972.4 716.7 L 972.4 550.5 L 920.5 550.5 Z M 920.5 716.7 " fill="#94DBFE"></path><text xml:space="preserve" font-family="HelveticaNeue-Light" font-size="56.0" fill="#FFFFFF" transform="matrix(1.00, 0.00, -0.00, -1.00, 104.0, 362.0)">P</text><text xml:space="preserve" font-family="HelveticaNeue-Light" font-size="56.0" fill="#FFFFFF" transform="matrix(1.00, 0.00, -0.00, -1.00, 139.3, 362.0)">e</text><text xml:space="preserve" font-family="HelveticaNeue-Light" font-size="56.0" fill="#FFFFFF" transform="matrix(1.00, 0.00, -0.00, -1.00, 168.3, 362.0)">r</text><text xml:space="preserve" font-family="HelveticaNeue-Light" font-size="56.0" fill="#FFFFFF" transform="matrix(1.00, 0.00, -0.00, -1.00, 186.0, 362.0)">m</text><text xml:space="preserve" font-family="HelveticaNeue-Light" font-size="56.0" fill="#FFFFFF" transform="matrix(1.00, 0.00, -0.00, -1.00, 232.6, 362.0)">i</text><text xml:space="preserve" font-family="HelveticaNeue-Light" font-size="56.0" fill="#FFFFFF" transform="matrix(1.00, 0.00, -0.00, -1.00, 243.0, 362.0)">t</text><text xml:space="preserve" font-family="HelveticaNeue-Light" font-size="56.0" fill="#FFFFFF" transform="matrix(1.00, 0.00, -0.00, -1.00, 259.6, 362.0)"> </text><text xml:space="preserve" font-family="HelveticaNeue-Light" font-size="56.0" fill="#FFFFFF" transform="matrix(1.00, 0.00, -0.00, -1.00, 275.1, 362.0)">A</text><text xml:space="preserve" font-family="HelveticaNeue-Light" font-size="56.0" fill="#FFFFFF" transform="matrix(1.00, 0.00, -0.00, -1.00, 310.4, 362.0)">u</text><text xml:space="preserve" font-family="HelveticaNeue-Light" font-size="56.0" fill="#FFFFFF" transform="matrix(1.00, 0.00, -0.00, -1.00, 340.5, 362.0)">t</text><text xml:space="preserve" font-family="HelveticaNeue-Light" font-size="56.0" fill="#FFFFFF" transform="matrix(1.00, 0.00, -0.00, -1.00, 357.1, 362.0)">h</text><text xml:space="preserve" font-family="HelveticaNeue-Light" font-size="56.0" fill="#FFFFFF" transform="matrix(1.00, 0.00, -0.00, -1.00, 387.1, 362.0)">o</text><text xml:space="preserve" font-family="HelveticaNeue-Light" font-size="56.0" fill="#FFFFFF" transform="matrix(1.00, 0.00, -0.00, -1.00, 418.3, 362.0)">r</text><text xml:space="preserve" font-family="HelveticaNeue-Light" font-size="56.0" fill="#FFFFFF" transform="matrix(1.00, 0.00, -0.00, -1.00, 435.9, 362.0)">i</text><text xml:space="preserve" font-family="HelveticaNeue-Light" font-size="56.0" fill="#FFFFFF" transform="matrix(1.00, 0.00, -0.00, -1.00, 446.3, 362.0)">t</text><text xml:space="preserve" font-family="HelveticaNeue-Light" font-size="56.0" fill="#FFFFFF" transform="matrix(1.00, 0.00, -0.00, -1.00, 462.8, 362.0)">i</text><text xml:space="preserve" font-family="HelveticaNeue-Light" font-size="56.0" fill="#FFFFFF" transform="matrix(1.00, 0.00, -0.00, -1.00, 473.2, 362.0)">e</text><text xml:space="preserve" font-family="HelveticaNeue-Light" font-size="56.0" fill="#FFFFFF" transform="matrix(1.00, 0.00, -0.00, -1.00, 502.3, 362.0)">s</text></g></svg>